<svg xmlns="http://www.w3.org/2000/svg" viewBox="0 0 299.09 218.38"><style>.st1{fill:#595478}.st2{fill:#f9b990}.st3{fill:#bbccd2}.st4{fill:#231f20}.st9{fill:none}.st10{fill:#fff}.st12{enable-background:new}</style><g id="Type"><path fill="#f6f8f9" d="M8.56.44h281.6v173.12H8.56z"/><path transform="rotate(90 79.315 20.416)" class="st1" d="M71.22-47.91h16.19V88.75H71.22z"/><path transform="rotate(90 172.293 20.416)" class="st2" d="M164.2-4.42h16.19v49.67H164.2z"/><path transform="rotate(90 243.158 20.416)" class="st3" d="M235.07-25.61h16.19v92.06h-16.19z"/><path transform="rotate(90 70.792 53.019)" class="st1" d="M62.7-6.79h16.19v119.61H62.7z"/><path transform="rotate(90 162.29 53.019)" class="st2" d="M154.2 21.33h16.19v63.38H154.2z"/><path transform="rotate(90 241.493 53.019)" class="st3" d="M233.4 5.32h16.19v95.39H233.4z"/><path transform="rotate(90 44.45 86.252)" class="st1" d="M36.36 52.79h16.19v66.93H36.36z"/><path transform="rotate(90 134.812 86.252)" class="st2" d="M126.72 29.36h16.19v113.79h-16.19z"/><path transform="rotate(90 240.449 86.252)" class="st3" d="M232.36 37.51h16.19v97.48h-16.19z"/><path transform="rotate(90 44.45 119.557)" class="st1" d="M36.36 86.09h16.19v66.93H36.36z"/><path transform="rotate(90 150.012 119.557)" class="st2" d="M141.92 47.46h16.19v144.19h-16.19z"/><path transform="rotate(90 255.63 119.557)" class="st3" d="M247.54 86h16.19v67.12h-16.19z"/><path transform="rotate(90 40.23 152.8)" class="st1" d="M32.14 123.56h16.19v58.49H32.14z"/><path transform="rotate(90 134.777 152.8)" class="st2" d="M126.68 87.5h16.19v130.61h-16.19z"/><path transform="rotate(90 244.634 152.8)" class="st3" d="M236.54 108.25h16.19v89.11h-16.19z"/><path class="st4" d="M120.97 181.01v.95h-.44v-.95h-1.7l-.05-.34 1.69-2.49h.51v2.4h.57l.02.43h-.6zm-.44-2.23l-1.23 1.81h1.23v-1.81zM123.37 182.06c-.79 0-1.28-.75-1.28-1.96s.51-1.97 1.3-1.97 1.28.75 1.28 1.96-.51 1.97-1.3 1.97zm0-3.5c-.45 0-.79.45-.79 1.53 0 1.06.35 1.52.81 1.52s.79-.46.79-1.51c0-1.08-.35-1.54-.81-1.54zM259.66 182.05l-.12-.4c.89-.22 1.49-.74 1.69-1.49l-.02-.01c-.25.23-.6.38-.97.38-.59 0-1.05-.46-1.05-1.16 0-.71.48-1.25 1.22-1.25.88 0 1.3.72 1.3 1.55 0 1.04-.67 2.05-2.05 2.38zm.74-3.48c-.44 0-.73.33-.73.79 0 .47.27.74.7.74.34 0 .67-.16.84-.32.02-.07.03-.14.03-.23 0-.53-.3-.98-.84-.98zM263.64 182.06c-.79 0-1.28-.75-1.28-1.96s.51-1.97 1.3-1.97 1.28.75 1.28 1.96-.51 1.97-1.3 1.97zm0-3.5c-.45 0-.79.45-.79 1.53 0 1.06.35 1.52.81 1.52.46 0 .79-.46.79-1.51 0-1.08-.35-1.54-.81-1.54zM93.24 180.89c0 .71-.61 1.16-1.35 1.16-.37 0-.82-.11-1.06-.26l.09-.46c.23.13.6.27.98.27.44 0 .84-.23.84-.67 0-.38-.31-.65-.85-.65-.17 0-.39.02-.55.05v-.41c.74-.17 1.27-.41 1.27-.84 0-.31-.23-.52-.66-.52-.29 0-.65.14-.91.38l-.19-.44c.26-.21.69-.39 1.1-.39.68 0 1.15.34 1.15.91 0 .44-.35.77-.95.94.75.02 1.09.47 1.09.93zM95.18 182.06c-.79 0-1.28-.75-1.28-1.96s.51-1.97 1.3-1.97 1.28.75 1.28 1.96-.51 1.97-1.3 1.97zm0-3.5c-.45 0-.79.45-.79 1.53 0 1.06.35 1.52.81 1.52s.79-.46.79-1.51c0-1.08-.36-1.54-.81-1.54zM9.43 182.06c-.79 0-1.28-.75-1.28-1.96s.51-1.97 1.3-1.97 1.28.75 1.28 1.96c.01 1.21-.5 1.97-1.3 1.97zm0-3.5c-.45 0-.79.45-.79 1.53 0 1.06.35 1.52.81 1.52s.79-.46.79-1.51c0-1.08-.35-1.54-.81-1.54zM203.13 178.69l.02-.47h2.43l.05.41-1.68 3.34h-.49l1.67-3.28h-2zM207.43 182.06c-.79 0-1.28-.75-1.28-1.96s.51-1.97 1.3-1.97 1.28.75 1.28 1.96-.51 1.97-1.3 1.97zm0-3.5c-.45 0-.79.45-.79 1.53 0 1.06.35 1.52.81 1.52.46 0 .79-.46.79-1.51 0-1.08-.36-1.54-.81-1.54zM286.92 178.77l-.94.25-.02-.46 1.42-.4v3.8h-.47v-3.19zM289.8 182.06c-.79 0-1.28-.75-1.28-1.96s.51-1.97 1.3-1.97 1.28.75 1.28 1.96-.51 1.97-1.3 1.97zm0-3.5c-.45 0-.79.45-.79 1.53 0 1.06.35 1.52.81 1.52.46 0 .79-.46.79-1.51 0-1.08-.36-1.54-.81-1.54zM293 182.06c-.79 0-1.28-.75-1.28-1.96s.51-1.97 1.3-1.97 1.28.75 1.28 1.96-.51 1.97-1.3 1.97zm0-3.5c-.45 0-.79.45-.79 1.53 0 1.06.35 1.52.81 1.52s.79-.46.79-1.51c0-1.08-.35-1.54-.81-1.54zM177.05 178.14l.12.4c-.88.22-1.49.74-1.69 1.49l.02.01c.25-.23.6-.38.97-.38.59 0 1.06.46 1.06 1.16 0 .71-.49 1.25-1.23 1.25-.88 0-1.3-.72-1.3-1.55 0-1.05.66-2.05 2.05-2.38zm-.73 3.48c.44 0 .73-.33.73-.79 0-.47-.27-.74-.7-.74-.34 0-.67.16-.84.32-.02.07-.03.14-.03.23-.01.52.29.98.84.98zM179.42 182.06c-.79 0-1.28-.75-1.28-1.96s.51-1.97 1.3-1.97 1.28.75 1.28 1.96-.51 1.97-1.3 1.97zm0-3.5c-.45 0-.79.45-.79 1.53 0 1.06.35 1.52.81 1.52.46 0 .79-.46.79-1.51 0-1.08-.35-1.54-.81-1.54zM148.03 179.72c.75 0 1.3.41 1.3 1.11 0 .73-.53 1.23-1.31 1.23-.39 0-.8-.11-1.03-.26l.09-.47c.23.14.6.28.95.28.48 0 .82-.26.82-.76 0-.42-.31-.7-.85-.7-.33 0-.64.08-.8.16l-.1-.09.26-2h1.91l.02.47h-1.55l-.14 1.08c.09-.03.23-.05.43-.05zM151.29 182.06c-.79 0-1.28-.75-1.28-1.96s.51-1.97 1.3-1.97 1.28.75 1.28 1.96c.01 1.21-.5 1.97-1.3 1.97zm0-3.5c-.45 0-.79.45-.79 1.53 0 1.06.35 1.52.81 1.52s.79-.46.79-1.51c0-1.08-.35-1.54-.81-1.54zM232.4 182.06c-.86 0-1.26-.47-1.26-1.03 0-.52.41-.82.73-.97-.36-.19-.67-.43-.67-.86 0-.62.46-1.08 1.23-1.08.8 0 1.17.49 1.17 1.03 0 .46-.34.76-.65.93.38.2.71.44.71.89 0 .59-.43 1.09-1.26 1.09zm-.18-1.84c-.35.14-.61.4-.61.76 0 .4.34.65.81.65.5 0 .76-.22.76-.59 0-.43-.45-.68-.96-.82zm.19-1.67c-.48 0-.73.28-.73.6 0 .38.42.64.93.77.31-.14.52-.38.52-.71 0-.41-.32-.66-.72-.66zM235.56 182.06c-.79 0-1.28-.75-1.28-1.96s.51-1.97 1.3-1.97 1.28.75 1.28 1.96-.51 1.97-1.3 1.97zm0-3.5c-.45 0-.79.45-.79 1.53 0 1.06.35 1.52.81 1.52.46 0 .79-.46.79-1.51 0-1.08-.36-1.54-.81-1.54zM62.8 181.97l-.02-.49c1.13-1.07 1.8-1.56 1.8-2.22 0-.41-.29-.68-.71-.68-.32 0-.65.17-.89.4l-.17-.43c.23-.22.66-.42 1.1-.42.7 0 1.18.45 1.18 1.12 0 .71-.62 1.22-1.78 2.27h1.87l.02.45h-2.4zM67.09 182.06c-.79 0-1.28-.75-1.28-1.96s.51-1.97 1.3-1.97 1.28.75 1.28 1.96-.51 1.97-1.3 1.97zm0-3.5c-.45 0-.79.45-.79 1.53 0 1.06.35 1.52.81 1.52.46 0 .79-.46.79-1.51 0-1.08-.36-1.54-.81-1.54zM35.9 178.77l-.94.25-.02-.46 1.42-.4v3.8h-.46v-3.19zM38.78 182.06c-.79 0-1.28-.75-1.28-1.96s.51-1.97 1.3-1.97 1.28.75 1.28 1.96-.51 1.97-1.3 1.97zm0-3.5c-.45 0-.79.45-.79 1.53 0 1.06.35 1.52.81 1.52.46 0 .79-.46.79-1.51 0-1.08-.35-1.54-.81-1.54z"/><linearGradient id="SVGID_1_" gradientUnits="userSpaceOnUse" x1="11.514" y1="176.859" x2="11.514" y2="176.859"><stop offset="0" stop-color="#d8d8d9" stop-opacity=".25"/><stop offset=".164" stop-color="#dcdcdd" stop-opacity=".487"/><stop offset=".332" stop-color="#e8e8e9" stop-opacity=".731"/><stop offset=".502" stop-color="#fdfdfd" stop-opacity=".978"/><stop offset=".518" stop-color="#fff"/></linearGradient><path fill="url(#SVGID_1_)" d="M11.51 177.76v-1.8"/><linearGradient id="SVGID_00000103266333895644575080000016337882363590270639_" gradientUnits="userSpaceOnUse" x1="24.296" y1="176.859" x2="24.296" y2="176.859"><stop offset="0" stop-color="#d8d8d9" stop-opacity=".25"/><stop offset=".164" stop-color="#dcdcdd" stop-opacity=".487"/><stop offset=".332" stop-color="#e8e8e9" stop-opacity=".731"/><stop offset=".502" stop-color="#fdfdfd" stop-opacity=".978"/><stop offset=".518" stop-color="#fff"/></linearGradient><path fill="url(#SVGID_00000103266333895644575080000016337882363590270639_)" d="M24.3 177.76v-1.8"/><linearGradient id="SVGID_00000165942910798674574400000006272259214049895571_" gradientUnits="userSpaceOnUse" x1="37.078" y1="176.859" x2="37.078" y2="176.859"><stop offset="0" stop-color="#d8d8d9" stop-opacity=".25"/><stop offset=".164" stop-color="#dcdcdd" stop-opacity=".487"/><stop offset=".332" stop-color="#e8e8e9" stop-opacity=".731"/><stop offset=".502" stop-color="#fdfdfd" stop-opacity=".978"/><stop offset=".518" stop-color="#fff"/></linearGradient><path fill="url(#SVGID_00000165942910798674574400000006272259214049895571_)" d="M37.08 177.76v-1.8"/><linearGradient id="SVGID_00000010298835776399912040000005402559489677588360_" gradientUnits="userSpaceOnUse" x1="49.86" y1="176.859" x2="49.86" y2="176.859"><stop offset="0" stop-color="#d8d8d9" stop-opacity=".25"/><stop offset=".164" stop-color="#dcdcdd" stop-opacity=".487"/><stop offset=".332" stop-color="#e8e8e9" stop-opacity=".731"/><stop offset=".502" stop-color="#fdfdfd" stop-opacity=".978"/><stop offset=".518" stop-color="#fff"/></linearGradient><path fill="url(#SVGID_00000010298835776399912040000005402559489677588360_)" d="M49.86 177.76v-1.8"/><path class="st9" d="M12.27 3.48h105.29v6.37H12.27z"/><path class="st4" d="M15.69 8.35h-.52l-.35-.98H13.2l-.35.98h-.55l1.41-3.75h.58l1.4 3.75zM14 5.13l-.65 1.77h1.29L14 5.13zM18.92 4.61h.5v3.78h-.55l-2.01-3.06v3.02h-.5V4.61h.56l2 3.02V4.61zM20.72 8.35h-.6l1.34-1.88-1.3-1.87h.62l.98 1.47 1.01-1.47h.61l-1.31 1.83 1.36 1.91h-.64L21.76 6.8l-1.04 1.55zM24.13 8.35V4.61h.5v3.75h-.5zM25.73 8.35V4.61h2.38v.47h-1.87v1.16h1.55v.47h-1.55v1.17h1.87v.47h-2.38zM30.55 5.09v3.27h-.5V5.09h-1.31v-.48h3.13v.48h-1.32zM34.17 6.87v1.49h-.51v-1.5l-1.31-2.25h.58l1 1.75.98-1.75h.56l-1.3 2.26zM37.71 7.04c0-1.49.97-2.51 1.67-2.86l.22.31c-.65.35-1.46 1.28-1.46 2.55 0 1.26.81 2.19 1.46 2.54l-.21.32c-.72-.36-1.68-1.37-1.68-2.86zM41.7 8.35V6.63c0-.47-.18-.64-.57-.64-.29 0-.56.15-.72.3v2.06h-.49V5.6l.49-.08v.41c.25-.25.58-.41.89-.41.56 0 .89.35.89.95v1.89h-.49zM43.09 6.62l-.03-.43h2.39l-.03.43h-2.33zm-.03 1.09l.03-.43h2.33l.03.43h-2.39zM46.95 5.16l-.94.25-.02-.46 1.42-.4v3.8h-.47V5.16zM48.96 8.43l-.12-.4c.89-.22 1.49-.74 1.69-1.49l-.02-.01c-.25.23-.6.38-.97.38-.59 0-1.05-.46-1.05-1.16 0-.71.48-1.25 1.22-1.25.88 0 1.3.72 1.3 1.55 0 1.05-.66 2.06-2.05 2.38zm.74-3.47c-.44 0-.73.33-.73.79 0 .47.27.74.7.74.34 0 .67-.16.84-.32.02-.07.03-.14.03-.23 0-.53-.29-.98-.84-.98zM53.72 4.53l.12.4c-.88.22-1.49.74-1.69 1.49l.02.01c.25-.23.6-.38.97-.38.59 0 1.06.46 1.06 1.16 0 .71-.49 1.25-1.23 1.25-.88 0-1.3-.72-1.3-1.55 0-1.05.66-2.06 2.05-2.38zm-.73 3.48c.44 0 .73-.33.73-.79 0-.47-.27-.74-.7-.74-.34 0-.67.16-.84.32-.02.07-.03.14-.03.23-.01.52.29.98.84.98zM54.66 9.58c.65-.35 1.46-1.28 1.46-2.54 0-1.27-.8-2.19-1.46-2.55l.22-.31c.71.35 1.67 1.37 1.67 2.86s-.97 2.5-1.68 2.85l-.21-.31z"/><path class="st10" d="M61.81 55.34v1.27h-.59v-1.27h-2.27l-.07-.45 2.25-3.32h.68v3.2h.76l.02.57h-.78zm-.6-2.99l-1.64 2.42h1.64v-2.42zM66.3 55.18c0 .95-.82 1.55-1.8 1.55-.49 0-1.09-.15-1.42-.34l.12-.61c.3.17.8.36 1.3.36.59 0 1.12-.31 1.12-.89 0-.5-.41-.87-1.14-.87-.22 0-.52.03-.74.07v-.55c.98-.23 1.69-.55 1.69-1.12 0-.42-.31-.7-.88-.7-.39 0-.87.19-1.21.5l-.25-.58c.35-.28.92-.52 1.46-.52.9 0 1.54.45 1.54 1.22 0 .59-.46 1.02-1.27 1.26 1.04 0 1.48.6 1.48 1.22zM68.3 54.07c-.82 0-1.33-.61-1.33-1.32 0-.73.51-1.33 1.33-1.33.82 0 1.33.61 1.33 1.33-.01.72-.51 1.32-1.33 1.32zm0-2.24c-.56 0-.9.41-.9.92 0 .48.34.9.9.9s.9-.42.9-.9c-.01-.51-.34-.92-.9-.92zm-.22 4.9h-.5l3.98-5.23h.5l-3.98 5.23zm3.26.08c-.82 0-1.33-.61-1.33-1.33 0-.71.5-1.32 1.33-1.32.82 0 1.33.61 1.33 1.32-.01.72-.52 1.33-1.33 1.33zm0-2.24c-.56 0-.9.42-.9.9 0 .51.34.92.9.92s.9-.41.9-.92c-.01-.48-.34-.9-.9-.9z"/><path class="st4" d="M155.6 56.61l-.03-.65c1.51-1.42 2.41-2.09 2.41-2.96 0-.54-.39-.9-.94-.9-.42 0-.87.23-1.19.54l-.23-.58c.31-.29.88-.56 1.46-.56.94 0 1.58.6 1.58 1.49 0 .95-.82 1.62-2.37 3.02h2.49l.03.6h-3.21zM162.9 55.18c0 .95-.82 1.55-1.8 1.55-.49 0-1.09-.15-1.42-.34l.12-.61c.3.17.8.36 1.3.36.59 0 1.12-.31 1.12-.89 0-.5-.41-.87-1.14-.87-.22 0-.52.03-.74.07v-.55c.98-.23 1.69-.55 1.69-1.12 0-.42-.31-.7-.88-.7-.39 0-.87.19-1.21.5l-.25-.58c.35-.28.92-.52 1.46-.52.9 0 1.54.45 1.54 1.22 0 .59-.46 1.02-1.27 1.26 1.03 0 1.48.6 1.48 1.22zM164.89 54.07c-.82 0-1.33-.61-1.33-1.32 0-.73.51-1.33 1.33-1.33.82 0 1.33.61 1.33 1.33 0 .72-.51 1.32-1.33 1.32zm0-2.24c-.56 0-.9.41-.9.92 0 .48.34.9.9.9s.9-.42.9-.9c-.01-.51-.34-.92-.9-.92zm-.22 4.9h-.5l3.98-5.23h.5l-3.98 5.23zm3.26.08c-.82 0-1.33-.61-1.33-1.33 0-.71.5-1.32 1.33-1.32.82 0 1.33.61 1.33 1.32-.01.72-.52 1.33-1.33 1.33zm0-2.24c-.56 0-.9.42-.9.9 0 .51.34.92.9.92s.9-.41.9-.92c-.01-.48-.34-.9-.9-.9z"/><g><path class="st4" d="M236.47 55.18c0 .95-.82 1.55-1.8 1.55-.49 0-1.09-.15-1.42-.34l.12-.61c.3.17.8.36 1.3.36.59 0 1.12-.31 1.12-.89 0-.5-.41-.87-1.14-.87-.22 0-.52.03-.74.07v-.55c.98-.23 1.69-.55 1.69-1.12 0-.42-.31-.7-.88-.7-.39 0-.87.19-1.21.5l-.25-.58c.35-.28.92-.52 1.46-.52.9 0 1.54.45 1.54 1.22 0 .59-.46 1.02-1.27 1.26 1.03 0 1.48.6 1.48 1.22zM240.19 55.34v1.27h-.59v-1.27h-2.27l-.07-.45 2.25-3.32h.68v3.2h.76l.02.57h-.78zm-.59-2.99l-1.64 2.42h1.64v-2.42zM242.57 54.07c-.82 0-1.33-.61-1.33-1.32 0-.73.51-1.33 1.33-1.33.82 0 1.33.61 1.33 1.33 0 .72-.51 1.32-1.33 1.32zm0-2.24c-.56 0-.9.41-.9.92 0 .48.34.9.9.9s.9-.42.9-.9c0-.51-.34-.92-.9-.92zm-.22 4.9h-.5l3.98-5.23h.5l-3.98 5.23zm3.26.08c-.82 0-1.33-.61-1.33-1.33 0-.71.5-1.32 1.33-1.32.82 0 1.33.61 1.33 1.32 0 .72-.52 1.33-1.33 1.33zm0-2.24c-.56 0-.9.42-.9.9 0 .51.34.92.9.92s.9-.41.9-.92c-.01-.48-.34-.9-.9-.9z"/></g><g><path class="st9" d="M12.27 35.76h105.29v6.37H12.27z"/><path class="st4" d="M13.85 40.64h-1.1v-3.75h1.13c1.24 0 1.98.73 1.98 1.85 0 1.15-.72 1.9-2.01 1.9zm0-3.28h-.59v2.8h.62c.89 0 1.48-.47 1.48-1.39-.01-.92-.56-1.41-1.51-1.41zM16.76 40.64v-3.75h2.38v.47h-1.87v1.16h1.55v.47h-1.55v1.17h1.87v.47h-2.38zM20.99 39.39l-.49.01v1.24h-.51v-3.75h1.04c1.03 0 1.49.51 1.49 1.21-.01.85-.59 1.28-1.53 1.29zm.01-2.03h-.5v1.55l.55-.01c.63-.01.95-.29.95-.78 0-.5-.33-.76-1-.76zM23.81 40.64h-.51v-3.75h1.12c.91 0 1.38.43 1.38 1.1 0 .56-.33.91-.85 1.08l1.01 1.57h-.61l-.91-1.49-.64.04v1.45zm.62-1.92c.49-.02.86-.25.86-.71 0-.44-.36-.65-.93-.65h-.55v1.39l.62-.03zM26.73 40.64v-3.75h2.38v.47h-1.87v1.16h1.55v.47h-1.55v1.17h1.87v.47h-2.38zM31.86 39.64c0-.38-.29-.53-.9-.69-.53-.14-1.12-.37-1.12-1.1 0-.63.51-1.06 1.25-1.06.43 0 .82.11 1.18.33l-.18.44c-.29-.19-.66-.31-1-.31-.54 0-.76.25-.76.56 0 .38.32.51.91.67.55.14 1.1.41 1.1 1.12 0 .65-.53 1.12-1.32 1.12-.44 0-.89-.13-1.25-.35l.17-.46c.32.21.66.36 1.1.36.48 0 .82-.26.82-.63zM35.03 39.64c0-.38-.29-.53-.9-.69-.53-.14-1.12-.37-1.12-1.1 0-.63.51-1.06 1.25-1.06.43 0 .82.11 1.18.33l-.18.44c-.29-.19-.66-.31-1-.31-.54 0-.76.25-.76.56 0 .38.32.51.91.67.55.14 1.1.41 1.1 1.12 0 .65-.53 1.12-1.32 1.12-.44 0-.89-.13-1.25-.35l.17-.46c.32.21.66.36 1.1.36.48 0 .82-.26.82-.63zM36.43 40.64v-3.75h.5v3.75h-.5zM39.73 40.73c-1.1 0-1.88-.77-1.88-1.95 0-1.12.78-1.97 1.88-1.97 1.1 0 1.88.76 1.88 1.95.01 1.11-.77 1.97-1.88 1.97zm-.01-3.48c-.8 0-1.36.59-1.36 1.49 0 .92.56 1.52 1.38 1.52.8 0 1.36-.6 1.36-1.5.01-.91-.56-1.51-1.38-1.51zM45.08 36.89h.5v3.78h-.55l-2.01-3.06v3.02h-.5v-3.75h.56l2 3.02v-3.01zM48.24 39.32c0-1.49.97-2.51 1.67-2.86l.22.31c-.65.35-1.46 1.28-1.46 2.55 0 1.26.81 2.19 1.46 2.54l-.21.31c-.72-.35-1.68-1.35-1.68-2.85zM52.23 40.64v-1.73c0-.47-.18-.64-.57-.64-.29 0-.56.15-.72.3v2.06h-.49v-2.76l.49-.08v.41c.25-.25.58-.41.89-.41.56 0 .89.35.89.95v1.89h-.49zM53.62 38.9l-.03-.43h2.39l-.03.43h-2.33zm-.03 1.09l.03-.43h2.33l.03.43h-2.39zM57.47 37.44l-.94.25-.02-.46 1.42-.4v3.8h-.47v-3.19zM61.11 36.81l.12.4c-.88.22-1.49.74-1.69 1.49l.02.01c.25-.23.6-.38.97-.38.59 0 1.06.46 1.06 1.16 0 .71-.49 1.25-1.23 1.25-.88 0-1.3-.72-1.3-1.55 0-1.05.67-2.06 2.05-2.38zm-.73 3.48c.44 0 .73-.33.73-.79 0-.47-.27-.74-.7-.74-.34 0-.67.16-.84.32-.02.07-.03.14-.03.23-.01.52.29.98.84.98zM64.29 36.81l.12.4c-.88.22-1.49.74-1.69 1.49l.02.01c.25-.23.6-.38.97-.38.59 0 1.06.46 1.06 1.16 0 .71-.49 1.25-1.23 1.25-.88 0-1.3-.72-1.3-1.55 0-1.05.67-2.06 2.05-2.38zm-.73 3.48c.44 0 .73-.33.73-.79 0-.47-.27-.74-.7-.74-.34 0-.67.16-.84.32-.02.07-.03.14-.03.23-.01.52.29.98.84.98zM65.24 41.87c.65-.35 1.46-1.28 1.46-2.54 0-1.27-.8-2.19-1.46-2.55l.22-.31c.71.35 1.67 1.37 1.67 2.86s-.97 2.5-1.68 2.85l-.21-.31z"/></g><g><path class="st10" d="M37.91 89.56l-.03-.65c1.51-1.42 2.41-2.09 2.41-2.96 0-.54-.39-.9-.94-.9-.42 0-.87.23-1.19.54l-.23-.58c.31-.29.88-.56 1.46-.56.94 0 1.58.6 1.58 1.49 0 .95-.82 1.62-2.37 3.02h2.49l.03.6h-3.21zM44.52 88.29v1.27h-.59v-1.27h-2.27l-.07-.45 2.25-3.32h.68v3.2h.76l.02.57h-.78zm-.59-2.98l-1.64 2.42h1.64v-2.42zM46.9 87.03c-.82 0-1.33-.61-1.33-1.32 0-.73.51-1.33 1.33-1.33.82 0 1.33.61 1.33 1.33 0 .71-.51 1.32-1.33 1.32zm0-2.24c-.56 0-.9.41-.9.92 0 .48.34.9.9.9s.9-.42.9-.9c0-.52-.34-.92-.9-.92zm-.21 4.89h-.5l3.98-5.23h.5l-3.98 5.23zm3.25.08c-.82 0-1.33-.61-1.33-1.33 0-.71.5-1.32 1.33-1.32.82 0 1.33.61 1.33 1.32 0 .72-.52 1.33-1.33 1.33zm0-2.24c-.56 0-.9.42-.9.9 0 .51.34.92.9.92s.9-.41.9-.92c-.01-.48-.34-.9-.9-.9z"/></g><g><path class="st4" d="M130.91 88.29v1.27h-.59v-1.27h-2.27l-.07-.45 2.25-3.32h.68v3.2h.76l.02.57h-.78zm-.59-2.98l-1.64 2.42h1.64v-2.42zM133.51 85.3l-1.25.34-.02-.61 1.89-.53v5.06h-.62V85.3zM136.74 87.03c-.82 0-1.33-.61-1.33-1.32 0-.73.51-1.33 1.33-1.33.82 0 1.33.61 1.33 1.33 0 .71-.51 1.32-1.33 1.32zm0-2.24c-.56 0-.9.41-.9.92 0 .48.34.9.9.9s.9-.42.9-.9c-.01-.52-.34-.92-.9-.92zm-.22 4.89h-.5l3.98-5.23h.5l-3.98 5.23zm3.26.08c-.82 0-1.33-.61-1.33-1.33 0-.71.5-1.32 1.33-1.32.82 0 1.33.61 1.33 1.32-.01.72-.52 1.33-1.33 1.33zm0-2.24c-.56 0-.9.42-.9.9 0 .51.34.92.9.92s.9-.41.9-.92c-.01-.48-.34-.9-.9-.9z"/></g><g><path class="st4" d="M237 88.13c0 .95-.82 1.55-1.8 1.55-.49 0-1.09-.15-1.42-.34l.12-.61c.3.17.8.36 1.3.36.59 0 1.12-.31 1.12-.89 0-.5-.41-.87-1.14-.87-.22 0-.52.03-.74.07v-.54c.98-.23 1.69-.55 1.69-1.12 0-.42-.31-.7-.88-.7-.39 0-.87.19-1.21.5l-.25-.58c.35-.28.92-.52 1.46-.52.9 0 1.54.45 1.54 1.22 0 .59-.46 1.02-1.27 1.26 1.03-.01 1.48.59 1.48 1.21zM239.22 86.56c1 0 1.73.54 1.73 1.48 0 .97-.71 1.64-1.74 1.64-.52 0-1.06-.15-1.38-.34l.12-.62c.31.19.8.37 1.26.37.64 0 1.09-.34 1.09-1.01 0-.56-.41-.94-1.13-.94-.44 0-.85.1-1.07.22l-.14-.12.34-2.67h2.55l.02.62h-2.06l-.18 1.44c.14-.04.32-.07.59-.07zM243 87.03c-.82 0-1.33-.61-1.33-1.32 0-.73.51-1.33 1.33-1.33.82 0 1.33.61 1.33 1.33-.01.71-.51 1.32-1.33 1.32zm0-2.24c-.56 0-.9.41-.9.92 0 .48.34.9.9.9s.9-.42.9-.9c-.01-.52-.34-.92-.9-.92zm-.22 4.89h-.5l3.98-5.23h.5l-3.98 5.23zm3.26.08c-.82 0-1.33-.61-1.33-1.33 0-.71.5-1.32 1.33-1.32.82 0 1.33.61 1.33 1.32-.01.72-.52 1.33-1.33 1.33zm0-2.24c-.56 0-.9.42-.9.9 0 .51.34.92.9.92s.9-.41.9-.92c-.01-.48-.34-.9-.9-.9z"/></g><g><path class="st9" d="M12.27 68.85h105.29v6.37H12.27z"/><path class="st4" d="M14.57 72.73c0-.38-.29-.53-.9-.69-.53-.14-1.12-.37-1.12-1.1 0-.63.51-1.06 1.25-1.06.43 0 .82.11 1.18.33l-.18.44c-.29-.19-.66-.31-1-.31-.54 0-.76.25-.76.56 0 .38.32.51.91.67.55.14 1.1.41 1.1 1.12 0 .65-.53 1.12-1.32 1.12-.44 0-.89-.13-1.25-.35l.18-.46c.32.21.66.36 1.1.36.47 0 .81-.25.81-.63zM17.38 73.82c-.94 0-1.46-.58-1.46-1.48v-2.36h.5v2.28c0 .68.32 1.08.99 1.08.58 0 .94-.34.94-1.04v-2.31h.5v2.3c0 .94-.49 1.53-1.47 1.53zM22.61 72.67c0 .64-.43 1.06-1.39 1.06h-1.28v-3.75h1.24c.91 0 1.31.41 1.31 1 0 .38-.22.67-.64.82.5.12.76.45.76.87zm-1.38-2.22h-.77v1.18h.7c.54 0 .83-.24.83-.61-.01-.36-.27-.57-.76-.57zm-.04 1.64h-.74v1.18h.82c.56 0 .83-.2.83-.59 0-.44-.38-.59-.91-.59zM25.32 72.73c0-.38-.29-.53-.9-.69-.53-.14-1.12-.37-1.12-1.1 0-.63.51-1.06 1.25-1.06.43 0 .82.11 1.18.33l-.18.44c-.29-.19-.66-.31-1-.31-.54 0-.76.25-.76.56 0 .38.32.51.91.67.55.14 1.1.41 1.1 1.12 0 .65-.53 1.12-1.32 1.12-.44 0-.89-.13-1.25-.35l.18-.46c.32.21.66.36 1.1.36.47 0 .81-.25.81-.63zM28.2 70.46v3.27h-.5v-3.27h-1.31v-.48h3.13v.48H28.2zM32.83 73.73h-.52l-.35-.98h-1.62l-.35.98h-.53l1.41-3.75h.58l1.38 3.75zm-1.68-3.22l-.65 1.77h1.29l-.64-1.77zM36.07 69.98h.5v3.78h-.55l-2.01-3.06v3.02h-.5v-3.75h.56l2 3.02v-3.01zM40.38 70.67c-.33-.22-.64-.32-1.03-.32-.82 0-1.36.56-1.36 1.49 0 .93.55 1.52 1.37 1.52.4 0 .8-.16 1.06-.37l.08.51c-.31.19-.74.31-1.16.31-1.1 0-1.88-.76-1.88-1.95s.79-1.97 1.88-1.97c.43 0 .88.12 1.19.31l-.15.47zM41.39 73.73v-3.75h2.38v.47H41.9v1.16h1.55v.47H41.9v1.17h1.87v.47h-2.38zM48.83 73.73h-.52l-.35-.98h-1.62l-.35.98h-.53l1.41-3.75h.58l1.38 3.75zm-1.68-3.22l-.65 1.77h1.29l-.64-1.77zM52.18 72.67c0 .64-.43 1.06-1.39 1.06h-1.28v-3.75h1.24c.91 0 1.31.41 1.31 1 0 .38-.22.67-.64.82.49.12.76.45.76.87zm-1.39-2.22h-.77v1.18h.7c.54 0 .83-.24.83-.61 0-.36-.27-.57-.76-.57zm-.03 1.64h-.74v1.18h.82c.56 0 .83-.2.83-.59 0-.44-.39-.59-.91-.59zM54.51 73.82c-.94 0-1.46-.58-1.46-1.48v-2.36h.5v2.28c0 .68.32 1.08.99 1.08.58 0 .94-.34.94-1.04v-2.31h.5v2.3c0 .94-.49 1.53-1.47 1.53zM58.88 72.73c0-.38-.29-.53-.9-.69-.53-.14-1.12-.37-1.12-1.1 0-.63.51-1.06 1.25-1.06.43 0 .82.11 1.18.33l-.18.44c-.29-.19-.66-.31-1-.31-.54 0-.76.25-.76.56 0 .38.32.51.91.67.55.14 1.1.41 1.1 1.12 0 .65-.53 1.12-1.32 1.12-.44 0-.89-.13-1.25-.35l.18-.46c.32.21.66.36 1.1.36.47 0 .81-.25.81-.63zM60.26 73.73v-3.75h2.38v.47h-1.87v1.16h1.55v.47h-1.55v1.17h1.87v.47h-2.38zM65.1 72.42c0-1.49.97-2.51 1.67-2.86l.22.31c-.65.35-1.46 1.28-1.46 2.55 0 1.26.81 2.19 1.46 2.54l-.21.31c-.71-.35-1.68-1.36-1.68-2.85zM69.09 73.73V72c0-.47-.18-.64-.57-.64-.29 0-.56.15-.72.3v2.06h-.49v-2.76l.49-.08v.41c.25-.25.58-.41.89-.41.56 0 .89.35.89.95v1.89h-.49zM70.49 71.99l-.03-.43h2.39l-.03.43h-2.33zm-.03 1.09l.03-.43h2.33l.03.43h-2.39zM74.34 70.53l-.94.25-.02-.46 1.42-.4v3.8h-.47v-3.19zM77.03 70.53l-.94.25-.02-.46 1.42-.4v3.8h-.47v-3.19zM79.9 73.82c-.79 0-1.28-.75-1.28-1.96s.51-1.97 1.3-1.97 1.28.75 1.28 1.96-.51 1.97-1.3 1.97zm0-3.5c-.45 0-.79.45-.79 1.53 0 1.06.35 1.52.81 1.52.46 0 .79-.46.79-1.51 0-1.07-.35-1.54-.81-1.54zM81.54 74.96c.66-.36 1.46-1.28 1.46-2.54 0-1.27-.8-2.19-1.46-2.55l.22-.31c.71.35 1.67 1.37 1.67 2.86s-.97 2.5-1.68 2.85l-.21-.31z"/></g><g><path class="st10" d="M37.91 122.75l-.03-.65c1.51-1.42 2.41-2.09 2.41-2.96 0-.54-.39-.9-.94-.9-.42 0-.87.23-1.19.54l-.23-.58c.31-.29.88-.56 1.46-.56.94 0 1.58.6 1.58 1.49 0 .95-.82 1.62-2.37 3.02h2.49l.03.6h-3.21zM44.52 121.48v1.27h-.59v-1.27h-2.27l-.07-.45 2.25-3.32h.68v3.2h.76l.02.57h-.78zm-.59-2.98l-1.64 2.42h1.64v-2.42zM46.9 120.22c-.82 0-1.33-.61-1.33-1.32 0-.73.51-1.33 1.33-1.33.82 0 1.33.61 1.33 1.33 0 .71-.5 1.32-1.33 1.32zm0-2.24c-.56 0-.9.41-.9.92 0 .48.34.9.9.9s.9-.42.9-.9c0-.51-.34-.92-.9-.92zm-.21 4.89h-.5l3.98-5.23h.5l-3.98 5.23zm3.25.08c-.82 0-1.33-.61-1.33-1.33 0-.71.5-1.32 1.33-1.32.82 0 1.33.61 1.33 1.32 0 .72-.51 1.33-1.33 1.33zm0-2.24c-.56 0-.9.42-.9.9 0 .51.34.92.9.92s.9-.41.9-.92c0-.47-.34-.9-.9-.9z"/></g><g><path class="st4" d="M145.6 119.75c1 0 1.73.54 1.73 1.48 0 .97-.71 1.64-1.74 1.64-.52 0-1.06-.15-1.38-.34l.12-.62c.31.19.8.37 1.26.37.64 0 1.09-.34 1.09-1.01 0-.56-.41-.94-1.13-.94-.44 0-.85.1-1.07.22l-.14-.12.34-2.67h2.55l.02.62h-2.06l-.18 1.44c.14-.04.33-.07.59-.07zM148.23 122.75l-.03-.65c1.51-1.42 2.41-2.09 2.41-2.96 0-.54-.39-.9-.94-.9-.42 0-.87.23-1.19.54l-.23-.58c.31-.29.88-.56 1.46-.56.94 0 1.58.6 1.58 1.49 0 .95-.82 1.62-2.37 3.02h2.49l.03.6h-3.21zM153.43 120.22c-.82 0-1.33-.61-1.33-1.32 0-.73.51-1.33 1.33-1.33.82 0 1.33.61 1.33 1.33 0 .71-.51 1.32-1.33 1.32zm0-2.24c-.56 0-.9.41-.9.92 0 .48.34.9.9.9s.9-.42.9-.9c0-.51-.34-.92-.9-.92zm-.22 4.89h-.5l3.98-5.23h.5l-3.98 5.23zm3.26.08c-.82 0-1.33-.61-1.33-1.33 0-.71.5-1.32 1.33-1.32.82 0 1.33.61 1.33 1.32 0 .72-.52 1.33-1.33 1.33zm0-2.24c-.56 0-.9.42-.9.9 0 .51.34.92.9.92s.9-.41.9-.92c-.01-.47-.34-.9-.9-.9z"/></g><g><path class="st4" d="M248.27 122.75l-.03-.65c1.51-1.42 2.41-2.09 2.41-2.96 0-.54-.39-.9-.94-.9-.42 0-.87.23-1.19.54l-.23-.58c.31-.29.88-.56 1.46-.56.94 0 1.58.6 1.58 1.49 0 .95-.82 1.62-2.37 3.02h2.49l.03.6h-3.21zM254.88 121.48v1.27h-.59v-1.27h-2.27l-.07-.45 2.25-3.32h.68v3.2h.76l.02.57h-.78zm-.59-2.98l-1.64 2.42h1.64v-2.42zM257.26 120.22c-.82 0-1.33-.61-1.33-1.32 0-.73.51-1.33 1.33-1.33.82 0 1.33.61 1.33 1.33 0 .71-.51 1.32-1.33 1.32zm0-2.24c-.56 0-.9.41-.9.92 0 .48.34.9.9.9s.9-.42.9-.9c-.01-.51-.34-.92-.9-.92zm-.22 4.89h-.5l3.98-5.23h.5l-3.98 5.23zm3.26.08c-.82 0-1.33-.61-1.33-1.33 0-.71.5-1.32 1.33-1.32.82 0 1.33.61 1.33 1.32-.01.72-.52 1.33-1.33 1.33zm0-2.24c-.56 0-.9.42-.9.9 0 .51.34.92.9.92s.9-.41.9-.92c-.01-.47-.34-.9-.9-.9z"/></g><g><path class="st9" d="M12.27 102.18h105.29v6.37H12.27z"/><path class="st4" d="M13.75 105.81l-.49.01v1.24h-.51v-3.75h1.04c1.03 0 1.49.51 1.49 1.21-.01.85-.6 1.28-1.53 1.29zm.01-2.02h-.5v1.55l.55-.01c.63-.01.95-.29.95-.78 0-.51-.33-.76-1-.76zM17.6 103.79v3.27h-.5v-3.27h-1.31v-.48h3.13v.48H17.6zM21.52 106.06c0-.38-.29-.53-.9-.69-.53-.14-1.12-.37-1.12-1.1 0-.63.51-1.06 1.25-1.06.43 0 .82.11 1.18.33l-.18.46c-.29-.19-.66-.31-1-.31-.54 0-.76.25-.76.56 0 .38.32.51.91.67.55.14 1.1.41 1.1 1.12 0 .65-.53 1.12-1.32 1.12-.44 0-.89-.13-1.25-.35l.17-.46c.32.21.66.36 1.1.36.48-.02.82-.27.82-.65zM24 107.06h-1.1v-3.75h1.13c1.24 0 1.98.73 1.98 1.85 0 1.16-.72 1.9-2.01 1.9zm0-3.27h-.59v2.8h.62c.89 0 1.48-.47 1.48-1.39-.01-.93-.56-1.41-1.51-1.41zM28.47 105.75c0-1.49.97-2.51 1.67-2.86l.22.31c-.65.35-1.46 1.28-1.46 2.55 0 1.26.81 2.19 1.46 2.54l-.21.31c-.72-.35-1.68-1.36-1.68-2.85zM32.46 107.06v-1.73c0-.47-.18-.64-.57-.64-.29 0-.56.15-.72.3v2.06h-.49v-2.76l.49-.08v.41c.25-.25.58-.41.89-.41.56 0 .89.35.89.95v1.89h-.49zM33.85 105.32l-.03-.43h2.39l-.03.43h-2.33zm-.03 1.09l.03-.43h2.33l.03.43h-2.39zM37.97 104.81c.75 0 1.3.41 1.3 1.11 0 .73-.53 1.23-1.31 1.23-.39 0-.8-.11-1.03-.26l.09-.47c.23.14.6.28.95.28.48 0 .82-.26.82-.76 0-.42-.31-.7-.85-.7-.33 0-.64.08-.8.16l-.1-.09.26-2h1.91l.02.47h-1.55l-.14 1.08c.09-.03.23-.05.43-.05zM41 104.81c.75 0 1.3.41 1.3 1.11 0 .73-.53 1.23-1.31 1.23-.39 0-.8-.11-1.03-.26l.09-.47c.23.14.6.28.95.28.48 0 .82-.26.82-.76 0-.42-.31-.7-.85-.7-.33 0-.64.08-.8.16l-.1-.09.26-2h1.91l.02.47H40.7l-.14 1.08c.1-.03.24-.05.44-.05zM42.94 108.29c.65-.35 1.46-1.28 1.46-2.54 0-1.27-.8-2.19-1.46-2.55l.22-.31c.71.35 1.67 1.37 1.67 2.86s-.97 2.5-1.68 2.85l-.21-.31z"/></g><g><path class="st10" d="M33.9 155.85l-.03-.65c1.51-1.42 2.41-2.09 2.41-2.96 0-.54-.39-.9-.94-.9-.42 0-.87.23-1.19.54l-.23-.58c.31-.29.88-.56 1.46-.56.94 0 1.58.6 1.58 1.49 0 .95-.82 1.62-2.37 3.02h2.49l.03.6H33.9zM39.37 151.58l-1.25.34-.02-.61 1.9-.53v5.06h-.62v-4.26zM42.59 153.31c-.82 0-1.33-.61-1.33-1.32 0-.73.51-1.33 1.33-1.33.82 0 1.33.61 1.33 1.33 0 .71-.5 1.32-1.33 1.32zm0-2.24c-.56 0-.9.41-.9.92 0 .48.34.9.9.9s.9-.42.9-.9c0-.51-.34-.92-.9-.92zm-.21 4.9h-.5l3.98-5.23h.5l-3.98 5.23zm3.25.07c-.82 0-1.33-.61-1.33-1.33 0-.71.5-1.32 1.33-1.32.82 0 1.33.61 1.33 1.32 0 .73-.51 1.33-1.33 1.33zm0-2.23c-.56 0-.9.42-.9.9 0 .51.34.92.9.92s.9-.41.9-.92c0-.48-.34-.9-.9-.9z"/></g><g><path class="st4" d="M130.6 154.57v1.27h-.6v-1.27h-2.27l-.07-.45 2.25-3.32h.68v3.2h.76l.02.57h-.77zm-.6-2.98l-1.64 2.42H130v-2.42zM131.7 151.47l.02-.62h3.24l.07.54-2.24 4.45h-.66l2.22-4.37h-2.65zM137.05 153.31c-.82 0-1.33-.61-1.33-1.32 0-.73.51-1.33 1.33-1.33.82 0 1.33.61 1.33 1.33 0 .71-.51 1.32-1.33 1.32zm0-2.24c-.56 0-.9.41-.9.92 0 .48.34.9.9.9s.9-.42.9-.9c0-.51-.34-.92-.9-.92zm-.22 4.9h-.5l3.98-5.23h.5l-3.98 5.23zm3.26.07c-.82 0-1.33-.61-1.33-1.33 0-.71.5-1.32 1.33-1.32.82 0 1.33.61 1.33 1.32 0 .73-.52 1.33-1.33 1.33zm0-2.23c-.56 0-.9.42-.9.9 0 .51.34.92.9.92s.9-.41.9-.92c-.01-.48-.34-.9-.9-.9z"/></g><g><path class="st4" d="M240.04 154.41c0 .95-.82 1.55-1.8 1.55-.49 0-1.09-.15-1.42-.34l.12-.61c.3.17.8.36 1.3.36.59 0 1.12-.31 1.12-.89 0-.5-.41-.87-1.14-.87-.22 0-.52.03-.74.07v-.54c.98-.23 1.69-.55 1.69-1.12 0-.42-.31-.7-.88-.7-.39 0-.87.19-1.21.5l-.25-.58c.35-.28.92-.52 1.46-.52.9 0 1.54.45 1.54 1.22 0 .59-.46 1.02-1.27 1.26 1.03 0 1.48.6 1.48 1.21zM240.89 155.85l-.03-.65c1.51-1.42 2.41-2.09 2.41-2.96 0-.54-.39-.9-.94-.9-.42 0-.87.23-1.19.54l-.23-.58c.31-.29.88-.56 1.46-.56.94 0 1.58.6 1.58 1.49 0 .95-.82 1.62-2.37 3.02h2.49l.03.6h-3.21zM246.1 153.31c-.82 0-1.33-.61-1.33-1.32 0-.73.51-1.33 1.33-1.33.82 0 1.33.61 1.33 1.33-.01.71-.51 1.32-1.33 1.32zm0-2.24c-.56 0-.9.41-.9.92 0 .48.34.9.9.9s.9-.42.9-.9c-.01-.51-.34-.92-.9-.92zm-.22 4.9h-.5l3.98-5.23h.5l-3.98 5.23zm3.26.07c-.82 0-1.33-.61-1.33-1.33 0-.71.5-1.32 1.33-1.32.82 0 1.33.61 1.33 1.32-.01.73-.52 1.33-1.33 1.33zm0-2.23c-.56 0-.9.42-.9.9 0 .51.34.92.9.92s.9-.41.9-.92c-.01-.48-.35-.9-.9-.9z"/></g><g><path class="st9" d="M12.27 136.08h105.29v6.37H12.27z"/><path class="st4" d="M15.69 140.96h-.52l-.35-.98H13.2l-.35.98h-.55l1.41-3.75h.58l1.4 3.75zM14 137.74l-.65 1.77h1.29l-.64-1.77zM17.47 140.96h-1.1v-3.75h1.13c1.24 0 1.98.73 1.98 1.85 0 1.15-.72 1.9-2.01 1.9zm0-3.28h-.59v2.8h.62c.89 0 1.48-.47 1.48-1.39-.01-.92-.57-1.41-1.51-1.41zM22.94 140.96v-1.66h-2.06v1.66h-.51v-3.75h.51v1.63h2.06v-1.63h.5v3.75h-.5zM25.65 140.96h-1.1v-3.75h1.13c1.24 0 1.98.73 1.98 1.85 0 1.15-.72 1.9-2.01 1.9zm0-3.28h-.59v2.8h.62c.89 0 1.48-.47 1.48-1.39-.01-.92-.56-1.41-1.51-1.41zM30.12 139.64c0-1.49.97-2.51 1.67-2.86l.22.31c-.65.35-1.46 1.28-1.46 2.55 0 1.26.81 2.19 1.46 2.54l-.21.31c-.72-.34-1.68-1.35-1.68-2.85zM34.11 140.96v-1.73c0-.47-.18-.64-.57-.64-.29 0-.56.15-.72.3v2.06h-.49v-2.76l.49-.08v.41c.25-.25.58-.41.89-.41.56 0 .89.35.89.95v1.89h-.49zM35.5 139.22l-.03-.43h2.39l-.03.43H35.5zm-.03 1.09l.03-.43h2.33l.03.43h-2.39zM38.54 140.96l-.02-.49c1.13-1.07 1.8-1.56 1.8-2.22 0-.41-.29-.68-.71-.68-.32 0-.65.17-.89.4l-.17-.43c.23-.22.66-.42 1.1-.42.7 0 1.18.45 1.18 1.12 0 .71-.62 1.22-1.78 2.27h1.87l.02.45h-2.4zM42.85 141.05c-.86 0-1.26-.47-1.26-1.03 0-.52.41-.82.73-.97-.36-.19-.67-.43-.67-.86 0-.62.46-1.08 1.23-1.08.8 0 1.17.49 1.17 1.03 0 .46-.34.76-.65.93.38.2.71.44.71.89.01.59-.42 1.09-1.26 1.09zm-.18-1.84c-.35.14-.61.4-.61.76 0 .4.34.65.81.65.5 0 .76-.22.76-.59.01-.43-.44-.68-.96-.82zm.2-1.67c-.48 0-.73.28-.73.6 0 .38.42.64.93.77.31-.14.52-.38.52-.71-.01-.41-.32-.66-.72-.66zM44.55 142.19c.65-.35 1.46-1.28 1.46-2.54 0-1.27-.8-2.19-1.46-2.55l.22-.31c.71.35 1.67 1.37 1.67 2.86s-.97 2.5-1.68 2.85l-.21-.31z"/></g><path d="M294.02 215.4H.75c-.28 0-.5-.22-.5-.5v-17.69c0-.28.22-.5.5-.5h293.26c.28 0 .5.22.5.5v17.69c.01.28-.22.5-.49.5z" fill="#fff" stroke="#231f20" stroke-width=".477" stroke-miterlimit="10"/><g><path class="st9" d="M19.87 187.99h251.47v8.02H19.87z"/><path class="st4" d="M105.68 190.78l-.51.01v1.32h-.38v-3.75h.94c.99 0 1.46.48 1.46 1.17 0 .82-.58 1.24-1.51 1.25zm.03-2.07h-.55v1.72l.53-.01c.71-.01 1.09-.29 1.09-.88.01-.53-.37-.83-1.07-.83zM107.98 192.11v-3.75h2.27v.35h-1.88v1.34h1.57v.35h-1.57v1.35h1.88v.35h-2.27zM111.46 192.11h-.38v-3.75h1.01c.92 0 1.36.43 1.36 1.08 0 .56-.38.91-.87 1.06l1.04 1.61h-.44l-.96-1.55-.75.05v1.5zm.68-1.87c.5-.02.93-.29.93-.79s-.37-.75-1.02-.75h-.58v1.56l.67-.02zM117.02 188.93c-.3-.19-.65-.3-1.04-.3-.82 0-1.42.58-1.42 1.6 0 .99.57 1.61 1.43 1.61.41 0 .79-.14 1.05-.34l.07.38c-.28.18-.69.31-1.13.31-1.09 0-1.81-.76-1.81-1.94 0-1.19.76-1.96 1.81-1.96.46 0 .88.14 1.16.31l-.12.33zM117.95 192.11v-3.75h2.27v.35h-1.88v1.34h1.57v.35h-1.57v1.35h1.88v.35h-2.27zM123.61 188.36h.37v3.78h-.41l-2.15-3.24v3.21h-.37v-3.75h.43l2.13 3.21v-3.21zM126.43 188.72v3.39h-.38v-3.39h-1.32v-.36h3.02v.36h-1.32zM130.99 192.11h-.39l-.4-1.07h-1.7l-.4 1.07h-.39l1.42-3.75h.45l1.41 3.75zm-1.63-3.37l-.72 1.95h1.43l-.71-1.95zM133.2 192.19c-1.09 0-1.81-.76-1.81-1.94 0-1.19.76-1.96 1.81-1.96.46 0 .91.14 1.19.31l-.13.35c-.28-.18-.68-.31-1.07-.31-.82 0-1.42.58-1.42 1.6 0 .99.57 1.61 1.43 1.61.35 0 .66-.1.9-.23v-1.02h-1.09v-.35h1.46v1.57c-.35.24-.84.37-1.27.37zM135.5 192.11v-3.75h2.27v.35h-1.88v1.34h1.57v.35h-1.57v1.35h1.88v.35h-2.27zM141.55 192.19c-1.04 0-1.84-.79-1.84-1.94s.77-1.96 1.85-1.96c1.04 0 1.84.78 1.84 1.94 0 1.13-.78 1.96-1.85 1.96zm-.01-3.57c-.84 0-1.44.65-1.44 1.59 0 .97.62 1.63 1.47 1.63.83 0 1.44-.65 1.44-1.6 0-.96-.62-1.62-1.47-1.62zM144.32 188.36h2.21v.36h-1.82v1.4h1.51v.35h-1.51v1.64h-.38v-3.75zM148.57 192.11v-3.75h.38v3.75h-.38zM153.33 188.83l-1.23 3.25h-.42l-1.24-3.26-.07 3.28H150l.13-3.75h.52l1.27 3.31 1.25-3.31h.51l.12 3.75h-.39l-.08-3.27zM155.73 190.78l-.51.01v1.32h-.38v-3.75h.94c.99 0 1.46.48 1.46 1.17 0 .82-.58 1.24-1.51 1.25zm.03-2.07h-.55v1.72l.53-.01c.71-.01 1.09-.29 1.09-.88.01-.53-.36-.83-1.07-.83zM158.42 192.11h-.38v-3.75h1.01c.92 0 1.36.43 1.36 1.08 0 .56-.38.91-.87 1.06l1.04 1.61h-.44l-.96-1.55-.75.05v1.5zm.67-1.87c.5-.02.93-.29.93-.79s-.37-.75-1.02-.75h-.58v1.56l.67-.02zM162.95 192.19c-1.04 0-1.84-.79-1.84-1.94s.77-1.96 1.85-1.96c1.04 0 1.84.78 1.84 1.94 0 1.13-.77 1.96-1.85 1.96zm0-3.57c-.84 0-1.45.65-1.45 1.59 0 .97.62 1.63 1.47 1.63.83 0 1.44-.65 1.44-1.6 0-.96-.61-1.62-1.46-1.62zM167 192.11h-.45l-1.37-3.75h.39l1.22 3.35 1.21-3.35h.39l-1.39 3.75zM169.09 192.11v-3.75h2.27v.35h-1.88v1.34h1.57v.35h-1.57v1.35h1.88v.35h-2.27zM175.47 188.83l-1.23 3.25h-.42l-1.24-3.26-.07 3.28h-.38l.13-3.75h.52l1.27 3.31 1.25-3.31h.51l.12 3.75h-.39l-.07-3.27zM176.97 192.11v-3.75h2.27v.35h-1.88v1.34h1.57v.35h-1.57v1.35h1.88v.35h-2.27zM182.63 188.36h.37v3.78h-.41l-2.15-3.24v3.21h-.37v-3.75h.43l2.13 3.21v-3.21zM185.46 188.72v3.39h-.38v-3.39h-1.32v-.36h3.02v.36h-1.32z"/></g><g><g class="st12"><path class="st9" d="M18.17 202.52h87.82v7.94H18.17z"/><path class="st4" d="M19.9 206.75l-.57.01v1.45h-.6v-4.38h1.21c1.2 0 1.74.6 1.74 1.42 0 .98-.69 1.48-1.78 1.5zm.01-2.37h-.59v1.81l.64-.01c.74-.01 1.11-.34 1.11-.91 0-.59-.38-.89-1.16-.89zM23.46 208.31c-.39 0-.83-.12-1.12-.3l.15-.53c.27.18.66.3.99.3.36 0 .64-.17.64-.46 0-.32-.38-.43-.76-.53-.46-.13-.95-.35-.95-.94 0-.6.5-.97 1.15-.97.37 0 .74.09 1.04.24l-.15.53c-.27-.15-.65-.24-.92-.24-.34 0-.57.14-.57.4 0 .31.34.41.74.52.47.13.97.35.97.96s-.51 1.02-1.21 1.02zM26.99 208.24l-.22.57c-.31.81-.63 1.06-1.13 1.06-.25 0-.46-.07-.68-.17l.17-.53c.17.08.35.15.51.15.25 0 .4-.13.62-.69l.2-.5-1.25-3.13h.62l.93 2.49.9-2.49h.61l-1.28 3.24zM30.25 208.31c-1.02 0-1.58-.69-1.58-1.71s.68-1.71 1.62-1.71c.41 0 .74.09 1.04.27l-.15.53c-.27-.18-.57-.27-.89-.27-.66 0-1.02.45-1.02 1.17 0 .74.41 1.18 1.01 1.18.34 0 .67-.09.92-.27l.1.53c-.28.19-.64.28-1.05.28zM34.25 208.2v-2.02c0-.55-.21-.74-.63-.74-.37 0-.69.17-.88.35v2.41h-.57v-4.72l.57-.09v1.97c.29-.29.67-.47 1.08-.47.62 0 1 .41 1 1.11v2.21h-.57zM38.82 208.31c-1.02 0-1.58-.69-1.58-1.71s.68-1.71 1.62-1.71c.41 0 .74.09 1.04.27l-.15.53c-.27-.18-.57-.27-.89-.27-.66 0-1.02.45-1.02 1.17 0 .74.41 1.18 1.01 1.18.34 0 .67-.09.92-.27l.1.53c-.28.19-.64.28-1.05.28zM42.04 208.31c-.91 0-1.55-.67-1.55-1.71 0-1.03.66-1.72 1.58-1.72s1.54.68 1.54 1.72c.01 1.03-.66 1.71-1.57 1.71zm.01-2.91c-.64 0-.99.5-.99 1.19s.37 1.2 1 1.2c.64 0 .99-.49.99-1.18s-.37-1.21-1-1.21zM48.56 208.2v-2c0-.56-.2-.76-.62-.76-.36 0-.63.19-.81.36v2.41h-.57v-2c0-.56-.2-.76-.62-.76-.36 0-.63.15-.81.33v2.44h-.57V205l.57-.09v.44c.31-.29.64-.44 1.03-.44.37 0 .68.18.84.53.34-.34.72-.53 1.16-.53.59 0 .97.41.97 1.12v2.19h-.57zM51.6 208.31c-.91 0-1.55-.67-1.55-1.71 0-1.03.66-1.72 1.58-1.72s1.54.68 1.54 1.72c.01 1.03-.67 1.71-1.57 1.71zm.01-2.91c-.64 0-.99.5-.99 1.19s.37 1.2 1 1.2c.64 0 .99-.49.99-1.18s-.37-1.21-1-1.21zM54.68 208.2h-.58v-3.22l.57-.09v.57c.22-.36.49-.57.9-.57.22 0 .43.06.6.16l-.15.54c-.18-.1-.35-.15-.51-.15-.31 0-.6.22-.84.67v2.09zM58.2 208.31c-.19 0-.49-.04-.69-.1l-.57.1v-4.83l.57-.09v1.9c.23-.22.52-.4.9-.4.9 0 1.43.73 1.43 1.7-.01.97-.68 1.72-1.64 1.72zm.09-2.89c-.3 0-.56.12-.78.31v1.83c.19.15.43.23.71.23.65 0 1.02-.53 1.02-1.19 0-.71-.36-1.18-.95-1.18zM61.03 204.29c-.26 0-.38-.2-.38-.41 0-.22.12-.41.38-.41s.38.2.38.41c-.01.21-.13.41-.38.41zm-.29 3.91v-3.22l.57-.09v3.31h-.57zM64.55 203.48l.57-.09v4.81h-.57v-.29c-.23.22-.52.4-.9.4-.9 0-1.43-.73-1.43-1.69 0-.97.67-1.72 1.63-1.72.23 0 .49.04.69.11v-1.53zm-.72 1.93c-.65 0-1.02.53-1.02 1.19 0 .71.36 1.18.95 1.18.3 0 .56-.12.78-.31v-1.83c-.18-.15-.43-.23-.71-.23zM66.53 204.29c-.26 0-.38-.2-.38-.41 0-.22.12-.41.38-.41s.38.2.38.41c0 .21-.12.41-.38.41zm-.29 3.91v-3.22l.57-.09v3.31h-.57zM68.96 208.31c-.62 0-.95-.3-.93-1l.05-1.79-.53-.04.02-.36.53-.16.01-.69h.55l-.02.73h1l-.02.52h-1l-.05 1.81c-.01.3.13.46.42.46.2 0 .39-.05.58-.12.01 0 .1.5.1.5-.23.09-.48.14-.71.14zM71.98 208.24l-.22.57c-.31.81-.63 1.06-1.13 1.06-.25 0-.46-.07-.68-.17l.17-.53c.17.08.35.15.51.15.25 0 .4-.13.62-.69l.2-.5-1.24-3.13h.62l.93 2.49.9-2.49h.61l-1.29 3.24zM75.73 204.29c-.26 0-.38-.2-.38-.41 0-.22.12-.41.38-.41s.38.2.38.41c0 .21-.12.41-.38.41zm-.29 3.91v-3.22l.57-.09v3.31h-.57zM81.14 208.2v-2c0-.56-.2-.76-.62-.76-.36 0-.63.19-.81.36v2.41h-.57v-2c0-.56-.2-.76-.62-.76-.36 0-.63.15-.81.33v2.44h-.57V205l.57-.09v.44c.31-.29.64-.44 1.03-.44.37 0 .68.18.84.53.34-.34.72-.53 1.16-.53.59 0 .97.41.97 1.12v2.19h-.57zM84.28 204.89c.9 0 1.43.73 1.43 1.7s-.67 1.72-1.63 1.72c-.19 0-.49-.03-.69-.08v1.61h-.57v-4.85l.57-.09v.4c.23-.23.52-.41.89-.41zm-.89 2.67c.19.15.43.23.71.23.65 0 1.02-.53 1.02-1.19 0-.71-.36-1.18-.95-1.18-.3 0-.56.12-.78.31v1.83zM87.22 208.2h-.57v-3.22l.57-.09v.57c.22-.36.49-.57.9-.57.22 0 .43.06.6.16l-.15.54c-.18-.1-.35-.15-.51-.15-.31 0-.6.22-.84.67v2.09zM90.75 208.31c-.91 0-1.55-.67-1.55-1.71 0-1.03.66-1.72 1.58-1.72s1.54.68 1.54 1.72c0 1.03-.67 1.71-1.57 1.71zm.01-2.91c-.64 0-.99.5-.99 1.19s.37 1.2 1 1.2c.64 0 .99-.49.99-1.18s-.37-1.21-1-1.21zM94.54 208.21H94L92.74 205h.62l.94 2.49.9-2.49h.61l-1.27 3.21zM96.78 206.7c.02.63.44 1.08 1.06 1.08.34 0 .7-.09.96-.27l.1.53c-.29.18-.67.27-1.08.27-.97 0-1.62-.69-1.62-1.67 0-1.04.69-1.74 1.58-1.74.78 0 1.23.49 1.23 1.25 0 .18-.03.37-.07.51l-2.16.01v.03zm1.67-.47v-.05c0-.48-.22-.79-.73-.79-.55 0-.87.43-.92.85l1.65-.01zM102.06 203.48l.57-.09v4.81h-.57v-.29c-.23.22-.52.4-.9.4-.9 0-1.43-.73-1.43-1.69 0-.97.67-1.72 1.63-1.72.23 0 .49.04.69.11v-1.53zm-.71 1.93c-.65 0-1.02.53-1.02 1.19 0 .71.36 1.18.95 1.18.3 0 .56-.12.78-.31v-1.83a1.12 1.12 0 0 0-.71-.23z"/></g><path class="st1" d="M14.36 208.96H8.73a.18.18 0 0 1-.18-.18v-5.63c0-.1.08-.18.18-.18h5.63c.1 0 .18.08.18.18v5.63c0 .1-.08.18-.18.18z"/></g><g><g class="st12"><path class="st9" d="M120.32 202.52h87.82v7.94h-87.82z"/><path class="st4" d="M122.84 208.31c-1.28 0-2.2-.9-2.2-2.28 0-1.31.91-2.3 2.2-2.3 1.28 0 2.2.89 2.2 2.28 0 1.3-.91 2.3-2.2 2.3zm-.01-4.06c-.93 0-1.58.69-1.58 1.74 0 1.08.65 1.78 1.61 1.78.93 0 1.59-.7 1.59-1.75-.01-1.07-.66-1.77-1.62-1.77zM127.1 208.31c-.62 0-.95-.3-.93-1l.05-1.79-.53-.04.02-.36.53-.16.01-.69h.55l-.02.74h1l-.02.52h-1l-.05 1.81c-.01.3.13.46.42.46.2 0 .39-.05.58-.12.01 0 .1.5.1.5-.23.08-.47.13-.71.13zM130.71 208.2v-2.02c0-.55-.21-.74-.63-.74-.37 0-.69.17-.88.35v2.41h-.57v-4.72l.57-.09v1.97c.29-.29.67-.47 1.08-.47.62 0 1 .41 1 1.11v2.21h-.57zM132.77 206.7c.02.63.44 1.08 1.06 1.08.34 0 .7-.09.96-.27l.1.53c-.29.18-.67.27-1.08.27-.97 0-1.62-.69-1.62-1.67 0-1.04.69-1.74 1.58-1.74.78 0 1.23.49 1.23 1.25 0 .18-.03.37-.07.51l-2.16.01v.03zm1.67-.47v-.05c0-.48-.22-.79-.73-.79-.55 0-.87.43-.92.85l1.65-.01zM136.5 208.2h-.57v-3.22l.57-.09v.57c.22-.36.49-.57.9-.57.22 0 .43.06.6.16l-.15.54c-.18-.1-.35-.15-.51-.15-.31 0-.6.22-.84.67v2.09zM141.73 204.89c.9 0 1.43.73 1.43 1.7s-.67 1.72-1.63 1.72c-.19 0-.49-.03-.69-.08v1.61h-.57v-4.85l.57-.09v.4c.22-.23.51-.41.89-.41zm-.9 2.67c.19.15.43.23.71.23.65 0 1.02-.53 1.02-1.19 0-.71-.36-1.18-.95-1.18-.3 0-.56.12-.78.31v1.83zM144.94 208.31c-.39 0-.83-.12-1.12-.3l.15-.53c.27.18.66.3.99.3.36 0 .64-.17.64-.46 0-.32-.38-.43-.76-.53-.46-.13-.95-.35-.95-.94 0-.6.5-.97 1.15-.97.37 0 .74.09 1.04.24l-.15.53c-.27-.15-.65-.24-.92-.24-.34 0-.57.14-.57.4 0 .31.34.41.74.52.47.13.97.35.97.96s-.51 1.02-1.21 1.02zM148.47 208.24l-.22.57c-.31.81-.63 1.06-1.13 1.06-.25 0-.46-.07-.68-.17l.17-.53c.17.08.35.15.51.15.25 0 .4-.13.62-.69l.2-.5-1.25-3.14h.62l.93 2.49.9-2.49h.61l-1.28 3.25zM151.73 208.31c-1.02 0-1.58-.69-1.58-1.71s.68-1.71 1.62-1.71c.41 0 .74.09 1.04.27l-.15.53c-.27-.18-.57-.27-.89-.27-.66 0-1.02.45-1.02 1.17 0 .74.41 1.18 1.01 1.18.34 0 .67-.09.92-.27l.1.53c-.28.19-.64.28-1.05.28zM155.73 208.2v-2.02c0-.55-.21-.74-.63-.74-.37 0-.69.17-.88.35v2.41h-.57v-4.72l.57-.09v1.97c.29-.29.67-.47 1.08-.47.62 0 1 .41 1 1.11v2.21h-.57zM159.22 204.29c-.26 0-.38-.2-.38-.41 0-.22.12-.41.38-.41s.38.2.38.41c0 .21-.12.41-.38.41zm-.28 3.91v-3.22l.57-.09v3.31h-.57zM164.63 208.2v-2c0-.56-.2-.76-.62-.76-.36 0-.63.19-.81.36v2.41h-.57v-2c0-.56-.2-.76-.62-.76-.36 0-.63.15-.81.33v2.44h-.57V205l.57-.09v.44c.31-.29.64-.44 1.03-.44.37 0 .68.18.84.53.34-.34.72-.53 1.16-.53.59 0 .97.41.97 1.12v2.19h-.57zM167.78 204.89c.9 0 1.43.73 1.43 1.7s-.67 1.72-1.63 1.72c-.19 0-.49-.03-.69-.08v1.61h-.57v-4.85l.57-.09v.4c.22-.23.51-.41.89-.41zm-.9 2.67c.19.15.43.23.71.23.65 0 1.02-.53 1.02-1.19 0-.71-.36-1.18-.95-1.18-.3 0-.56.12-.78.31v1.83zM170.71 208.2h-.57v-3.22l.57-.09v.57c.22-.36.49-.57.9-.57.22 0 .43.06.6.16l-.15.54c-.18-.1-.35-.15-.51-.15-.31 0-.6.22-.84.67v2.09zM174.24 208.31c-.91 0-1.55-.67-1.55-1.71 0-1.03.66-1.72 1.58-1.72s1.54.68 1.54 1.72c.01 1.03-.66 1.71-1.57 1.71zm.01-2.91c-.64 0-.99.5-.99 1.19s.37 1.2 1 1.2c.64 0 .99-.49.99-1.18s-.37-1.21-1-1.21zM178.03 208.21h-.53l-1.27-3.21h.62l.94 2.49.9-2.49h.61l-1.27 3.21zM180.27 206.7c.02.63.44 1.08 1.06 1.08.34 0 .7-.09.96-.27l.1.53c-.29.18-.67.27-1.08.27-.97 0-1.62-.69-1.62-1.67 0-1.04.69-1.74 1.58-1.74.78 0 1.23.49 1.23 1.25 0 .18-.03.37-.07.51l-2.16.01v.03zm1.68-.47v-.05c0-.48-.22-.79-.73-.79-.55 0-.87.43-.92.85l1.65-.01zM187.44 208.2v-2c0-.56-.2-.76-.62-.76-.36 0-.63.19-.81.36v2.41h-.57v-2c0-.56-.2-.76-.62-.76-.36 0-.63.15-.81.33v2.44h-.57V205l.57-.09v.44c.31-.29.64-.44 1.03-.44.37 0 .68.18.84.53.34-.34.72-.53 1.16-.53.59 0 .97.41.97 1.12v2.19h-.57zM189.5 206.7c.02.63.44 1.08 1.06 1.08.34 0 .7-.09.96-.27l.1.53c-.29.18-.67.27-1.08.27-.97 0-1.62-.69-1.62-1.67 0-1.04.69-1.74 1.58-1.74.78 0 1.23.49 1.23 1.25 0 .18-.03.37-.07.51l-2.16.01v.03zm1.68-.47v-.05c0-.48-.22-.79-.73-.79-.55 0-.87.43-.92.85l1.65-.01zM194.74 208.2v-2.02c0-.55-.21-.74-.67-.74-.34 0-.66.17-.84.35v2.41h-.57v-3.22l.57-.09v.48c.29-.29.67-.48 1.04-.48.65 0 1.04.41 1.04 1.11v2.21h-.57zM197.41 208.31c-.62 0-.95-.3-.93-1l.05-1.79-.53-.04.02-.36.53-.16.01-.69h.55l-.02.74h1l-.02.52h-1l-.05 1.81c-.01.3.13.46.42.46.2 0 .39-.05.58-.12.01 0 .1.5.1.5-.23.08-.47.13-.71.13z"/></g><path class="st2" d="M117.51 208.96h-5.63a.18.18 0 0 1-.18-.18v-5.63c0-.1.08-.18.18-.18h5.63c.1 0 .18.08.18.18v5.63c0 .1-.08.18-.18.18z"/></g><g><g class="st12"><path class="st9" d="M216.66 202.52h74.3v7.94h-74.3z"/><path class="st4" d="M220.2 203.83h.58v4.42h-.64l-2.35-3.57v3.53h-.58v-4.38h.66l2.33 3.53v-3.53zM223.35 208.31c-.91 0-1.55-.67-1.55-1.71 0-1.03.66-1.72 1.58-1.72s1.54.68 1.54 1.72c.01 1.03-.67 1.71-1.57 1.71zm.01-2.91c-.64 0-.99.5-.99 1.19s.37 1.2 1 1.2c.64 0 .99-.49.99-1.18s-.37-1.21-1-1.21zM228.84 204.89c.9 0 1.43.73 1.43 1.7s-.67 1.72-1.63 1.72c-.19 0-.49-.03-.69-.08v1.61h-.57v-4.85l.57-.09v.4c.23-.23.52-.41.89-.41zm-.89 2.67c.19.15.43.23.71.23.65 0 1.02-.53 1.02-1.19 0-.71-.36-1.18-.95-1.18-.3 0-.56.12-.78.31v1.83zM232.06 208.31c-.39 0-.83-.12-1.12-.3l.15-.53c.27.18.66.3.99.3.36 0 .64-.17.64-.46 0-.32-.38-.43-.76-.53-.46-.13-.95-.35-.95-.94 0-.6.5-.97 1.15-.97.37 0 .74.09 1.04.24l-.15.53c-.27-.15-.65-.24-.92-.24-.34 0-.57.14-.57.4 0 .31.34.41.74.52.47.13.97.35.97.96s-.51 1.02-1.21 1.02zM235.59 208.24l-.22.57c-.31.81-.63 1.06-1.13 1.06-.25 0-.46-.07-.68-.17l.17-.53c.17.08.35.15.51.15.25 0 .4-.13.62-.69l.2-.5-1.25-3.14h.62l.93 2.49.9-2.49h.61l-1.28 3.25zM238.85 208.31c-1.02 0-1.58-.69-1.58-1.71s.68-1.71 1.62-1.71c.41 0 .74.09 1.04.27l-.15.53c-.27-.18-.57-.27-.89-.27-.66 0-1.02.45-1.02 1.17 0 .74.41 1.18 1.01 1.18.34 0 .67-.09.92-.27l.1.53c-.28.19-.64.28-1.05.28zM242.85 208.2v-2.02c0-.55-.21-.74-.63-.74-.37 0-.69.17-.88.35v2.41h-.57v-4.72l.57-.09v1.97c.29-.29.67-.47 1.08-.47.62 0 1 .41 1 1.11v2.21h-.57zM246.34 204.29c-.26 0-.38-.2-.38-.41 0-.22.12-.41.38-.41s.38.2.38.41c0 .21-.12.41-.38.41zm-.28 3.91v-3.22l.57-.09v3.31h-.57zM251.75 208.2v-2c0-.56-.2-.76-.62-.76-.36 0-.63.19-.81.36v2.41h-.57v-2c0-.56-.2-.76-.62-.76-.36 0-.63.15-.81.33v2.44h-.57V205l.57-.09v.44c.31-.29.64-.44 1.03-.44.37 0 .68.18.84.53.34-.34.72-.53 1.16-.53.59 0 .97.41.97 1.12v2.19h-.57zM254.9 204.89c.9 0 1.43.73 1.43 1.7s-.67 1.72-1.63 1.72c-.19 0-.49-.03-.69-.08v1.61h-.57v-4.85l.57-.09v.4c.22-.23.51-.41.89-.41zm-.9 2.67c.19.15.43.23.71.23.65 0 1.02-.53 1.02-1.19 0-.71-.36-1.18-.95-1.18-.3 0-.56.12-.78.31v1.83zM257.83 208.2h-.57v-3.22l.57-.09v.57c.22-.36.49-.57.9-.57.22 0 .43.06.6.16l-.15.54c-.18-.1-.35-.15-.51-.15-.31 0-.6.22-.84.67v2.09zM261.36 208.31c-.91 0-1.55-.67-1.55-1.71 0-1.03.66-1.72 1.58-1.72s1.54.68 1.54 1.72c.01 1.03-.66 1.71-1.57 1.71zm.01-2.91c-.64 0-.99.5-.99 1.19s.37 1.2 1 1.2c.64 0 .99-.49.99-1.18s-.37-1.21-1-1.21zM265.15 208.21h-.53l-1.27-3.21h.62l.94 2.49.9-2.49h.61l-1.27 3.21zM267.39 206.7c.02.63.44 1.08 1.06 1.08.34 0 .7-.09.96-.27l.1.53c-.29.18-.67.27-1.08.27-.97 0-1.62-.69-1.62-1.67 0-1.04.69-1.74 1.58-1.74.78 0 1.23.49 1.23 1.25 0 .18-.03.37-.07.51l-2.16.01v.03zm1.68-.47v-.05c0-.48-.22-.79-.73-.79-.55 0-.87.43-.92.85l1.65-.01zM274.56 208.2v-2c0-.56-.2-.76-.62-.76-.36 0-.63.19-.81.36v2.41h-.57v-2c0-.56-.2-.76-.62-.76-.36 0-.63.15-.81.33v2.44h-.57V205l.57-.09v.44c.31-.29.64-.44 1.03-.44.37 0 .68.18.84.53.34-.34.72-.53 1.16-.53.59 0 .97.41.97 1.12v2.19h-.57zM276.62 206.7c.02.63.44 1.08 1.06 1.08.34 0 .7-.09.96-.27l.1.53c-.29.18-.67.27-1.08.27-.97 0-1.62-.69-1.62-1.67 0-1.04.69-1.74 1.58-1.74.78 0 1.23.49 1.23 1.25 0 .18-.03.37-.07.51l-2.16.01v.03zm1.68-.47v-.05c0-.48-.22-.79-.73-.79-.55 0-.87.43-.92.85l1.65-.01zM281.86 208.2v-2.02c0-.55-.21-.74-.67-.74-.34 0-.66.17-.84.35v2.41h-.57v-3.22l.57-.09v.48c.29-.29.67-.48 1.04-.48.65 0 1.04.41 1.04 1.11v2.21h-.57zM284.53 208.31c-.62 0-.95-.3-.93-1l.05-1.79-.53-.04.02-.36.53-.16.01-.69h.55l-.02.74h1l-.02.52h-1l-.05 1.81c-.01.3.13.46.42.46.2 0 .39-.05.58-.12.01 0 .1.5.1.5-.23.08-.47.13-.71.13z"/></g><path class="st3" d="M213.85 208.96h-5.63a.18.18 0 0 1-.18-.18v-5.63c0-.1.08-.18.18-.18h5.63c.1 0 .18.08.18.18v5.63c0 .1-.08.18-.18.18z"/></g><g><path class="st10" d="M75.37 22.57v1.27h-.59v-1.27h-2.27l-.07-.45 2.25-3.32h.68V22h.76l.02.57h-.78zm-.59-2.98l-1.64 2.42h1.64v-2.42zM77.14 23.95l-.16-.54c1.18-.3 1.99-.99 2.25-1.98l-.02-.01c-.33.31-.8.51-1.29.51-.79 0-1.4-.61-1.4-1.54 0-.94.64-1.66 1.63-1.66 1.17 0 1.73.96 1.73 2.07-.01 1.38-.89 2.72-2.74 3.15zm.98-4.64c-.59 0-.98.44-.98 1.05 0 .62.36.99.94.99.46 0 .89-.22 1.12-.43.02-.09.04-.19.04-.3 0-.7-.39-1.31-1.12-1.31zM81.9 21.31c-.82 0-1.33-.61-1.33-1.32 0-.73.51-1.33 1.33-1.33.82 0 1.33.61 1.33 1.33 0 .71-.51 1.32-1.33 1.32zm0-2.24c-.56 0-.9.41-.9.92 0 .48.34.9.9.9s.9-.42.9-.9c-.01-.51-.34-.92-.9-.92zm-.22 4.9h-.5l3.98-5.23h.5l-3.98 5.23zm3.26.08c-.82 0-1.33-.61-1.33-1.33 0-.71.5-1.32 1.33-1.32.82 0 1.33.61 1.33 1.32-.01.72-.52 1.33-1.33 1.33zm0-2.24c-.56 0-.9.42-.9.9 0 .51.34.92.9.92s.9-.41.9-.92c-.01-.48-.34-.9-.9-.9z"/></g><g><path class="st4" d="M166.68 19.58l-1.25.34-.02-.61 1.9-.53v5.06h-.62v-4.26zM170.42 23.97c-1.15 0-1.68-.63-1.68-1.38 0-.69.55-1.09.98-1.29-.48-.25-.89-.58-.89-1.14 0-.83.62-1.44 1.64-1.44 1.07 0 1.56.65 1.56 1.38 0 .62-.46 1.02-.86 1.24.5.26.94.59.94 1.19-.01.77-.58 1.44-1.69 1.44zm-.24-2.45c-.46.19-.81.54-.81 1.01 0 .53.45.87 1.08.87.66 0 1.02-.3 1.02-.79 0-.57-.6-.91-1.29-1.09zm.26-2.23c-.64 0-.98.37-.98.8 0 .51.56.85 1.24 1.02.41-.19.69-.51.69-.95 0-.54-.42-.87-.95-.87zM174.1 21.31c-.82 0-1.33-.61-1.33-1.32 0-.73.51-1.33 1.33-1.33.82 0 1.33.61 1.33 1.33 0 .71-.51 1.32-1.33 1.32zm0-2.24c-.56 0-.9.41-.9.92 0 .48.34.9.9.9s.9-.42.9-.9c-.01-.51-.34-.92-.9-.92zm-.22 4.9h-.5l3.98-5.23h.5l-3.98 5.23zm3.26.08c-.82 0-1.33-.61-1.33-1.33 0-.71.5-1.32 1.33-1.32.82 0 1.33.61 1.33 1.32-.01.72-.52 1.33-1.33 1.33zm0-2.24c-.56 0-.9.42-.9.9 0 .51.34.92.9.92s.9-.41.9-.92c-.01-.48-.34-.9-.9-.9z"/></g><g><path class="st4" d="M241.74 22.42c0 .95-.82 1.55-1.8 1.55-.49 0-1.09-.15-1.42-.34l.12-.61c.3.17.8.36 1.3.36.59 0 1.12-.31 1.12-.89 0-.5-.41-.87-1.14-.87-.22 0-.52.03-.74.07v-.54c.98-.23 1.69-.55 1.69-1.12 0-.42-.31-.7-.88-.7-.39 0-.87.19-1.21.5l-.25-.58c.35-.28.92-.52 1.46-.52.9 0 1.54.45 1.54 1.22 0 .59-.46 1.02-1.27 1.26 1.03-.01 1.48.59 1.48 1.21zM245.75 22.42c0 .95-.82 1.55-1.8 1.55-.49 0-1.09-.15-1.42-.34l.12-.61c.3.17.8.36 1.3.36.59 0 1.12-.31 1.12-.89 0-.5-.41-.87-1.14-.87-.22 0-.52.03-.74.07v-.54c.98-.23 1.69-.55 1.69-1.12 0-.42-.31-.7-.88-.7-.39 0-.87.19-1.21.5l-.25-.58c.35-.28.92-.52 1.46-.52.9 0 1.54.45 1.54 1.22 0 .59-.46 1.02-1.27 1.26 1.04-.01 1.48.59 1.48 1.21zM247.75 21.31c-.82 0-1.33-.61-1.33-1.32 0-.73.51-1.33 1.33-1.33.82 0 1.33.61 1.33 1.33-.01.71-.51 1.32-1.33 1.32zm0-2.24c-.56 0-.9.41-.9.92 0 .48.34.9.9.9s.9-.42.9-.9c-.01-.51-.34-.92-.9-.92zm-.22 4.9h-.5l3.98-5.23h.5l-3.98 5.23zm3.25.08c-.82 0-1.33-.61-1.33-1.33 0-.71.5-1.32 1.33-1.32.82 0 1.33.61 1.33 1.32 0 .72-.51 1.33-1.33 1.33zm0-2.24c-.56 0-.9.42-.9.9 0 .51.34.92.9.92s.9-.41.9-.92c0-.48-.34-.9-.9-.9z"/></g></g></svg>