<svg id="Layer_1" xmlns="http://www.w3.org/2000/svg" viewBox="0 0 749 419.5"><style>.st1{fill:#20223e}.st2{fill:#f6f8f9}.st3{fill:#edf1f3}.st4{fill:#58596e}.st5{fill:#e40571}.st6{fill:none}</style><path fill="#fff" d="M13.2 80h540.7v305.3H13.2z"/><path class="st1" d="M32.3 103.9h-2.8l1.4-4 1.4 4zm-.3-5.6h-2.2l-3.4 9.3h1.8l.8-2.2h3.7l.8 2.2h1.8L32 98.3zm8.8 4v3.4c-.4.4-.8.6-1.4.6-1.1 0-1.7-.8-1.7-2.2 0-1.3.7-2.2 1.8-2.2.5 0 1 .2 1.3.4zm0-1.6c-.4-.1-1-.2-1.5-.2-1.9 0-3.5 1.5-3.5 3.7 0 2.1 1.2 3.6 3 3.6.8 0 1.5-.4 1.9-.9v.7h1.7V97.4l-1.7.2v3.1zm9.8 0h-1.9l-1.6 5-1.8-5h-1.8l2.6 6.9H48zm2.2 2.8c.1-.8.7-1.6 1.6-1.6.9 0 1.3.6 1.3 1.5v.1h-2.9zm0 1 4.5-.1c.1-.3.1-.8.1-1.1 0-1.7-1-2.8-2.8-2.8-2 0-3.5 1.5-3.5 3.7s1.5 3.6 3.6 3.6c.9 0 1.8-.2 2.5-.6l-.2-1.5c-.6.4-1.4.6-2.1.6-1.3.1-2.1-.7-2.1-1.8zm7.8-1.2c.5-.8 1-1.2 1.6-1.2.3 0 .7.1 1 .3l.4-1.6c-.4-.2-.8-.3-1.2-.3-.8 0-1.3.4-1.8 1.1v-1.1l-1.7.3v6.8h1.7v-4.3zm9 2.3c0-1.3-1-1.8-2.3-2.1-.8-.2-1.4-.4-1.4-.9 0-.4.4-.7 1-.7s1.5.2 2.1.6l.4-1.4c-.6-.3-1.6-.5-2.5-.5-1.6 0-2.7.8-2.7 2.1s1 1.8 2.3 2.1c.8.2 1.4.4 1.4.9s-.4.8-1.1.8c-.8 0-1.6-.3-2.3-.6l-.4 1.4c.7.4 1.8.6 2.7.6 1.7-.1 2.8-1 2.8-2.3zm2.8-2.1c.1-.8.7-1.6 1.6-1.6.9 0 1.3.6 1.3 1.5v.1h-2.9zm0 1 4.5-.1c.1-.3.1-.8.1-1.1 0-1.7-1-2.8-2.8-2.8-2 0-3.5 1.5-3.5 3.7s1.5 3.6 3.6 3.6c.9 0 1.8-.2 2.5-.6l-.2-1.5c-.6.4-1.4.6-2.1.6-1.3.1-2.1-.7-2.1-1.8zm11.3-1.7v-3h1.2c1.3 0 2 .5 2 1.4 0 1-.7 1.5-1.8 1.6h-1.4zm.1 1.5 1.3-.1 2.1 3.4h2.1l-2.4-3.8c1.3-.4 2-1.3 2-2.7 0-1.7-1.2-2.8-3.6-2.8h-3.2v9.3h1.8v-3.3zm7.8-.8c.1-.8.7-1.6 1.6-1.6.9 0 1.3.6 1.3 1.5v.1h-2.9zm-.1 1 4.5-.1c.1-.3.1-.8.1-1.1 0-1.7-1-2.8-2.8-2.8-2 0-3.5 1.5-3.5 3.7s1.5 3.6 3.6 3.6c.9 0 1.8-.2 2.5-.6l-.2-1.5c-.6.4-1.4.6-2.1.6-1.2.1-2-.7-2.1-1.8zm9.7 1.4c-.3.3-.8.6-1.3.6-.6 0-1-.4-1-.9 0-.7.6-1.1 2.3-1.3v1.6zm.1.9c.3.7.9 1.1 2.2.9l.1-1.3c-.5 0-.6-.1-.6-.6v-2.4c0-1.9-.8-2.8-2.9-2.8-1.1 0-2.2.4-2.9.8l.4 1.4c.7-.4 1.6-.7 2.3-.7 1 0 1.4.4 1.4 1.3v.2c-3.1.1-4 1.2-4 2.4 0 1.1.9 1.9 2.1 1.9.7-.1 1.3-.5 1.9-1.1zm9 .4-.3-1.4c-.5.3-1.2.5-1.9.5-1.2 0-1.9-.8-1.9-2.2 0-1.3.7-2.2 1.9-2.2.6 0 1.3.2 1.9.5l.4-1.4c-.6-.4-1.4-.6-2.4-.6-2.1 0-3.6 1.4-3.6 3.7 0 2.2 1.3 3.6 3.5 3.6.9.1 1.8-.1 2.4-.5zm5.4.3-.2-1.4c-.4.1-.7.2-1.1.2-.6 0-.9-.3-.9-.9l.1-3.2h2v-1.4h-1.9v-1.6H112v1.5l-1.1.3v1.1l1.1.1-.1 3.2c-.1 1.6.7 2.3 2.3 2.3.5.1 1 0 1.5-.2zm3.1.1v-7l-1.7.3v6.8h1.7zm.2-9.2c0-.6-.4-1.1-1.1-1.1-.7 0-1.1.4-1.1 1.1 0 .6.4 1.1 1.1 1.1.7 0 1.1-.4 1.1-1.1zm6.5 5.8c0 1.3-.6 2.2-1.7 2.2s-1.8-.9-1.8-2.2c0-1.3.6-2.2 1.8-2.2 1-.1 1.7.8 1.7 2.2zm1.7-.1c0-2.3-1.4-3.6-3.5-3.6-2 0-3.5 1.4-3.5 3.7 0 2.3 1.5 3.6 3.5 3.6s3.5-1.4 3.5-3.7zm7.7 3.5v-4.7c0-1.5-.8-2.4-2.2-2.4-.8 0-1.6.4-2.3 1.1v-1.1l-1.7.2v6.8h1.7v-4.9c.3-.3.9-.6 1.5-.6.8 0 1.2.3 1.2 1.3v4.2h1.8z"/><path class="st2" d="M13.2 122h540.7v32.9H13.2z"/><path class="st1" d="M28.2 143.5c-1.1 0-1.9-.4-2.7-.9l-.3.8c.8.5 1.9.9 3 .9 1.9 0 3.1-1.1 3.1-2.7 0-1.7-1.3-2.3-2.7-2.7-1.4-.4-2.3-.8-2.3-1.9 0-.8.7-1.6 2.1-1.6.8 0 1.7.3 2.4.8l.3-.8c-.8-.5-1.7-.8-2.8-.8-1.7 0-3 1.1-3 2.5 0 1.6 1.4 2.2 2.7 2.6 1.5.4 2.3.9 2.3 1.9.1 1.2-.8 1.9-2.1 1.9zm10.1-2.7c0 1.6-.9 2.7-2.4 2.7-1.4 0-2.4-1.1-2.4-2.8 0-1.6.9-2.7 2.4-2.7 1.4 0 2.4 1.2 2.4 2.8zm.9 0c0-2.2-1.4-3.6-3.3-3.6s-3.3 1.4-3.3 3.6 1.4 3.6 3.3 3.6c1.8 0 3.3-1.5 3.3-3.6zm11.1 3.4v-4.6c0-1.5-.8-2.3-2.1-2.3-.8 0-1.6.4-2.4 1.1-.3-.8-1-1.1-1.8-1.1-.7 0-1.5.3-2.1.9v-.9l-.9.2v6.8h.9V139c.5-.5 1.2-.8 1.9-.8 1 0 1.4.5 1.4 1.7v4.4h.9V139.1c.5-.5 1.2-.9 1.9-.9 1 0 1.4.5 1.4 1.7v4.4h.9zm7.5 0v-4.7c0-1.5-.8-2.3-2.2-2.3-.7 0-1.6.4-2.3 1.1v-1.1l-.9.2v6.8h.9v-5.1c.6-.6 1.3-1 2.1-1 1 0 1.5.5 1.5 1.7v4.4h.9zm7.3-3.4c0 1.6-.9 2.7-2.4 2.7-1.4 0-2.4-1.1-2.4-2.8 0-1.6.9-2.7 2.4-2.7s2.4 1.2 2.4 2.8zm.9 0c0-2.2-1.4-3.6-3.3-3.6s-3.3 1.4-3.3 3.6 1.4 3.6 3.3 3.6 3.3-1.5 3.3-3.6zm2.6 3.4V134l-.9.2v10zm2.7-4.1c.1-1.1.9-2.1 2.1-2.1 1.1 0 1.6.7 1.6 1.7v.3l-3.7.1zm0 .7h4.6c.1-.3.1-.7.1-1.1 0-1.5-1-2.5-2.5-2.5-1.8 0-3.2 1.5-3.2 3.6s1.3 3.5 3.3 3.5c.8 0 1.6-.2 2.2-.6l-.2-.8c-.5.3-1.2.6-2 .6-1.4 0-2.3-1.1-2.3-2.7zm11.8 3.4v-4.7c0-1.5-.8-2.3-2.2-2.3-.7 0-1.6.4-2.3 1.1v-1.1l-.9.2v6.8h.9v-5.1c.6-.6 1.3-1 2.1-1 1 0 1.5.5 1.5 1.7v4.4h.9zm7.1-.4-.2-.8c-.5.3-1.2.6-1.9.6-1.4 0-2.4-1.1-2.4-2.7s.9-2.7 2.4-2.7c.7 0 1.4.2 1.9.5l.2-.8c-.6-.4-1.3-.6-2.1-.6-1.9 0-3.3 1.5-3.3 3.6s1.3 3.6 3.3 3.6c.8-.1 1.5-.3 2.1-.7zm2.2-3.7c.1-1.1.9-2.1 2.1-2.1 1.1 0 1.6.7 1.6 1.7v.3l-3.7.1zm-.1.7h4.6c.1-.3.1-.7.1-1.1 0-1.5-1-2.5-2.5-2.5-1.8 0-3.2 1.5-3.2 3.6s1.3 3.5 3.3 3.5c.8 0 1.6-.2 2.2-.6l-.2-.8c-.5.3-1.2.6-2 .6-1.3 0-2.3-1.1-2.3-2.7z"/><path class="st3" d="M13.2 154.9h540.7v32.9H13.2z"/><path class="st1" d="M30.7 173.6h-3.5l1.8-4.8 1.7 4.8zm-1.1-5.7h-1.1l-3.5 9.3h1l1-2.7h4.2l1 2.7h1l-3.6-9.3zm10.1 9.2v-4.7c0-1.5-.8-2.3-2.2-2.3-.7 0-1.6.4-2.3 1.1v-1.1l-.9.2v6.8h.9V172c.6-.6 1.3-1 2.1-1 1 0 1.5.5 1.5 1.7v4.4h.9zm5.5-.1-.2-.8c-.4.2-.9.3-1.3.3-.7 0-1-.4-1-1.3l.1-4.1H45v-.8h-2.3v-1.6H42v1.5l-1 .2v.6l1 .1-.1 4c0 1.4.5 2.1 1.8 2.1.4.1 1 0 1.5-.2zm2.4.1v-7l-.9.2v6.8h.9zm.1-9c0-.3-.2-.7-.6-.7-.4 0-.6.3-.6.7 0 .4.2.7.6.7.4 0 .6-.4.6-.7zm7 8.6-.2-.8c-.5.3-1.2.6-1.9.6-1.4 0-2.4-1.1-2.4-2.7s.9-2.7 2.4-2.7c.7 0 1.4.2 1.9.5l.2-.8c-.6-.4-1.3-.6-2.1-.6-1.9 0-3.3 1.5-3.3 3.6s1.3 3.6 3.3 3.6c.8-.1 1.5-.3 2.1-.7zm7.1.4v-4.7c0-1.5-.8-2.3-2.1-2.3-.8 0-1.6.4-2.4 1.1v-4.3l-.9.2v10h.9V172c.6-.6 1.3-1 2.1-1 1 0 1.5.5 1.5 1.7v4.4h.9zm7.4-3.4c0 1.6-.9 2.7-2.4 2.7s-2.4-1.1-2.4-2.8c0-1.6.9-2.7 2.4-2.7 1.4.1 2.4 1.2 2.4 2.8zm.9 0c0-2.2-1.4-3.6-3.3-3.6s-3.3 1.4-3.3 3.6 1.4 3.6 3.3 3.6 3.3-1.4 3.3-3.6zm2.6 3.4v-10.2l-.9.2v10zm3.1 0v-7l-.9.2v6.8h.9zm.1-9c0-.3-.2-.7-.6-.7-.4 0-.6.3-.6.7 0 .4.2.7.6.7.4 0 .6-.4.6-.7zm7.4 9v-4.7c0-1.5-.8-2.3-2.2-2.3-.7 0-1.6.4-2.3 1.1v-1.1l-.9.2v6.8h.9V172c.6-.6 1.3-1 2.1-1 1 0 1.5.5 1.5 1.7v4.4h.9zm2.6-4.1c.1-1.1.9-2.1 2.1-2.1 1.1 0 1.6.7 1.6 1.7v.3l-3.7.1zm0 .7h4.6c.1-.3.1-.7.1-1.1 0-1.5-1-2.5-2.5-2.5-1.8 0-3.2 1.5-3.2 3.6s1.3 3.5 3.3 3.5c.8 0 1.6-.2 2.2-.6l-.2-.8c-.5.3-1.2.6-2 .6-1.4 0-2.3-1.1-2.3-2.7zm7.4-.9c.5-1.2 1.2-1.7 1.9-1.7.4 0 .7.1 1 .3l.2-.9c-.3-.2-.7-.3-1.2-.3-.9 0-1.6.6-2 1.5v-1.5l-.9.2v6.8h.9v-4.4zm4.7 4.3c-.9.2-1.5.9-1.5 1.7 0 1.2 1.2 2 3.1 2 1.9 0 3.6-1 3.6-2.5 0-1.1-.8-1.8-2.8-1.8h-.9c-1.2 0-1.5-.3-1.5-.7 0-.4.4-.7.8-.8.3.1.6.2 1 .2 1.5 0 2.6-1.1 2.6-2.5 0-.5-.2-1.2-.5-1.5l1.5.1v-.9l-1.9.1c-.4-.2-.9-.4-1.6-.4-1.6 0-2.7 1.1-2.7 2.5 0 .9.4 1.7 1.1 2.1-.6.2-1.1.7-1.1 1.3-.1.5.2.9.8 1.1zm.8.2h1.4c1.3 0 2.1.3 2.1 1.1 0 .9-1.1 1.6-2.5 1.6s-2.3-.6-2.3-1.4c-.1-.5.5-1.1 1.3-1.3zm-.8-4.6c0-1.1.7-1.8 1.7-1.8 1.1 0 1.7.8 1.7 1.8s-.7 1.8-1.7 1.8c-1-.1-1.7-.8-1.7-1.8zm7.4 4.4v-7l-.9.2v6.8h.9zm.1-9c0-.3-.2-.7-.6-.7-.4 0-.6.3-.6.7 0 .4.2.7.6.7.4 0 .6-.4.6-.7zm7 8.6-.2-.8c-.5.3-1.2.6-1.9.6-1.4 0-2.4-1.1-2.4-2.7s.9-2.7 2.4-2.7c.7 0 1.4.2 1.9.5l.2-.8c-.6-.4-1.3-.6-2.1-.6-1.9 0-3.3 1.5-3.3 3.6s1.3 3.6 3.3 3.6c.8-.1 1.5-.3 2.1-.7zm5.6-3.7c.1-1.1.9-2.1 2.1-2.1 1.1 0 1.6.7 1.6 1.7v.3l-3.7.1zm0 .7h4.6c.1-.3.1-.7.1-1.1 0-1.5-1-2.5-2.5-2.5-1.8 0-3.2 1.5-3.2 3.6s1.3 3.5 3.3 3.5c.8 0 1.6-.2 2.2-.6l-.2-.8c-.5.3-1.2.6-2 .6-1.4 0-2.3-1.1-2.3-2.7zm7.5-2.5h3.6v5.9h.9v-5.9h2.1v-.8h-2.1v-1.1c0-1.1.4-1.6 1.1-1.6.4 0 .7.1 1.1.3l.2-.8c-.3-.1-.8-.3-1.3-.3-1.2 0-2 .7-2 2.4v1.1h-3.6v-1c0-1.1.4-1.6 1.1-1.6.4 0 .7.1 1 .3l.2-.8c-.3-.1-.8-.3-1.2-.3-1.2 0-2 .7-2 2.4v.9l-1 .2-.1.6 1.1.1v5.9h.9v-5.9zm8.4 1.8c.1-1.1.9-2.1 2.1-2.1 1.1 0 1.6.7 1.6 1.7v.3l-3.7.1zm-.1.7h4.6c.1-.3.1-.7.1-1.1 0-1.5-1-2.5-2.5-2.5-1.8 0-3.2 1.5-3.2 3.6s1.3 3.5 3.3 3.5c.8 0 1.6-.2 2.2-.6l-.2-.8c-.5.3-1.2.6-2 .6-1.3 0-2.2-1.1-2.3-2.7zm11.5 3-.2-.8c-.5.3-1.2.6-1.9.6-1.4 0-2.4-1.1-2.4-2.7s.9-2.7 2.4-2.7c.7 0 1.4.2 1.9.5l.2-.8c-.6-.4-1.3-.6-2.1-.6-1.9 0-3.3 1.5-3.3 3.6s1.3 3.6 3.3 3.6c.8-.1 1.5-.3 2.1-.7zm5.1.3-.2-.8c-.4.2-.9.3-1.3.3-.7 0-1-.4-1-1.3l.1-4.1h2.3v-.8h-2.3v-1.6h-.9v1.5l-1 .2v.6l1 .1-.1 4c0 1.4.5 2.1 1.8 2.1.5.1 1.1 0 1.6-.2zm5.5-1.7c0-1.3-1-1.7-2-2-.9-.3-1.7-.5-1.7-1.3 0-.7.5-1 1.4-1 .6 0 1.3.2 1.9.5l.3-.8c-.6-.3-1.3-.5-2.1-.5-1.3 0-2.3.7-2.3 2 0 1.2 1 1.6 2 1.9.8.3 1.7.5 1.7 1.3 0 .7-.7 1.1-1.5 1.1-.7 0-1.4-.2-2-.6l-.3.8c.6.4 1.4.6 2.2.6 1.4 0 2.4-.8 2.4-2z"/><path class="st2" d="M13.2 187.8h540.7v32.9H13.2z"/><path class="st1" d="M31.3 207.5c0 1.1-.7 1.7-2.3 1.7h-2.1v-3.3h1.9c1.6-.1 2.5.5 2.5 1.6zm-.3-4.2c0 1.1-.9 1.7-2.3 1.7h-1.8v-3.3h2c1.4-.1 2.1.6 2.1 1.6zm-.8 2c1.2-.3 1.8-1.2 1.8-2.1 0-1.4-.9-2.4-3.2-2.4h-2.9v9.3h3c2.3 0 3.3-1.1 3.3-2.6 0-1.1-.7-1.9-2-2.2zm7.3 3.9c.1.7.6 1 1.5 1l.1-.8c-.6 0-.7-.2-.7-.7v-3.3c0-1.7-.9-2.4-2.4-2.4-.9 0-1.9.4-2.5.8l.2.9c.6-.4 1.5-.8 2.2-.8 1.1 0 1.6.5 1.6 1.6v.4c-3.2.2-4.1 1.2-4.1 2.4 0 1.1.9 1.9 2.1 1.9.8 0 1.5-.4 2-1zm0-.7c-.4.5-1 .9-1.8.9s-1.4-.5-1.4-1.2c0-.9.8-1.4 3.2-1.7v2zm3.8 1.5v-10.1l-.9.1v10zm5.8-.8c.1.7.6 1 1.5 1l.1-.8c-.6 0-.7-.2-.7-.7v-3.3c0-1.7-.9-2.4-2.4-2.4-.9 0-1.9.4-2.5.8l.2.9c.6-.4 1.5-.8 2.2-.8 1.1 0 1.6.5 1.6 1.6v.4c-3.2.2-4.1 1.2-4.1 2.4 0 1.1.9 1.9 2.1 1.9.7 0 1.5-.4 2-1zm-.1-.7c-.4.5-1 .9-1.8.9s-1.4-.5-1.4-1.2c0-.9.8-1.4 3.2-1.7v2zm8.4 1.5v-4.7c0-1.5-.8-2.3-2.2-2.3-.7 0-1.6.4-2.3 1.1V203l-.9.2v6.8h.9v-5.1c.6-.6 1.3-1 2.1-1 1 0 1.5.5 1.5 1.7v4.4h.9zm7-.4-.2-.8c-.5.3-1.2.6-1.9.6-1.4 0-2.4-1.1-2.4-2.7s.9-2.7 2.4-2.7c.7 0 1.4.2 1.9.5l.2-.8c-.6-.4-1.3-.6-2.1-.6-1.9 0-3.3 1.5-3.3 3.6s1.3 3.6 3.3 3.6c.8-.1 1.6-.3 2.1-.7zm2.2-3.7c.1-1.1.9-2.1 2.1-2.1 1.1 0 1.6.7 1.6 1.7v.3l-3.7.1zm0 .8h4.6c.1-.3.1-.7.1-1.1 0-1.5-1-2.5-2.5-2.5-1.8 0-3.2 1.5-3.2 3.6s1.3 3.5 3.3 3.5c.8 0 1.6-.2 2.2-.6l-.2-.8c-.5.3-1.2.6-2 .6-1.4 0-2.3-1.1-2.3-2.7zm14.4-2.3v4.2c-.5.4-1.1.8-1.8.8-1.4 0-2.3-1.1-2.3-2.7s.9-2.8 2.4-2.8c.6 0 1.3.2 1.7.5zm0-.9c-.4-.2-1.1-.4-1.6-.4-2 0-3.4 1.5-3.4 3.6s1.2 3.5 3 3.5c.8 0 1.5-.4 2-.8v.6h.9v-10.2l-.9.2v3.5zm4 6.5v-7l-.9.2v6.8h.9zm.1-9c0-.3-.2-.7-.6-.7-.4 0-.6.3-.6.7 0 .4.2.7.6.7.4 0 .6-.3.6-.7zm6.1 7.2c0-1.3-1-1.7-2-2-.9-.3-1.7-.5-1.7-1.3 0-.7.5-1 1.4-1 .6 0 1.3.2 1.9.5l.3-.8c-.6-.3-1.3-.5-2.1-.5-1.3 0-2.3.7-2.3 2 0 1.2 1 1.6 2 1.9.8.3 1.7.5 1.7 1.3 0 .7-.7 1.1-1.5 1.1-.7 0-1.4-.2-2-.6l-.3.8c.6.4 1.4.6 2.2.6 1.3 0 2.4-.8 2.4-2zm6.9-1.5c0 1.6-.9 2.7-2.4 2.7-1.4 0-2.4-1.1-2.4-2.8 0-1.6.9-2.7 2.4-2.7 1.4 0 2.4 1.1 2.4 2.8zm.9-.1c0-2.2-1.4-3.6-3.3-3.6s-3.3 1.4-3.3 3.6 1.4 3.6 3.3 3.6 3.3-1.4 3.3-3.6zm2.6-.9c.5-1.2 1.2-1.7 1.9-1.7.4 0 .7.1 1 .3l.2-.9c-.3-.2-.7-.3-1.2-.3-.9 0-1.6.6-2 1.5v-1.5l-.9.2v6.8h.9v-4.4zm8.8-1.3v4.2c-.5.4-1.1.8-1.8.8-1.4 0-2.3-1.1-2.3-2.7s.9-2.8 2.4-2.8c.7 0 1.3.2 1.7.5zm0-.9c-.4-.2-1.1-.4-1.6-.4-2 0-3.4 1.5-3.4 3.6s1.2 3.5 3 3.5c.8 0 1.5-.4 2-.8v.6h.9v-10.2l-.9.2v3.5zm3.6 2.4c.1-1.1.9-2.1 2.1-2.1 1.1 0 1.6.7 1.6 1.7v.3l-3.7.1zm-.1.8h4.6c.1-.3.1-.7.1-1.1 0-1.5-1-2.5-2.5-2.5-1.8 0-3.2 1.5-3.2 3.6s1.3 3.5 3.3 3.5c.8 0 1.6-.2 2.2-.6l-.2-.8c-.5.3-1.2.6-2 .6-1.3 0-2.2-1.1-2.3-2.7zm7.4-1c.5-1.2 1.2-1.7 1.9-1.7.4 0 .7.1 1 .3l.2-.9c-.3-.2-.7-.3-1.2-.3-.9 0-1.6.6-2 1.5v-1.5l-.9.2v6.8h.9v-4.4zm8.5 2.5c0-1.3-1-1.7-2-2-.9-.3-1.7-.5-1.7-1.3 0-.7.5-1 1.4-1 .6 0 1.3.2 1.9.5l.3-.8c-.6-.3-1.3-.5-2.1-.5-1.3 0-2.3.7-2.3 2 0 1.2 1 1.6 2 1.9.8.3 1.7.5 1.7 1.3 0 .7-.7 1.1-1.5 1.1-.7 0-1.4-.2-2-.6l-.3.8c.6.4 1.4.6 2.2.6 1.3 0 2.4-.8 2.4-2zm4.3-8.6h-.7l-3.6 13.4h.7zm4.4.4c-.3-.1-.8-.3-1.2-.3-1.2 0-2 .7-2 2.4v1.1l-1 .2-.1.6 1.1.1v5.9h.9v-5.9h2.1v-.8h-2.1v-1.1c0-1.1.4-1.6 1.1-1.6.4 0 .7.1 1 .3l.2-.9zm4.5 9.2c.1.7.6 1 1.5 1l.1-.8c-.6 0-.7-.2-.7-.7v-3.3c0-1.7-.9-2.4-2.4-2.4-.9 0-1.9.4-2.5.8l.2.9c.6-.4 1.5-.8 2.2-.8 1.1 0 1.6.5 1.6 1.6v.4c-3.2.2-4.1 1.2-4.1 2.4 0 1.1.9 1.9 2.1 1.9.8 0 1.5-.4 2-1zm0-.7c-.4.5-1 .9-1.8.9s-1.4-.5-1.4-1.2c0-.9.8-1.4 3.2-1.7v2zm3.8 1.5v-10.1l-.9.1v10zm3.1 0v-10.1l-.9.1v10z"/><path class="st3" d="M13.2 220.7h540.7v32.9H13.2z"/><path class="st1" d="M33.2 242.9v-9.2h-.9v4.2h-5.5v-4.2h-.9v9.2h.9v-4.2h5.5v4.2zm2.8-4c.1-1.1.9-2.1 2.1-2.1 1.1 0 1.6.7 1.6 1.7v.3l-3.7.1zm0 .7h4.6c.1-.3.1-.7.1-1.1 0-1.5-1-2.5-2.5-2.5-1.8 0-3.2 1.5-3.2 3.6s1.3 3.5 3.3 3.5c.8 0 1.6-.2 2.2-.6l-.2-.8c-.5.3-1.2.6-2 .6-1.4 0-2.3-1.1-2.3-2.7zm10 2.5c.1.7.6 1 1.5 1l.1-.8c-.6 0-.7-.2-.7-.7v-3.3c0-1.7-.9-2.4-2.4-2.4-.9 0-1.9.4-2.5.8l.2.9c.6-.4 1.5-.8 2.2-.8 1.1 0 1.6.5 1.6 1.6v.4c-3.2.2-4.1 1.2-4.1 2.4 0 1.1.9 1.9 2.1 1.9.8 0 1.5-.4 2-1zm0-.6c-.4.5-1 .9-1.8.9s-1.4-.5-1.4-1.2c0-.9.8-1.4 3.2-1.7v2zm7.5-4.1v4.2c-.5.4-1.1.8-1.8.8-1.4 0-2.3-1.1-2.3-2.7s.9-2.8 2.4-2.8c.7-.1 1.3.1 1.7.5zm0-1c-.4-.2-1.1-.4-1.6-.4-2 0-3.4 1.5-3.4 3.6s1.2 3.5 3 3.5c.8 0 1.5-.4 2-.8v.6h.9v-10.2l-.9.2v3.5zm6.6 5.7c.1.7.6 1 1.5 1l.1-.8c-.6 0-.7-.2-.7-.7v-3.3c0-1.7-.9-2.4-2.4-2.4-.9 0-1.9.4-2.5.8l.2.9c.6-.4 1.5-.8 2.2-.8 1.1 0 1.6.5 1.6 1.6v.4c-3.2.2-4.1 1.2-4.1 2.4 0 1.1.9 1.9 2.1 1.9.8 0 1.5-.4 2-1zm0-.6c-.4.5-1 .9-1.8.9s-1.4-.5-1.4-1.2c0-.9.8-1.4 3.2-1.7v2zm7.9 1.1-.2-.8c-.5.3-1.2.6-1.9.6-1.4 0-2.4-1.1-2.4-2.7s.9-2.7 2.4-2.7c.7 0 1.4.2 1.9.5l.2-.8c-.6-.4-1.3-.6-2.1-.6-1.9 0-3.3 1.5-3.3 3.6s1.3 3.6 3.3 3.6c.8-.2 1.5-.4 2.1-.7zm7.1.3v-4.7c0-1.5-.8-2.3-2.1-2.3-.8 0-1.6.4-2.4 1.1v-4.3l-.9.2v10h.9v-5.1c.6-.6 1.3-1 2.1-1 1 0 1.5.5 1.5 1.7v4.4h.9zm2.7-4c.1-1.1.9-2.1 2.1-2.1 1.1 0 1.6.7 1.6 1.7v.3l-3.7.1zm-.1.7h4.6c.1-.3.1-.7.1-1.1 0-1.5-1-2.5-2.5-2.5-1.8 0-3.2 1.5-3.2 3.6s1.3 3.5 3.3 3.5c.8 0 1.6-.2 2.2-.6l-.2-.8c-.5.3-1.2.6-2 .6-1.4 0-2.3-1.1-2.3-2.7z"/><path class="st2" d="M13.2 253.6h540.7v32.9H13.2z"/><path class="st1" d="M30.7 272.4h-3.5l1.8-4.8 1.7 4.8zm-1.1-5.8h-1.1l-3.5 9.3h1l1-2.7h4.2l1 2.7h1l-3.6-9.3zm5.6 5.9 3.1 3.4h1.2l-3.3-3.6 3.2-3.2h-1.1l-3.1 3.1v-6.5l-.9.2v10h.9v-3.4zm9.1 2.6c.1.7.6 1 1.5 1l.1-.8c-.6 0-.7-.2-.7-.7v-3.3c0-1.7-.9-2.4-2.4-2.4-.9 0-1.9.4-2.5.8l.2.9c.6-.4 1.5-.8 2.2-.8 1.1 0 1.6.5 1.6 1.6v.4c-3.2.2-4.1 1.2-4.1 2.4 0 1.1.9 1.9 2.1 1.9.8 0 1.5-.5 2-1zm0-.7c-.4.5-1 .9-1.8.9s-1.4-.5-1.4-1.2c0-.9.8-1.4 3.2-1.7v2zm6.3 1.3-.2-.8c-.4.2-.9.3-1.3.3-.7 0-1-.4-1-1.3l.1-4.1h2.3v-.8h-2.3v-1.6h-.9v1.5l-1 .2v.6l1 .1-.1 4c0 1.4.5 2.1 1.8 2.1.6.2 1.1.1 1.6-.2zm6.9.2v-4.7c0-1.5-.8-2.3-2.1-2.3-.8 0-1.6.4-2.4 1.1v-4.3l-.9.2v10h.9v-5.1c.6-.6 1.3-1 2.1-1 1 0 1.5.5 1.5 1.7v4.4h.9zm3 0v-7l-.9.2v6.8h.9zm.2-9.1c0-.3-.2-.7-.6-.7-.4 0-.6.3-.6.7 0 .4.2.7.6.7.4 0 .6-.3.6-.7zm6 7.2c0-1.3-1-1.7-2-2-.9-.3-1.7-.5-1.7-1.3 0-.7.5-1 1.4-1 .6 0 1.3.2 1.9.5l.3-.8c-.6-.3-1.3-.5-2.1-.5-1.3 0-2.3.7-2.3 2 0 1.2 1 1.6 2 1.9.8.3 1.7.5 1.7 1.3 0 .7-.7 1.1-1.5 1.1-.7 0-1.4-.2-2-.6l-.3.8c.6.4 1.4.6 2.2.6 1.4.1 2.4-.7 2.4-2zm2.6 1.9v-7l-.9.2v6.8h.9zm.2-9.1c0-.3-.2-.7-.6-.7-.4 0-.6.3-.6.7 0 .4.2.7.6.7.4 0 .6-.3.6-.7zm5.6 8.3c.1.7.6 1 1.5 1l.1-.8c-.6 0-.7-.2-.7-.7v-3.3c0-1.7-.9-2.4-2.4-2.4-.9 0-1.9.4-2.5.8l.2.9c.6-.4 1.5-.8 2.2-.8 1.1 0 1.6.5 1.6 1.6v.4c-3.2.2-4.1 1.2-4.1 2.4 0 1.1.9 1.9 2.1 1.9.8 0 1.5-.5 2-1zm-.1-.7c-.4.5-1 .9-1.8.9s-1.4-.5-1.4-1.2c0-.9.8-1.4 3.2-1.7v2z"/><path class="st3" d="M13.2 286.6h540.7v32.9H13.2z"/><path class="st1" d="M32.8 299.5h-1l-3 8.3-3-8.3h-.9l3.3 9.3h1.2zm5.9 5.9c0 1.6-.9 2.7-2.4 2.7-1.4 0-2.4-1.1-2.4-2.8 0-1.6.9-2.7 2.4-2.7s2.4 1.1 2.4 2.8zm.9 0c0-2.2-1.4-3.6-3.3-3.6s-3.3 1.4-3.3 3.6 1.4 3.6 3.3 3.6 3.3-1.5 3.3-3.6zm11.1 3.4v-4.6c0-1.5-.8-2.3-2.1-2.3-.8 0-1.6.4-2.4 1.1-.3-.8-1-1.1-1.8-1.1-.7 0-1.5.3-2.1.9v-.9l-.9.2v6.8h.9v-5.3c.5-.5 1.2-.8 1.9-.8 1 0 1.4.5 1.4 1.7v4.4h.9V303.7c.5-.5 1.2-.9 1.9-.9 1 0 1.4.5 1.4 1.7v4.4h.9zm3.1 0v-7l-.9.2v6.8h.9zm.1-9c0-.3-.2-.7-.6-.7-.4 0-.6.3-.6.7 0 .4.2.7.6.7.4-.1.6-.4.6-.7zm5.4 8.9-.2-.8c-.4.2-.9.3-1.3.3-.7 0-1-.4-1-1.3l.1-4.1h2.3v-.8H57v-1.6h-.9v1.5l-1 .2v.6l1 .1-.1 4c0 1.4.5 2.1 1.8 2.1.5.1 1 0 1.5-.2zm2.4.1v-7l-.9.2v6.8h.9zm.2-9c0-.3-.2-.7-.6-.7-.4 0-.6.3-.6.7 0 .4.2.7.6.7.4-.1.6-.4.6-.7zm7.4 9v-4.7c0-1.5-.8-2.3-2.2-2.3-.7 0-1.6.4-2.3 1.1v-1.1l-.9.2v6.8h.9v-5.1c.6-.6 1.3-1 2.1-1 1 0 1.5.5 1.5 1.7v4.4h.9zm2.6 0c-.9.2-1.5.9-1.5 1.7 0 1.2 1.2 2 3.1 2 1.9 0 3.6-1 3.6-2.5 0-1.1-.8-1.8-2.8-1.8h-.9c-1.2 0-1.5-.3-1.5-.7 0-.4.4-.7.8-.8.3.1.6.2 1 .2 1.5 0 2.6-1.1 2.6-2.5 0-.5-.2-1.2-.5-1.5l1.5.1v-.9l-1.9.1c-.4-.2-.9-.4-1.6-.4-1.6 0-2.7 1.1-2.7 2.5 0 .9.4 1.7 1.1 2.1-.6.2-1.1.7-1.1 1.3-.1.5.2.9.8 1.1zm.8.2h1.4c1.3 0 2.1.3 2.1 1.1 0 .9-1.1 1.6-2.5 1.6s-2.3-.6-2.3-1.4c-.1-.6.5-1.1 1.3-1.3zm-.8-4.6c0-1.1.7-1.8 1.7-1.8 1.1 0 1.7.8 1.7 1.8s-.7 1.8-1.7 1.8c-1.1-.1-1.7-.9-1.7-1.8z"/><path class="st2" d="M13.2 319.5h540.7v32.9H13.2z"/><path class="st1" d="m32.2 340.4-5.2-8h-1.1v9.3h.9v-7.9l5.3 8h1v-9.4h-.9zm6.8.5c.1.7.6 1 1.5 1l.1-.8c-.6 0-.7-.2-.7-.7v-3.3c0-1.7-.9-2.4-2.4-2.4-.9 0-1.9.4-2.5.8l.2.9c.6-.4 1.5-.8 2.2-.8 1.1 0 1.6.5 1.6 1.6v.4c-3.2.2-4.1 1.2-4.1 2.4 0 1.1.9 1.9 2.1 1.9.8 0 1.5-.4 2-1zm-.1-.7c-.4.5-1 .9-1.8.9s-1.4-.5-1.4-1.2c0-.9.8-1.4 3.2-1.7v2zm2.9-5.3v4.7c0 1.5.8 2.3 2.1 2.3.8 0 1.6-.4 2.3-1.1v1.1l.9-.2v-6.8h-.9v5.1c-.5.6-1.3 1-2.1 1-1 0-1.5-.5-1.5-1.7v-4.4h-.8zm11.6 5c0-1.3-1-1.7-2-2-.9-.3-1.7-.5-1.7-1.3 0-.7.5-1 1.4-1 .6 0 1.3.2 1.9.5l.3-.8c-.6-.3-1.3-.5-2.1-.5-1.3 0-2.3.7-2.3 2 0 1.2 1 1.6 2 1.9.8.3 1.7.5 1.7 1.3 0 .7-.7 1.1-1.5 1.1-.7 0-1.4-.2-2-.6l-.3.8c.6.4 1.4.6 2.2.6 1.4 0 2.4-.8 2.4-2zm2.3-2.3c.1-1.1.9-2.1 2.1-2.1 1.1 0 1.6.7 1.6 1.7v.3l-3.7.1zm-.1.7h4.6c.1-.3.1-.7.1-1.1 0-1.5-1-2.5-2.5-2.5-1.8 0-3.2 1.5-3.2 3.6s1.3 3.5 3.3 3.5c.8 0 1.6-.2 2.2-.6l-.2-.8c-.5.3-1.2.6-2 .6-1.4 0-2.3-1.1-2.3-2.7zm10.1 2.6c.1.7.6 1 1.5 1l.1-.8c-.6 0-.7-.2-.7-.7v-3.3c0-1.7-.9-2.4-2.4-2.4-.9 0-1.9.4-2.5.8l.2.9c.6-.4 1.5-.8 2.2-.8 1.1 0 1.6.5 1.6 1.6v.4c-3.2.2-4.1 1.2-4.1 2.4 0 1.1.9 1.9 2.1 1.9.7 0 1.5-.4 2-1zm-.1-.7c-.4.5-1 .9-1.8.9s-1.4-.5-1.4-1.2c0-.9.8-1.4 3.2-1.7v2z"/><path class="st3" d="M13.2 352.4h540.7v32.9H13.2z"/><path class="st1" d="M30.7 371.1h-3.5l1.8-4.8 1.7 4.8zm-1.1-5.7h-1.1l-3.5 9.3h1l1-2.7h4.2l1 2.7h1l-3.6-9.3zm5.6 4.9c.5-1.2 1.2-1.7 1.9-1.7.4 0 .7.1 1 .3l.2-.9c-.3-.2-.7-.3-1.2-.3-.9 0-1.6.6-2 1.5v-1.5l-.9.2v6.8h.9v-4.4zm8 4.2-.2-.8c-.4.2-.9.3-1.3.3-.7 0-1-.4-1-1.3l.1-4.1h2.3v-.8h-2.3v-1.6H40v1.5l-1 .2v.6l1 .1-.1 4c0 1.4.5 2.1 1.8 2.1.4.1 1 0 1.5-.2zm6.9.1V370c0-1.5-.8-2.3-2.1-2.3-.8 0-1.6.4-2.4 1.1v-4.3l-.9.2v10h.9v-5.1c.6-.6 1.3-1 2.1-1 1 0 1.5.5 1.5 1.7v4.4h.9zm3-4.3c.5-1.2 1.2-1.7 1.9-1.7.4 0 .7.1 1 .3l.2-.9c-.3-.2-.7-.3-1.2-.3-.9 0-1.6.6-2 1.5v-1.5l-.9.2v6.8h.9v-4.4zm7.8 3.5c.1.7.6 1 1.5 1l.1-.8c-.6 0-.7-.2-.7-.7V370c0-1.7-.9-2.4-2.4-2.4-.9 0-1.9.4-2.5.8l.2.9c.6-.4 1.5-.8 2.2-.8 1.1 0 1.6.5 1.6 1.6v.4c-3.2.2-4.1 1.2-4.1 2.4 0 1.1.9 1.9 2.1 1.9.8 0 1.5-.4 2-1zm0-.7c-.4.5-1 .9-1.8.9s-1.4-.5-1.4-1.2c0-.9.8-1.4 3.2-1.7v2zm3.9 1.5v-10.2l-1 .2v10zm2.6 0c-.9.2-1.5.9-1.5 1.7 0 1.2 1.2 2 3.1 2 1.9 0 3.6-1 3.6-2.5 0-1.1-.8-1.8-2.8-1.8h-.9c-1.2 0-1.5-.3-1.5-.7 0-.4.4-.7.8-.8.3.1.6.2 1 .2 1.5 0 2.6-1.1 2.6-2.5 0-.5-.2-1.2-.5-1.5l1.5.1v-.9l-1.9.1c-.4-.2-.9-.4-1.6-.4-1.6 0-2.7 1.1-2.7 2.5 0 .9.4 1.7 1.1 2.1-.6.2-1.1.7-1.1 1.3-.1.5.2.9.8 1.1zm.8.2h1.4c1.3 0 2.1.3 2.1 1.1 0 .9-1.1 1.6-2.5 1.6s-2.3-.6-2.3-1.4c-.1-.5.5-1.1 1.3-1.3zm-.8-4.6c0-1.1.7-1.8 1.7-1.8 1.1 0 1.7.8 1.7 1.8s-.7 1.8-1.7 1.8c-1-.1-1.7-.8-1.7-1.8zm7.4 4.4v-7l-.9.2v6.8h.9zm.1-9c0-.3-.2-.7-.6-.7-.4 0-.6.3-.6.7 0 .4.2.7.6.7.4 0 .6-.3.6-.7zm5.6 8.2c.1.7.6 1 1.5 1l.1-.8c-.6 0-.7-.2-.7-.7V370c0-1.7-.9-2.4-2.4-2.4-.9 0-1.9.4-2.5.8l.2.9c.6-.4 1.5-.8 2.2-.8 1.1 0 1.6.5 1.6 1.6v.4c-3.2.2-4.1 1.2-4.1 2.4 0 1.1.9 1.9 2.1 1.9.8 0 1.5-.4 2-1zm0-.7c-.4.5-1 .9-1.8.9s-1.4-.5-1.4-1.2c0-.9.8-1.4 3.2-1.7v2zM233.3 85.6h1.8v9.3h-1.8zm10.4 6.7-4.4-6.7h-2v9.2h1.7v-6.7l4.4 6.8h2v-9.3h-1.7zm11.6 1.9v-4.3h-4.1v1.5h2.4v1.8c-.5.2-1.1.4-1.7.4-1.9 0-3-1.3-3-3.4 0-2 1.2-3.3 3-3.3.9 0 1.9.3 2.7.8l.6-1.6c-.8-.5-2.1-.8-3.3-.8-2.9 0-4.8 1.9-4.8 4.9 0 3 2 4.8 4.8 4.8 1.1 0 2.5-.3 3.4-.8zm3.7-4.1v-3h1.2c1.3 0 2 .5 2 1.4 0 1-.7 1.5-1.8 1.6H259zm0 1.4 1.3-.1 2.1 3.4h2.1l-2.4-3.8c1.3-.4 2-1.3 2-2.7 0-1.7-1.2-2.8-3.6-2.8h-3.2v9.3h1.8v-3.3zm13.2 3.3v-1.5h-4.6v-2.4h3.7v-1.5h-3.7v-2.3h4.6v-1.5h-6.4v9.2zm8.4 0v-1.6h-4.9l4.9-6.4v-1.2h-7.1v1.5h4.8l-4.9 6.5v1.2zm8.4 0v-1.6h-4.9l4.9-6.4v-1.2h-7.1v1.5h4.8l-4.9 6.5v1.2zm6.5-3.7h-2.8l1.4-4 1.4 4zm-.3-5.5H293l-3.4 9.3h1.8l.8-2.2h3.7l.8 2.2h1.8l-3.3-9.3zm-59.7 30.9.4-.7c-1.6-.8-3.6-3.1-3.6-6.3 0-3.2 2-5.5 3.6-6.3l-.4-.7c-1.7.9-4 3.3-4 6.9 0 3.8 2.4 6.2 4 7.1zm6.7-3.6v-4.7c0-1.5-.8-2.3-2.2-2.3-.7 0-1.6.4-2.3 1.1v-1.1l-.9.2v6.8h.9v-5.1c.6-.6 1.3-1 2.1-1 1 0 1.5.5 1.5 1.7v4.4h.9zm7.1-1.7-.1-.8h-5.5l-.1.8h5.7zm0-2.6.1-.8h-5.6l.1.8h5.4zm6.5 4.3v-.9h-4c2-1.5 3.7-2.6 3.7-4.2 0-1.3-1-2.1-2.4-2.1-1 0-1.8.4-2.5.9l.3.8c.7-.5 1.4-.9 2.1-.9 1 0 1.6.6 1.6 1.4 0 1.2-1.5 2.2-4 4.1v.8h5.2zm2.2-3.3v-.5c.6-.6 1.4-1 2.3-1 1.1 0 1.9.7 1.9 2s-.8 2.2-2.1 2.2-2.1-1.3-2.1-2.7zm-.9-.2c0 2 1.1 3.7 3.2 3.7 1.9 0 3-1.3 3-3.1s-1.3-2.8-2.7-2.8c-1 0-1.8.4-2.5 1 .4-1.9 1.9-3.4 4.4-4l-.3-.9c-3.5 1-5.1 3.6-5.1 6.1zm12.8 3.5v-.9h-4c2-1.5 3.7-2.6 3.7-4.2 0-1.3-1-2.1-2.4-2.1-1 0-1.8.4-2.5.9l.3.8c.7-.5 1.4-.9 2.1-.9 1 0 1.6.6 1.6 1.4 0 1.2-1.5 2.2-4 4.1v.8h5.2zm.7 3.6c1.7-.9 4-3.3 4-6.9 0-3.6-2.3-6.1-4-6.9l-.4.7c1.6.8 3.6 3.1 3.6 6.3 0 3.1-2 5.4-3.6 6.3l.4.5zm13.3 0 .4-.7c-1.6-.8-3.6-3.1-3.6-6.3 0-3.2 2-5.5 3.6-6.3l-.4-.7c-1.7.9-4 3.3-4 6.9 0 3.8 2.4 6.2 4 7.1zm10.3-5.7c0 1-.7 1.8-1.8 1.8s-1.8-.8-1.8-1.8.7-1.8 1.8-1.8c1.2 0 1.8.9 1.8 1.8zm-5.6-5c0 1-.7 1.8-1.8 1.8s-1.8-.8-1.8-1.8.7-1.8 1.8-1.8c1.1-.1 1.8.8 1.8 1.8zm6.3 5c0-1.3-.9-2.4-2.5-2.4-1.5 0-2.5 1.1-2.5 2.4 0 1.3.9 2.5 2.5 2.5 1.5 0 2.5-1.1 2.5-2.5zm-1.1-7.3h-.8l-7.5 9.7h.8l7.5-9.7zm-4.5 2.3c0-1.3-.9-2.5-2.5-2.5-1.5 0-2.5 1.1-2.5 2.5 0 1.3.9 2.4 2.5 2.4 1.5 0 2.5-1.1 2.5-2.4zm6 10.7c1.7-.9 4-3.3 4-6.9 0-3.6-2.3-6.1-4-6.9l-.4.7c1.6.8 3.6 3.1 3.6 6.3 0 3.1-2 5.4-3.6 6.3l.4.5zm-44.1 27.7h.9V137l-2.7 1 .1.8 1.7-.6zm9.3-3.5c0 1.6-1.1 2.8-2.7 2.8s-2.6-1.2-2.6-2.8c0-1.6 1.1-2.8 2.6-2.8 1.7 0 2.7 1.2 2.7 2.8zm1 0c0-2.2-1.5-3.7-3.6-3.7-2 0-3.6 1.5-3.6 3.7s1.5 3.7 3.6 3.7c2 0 3.6-1.5 3.6-3.7zm2.4 2.9c0-.4-.3-.7-.7-.7-.4 0-.7.3-.7.7 0 .4.3.8.7.8.4 0 .7-.4.7-.8zm6.4-3.1v.5c-.6.6-1.4 1-2.3 1-1.1 0-1.9-.7-1.9-2s.8-2.2 2.1-2.2c1.3.1 2.1 1.3 2.1 2.7zm.9.2c0-2-1.1-3.7-3.1-3.7-1.9 0-3.1 1.3-3.1 3.1s1.3 2.8 2.7 2.8c1 0 1.8-.4 2.5-1-.4 1.9-1.9 3.4-4.4 4l.3.9c3.5-1 5.1-3.6 5.1-6.1zm10.8 1.4c0 1-.7 1.8-1.8 1.8s-1.8-.8-1.8-1.8.7-1.8 1.8-1.8 1.8.8 1.8 1.8zm-5.6-5c0 1-.7 1.8-1.8 1.8s-1.8-.8-1.8-1.8.7-1.8 1.8-1.8c1.1-.1 1.8.7 1.8 1.8zm6.2 5c0-1.3-.9-2.4-2.5-2.4-1.5 0-2.5 1.1-2.5 2.4 0 1.3.9 2.5 2.5 2.5s2.5-1.2 2.5-2.5zm-1.1-7.4h-.8l-7.5 9.7h.8l7.5-9.7zm-4.5 2.4c0-1.3-.9-2.5-2.5-2.5-1.5 0-2.5 1.1-2.5 2.5 0 1.3.9 2.4 2.5 2.4s2.5-1.1 2.5-2.4zM253.5 174l.4-3h3.7v-.9h-4.4l-.6 4.6.3.3c.5-.2.9-.3 1.8-.3 1.4 0 2.2.9 2.2 2.1 0 1.4-1 2.2-2.3 2.2-.8 0-1.6-.3-2.2-.6l-.2.9c.6.3 1.5.6 2.4.6 1.8 0 3.2-1.3 3.2-3.2 0-1.6-1.2-2.8-3.1-2.8-.5 0-.8 0-1.2.1zm7 2.5c0-.4-.3-.7-.7-.7s-.7.3-.7.7c0 .4.3.8.7.8s.7-.4.7-.8zm5.6-.5h-3.5l3.5-4.7v4.7zm2.4.9v-.9H267v-6.1h-.8l-4.8 6.4.1.6h4.5v2.9h.9v-2.9h1.6zm10.3-1.9c0 1-.7 1.8-1.8 1.8s-1.8-.8-1.8-1.8.7-1.8 1.8-1.8 1.8.8 1.8 1.8zm-5.6-5c0 1-.7 1.8-1.8 1.8s-1.8-.8-1.8-1.8.7-1.8 1.8-1.8c1.1-.1 1.8.7 1.8 1.8zm6.2 5c0-1.3-.9-2.4-2.5-2.4-1.5 0-2.5 1.1-2.5 2.4 0 1.3.9 2.5 2.5 2.5s2.5-1.1 2.5-2.5zm-1.1-7.4h-.8l-7.5 9.7h.8l7.5-9.7zm-4.5 2.4c0-1.3-.9-2.5-2.5-2.5-1.5 0-2.5 1.1-2.5 2.5 0 1.3.9 2.4 2.5 2.4s2.5-1.1 2.5-2.4zm-15.9 38.9h-3.5l3.5-4.7v4.7zm2.3.9v-.9h-1.4v-6.1h-.8l-4.8 6.4.1.6h4.5v2.9h.9v-2.9h1.5zm2.5-.3c0-.4-.3-.7-.7-.7s-.7.3-.7.7c0 .4.3.8.7.8s.7-.4.7-.8zm2.5.5h.9v-7.2l-2.6 1v.9l1.7-.7zm12.6-2.1c0 1-.7 1.8-1.8 1.8s-1.8-.8-1.8-1.8.7-1.8 1.8-1.8 1.8.9 1.8 1.8zm-5.7-5c0 1-.7 1.8-1.8 1.8s-1.8-.8-1.8-1.8.7-1.8 1.8-1.8c1.2 0 1.8.8 1.8 1.8zm6.3 5c0-1.3-.9-2.4-2.5-2.4-1.5 0-2.5 1.1-2.5 2.4 0 1.3.9 2.5 2.5 2.5s2.5-1.1 2.5-2.5zm-1.1-7.3h-.8l-7.5 9.7h.8l7.5-9.7zm-4.5 2.3c0-1.3-.9-2.5-2.5-2.5-1.5 0-2.5 1.1-2.5 2.5 0 1.3.9 2.4 2.5 2.4s2.5-1.1 2.5-2.4zm-17.4 37.6c1.1-.4 2-1.3 2-2.4 0-1.3-1-2.3-2.7-2.3-1 0-2 .4-2.6 1l.3.8c.6-.5 1.4-.9 2.2-.9 1.1 0 1.8.5 1.8 1.5 0 1.2-1.3 1.9-3.1 2.3v.8c.5-.1.9-.1 1.3-.1 1.2 0 2.1.7 2.1 1.8 0 1.2-.9 1.9-2.2 1.9-.9 0-1.7-.3-2.2-.6l-.2.8c.6.4 1.5.6 2.4.6 1.8 0 3.2-1.1 3.2-2.9.1-1.2-.8-2.2-2.3-2.3zm5.2 1.9c0-.4-.3-.7-.7-.7-.4 0-.7.3-.7.7 0 .4.3.8.7.8.4-.1.7-.4.7-.8zm5.7-.5h-3.5l3.5-4.7v4.7zm2.3.8v-.9h-1.4v-6.1h-.8l-4.8 6.4.1.6h4.5v2.9h.9v-2.9h1.5zm10.3-1.9c0 1-.7 1.8-1.8 1.8s-1.8-.8-1.8-1.8.7-1.8 1.8-1.8 1.8.9 1.8 1.8zm-5.6-5c0 1-.7 1.8-1.8 1.8s-1.8-.8-1.8-1.8.7-1.8 1.8-1.8 1.8.8 1.8 1.8zm6.3 5c0-1.3-.9-2.4-2.5-2.4-1.5 0-2.5 1.1-2.5 2.4 0 1.3.9 2.5 2.5 2.5 1.5 0 2.5-1.1 2.5-2.5zm-1.2-7.3h-.8l-7.5 9.7h.8l7.5-9.7zm-4.5 2.3c0-1.3-.9-2.5-2.5-2.5-1.5 0-2.5 1.1-2.5 2.5 0 1.3.9 2.4 2.5 2.4 1.6.1 2.5-1.1 2.5-2.4zm-15.4 40.1v-.9h-4c2-1.5 3.7-2.6 3.7-4.2 0-1.3-1-2.1-2.4-2.1-1 0-1.8.4-2.5.9l.3.8c.7-.5 1.4-.9 2.1-.9 1 0 1.6.6 1.6 1.4 0 1.2-1.5 2.2-4 4.1v.8h5.2zm2.7-.6c0-.4-.3-.7-.7-.7-.4 0-.7.3-.7.7 0 .4.3.8.7.8.4 0 .7-.4.7-.8zm5.6-5.5-4.1 8.8h.9l4.2-9v-.7H262l-.1.9zm11.5 4c0 1-.7 1.8-1.8 1.8s-1.8-.8-1.8-1.8.7-1.8 1.8-1.8 1.8.8 1.8 1.8zm-5.7-5.1c0 1-.7 1.8-1.8 1.8s-1.8-.8-1.8-1.8.7-1.8 1.8-1.8c1.2 0 1.8.8 1.8 1.8zm6.3 5.1c0-1.3-.9-2.4-2.5-2.4-1.5 0-2.5 1.1-2.5 2.4 0 1.3.9 2.5 2.5 2.5 1.6-.1 2.5-1.2 2.5-2.5zm-1.1-7.4h-.8l-7.5 9.7h.8l7.5-9.7zm-4.5 2.3c0-1.3-.9-2.5-2.5-2.5-1.5 0-2.5 1.1-2.5 2.5 0 1.3.9 2.4 2.5 2.4 1.6.1 2.5-1.1 2.5-2.4zm-15.2 40.1v-.9h-4c2-1.5 3.7-2.6 3.7-4.2 0-1.3-1-2.1-2.4-2.1-1 0-1.8.4-2.5.9l.3.8c.7-.5 1.4-.9 2.1-.9 1 0 1.6.6 1.6 1.4 0 1.2-1.5 2.2-4 4.1v.8h5.2zm2.7-.6c0-.4-.3-.7-.7-.7-.4 0-.7.3-.7.7s.3.8.7.8c.4 0 .7-.4.7-.8zm1.9-2.7v-.5c.6-.6 1.4-1 2.3-1 1.1 0 1.9.7 1.9 2s-.8 2.2-2.1 2.2c-1.3-.1-2.1-1.3-2.1-2.7zm-.9-.2c0 2 1.1 3.7 3.2 3.7 1.9 0 3-1.3 3-3.1s-1.3-2.8-2.7-2.8c-1 0-1.8.4-2.5 1 .4-1.9 1.9-3.4 4.4-4l-.3-.9c-3.5.9-5.1 3.6-5.1 6.1zm16.9 1.4c0 1-.7 1.8-1.8 1.8s-1.8-.8-1.8-1.8.7-1.8 1.8-1.8 1.8.8 1.8 1.8zm-5.7-5.1c0 1-.7 1.8-1.8 1.8s-1.8-.8-1.8-1.8.7-1.8 1.8-1.8c1.2 0 1.8.8 1.8 1.8zm6.3 5.1c0-1.3-.9-2.4-2.5-2.4-1.5 0-2.5 1.1-2.5 2.4 0 1.3.9 2.5 2.5 2.5s2.5-1.2 2.5-2.5zm-1.1-7.4h-.8l-7.5 9.7h.8l7.5-9.7zm-4.5 2.3c0-1.3-.9-2.5-2.5-2.5-1.5 0-2.5 1.1-2.5 2.5 0 1.3.9 2.4 2.5 2.4 1.6.1 2.5-1 2.5-2.4zm-15 40.1v-.9h-4c2-1.5 3.7-2.6 3.7-4.2 0-1.3-1-2.1-2.4-2.1-1 0-1.8.4-2.5.9l.3.8c.7-.5 1.4-.9 2.1-.9 1 0 1.6.6 1.6 1.4 0 1.2-1.5 2.2-4 4.1v.8h5.2zm2.6-.6c0-.4-.3-.7-.7-.7s-.7.3-.7.7c0 .4.3.8.7.8s.7-.4.7-.8zm4-1.9c1.1-.4 2-1.3 2-2.4 0-1.3-1-2.3-2.7-2.3-1 0-2 .4-2.6 1l.3.8c.6-.5 1.4-.9 2.2-.9 1.1 0 1.8.5 1.8 1.5 0 1.2-1.3 1.9-3.1 2.3v.8c.5-.1.9-.1 1.3-.1 1.2 0 2.1.7 2.1 1.8 0 1.2-.9 1.9-2.2 1.9-.9 0-1.7-.3-2.2-.6l-.2.8c.6.4 1.5.6 2.4.6 1.8 0 3.2-1.1 3.2-2.9.1-1.1-.8-2.2-2.3-2.3zm12.8.4c0 1-.7 1.8-1.8 1.8s-1.8-.8-1.8-1.8.7-1.8 1.8-1.8 1.8.8 1.8 1.8zm-5.6-5c0 1-.7 1.8-1.8 1.8s-1.8-.8-1.8-1.8.7-1.8 1.8-1.8c1.1-.1 1.8.7 1.8 1.8zm6.3 5c0-1.3-.9-2.4-2.5-2.4-1.5 0-2.5 1.1-2.5 2.4 0 1.3.9 2.5 2.5 2.5 1.5 0 2.5-1.2 2.5-2.5zm-1.1-7.4h-.8l-7.5 9.7h.8l7.5-9.7zm-4.6 2.4c0-1.3-.9-2.5-2.5-2.5-1.5 0-2.5 1.1-2.5 2.5 0 1.3.9 2.4 2.5 2.4s2.5-1.1 2.5-2.4zm-14.4 40v-.9h-4c2-1.5 3.7-2.6 3.7-4.2 0-1.3-1-2.1-2.4-2.1-1 0-1.8.4-2.5.9l.3.8c.7-.5 1.4-.9 2.1-.9 1 0 1.6.6 1.6 1.4 0 1.2-1.5 2.2-4 4.1v.8h5.2zm2.6-.6c0-.4-.3-.7-.7-.7s-.7.3-.7.7c0 .4.3.8.7.8s.7-.4.7-.8zm4-1.9c1.1-.4 2-1.3 2-2.4 0-1.3-1-2.3-2.7-2.3-1 0-2 .4-2.6 1l.3.8c.6-.5 1.4-.9 2.2-.9 1.1 0 1.8.5 1.8 1.5 0 1.2-1.3 1.9-3.1 2.3v.8c.5-.1.9-.1 1.3-.1 1.2 0 2.1.7 2.1 1.8 0 1.2-.9 1.9-2.2 1.9-.9 0-1.7-.3-2.2-.6l-.2.8c.6.4 1.5.6 2.4.6 1.8 0 3.2-1.1 3.2-2.9.1-1.1-.8-2.1-2.3-2.3zm12.8.4c0 1-.7 1.8-1.8 1.8s-1.8-.8-1.8-1.8.7-1.8 1.8-1.8 1.8.9 1.8 1.8zm-5.6-5c0 1-.7 1.8-1.8 1.8s-1.8-.8-1.8-1.8.7-1.8 1.8-1.8c1.1-.1 1.8.8 1.8 1.8zm6.3 5c0-1.3-.9-2.4-2.5-2.4-1.5 0-2.5 1.1-2.5 2.4 0 1.3.9 2.5 2.5 2.5 1.5 0 2.5-1.1 2.5-2.5zm-1.1-7.3h-.8l-7.5 9.7h.8l7.5-9.7zm-4.6 2.3c0-1.3-.9-2.5-2.5-2.5-1.5 0-2.5 1.1-2.5 2.5 0 1.3.9 2.4 2.5 2.4s2.5-1.1 2.5-2.4zm160-278.8c0 1.1-.7 1.7-2.1 1.7h-1.2V87h1.1c1.5.1 2.2.6 2.2 1.7zm1.8 0c0-1.8-1.3-3.1-3.8-3.1h-3v9.3h1.8V92h1.1c2.5-.1 3.9-1.2 3.9-3.3zm3.2 6.1V84.7l-1.7.2v9.9zm5.5-1.6c-.3.3-.8.6-1.3.6-.6 0-1-.4-1-.9 0-.7.6-1.1 2.3-1.3v1.6zm0 .8c.3.7.9 1.1 2.2.9l.1-1.3c-.5 0-.6-.1-.6-.6v-2.4c0-1.9-.8-2.8-2.9-2.8-1.1 0-2.2.4-2.9.8l.4 1.4c.7-.4 1.6-.7 2.3-.7 1 0 1.4.4 1.4 1.3v.2c-3.1.1-4 1.2-4 2.4 0 1.1.9 1.9 2.1 1.9.8-.1 1.4-.5 1.9-1.1zm9 .5-.3-1.4c-.5.3-1.2.5-1.9.5-1.2 0-1.9-.8-1.9-2.2 0-1.3.7-2.2 1.9-2.2.6 0 1.3.2 1.9.5l.4-1.4c-.6-.4-1.4-.6-2.4-.6-2.1 0-3.6 1.4-3.6 3.7 0 2.2 1.3 3.6 3.5 3.6 1 0 1.8-.2 2.4-.5zm2.8-3.8c.1-.8.7-1.6 1.6-1.6.9 0 1.3.6 1.3 1.5v.1h-2.9zm-.1 1 4.5-.1c.1-.3.1-.8.1-1.1 0-1.7-1-2.8-2.8-2.8-2 0-3.5 1.5-3.5 3.7s1.5 3.6 3.6 3.6c.9 0 1.8-.2 2.5-.6l-.2-1.5c-.6.4-1.4.6-2.1.6-1.3.1-2-.6-2.1-1.8zm11-.3c0 1.3-.7 2.2-1.8 2.2-.5 0-1-.1-1.3-.4v-3.5c.4-.3.8-.6 1.4-.6 1 .1 1.7 1 1.7 2.3zm1.7-.1c0-2.1-1.2-3.6-3-3.6-.8 0-1.5.4-1.9.9v-4l-1.7.2V95l1.7-.3c.4.1 1.1.2 1.5.2 1.9.1 3.4-1.4 3.4-3.6zm6.3.1c0 1.3-.6 2.2-1.7 2.2s-1.8-.9-1.8-2.2c0-1.3.6-2.2 1.8-2.2 1.1 0 1.7.9 1.7 2.2zm1.8 0c0-2.3-1.4-3.6-3.5-3.6-2 0-3.5 1.4-3.5 3.7 0 2.3 1.5 3.6 3.5 3.6s3.5-1.5 3.5-3.7zm-53 25.1.4-.7c-1.6-.8-3.6-3.1-3.6-6.3 0-3.2 2-5.5 3.6-6.3l-.4-.7c-1.7.9-4 3.3-4 6.9 0 3.8 2.3 6.2 4 7.1zm6.6-3.6v-4.7c0-1.5-.8-2.3-2.2-2.3-.7 0-1.6.4-2.3 1.1v-1.1l-.9.2v6.8h.9v-5.1c.6-.6 1.3-1 2.1-1 1 0 1.5.5 1.5 1.7v4.4h.9zm7.2-1.7-.1-.8h-5.5l-.1.8h5.7zm-.1-2.6.1-.8h-5.6l.1.8h5.4zm2.9 4.3h.9v-7.2l-2.6 1v.9l1.7-.7zm7.2-4.6c.8-.3 1.7-1.1 1.7-2.3 0-1.4-1.1-2.4-2.8-2.4s-2.9 1.1-2.9 2.5c0 1.1.8 1.7 1.8 2.2-.8.3-2 1.1-2 2.4 0 1.3.9 2.5 3 2.5 2 0 3-1.2 3-2.6.1-1.2-.8-1.8-1.8-2.3zm-1.4.3c1.2.5 2.3.9 2.3 2.1 0 1-.7 1.6-2 1.6s-2.1-.7-2.1-1.8c.1-.9.9-1.6 1.8-1.9zm.7-.6c-1.2-.5-2.3-.9-2.3-2 0-.9.7-1.6 1.9-1.6 1.1 0 1.9.7 1.9 1.8 0 .8-.7 1.4-1.5 1.8zm6.8 2.4c1.1-.4 2-1.3 2-2.4 0-1.3-1-2.3-2.7-2.3-1 0-2 .4-2.6 1l.3.8c.6-.5 1.4-.9 2.2-.9 1.1 0 1.8.5 1.8 1.5 0 1.2-1.3 1.9-3.1 2.3v.8c.5-.1.9-.1 1.3-.1 1.2 0 2.1.7 2.1 1.8 0 1.2-.9 1.9-2.2 1.9-.9 0-1.7-.3-2.2-.6l-.2.8c.6.4 1.5.6 2.4.6 1.8 0 3.2-1.1 3.2-2.9 0-1.1-.8-2.1-2.3-2.3zm2.8 6.1c1.7-.9 4-3.3 4-6.9 0-3.6-2.3-6.1-4-6.9l-.4.7c1.6.8 3.6 3.1 3.6 6.3 0 3.1-2 5.4-3.6 6.3l.4.5zm13.4 0 .4-.7c-1.6-.8-3.6-3.1-3.6-6.3 0-3.2 2-5.5 3.6-6.3l-.4-.7c-1.7.9-4 3.3-4 6.9 0 3.8 2.3 6.2 4 7.1z"/><path class="st1" d="M479.5 110.8c0 1-.7 1.8-1.8 1.8s-1.8-.8-1.8-1.8.7-1.8 1.8-1.8 1.8.9 1.8 1.8zm-5.6-5c0 1-.7 1.8-1.8 1.8s-1.8-.8-1.8-1.8.7-1.8 1.8-1.8c1.1-.1 1.8.8 1.8 1.8zm6.3 5c0-1.3-.9-2.4-2.5-2.4-1.5 0-2.5 1.1-2.5 2.4 0 1.3.9 2.5 2.5 2.5 1.5 0 2.5-1.1 2.5-2.5zm-1.2-7.3h-.8l-7.5 9.7h.8l7.5-9.7zm-4.5 2.3c0-1.3-.9-2.5-2.5-2.5-1.5 0-2.5 1.1-2.5 2.5 0 1.3.9 2.4 2.5 2.4s2.5-1.1 2.5-2.4zm6.1 10.7c1.7-.9 4-3.3 4-6.9 0-3.6-2.3-6.1-4-6.9l-.4.7c1.6.8 3.6 3.1 3.6 6.3 0 3.1-2 5.4-3.6 6.3l.4.5zm-37.8 26.6h-3.5l3.5-4.7v4.7zm2.3.9v-.9h-1.4V137h-.8l-4.8 6.4.1.6h4.5v2.9h.9V144h1.5zm2.5-.4c0-.4-.3-.7-.7-.7-.4 0-.7.3-.7.7 0 .4.3.8.7.8.4 0 .7-.4.7-.8zm6.6.6v-.9h-4c2-1.5 3.7-2.6 3.7-4.2 0-1.3-1-2.1-2.4-2.1-1 0-1.8.4-2.5.9l.3.8c.7-.5 1.4-.9 2.1-.9 1 0 1.6.6 1.6 1.4 0 1.2-1.5 2.2-4 4.1v.8h5.2zm10.7-2.1c0 1-.7 1.8-1.8 1.8s-1.8-.8-1.8-1.8.7-1.8 1.8-1.8 1.8.8 1.8 1.8zm-5.7-5c0 1-.7 1.8-1.8 1.8s-1.8-.8-1.8-1.8.7-1.8 1.8-1.8c1.2-.1 1.8.7 1.8 1.8zm6.3 5c0-1.3-.9-2.4-2.5-2.4-1.5 0-2.5 1.1-2.5 2.4 0 1.3.9 2.5 2.5 2.5s2.5-1.2 2.5-2.5zm-1.1-7.4h-.8l-7.5 9.7h.8l7.5-9.7zm-4.5 2.4c0-1.3-.9-2.5-2.5-2.5-1.5 0-2.5 1.1-2.5 2.5 0 1.3.9 2.4 2.5 2.4s2.5-1.1 2.5-2.4zM442.4 176h-3.5l3.5-4.7v4.7zm2.3.9v-.9h-1.4v-6.1h-.8l-4.8 6.4.1.6h4.5v2.9h.9v-2.9h1.5zm2.5-.4c0-.4-.3-.7-.7-.7-.4 0-.7.3-.7.7 0 .4.3.8.7.8.4 0 .7-.4.7-.8zm6.3-3v.5c-.6.6-1.4 1-2.3 1-1.1 0-1.9-.7-1.9-2s.8-2.2 2.1-2.2 2.1 1.2 2.1 2.7zm1 .1c0-2-1.1-3.7-3.1-3.7-1.9 0-3.1 1.3-3.1 3.1s1.3 2.8 2.7 2.8c1 0 1.8-.4 2.5-1-.4 1.9-1.9 3.4-4.4 4l.3.9c3.5-.9 5.1-3.6 5.1-6.1zm10.7 1.4c0 1-.7 1.8-1.8 1.8s-1.8-.8-1.8-1.8.7-1.8 1.8-1.8c1.2 0 1.8.8 1.8 1.8zm-5.6-5c0 1-.7 1.8-1.8 1.8s-1.8-.8-1.8-1.8.7-1.8 1.8-1.8c1.1-.1 1.8.7 1.8 1.8zm6.3 5c0-1.3-.9-2.4-2.5-2.4-1.5 0-2.5 1.1-2.5 2.4 0 1.3.9 2.5 2.5 2.5s2.5-1.1 2.5-2.5zm-1.1-7.4h-.8l-7.5 9.7h.8l7.5-9.7zm-4.5 2.4c0-1.3-.9-2.5-2.5-2.5-1.5 0-2.5 1.1-2.5 2.5 0 1.3.9 2.4 2.5 2.4 1.5 0 2.5-1.1 2.5-2.4zm-15.9 40v-.9h-4c2-1.5 3.7-2.6 3.7-4.2 0-1.3-1-2.1-2.4-2.1-1 0-1.8.4-2.5.9l.3.8c.7-.5 1.4-.9 2.1-.9 1 0 1.6.6 1.6 1.4 0 1.2-1.5 2.2-4 4.1v.8h5.2zm2.7-.5c0-.4-.3-.7-.7-.7-.4 0-.7.3-.7.7 0 .4.3.8.7.8.4-.1.7-.4.7-.8zm6.6.5v-.9h-4c2-1.5 3.7-2.6 3.7-4.2 0-1.3-1-2.1-2.4-2.1-1 0-1.8.4-2.5.9l.3.8c.7-.5 1.4-.9 2.1-.9 1 0 1.6.6 1.6 1.4 0 1.2-1.5 2.2-4 4.1v.8h5.2zm10.6-2.1c0 1-.7 1.8-1.8 1.8s-1.8-.8-1.8-1.8.7-1.8 1.8-1.8c1.2 0 1.8.9 1.8 1.8zm-5.6-5c0 1-.7 1.8-1.8 1.8s-1.8-.8-1.8-1.8.7-1.8 1.8-1.8 1.8.8 1.8 1.8zm6.3 5c0-1.3-.9-2.4-2.5-2.4-1.5 0-2.5 1.1-2.5 2.4 0 1.3.9 2.5 2.5 2.5 1.5 0 2.5-1.1 2.5-2.5zm-1.1-7.3h-.8l-7.5 9.7h.8l7.5-9.7zm-4.5 2.3c0-1.3-.9-2.5-2.5-2.5-1.5 0-2.5 1.1-2.5 2.5 0 1.3.9 2.4 2.5 2.4 1.5 0 2.5-1.1 2.5-2.4zm-14.9 40v-.9h-4c2-1.5 3.7-2.6 3.7-4.2 0-1.3-1-2.1-2.4-2.1-1 0-1.8.4-2.5.9l.3.8c.7-.5 1.4-.9 2.1-.9 1 0 1.6.6 1.6 1.4 0 1.2-1.5 2.2-4 4.1v.8h5.2zm2.6-.5c0-.4-.3-.7-.7-.7-.4 0-.7.3-.7.7 0 .4.3.8.7.8.4-.1.7-.4.7-.8zm5.7-5.6-4.1 8.9h.9l4.2-9v-.8h-5.9v.9zm11.4 4c0 1-.7 1.8-1.8 1.8s-1.8-.8-1.8-1.8.7-1.8 1.8-1.8c1.2 0 1.8.9 1.8 1.8zm-5.6-5c0 1-.7 1.8-1.8 1.8s-1.8-.8-1.8-1.8.7-1.8 1.8-1.8 1.8.8 1.8 1.8zm6.3 5c0-1.3-.9-2.4-2.5-2.4-1.5 0-2.5 1.1-2.5 2.4 0 1.3.9 2.5 2.5 2.5s2.5-1.1 2.5-2.5zm-1.1-7.3h-.8l-7.5 9.7h.8l7.5-9.7zm-4.5 2.3c0-1.3-.9-2.5-2.5-2.5-1.5 0-2.5 1.1-2.5 2.5 0 1.3.9 2.4 2.5 2.4 1.5.1 2.5-1.1 2.5-2.4zm-14.6 36.6c0 1.6-1.1 2.8-2.7 2.8s-2.6-1.2-2.6-2.8c0-1.6 1.1-2.8 2.6-2.8 1.6 0 2.7 1.2 2.7 2.8zm1 0c0-2.2-1.5-3.7-3.6-3.7-2 0-3.6 1.5-3.6 3.7s1.5 3.7 3.6 3.7c2 0 3.6-1.6 3.6-3.7zm2.4 2.9c0-.4-.3-.7-.7-.7-.4 0-.7.3-.7.7 0 .4.3.8.7.8.4 0 .7-.4.7-.8zm2.1-2.5.4-3h3.7v-.9h-4.4l-.6 4.6.3.3c.5-.2.9-.3 1.8-.3 1.4 0 2.2.9 2.2 2.1 0 1.4-1 2.2-2.3 2.2-.8 0-1.6-.3-2.2-.6l-.2.9c.6.3 1.5.6 2.4.6 1.8 0 3.2-1.3 3.2-3.2 0-1.6-1.2-2.8-3.1-2.8-.5-.1-.9 0-1.2.1zm14.7 1c0 1-.7 1.8-1.8 1.8s-1.8-.8-1.8-1.8.7-1.8 1.8-1.8c1.2 0 1.8.8 1.8 1.8zm-5.6-5.1c0 1-.7 1.8-1.8 1.8s-1.8-.8-1.8-1.8.7-1.8 1.8-1.8 1.8.8 1.8 1.8zm6.3 5.1c0-1.3-.9-2.4-2.5-2.4-1.5 0-2.5 1.1-2.5 2.4 0 1.3.9 2.5 2.5 2.5 1.6-.1 2.5-1.2 2.5-2.5zm-1.1-7.4h-.8l-7.5 9.7h.8l7.5-9.7zm-4.5 2.3c0-1.3-.9-2.5-2.5-2.5-1.5 0-2.5 1.1-2.5 2.5 0 1.3.9 2.4 2.5 2.4 1.5.1 2.5-1.1 2.5-2.4zm-15.8 36.6c0 1.6-1.1 2.8-2.7 2.8s-2.6-1.2-2.6-2.8c0-1.6 1.1-2.8 2.6-2.8 1.6 0 2.7 1.2 2.7 2.8zm.9 0c0-2.2-1.5-3.7-3.6-3.7-2 0-3.6 1.5-3.6 3.7s1.5 3.7 3.6 3.7 3.6-1.5 3.6-3.7zm2.5 2.9c0-.4-.3-.7-.7-.7-.4 0-.7.3-.7.7s.3.8.7.8c.4 0 .7-.4.7-.8zm1.9-2.7v-.5c.6-.6 1.4-1 2.3-1 1.1 0 1.9.7 1.9 2s-.8 2.2-2.1 2.2c-1.2-.1-2.1-1.3-2.1-2.7zm-.9-.2c0 2 1.1 3.7 3.2 3.7 1.9 0 3-1.3 3-3.1s-1.3-2.8-2.7-2.8c-1 0-1.8.4-2.5 1 .4-1.9 1.9-3.4 4.4-4l-.3-.9c-3.5.9-5.1 3.6-5.1 6.1zm16.9 1.4c0 1-.7 1.8-1.8 1.8s-1.8-.8-1.8-1.8.7-1.8 1.8-1.8 1.8.8 1.8 1.8zm-5.6-5.1c0 1-.7 1.8-1.8 1.8s-1.8-.8-1.8-1.8.7-1.8 1.8-1.8 1.8.8 1.8 1.8zm6.2 5.1c0-1.3-.9-2.4-2.5-2.4-1.5 0-2.5 1.1-2.5 2.4 0 1.3.9 2.5 2.5 2.5s2.5-1.2 2.5-2.5zm-1.1-7.4h-.8l-7.5 9.7h.8l7.5-9.7zm-4.5 2.3c0-1.3-.9-2.5-2.5-2.5-1.5 0-2.5 1.1-2.5 2.5 0 1.3.9 2.4 2.5 2.4 1.6.1 2.5-1 2.5-2.4zm-15 40.1v-.9h-4c2-1.5 3.7-2.6 3.7-4.2 0-1.3-1-2.1-2.4-2.1-1 0-1.8.4-2.5.9l.3.8c.7-.5 1.4-.9 2.1-.9 1 0 1.6.6 1.6 1.4 0 1.2-1.5 2.2-4 4.1v.8h5.2zm2.7-.6c0-.4-.3-.7-.7-.7-.4 0-.7.3-.7.7 0 .4.3.8.7.8.4 0 .7-.4.7-.8zm2.5.6h.9v-7.2l-2.7 1 .1.8 1.7-.6zm12.5-2.1c0 1-.7 1.8-1.8 1.8s-1.8-.8-1.8-1.8.7-1.8 1.8-1.8c1.2 0 1.8.8 1.8 1.8zm-5.6-5c0 1-.7 1.8-1.8 1.8s-1.8-.8-1.8-1.8.7-1.8 1.8-1.8c1.1-.1 1.8.7 1.8 1.8zm6.3 5c0-1.3-.9-2.4-2.5-2.4-1.5 0-2.5 1.1-2.5 2.4 0 1.3.9 2.5 2.5 2.5 1.5 0 2.5-1.2 2.5-2.5zm-1.1-7.4h-.8l-7.5 9.7h.8l7.5-9.7zm-4.5 2.4c0-1.3-.9-2.5-2.5-2.5-1.5 0-2.5 1.1-2.5 2.5 0 1.3.9 2.4 2.5 2.4 1.5 0 2.5-1.1 2.5-2.4zm-13.6 36.5c0 1.6-1.1 2.8-2.7 2.8s-2.6-1.2-2.6-2.8 1.1-2.8 2.6-2.8c1.6 0 2.7 1.2 2.7 2.8zm1 0c0-2.2-1.5-3.7-3.6-3.7-2 0-3.6 1.5-3.6 3.7s1.5 3.7 3.6 3.7c2 0 3.6-1.5 3.6-3.7zm2.4 2.9c0-.4-.3-.7-.7-.7-.4 0-.7.3-.7.7 0 .4.3.8.7.8.4 0 .7-.4.7-.8zm2.1-2.5.4-3h3.7v-.9h-4.4l-.6 4.6.3.3c.5-.2.9-.3 1.8-.3 1.4 0 2.2.9 2.2 2.1 0 1.4-1 2.2-2.3 2.2-.8 0-1.6-.3-2.2-.6l-.2.9c.6.3 1.5.6 2.4.6 1.8 0 3.2-1.3 3.2-3.2 0-1.6-1.2-2.8-3.1-2.8-.5 0-.9.1-1.2.1zm14.7 1c0 1-.7 1.8-1.8 1.8s-1.8-.8-1.8-1.8.7-1.8 1.8-1.8c1.2 0 1.8.9 1.8 1.8zm-5.6-5c0 1-.7 1.8-1.8 1.8s-1.8-.8-1.8-1.8.7-1.8 1.8-1.8c1.1-.1 1.8.8 1.8 1.8zm6.3 5c0-1.3-.9-2.4-2.5-2.4-1.5 0-2.5 1.1-2.5 2.4 0 1.3.9 2.5 2.5 2.5s2.5-1.1 2.5-2.5zm-1.1-7.3h-.8l-7.5 9.7h.8l7.5-9.7zm-4.5 2.3c0-1.3-.9-2.5-2.5-2.5-1.5 0-2.5 1.1-2.5 2.5 0 1.3.9 2.4 2.5 2.4 1.5 0 2.5-1.1 2.5-2.4z"/><path class="st4" d="M589.7 335.4c-1.5 0-2.1-.8-2.1-2.4l.1-4.5-1.2-.1.1-.7 1.2-.3.1-1.7h1v1.8h2.6l-.1.9h-2.5l-.1 4.6c0 1 .3 1.4 1.1 1.4.5 0 1-.2 1.5-.4l.2.9c-.7.4-1.4.5-1.9.5zm6.4 0c-2.1 0-3.7-1.6-3.7-4s1.6-4.1 3.8-4.1 3.7 1.6 3.7 4c0 2.5-1.7 4.1-3.8 4.1zm0-7.2c-1.6 0-2.7 1.3-2.7 3.1 0 1.9 1.1 3.1 2.7 3.1s2.7-1.3 2.7-3.1-1-3.1-2.7-3.1zm9 7.2c-2.1 0-3.7-1.6-3.7-4s1.6-4.1 3.8-4.1 3.7 1.6 3.7 4c0 2.5-1.7 4.1-3.8 4.1zm.1-7.2c-1.6 0-2.7 1.3-2.7 3.1 0 1.9 1.1 3.1 2.7 3.1s2.7-1.3 2.7-3.1-1.1-3.1-2.7-3.1zm6.7 3.1v3.8h-1v-11.3l1-.2v7.4l3.4-3.5h1.3l-3.7 3.6 3.7 4h-1.3l-3.4-3.8zm14.1-6.5c-.4-.2-.8-.3-1.2-.3-.9 0-1.3.6-1.3 1.8v1.3h2.4v.9h-2.4v6.7h-1v-6.7l-1.2-.1.1-.7 1.2-.3v-1.2c0-2 1-2.8 2.3-2.8.5 0 1.1.2 1.4.3-.1.2-.3 1.1-.3 1.1zm1.7.9c-.5 0-.7-.4-.7-.8s.2-.7.7-.7c.5 0 .7.4.7.7 0 .5-.3.8-.7.8zm-.5 9.5v-7.7l1-.2v7.9h-1zm4.5 0h-1v-7.7l1-.2v1.6c.5-1 1.3-1.6 2.3-1.6.5 0 1 .2 1.3.4l-.3 1c-.3-.2-.7-.3-1.2-.3-.8 0-1.6.6-2.2 2v4.8zm7.1.2c-.9 0-1.9-.3-2.5-.7l.3-1c.7.4 1.5.7 2.3.7.9 0 1.7-.5 1.7-1.3 0-.9-1-1.2-1.9-1.5-1.1-.3-2.2-.8-2.2-2.2 0-1.4 1.2-2.2 2.6-2.2.8 0 1.7.2 2.3.6l-.3.9c-.6-.4-1.4-.6-2.1-.6-.9 0-1.5.4-1.5 1.2 0 .9.9 1.1 1.9 1.4 1.1.3 2.3.8 2.3 2.2-.2 1.6-1.4 2.5-2.9 2.5zm7 0c-1.5 0-2.1-.8-2.1-2.4l.1-4.5-1.2-.1.1-.7 1.2-.3.1-1.7h1v1.8h2.6l-.1.9H645l-.1 4.6c0 1 .3 1.4 1.1 1.4.5 0 1-.2 1.5-.4l.2.9c-.7.4-1.4.5-1.9.5zm2-3.8v-1h3.8v1h-3.8zm5.4 2.4c0-.6.6-1.2 1.3-1.5-.7-.5-1.2-1.3-1.2-2.3 0-1.6 1.2-2.9 3-2.9.8 0 1.4.2 1.8.5l2.1-.2v1l-1.7-.2c.4.4.6 1.1.6 1.7 0 1.6-1.3 2.8-3 2.8-.4 0-.8-.1-1.1-.2-.4.2-.9.5-.9.9 0 .5.4.8 1.7.8h1c2.2 0 3.2.8 3.2 2 0 1.7-1.9 2.8-4 2.8s-3.5-.9-3.5-2.2c0-.9.7-1.6 1.7-1.9-.6-.2-1-.6-1-1.1zm.4 2.9c0 .9 1 1.6 2.6 1.6s2.9-.8 2.9-1.8c0-.9-.8-1.2-2.3-1.2-.5 0-1.2 0-1.6-.1-1 .2-1.6.8-1.6 1.5zm2.6-4.8c1.2 0 1.9-.8 1.9-2 0-1.1-.7-2-2-2-1.2 0-1.9.9-1.9 2 0 1.2.8 2 2 2zm5.9-.7c0 1.7 1.1 3 2.7 3 .8 0 1.6-.3 2.2-.6l.2 1c-.7.4-1.5.7-2.5.7-2.2 0-3.7-1.7-3.7-4 0-2.4 1.5-4.1 3.6-4.1 1.7 0 2.8 1.1 2.8 2.8 0 .4-.1.9-.2 1.2h-5.1zm4.4-.9v-.3c0-1.2-.6-2-1.8-2-1.4 0-2.3 1.1-2.4 2.3h4.2zm8.1 4.7v-5c0-1.3-.5-1.9-1.7-1.9-.8 0-1.7.5-2.3 1.1v5.8h-1v-7.7l1-.2v1.3c.8-.8 1.8-1.3 2.6-1.3 1.5 0 2.4 1 2.4 2.6v5.3h-1zm4-3.8c0 1.7 1.1 3 2.7 3 .8 0 1.6-.3 2.2-.6l.2 1c-.7.4-1.5.7-2.5.7-2.2 0-3.7-1.7-3.7-4 0-2.4 1.5-4.1 3.6-4.1 1.7 0 2.8 1.1 2.8 2.8 0 .4-.1.9-.2 1.2h-5.1zm4.3-.9v-.3c0-1.2-.6-2-1.8-2-1.4 0-2.3 1.1-2.4 2.3h4.2zm4.1 4.7h-1v-7.7l1-.2v1.6c.5-1 1.3-1.6 2.3-1.6.5 0 1 .2 1.3.4l-.3 1c-.3-.2-.7-.3-1.2-.3-.8 0-1.6.6-2.2 2v4.8zm9.3-1c-.5.6-1.3 1.1-2.2 1.1-1.4 0-2.4-.9-2.4-2.1 0-1.4 1.1-2.5 4.6-2.7v-.5c0-1.2-.5-1.8-1.8-1.8-.8 0-1.9.4-2.5.9l-.2-1c.7-.5 1.8-.9 2.8-.9 1.8 0 2.8.8 2.7 2.7v3.7c0 .6.1.8.8.8l-.1.9c-1 .1-1.5-.3-1.7-1.1zm0-3c-2.6.3-3.6.9-3.6 1.9 0 .8.7 1.3 1.6 1.3.8 0 1.5-.5 2-1v-2.2zm5.5 4.2c-1.5 0-2.1-.8-2.1-2.4l.1-4.5-1.2-.1v-.7l1.2-.3v-1.7h1l-.1 1.8h2.6v.9h-2.5l-.1 4.6c0 1 .3 1.4 1.1 1.4.5 0 1-.2 1.5-.4l.2.9c-.5.4-1.1.5-1.7.5zm4-9.7c-.5 0-.7-.4-.7-.8s.2-.7.7-.7c.5 0 .7.4.7.7 0 .5-.3.8-.7.8zm-.6 9.5v-7.7l1-.2v7.9h-1zm6.7.2c-2.1 0-3.7-1.6-3.7-4s1.6-4.1 3.8-4.1 3.7 1.6 3.7 4c0 2.5-1.7 4.1-3.8 4.1zm0-7.2c-1.6 0-2.7 1.3-2.7 3.1 0 1.9 1.1 3.1 2.7 3.1s2.7-1.3 2.7-3.1c.1-1.8-1-3.1-2.7-3.1zm10.8 7v-5c0-1.3-.5-1.9-1.7-1.9-.8 0-1.7.5-2.3 1.1v5.8h-1v-7.7l1-.2v1.3c.8-.8 1.8-1.3 2.6-1.3 1.5 0 2.4 1 2.4 2.6v5.3h-1zM613.1 351c-.5.6-1.3 1.1-2.2 1.1-1.4 0-2.4-.9-2.4-2.1 0-1.4 1.1-2.5 4.6-2.7v-.5c0-1.2-.5-1.8-1.8-1.8-.8 0-1.9.4-2.5.9l-.2-1c.7-.5 1.8-.9 2.8-.9 1.8 0 2.8.8 2.7 2.7v3.7c0 .6.1.8.8.8l-.1.9c-1 0-1.6-.4-1.7-1.1zm-.1-3.1c-2.6.3-3.6.9-3.6 1.9 0 .8.7 1.3 1.6 1.3.8 0 1.5-.5 2-1v-2.2zm8.6 4v-5c0-1.3-.5-1.9-1.7-1.9-.8 0-1.7.5-2.3 1.1v5.8h-1v-7.7l1-.2v1.3c.8-.8 1.8-1.3 2.6-1.3 1.5 0 2.4 1 2.4 2.6v5.3h-1zm5.6.2c-1.5 0-2.1-.8-2.1-2.4l.1-4.5-1.2-.1.1-.7 1.2-.3.1-1.7h1v1.8h2.6l-.1.9h-2.5l-.1 4.6c0 1 .3 1.4 1.1 1.4.5 0 1-.2 1.5-.4l.2.9c-.8.4-1.4.5-1.9.5zm3.9-9.6c-.5 0-.7-.4-.7-.8s.2-.7.7-.7c.5 0 .7.4.7.7 0 .4-.3.8-.7.8zm-.5 9.4v-7.7l1-.2v7.9h-1zm6.7-7.9c2.1 0 3.4 1.6 3.4 4s-1.6 4.1-3.8 4.1c-.6 0-1.4-.2-1.9-.4v4.1h-1v-11.6l1-.2v1c.6-.5 1.3-1 2.3-1zm-2.2 6.6c.5.4 1.2.6 1.9.6 1.6 0 2.7-1.3 2.7-3.1s-1-3-2.5-3c-.8 0-1.5.4-2.1.9v4.6zm9.5 1.5c-.9 0-1.9-.3-2.5-.7l.3-1c.7.4 1.5.7 2.3.7.9 0 1.7-.5 1.7-1.3 0-.9-1-1.2-1.9-1.5-1.1-.3-2.2-.8-2.2-2.2 0-1.4 1.2-2.2 2.6-2.2.8 0 1.7.2 2.3.6l-.3.9c-.6-.4-1.4-.6-2.1-.6-.9 0-1.5.4-1.5 1.2 0 .9.9 1.1 1.9 1.4 1.1.3 2.3.8 2.3 2.2-.2 1.6-1.4 2.5-2.9 2.5zm7.8-.3-.6 1.7c-.7 1.9-1.4 2.4-2.5 2.4-.6 0-1-.2-1.5-.4l.3-1c.4.2.8.3 1.2.3.6 0 1-.3 1.6-1.8l.5-1.4-3-7.5h1.1l2.4 6.3 2.4-6.3h1.1l-3 7.7zm7.5.3c-2.3 0-3.7-1.7-3.7-4 0-2.4 1.6-4.1 3.8-4.1.9 0 1.7.2 2.4.7l-.3.9c-.6-.4-1.3-.6-2.1-.6-1.7 0-2.7 1.2-2.7 3.1 0 1.9 1.1 3.1 2.7 3.1.8 0 1.5-.3 2.1-.6l.2 1c-.7.2-1.6.5-2.4.5zm9.2-.2v-5c0-1.3-.5-1.9-1.6-1.9-.9 0-1.7.5-2.4 1.1v5.8h-1v-11.3l1-.2v4.8c.8-.8 1.8-1.2 2.7-1.2 1.5 0 2.4 1 2.4 2.6v5.3h-1.1zm6.7.2c-2.1 0-3.7-1.6-3.7-4s1.6-4.1 3.8-4.1 3.7 1.6 3.7 4c-.1 2.5-1.7 4.1-3.8 4.1zm0-7.2c-1.6 0-2.7 1.3-2.7 3.1 0 1.9 1.1 3.1 2.7 3.1s2.7-1.3 2.7-3.1-1.1-3.1-2.7-3.1zm7.8 7.2c-1.5 0-2.1-.8-2.1-2.4l.1-4.5-1.2-.1v-.7l1.2-.3v-1.7h1l-.1 1.8h2.6v.9h-2.5l-.1 4.6c0 1 .3 1.4 1.1 1.4.5 0 1-.2 1.5-.4l.2.9c-.6.4-1.2.5-1.7.5zm3.9-9.6c-.5 0-.7-.4-.7-.8s.2-.7.7-.7c.5 0 .7.4.7.7 0 .4-.3.8-.7.8zm-.5 9.4v-7.7l1-.2v7.9h-1zm6.7.2c-2.3 0-3.7-1.7-3.7-4 0-2.4 1.6-4.1 3.8-4.1.9 0 1.7.2 2.4.7l-.3.9c-.6-.4-1.3-.6-2.1-.6-1.7 0-2.7 1.2-2.7 3.1 0 1.9 1.1 3.1 2.7 3.1.8 0 1.5-.3 2.1-.6l.2 1c-.7.2-1.5.5-2.4.5zm6.3 0c-.9 0-1.9-.3-2.5-.7l.3-1c.7.4 1.5.7 2.3.7.9 0 1.7-.5 1.7-1.3 0-.9-1-1.2-1.9-1.5-1.1-.3-2.2-.8-2.2-2.2 0-1.4 1.2-2.2 2.6-2.2.8 0 1.7.2 2.3.6l-.3.9c-.6-.4-1.4-.6-2.1-.6-.9 0-1.5.4-1.5 1.2 0 .9.9 1.1 1.9 1.4 1.1.3 2.3.8 2.3 2.2-.1 1.6-1.3 2.5-2.9 2.5z"/><path class="st5" d="m615.3 317.1-.2-5.7c9.8-9.3 14.1-12.5 14.1-17.1 0-2.4-1.8-4.2-4.5-4.2-2.6 0-5.2 1.3-7.2 3.1l-2.5-5.9c2.8-2.1 6.9-3.9 11.1-3.9 7.2 0 11.1 4.2 11.1 9.6 0 5.8-4.3 9.9-13.1 17.4H638l.2 6.6h-22.9zm26.5-26.4.2-6.6h23.2l.2 5.8-13.8 27.1h-7.4l13.4-26.4h-15.8zm31.8 5.9c-3.8 0-6.1-2.5-6.1-6.1s2.3-6.1 6.2-6.1c3.8 0 6.1 2.5 6.1 6.1-.1 3.6-2.4 6.1-6.2 6.1zm.8 11h-4.1l18.1-22.9h4.1l-18.1 22.9zm-.8-20.4c-1.5 0-2.5 1.3-2.5 3.3 0 2 1 3.3 2.6 3.3 1.5 0 2.5-1.3 2.5-3.3-.1-2-1.1-3.3-2.6-3.3zm15.5 20.8c-3.8 0-6.1-2.5-6.1-6.1 0-3.6 2.3-6.1 6.2-6.1 3.8 0 6.1 2.5 6.1 6.1 0 3.6-2.3 6.1-6.2 6.1zm.1-9.4c-1.6 0-2.6 1.3-2.6 3.3 0 2.1 1 3.3 2.6 3.3 1.5 0 2.5-1.3 2.5-3.3 0-2-1-3.3-2.5-3.3z"/><path class="st4" d="M579.4 208.1c-1.5 0-2.1-.8-2.1-2.4l.1-4.5-1.2-.1.1-.7 1.2-.3.1-1.7h1v1.8h2.6l-.1.9h-2.5l-.1 4.6c0 1 .3 1.4 1.1 1.4.5 0 1-.2 1.5-.4l.2.9c-.7.3-1.4.5-1.9.5zm6.4 0c-2.1 0-3.7-1.6-3.7-4s1.6-4.1 3.8-4.1 3.7 1.6 3.7 4c-.1 2.4-1.7 4.1-3.8 4.1zm0-7.2c-1.6 0-2.7 1.3-2.7 3.1 0 1.9 1.1 3.1 2.7 3.1s2.7-1.3 2.7-3.1-1.1-3.1-2.7-3.1zm9 7.2c-2.1 0-3.7-1.6-3.7-4s1.6-4.1 3.8-4.1 3.7 1.6 3.7 4-1.7 4.1-3.8 4.1zm0-7.2c-1.6 0-2.7 1.3-2.7 3.1 0 1.9 1.1 3.1 2.7 3.1s2.7-1.3 2.7-3.1-1-3.1-2.7-3.1zm6.8 3.1v3.8h-1v-11.3l1-.2v7.4l3.4-3.5h1.3l-3.7 3.6 3.7 4H605l-3.4-3.8zm12.2 4.1c-.9 0-1.9-.3-2.5-.7l.3-1c.7.4 1.5.7 2.3.7.9 0 1.7-.5 1.7-1.3 0-.9-1-1.2-1.9-1.5-1.1-.3-2.2-.8-2.2-2.2 0-1.4 1.2-2.2 2.6-2.2.8 0 1.7.2 2.3.6l-.3.9c-.6-.4-1.4-.6-2.1-.6-.9 0-1.5.4-1.5 1.2 0 .9.9 1.1 1.9 1.4 1.1.3 2.3.8 2.3 2.2-.1 1.6-1.3 2.5-2.9 2.5zm5.3-4c0 1.7 1.1 3 2.7 3 .8 0 1.6-.3 2.2-.6l.2 1c-.7.4-1.5.7-2.5.7-2.2 0-3.7-1.7-3.7-4 0-2.4 1.5-4.1 3.6-4.1 1.7 0 2.8 1.1 2.8 2.8 0 .4-.1.9-.2 1.2h-5.1zm4.3-.9v-.3c0-1.2-.6-2-1.8-2-1.4 0-2.3 1.1-2.4 2.3h4.2zm6.3 4.9c-2.3 0-3.7-1.7-3.7-4 0-2.4 1.6-4.1 3.8-4.1.9 0 1.7.2 2.4.7l-.3.9c-.6-.4-1.3-.6-2.1-.6-1.7 0-2.7 1.2-2.7 3.1 0 1.9 1.1 3.1 2.7 3.1.8 0 1.5-.3 2.1-.6l.2 1c-.6.2-1.5.5-2.4.5zm7.3 0c-2.1 0-3.7-1.6-3.7-4s1.6-4.1 3.8-4.1 3.7 1.6 3.7 4-1.7 4.1-3.8 4.1zm0-7.2c-1.6 0-2.7 1.3-2.7 3.1 0 1.9 1.1 3.1 2.7 3.1s2.7-1.3 2.7-3.1-1-3.1-2.7-3.1zm10.8 6.9v-5c0-1.3-.5-1.9-1.7-1.9-.8 0-1.7.5-2.3 1.1v5.8h-1v-7.7l1-.2v1.3c.8-.8 1.8-1.3 2.6-1.3 1.5 0 2.4 1 2.4 2.6v5.3h-1zm8.6-11.2 1-.2v11.5h-1v-.7c-.5.5-1.3.9-2.2.9-2.1 0-3.4-1.7-3.4-4 0-2.4 1.6-4.1 3.8-4.1.7 0 1.4.2 1.9.4v-3.8zm-1.9 4.4c-1.6 0-2.7 1.3-2.7 3.1s1 3 2.5 3c.8 0 1.5-.4 2-.9v-4.7c-.3-.3-1-.5-1.8-.5zm5 3.3v-1h3.8v1h-3.8zm5.5 2.3c0-.6.6-1.2 1.3-1.5-.7-.5-1.2-1.3-1.2-2.3 0-1.6 1.2-2.9 3-2.9.8 0 1.4.2 1.8.5l2.1-.2v1l-1.7-.2c.4.4.6 1.1.6 1.7 0 1.6-1.3 2.8-3 2.8-.4 0-.8-.1-1.1-.2-.4.2-.9.5-.9.9 0 .5.4.8 1.7.8h1c2.2 0 3.2.8 3.2 2 0 1.7-1.9 2.8-4 2.8s-3.5-.9-3.5-2.2c0-.9.7-1.6 1.7-1.9-.6-.1-1-.5-1-1.1zm.4 3c0 .9 1 1.6 2.6 1.6s2.9-.8 2.9-1.8c0-.9-.8-1.2-2.3-1.2-.5 0-1.2 0-1.6-.1-1 .2-1.6.8-1.6 1.5zm2.6-4.8c1.2 0 1.9-.8 1.9-2 0-1.1-.7-2-2-2-1.2 0-1.9.9-1.9 2 0 1.2.7 2 2 2zm5.9-.7c0 1.7 1.1 3 2.7 3 .8 0 1.6-.3 2.2-.6l.2 1c-.7.4-1.5.7-2.5.7-2.2 0-3.7-1.7-3.7-4 0-2.4 1.5-4.1 3.6-4.1 1.7 0 2.8 1.1 2.8 2.8 0 .4-.1.9-.2 1.2h-5.1zm4.3-.9v-.3c0-1.2-.6-2-1.8-2-1.4 0-2.3 1.1-2.4 2.3h4.2zm8.1 4.6v-5c0-1.3-.5-1.9-1.7-1.9-.8 0-1.7.5-2.3 1.1v5.8h-1v-7.7l1-.2v1.3c.8-.8 1.8-1.3 2.6-1.3 1.5 0 2.4 1 2.4 2.6v5.3h-1zm4-3.7c0 1.7 1.1 3 2.7 3 .8 0 1.6-.3 2.2-.6l.2 1c-.7.4-1.5.7-2.5.7-2.2 0-3.7-1.7-3.7-4 0-2.4 1.5-4.1 3.6-4.1 1.7 0 2.8 1.1 2.8 2.8 0 .4-.1.9-.2 1.2h-5.1zm4.4-.9v-.3c0-1.2-.6-2-1.8-2-1.4 0-2.3 1.1-2.4 2.3h4.2zm4 4.6h-1v-7.7l1-.2v1.6c.5-1 1.3-1.6 2.3-1.6.5 0 1 .2 1.3.4l-.3 1c-.3-.2-.7-.3-1.2-.3-.8 0-1.6.6-2.2 2v4.8zm9.4-.9c-.5.6-1.3 1.1-2.2 1.1-1.4 0-2.4-.9-2.4-2.1 0-1.4 1.1-2.5 4.6-2.7v-.5c0-1.2-.5-1.8-1.8-1.8-.8 0-1.9.4-2.5.9l-.2-1c.7-.5 1.8-.9 2.8-.9 1.8 0 2.8.8 2.7 2.7v3.7c0 .6.1.8.8.8l-.1.9c-1 .1-1.6-.3-1.7-1.1zm0-3c-2.6.3-3.6.9-3.6 1.9 0 .8.7 1.3 1.6 1.3.8 0 1.5-.5 2-1v-2.2zm5.5 4.2c-1.5 0-2.1-.8-2.1-2.4l.1-4.5-1.2-.1v-.7l1.2-.3.1-1.7h1v1.8h2.6v.9h-2.5l-.1 4.6c0 1 .3 1.4 1.1 1.4.5 0 1-.2 1.5-.4l.2.9c-.7.3-1.3.5-1.9.5zm3.9-9.7c-.5 0-.7-.4-.7-.8s.2-.7.7-.7.7.4.7.7c0 .5-.2.8-.7.8zm-.5 9.4v-7.7l1-.2v7.9h-1zm6.7.3c-2.1 0-3.7-1.6-3.7-4s1.6-4.1 3.8-4.1 3.7 1.6 3.7 4c-.1 2.4-1.7 4.1-3.8 4.1zm0-7.2c-1.6 0-2.7 1.3-2.7 3.1 0 1.9 1.1 3.1 2.7 3.1s2.7-1.3 2.7-3.1-1.1-3.1-2.7-3.1zm10.8 6.9v-5c0-1.3-.5-1.9-1.7-1.9-.8 0-1.7.5-2.3 1.1v5.8h-1v-7.7l1-.2v1.3c.8-.8 1.8-1.3 2.6-1.3 1.5 0 2.4 1 2.4 2.6v5.3h-1zm-120.7 15.8c-.5.6-1.3 1.1-2.2 1.1-1.4 0-2.4-.9-2.4-2.1 0-1.4 1.1-2.5 4.6-2.7v-.5c0-1.2-.5-1.8-1.8-1.8-.8 0-1.9.4-2.5.9l-.2-1c.7-.5 1.8-.9 2.8-.9 1.8 0 2.8.8 2.7 2.7v3.7c0 .6.1.8.8.8l-.1.9c-1 .1-1.5-.3-1.7-1.1zm0-3c-2.6.3-3.6.9-3.6 1.9 0 .8.7 1.3 1.6 1.3.8 0 1.5-.5 2-1v-2.2zm8.5 4v-5c0-1.3-.5-1.9-1.7-1.9-.8 0-1.7.5-2.3 1.1v5.8h-1v-7.7l1-.2v1.3c.8-.8 1.8-1.3 2.6-1.3 1.5 0 2.4 1 2.4 2.6v5.3h-1zm5.6.2c-1.5 0-2.1-.8-2.1-2.4l.1-4.5-1.2-.1v-.7l1.2-.3.1-1.7h1v1.8h2.6v.9h-2.5l-.1 4.6c0 1 .3 1.4 1.1 1.4.5 0 1-.2 1.5-.4l.2.9c-.8.4-1.4.5-1.9.5zm3.9-9.7c-.5 0-.7-.4-.7-.8s.2-.7.7-.7c.5 0 .7.4.7.7 0 .5-.2.8-.7.8zm-.5 9.5v-7.7l1-.2v7.9h-1zm6.7-7.9c2.1 0 3.4 1.6 3.4 4s-1.6 4.1-3.8 4.1c-.6 0-1.4-.2-1.9-.4v4.1h-1v-11.6l1-.2v1c.6-.5 1.4-1 2.3-1zm-2.2 6.5c.5.4 1.2.6 1.9.6 1.6 0 2.7-1.3 2.7-3.1s-1-3-2.5-3c-.8 0-1.5.4-2.1.9v4.6zm9.5 1.6c-.9 0-1.9-.3-2.5-.7l.3-1c.7.4 1.5.7 2.3.7.9 0 1.7-.5 1.7-1.3 0-.9-1-1.2-1.9-1.5-1.1-.3-2.2-.8-2.2-2.2 0-1.4 1.2-2.2 2.6-2.2.8 0 1.7.2 2.3.6l-.3.9c-.6-.4-1.4-.6-2.1-.6-.9 0-1.5.4-1.5 1.2 0 .9.9 1.1 1.9 1.4 1.1.3 2.3.8 2.3 2.2-.2 1.6-1.4 2.5-2.9 2.5zm7.8-.3-.6 1.7c-.7 1.9-1.4 2.4-2.5 2.4-.6 0-1-.2-1.5-.4l.3-1c.4.2.8.3 1.2.3.6 0 1-.3 1.6-1.8l.5-1.4-3-7.5h1.1l2.4 6.3 2.4-6.3h1.1l-3 7.7zm7.5.3c-2.3 0-3.7-1.7-3.7-4 0-2.4 1.6-4.1 3.8-4.1.9 0 1.7.2 2.4.7l-.3.9c-.6-.4-1.3-.6-2.1-.6-1.7 0-2.7 1.2-2.7 3.1 0 1.9 1.1 3.1 2.7 3.1.8 0 1.5-.3 2.1-.6l.2 1c-.7.2-1.5.5-2.4.5zm9.2-.2v-5c0-1.3-.5-1.9-1.6-1.9-.9 0-1.7.5-2.4 1.1v5.8h-1v-11.3l1-.2v4.8c.8-.8 1.8-1.2 2.7-1.2 1.5 0 2.4 1 2.4 2.6v5.3h-1.1zm6.7.2c-2.1 0-3.7-1.6-3.7-4s1.6-4.1 3.8-4.1 3.7 1.6 3.7 4c-.1 2.5-1.7 4.1-3.8 4.1zm0-7.2c-1.6 0-2.7 1.3-2.7 3.1 0 1.9 1.1 3.1 2.7 3.1s2.7-1.3 2.7-3.1-1.1-3.1-2.7-3.1zm7.8 7.2c-1.5 0-2.1-.8-2.1-2.4l.1-4.5-1.2-.1v-.7l1.2-.3.1-1.7h1l-.1 1.8h2.6v.9h-2.5l-.1 4.6c0 1 .3 1.4 1.1 1.4.5 0 1-.2 1.5-.4l.2.9c-.6.4-1.3.5-1.8.5zm3.9-9.7c-.5 0-.7-.4-.7-.8s.2-.7.7-.7.7.4.7.7c0 .5-.2.8-.7.8zm-.5 9.5v-7.7l1-.2v7.9h-1zm6.7.2c-2.3 0-3.7-1.7-3.7-4 0-2.4 1.6-4.1 3.8-4.1.9 0 1.7.2 2.4.7l-.3.9c-.6-.4-1.3-.6-2.1-.6-1.7 0-2.7 1.2-2.7 3.1 0 1.9 1.1 3.1 2.7 3.1.8 0 1.5-.3 2.1-.6l.2 1c-.7.2-1.5.5-2.4.5zm6.4 0c-.9 0-1.9-.3-2.5-.7l.3-1c.7.4 1.5.7 2.3.7.9 0 1.7-.5 1.7-1.3 0-.9-1-1.2-1.9-1.5-1.1-.3-2.2-.8-2.2-2.2 0-1.4 1.2-2.2 2.6-2.2.8 0 1.7.2 2.3.6l-.3.9c-.6-.4-1.4-.6-2.1-.6-.9 0-1.5.4-1.5 1.2 0 .9.9 1.1 1.9 1.4 1.1.3 2.3.8 2.3 2.2-.2 1.6-1.4 2.5-2.9 2.5z"/><path class="st5" d="M627.7 190.6c-7.4 0-12.3-3.5-12.3-9.2 0-3.6 2.7-6.2 6.7-7.6-3.4-1.5-6.1-3.8-6.1-7.7 0-5.7 4-10 12.1-10 7.1 0 11.6 3.6 11.6 9.2 0 3.4-2.3 5.9-6 7.2 3.5 1.6 6.6 3.9 6.6 8-.1 5.6-4.1 10.1-12.6 10.1zm-1.2-15.4c-2.4 1.3-3.6 3.3-3.6 5.2 0 2.6 1.9 4.6 5.1 4.6 3.1 0 4.8-1.5 4.8-4.2.1-2.6-2.5-4.5-6.3-5.6zm1.5-13.8c-2.9 0-4.5 1.9-4.5 4.2 0 2.5 2 4.3 5.7 5.4 2.1-1.3 3.2-3.1 3.2-5.1 0-2.7-1.8-4.5-4.4-4.5zm26 8.1c7.4 0 11.6 3.9 11.6 9.8 0 6.6-4.4 11.4-12.8 11.4-3 0-7-.6-9.8-1.9l.7-6.7c2.1 1.2 5.6 2.2 8.6 2.2 3.3 0 5.7-1.6 5.7-4.7 0-2.9-2.4-4.7-6.4-4.7-2.9 0-5.3.5-6.9 1.2l-1.1-1.2 2.2-18h19.1l.2 6.5h-13.2l-.8 6.4c.6-.2 1.8-.3 2.9-.3zm20.6-.2c-3.8 0-6.1-2.5-6.1-6.1s2.3-6.1 6.2-6.1c3.8 0 6.1 2.5 6.1 6.1-.1 3.6-2.4 6.1-6.2 6.1zm.8 11h-4.1l18.1-22.9h4.1l-18.1 22.9zm-.8-20.4c-1.5 0-2.5 1.3-2.5 3.3 0 2 1 3.3 2.6 3.3 1.5 0 2.5-1.3 2.5-3.3-.1-2-1.1-3.3-2.6-3.3zm15.5 20.8c-3.8 0-6.1-2.5-6.1-6.1 0-3.6 2.3-6.1 6.2-6.1 3.8 0 6.1 2.5 6.1 6.1 0 3.6-2.3 6.1-6.2 6.1zm.1-9.4c-1.6 0-2.6 1.3-2.6 3.3 0 2.1 1 3.3 2.6 3.3 1.5 0 2.5-1.3 2.5-3.3s-1-3.3-2.5-3.3z"/><path class="st6" d="M4.8 23.1h563v34.3H4.8z"/><path d="M62.9 35.4h-2.2l-.9-2.7h-4.5l-.9 2.7h-2.2l4.1-11.3H59l3.9 11.3zM57.5 26l-1.7 4.9h3.4L57.5 26zm12.1-2.7 2.1-.3v12.3h-2.1v-.8c-.6.5-1.3 1.1-2.3 1.1-2.2 0-3.6-1.8-3.6-4.4 0-2.6 1.8-4.5 4.2-4.5.6 0 1.2.1 1.8.3v-3.7zM68 28.5c-1.4 0-2.2 1.2-2.2 2.7 0 1.6.8 2.6 2.1 2.6.7 0 1.2-.3 1.7-.7v-4.2c-.4-.2-1-.4-1.6-.4zm10.3 6.9H76l-3.2-8.3h2.3l2.1 6.1 2-6.1h2.3l-3.2 8.3zm5.8-3.7c.1 1.4 1 2.3 2.5 2.3.9 0 1.8-.3 2.6-.8l.3 1.8c-.8.4-1.9.7-3 .7-2.7 0-4.4-1.7-4.4-4.3 0-2.7 1.8-4.5 4.3-4.5 2.2 0 3.4 1.3 3.4 3.4 0 .5-.1 1-.2 1.4-.1-.2-5.5-.1-5.5 0zm3.6-1.3v-.1c0-1.1-.5-1.8-1.6-1.8-1.2 0-1.9 1-2 2l3.6-.1zm5.9 5h-2.1v-8.2l2.1-.3v1.4c.5-.9 1.2-1.4 2.2-1.4.5 0 1 .1 1.5.4l-.5 1.9c-.4-.2-.8-.3-1.2-.3-.7 0-1.4.5-2 1.5v5zm7.5.3c-1.1 0-2.4-.3-3.2-.8l.5-1.7c.8.5 1.9.8 2.8.8.8 0 1.4-.3 1.4-.9 0-.6-.7-.9-1.7-1.1-1.6-.4-2.8-1-2.8-2.6s1.3-2.6 3.3-2.6c1 0 2.3.3 3 .7l-.5 1.7c-.8-.4-1.9-.7-2.6-.7-.8 0-1.2.3-1.2.8 0 .6.7.8 1.7 1.1 1.6.4 2.8 1 2.8 2.6 0 1.5-1.3 2.7-3.5 2.7zm6.8-4c.1 1.4 1 2.3 2.5 2.3.9 0 1.8-.3 2.6-.8l.3 1.8c-.8.4-1.9.7-3 .7-2.7 0-4.4-1.7-4.4-4.3 0-2.7 1.8-4.5 4.3-4.5 2.2 0 3.4 1.3 3.4 3.4 0 .5-.1 1-.2 1.4-.1-.2-5.5-.1-5.5 0zm3.6-1.3v-.1c0-1.1-.5-1.8-1.6-1.8-1.2 0-1.9 1-2 2l3.6-.1zm10 5h-2.1v-8.2l2.1-.3v1.4c.5-.9 1.2-1.4 2.2-1.4.5 0 1 .1 1.5.4l-.5 1.9c-.4-.2-.8-.3-1.2-.3-.7 0-1.4.5-2 1.5v5zm6.4-3.7c.1 1.4 1 2.3 2.5 2.3.9 0 1.8-.3 2.6-.8l.3 1.8c-.8.4-1.9.7-3 .7-2.7 0-4.4-1.7-4.4-4.3 0-2.7 1.8-4.5 4.3-4.5 2.2 0 3.4 1.3 3.4 3.4 0 .5-.1 1-.2 1.4 0-.2-5.5-.1-5.5 0zm3.7-1.3v-.1c0-1.1-.5-1.8-1.6-1.8-1.2 0-1.9 1-2 2l3.6-.1zm8.1 4c-.6.7-1.3 1.2-2.3 1.2-1.5 0-2.6-1-2.6-2.3 0-1.5 1.1-2.8 4.9-3v-.2c0-1.1-.5-1.6-1.7-1.6-.8 0-1.9.4-2.8.9l-.4-1.7c.8-.5 2.1-1 3.5-1 2.6 0 3.5 1.1 3.5 3.4v3c0 .6.1.7.7.8l-.2 1.6c-1.5.2-2.2-.3-2.6-1.1zm0-2.9c-2.1.3-2.8.7-2.8 1.5 0 .6.5 1.1 1.2 1.1s1.2-.3 1.6-.7v-1.9zm8.1 4.1c-2.7 0-4.3-1.7-4.3-4.4s1.8-4.4 4.4-4.4c1.1 0 2.1.3 2.9.7l-.5 1.7c-.7-.4-1.5-.7-2.3-.7-1.5 0-2.4 1-2.4 2.6 0 1.7 1 2.7 2.4 2.7.9 0 1.7-.2 2.3-.6l.3 1.7c-.6.5-1.7.7-2.8.7zm7.6 0c-1.9 0-2.8-.8-2.8-2.8l.1-3.9-1.3-.1.1-1.4 1.3-.4v-1.8h2.1v1.9h2.3l-.1 1.7h-2.4l-.1 3.8c0 .8.4 1.1 1.1 1.1.4 0 .9-.1 1.3-.3l.3 1.7c-.6.4-1.2.5-1.9.5zm4.5-10c-.8 0-1.3-.5-1.3-1.3s.5-1.3 1.3-1.3 1.3.5 1.3 1.3c.1.7-.4 1.3-1.3 1.3zm-1 9.8v-8.2l2.1-.3v8.6h-2.1zm8.1.2c-2.4 0-4.2-1.7-4.2-4.4s1.9-4.4 4.3-4.4 4.2 1.7 4.2 4.4-1.9 4.4-4.3 4.4zm0-7.1c-1.4 0-2.1 1.1-2.1 2.7s.8 2.7 2.2 2.7c1.4 0 2.1-1.1 2.1-2.7s-.8-2.7-2.2-2.7zm11.5 6.9v-5.1c0-1.2-.5-1.6-1.4-1.6-.7 0-1.4.4-1.8.8v5.9h-2.1v-8.3l2.1-.3v1.3c.7-.8 1.7-1.3 2.7-1.3 1.7 0 2.7 1.1 2.7 2.9v5.7h-2.2zm6.9.3c-1.1 0-2.4-.3-3.2-.8l.5-1.7c.8.5 1.9.8 2.8.8.8 0 1.4-.3 1.4-.9 0-.6-.7-.9-1.7-1.1-1.6-.4-2.8-1-2.8-2.6s1.3-2.6 3.3-2.6c1 0 2.3.3 3 .7l-.5 1.7c-.8-.4-1.9-.7-2.6-.7-.8 0-1.2.3-1.2.8 0 .6.7.8 1.7 1.1 1.6.4 2.8 1 2.8 2.6-.1 1.5-1.4 2.7-3.5 2.7zm10.3-10.1c-.8 0-1.3-.5-1.3-1.3s.5-1.3 1.3-1.3 1.3.5 1.3 1.3c0 .7-.4 1.3-1.3 1.3zm-1 9.8v-8.2l2.1-.3v8.6h-2.1zm9.8 0v-5.1c0-1.2-.5-1.6-1.4-1.6-.7 0-1.4.4-1.8.8v5.9h-2.1v-8.3l2.1-.3v1.3c.7-.8 1.7-1.3 2.7-1.3 1.7 0 2.7 1.1 2.7 2.9v5.7h-2.2zm15.2-.3c0 2.3-2 3.6-4.4 3.6-1.2 0-2.4-.3-3.3-.8l.3-1.8c.8.5 1.8.8 2.9.8 1.4 0 2.3-.6 2.3-1.8 0-1.1-.8-1.6-2.3-1.6-.5 0-1 0-1.5.1V32c1.7-.4 3.3-.9 3.3-2.2 0-.9-.7-1.4-1.8-1.4-.9 0-1.8.4-2.6 1l-.6-1.6c.9-.7 2.1-1.2 3.6-1.2 2.2 0 3.7 1.2 3.7 2.9 0 1.3-1 2.4-2.3 2.8 1.8.3 2.7 1.5 2.7 2.8zm10-8.3c2.2 0 3.6 1.8 3.6 4.3 0 2.6-1.8 4.5-4.2 4.5-.5 0-1.2-.1-1.8-.2v3.9h-2.1V27.1l2.1-.3v1c.6-.5 1.4-1 2.4-1zm-2.3 6.7c.4.3.9.5 1.6.5 1.4 0 2.2-1.2 2.2-2.7 0-1.6-.8-2.6-2.1-2.6-.7 0-1.2.3-1.7.7v4.1zm7.7 1.9v-12l2.1-.3v12.3h-2.1zm8.8-1c-.6.7-1.3 1.2-2.3 1.2-1.5 0-2.6-1-2.6-2.3 0-1.5 1.1-2.8 4.9-3v-.2c0-1.1-.5-1.6-1.7-1.6-.8 0-1.9.4-2.8.9l-.4-1.7c.8-.5 2.1-1 3.5-1 2.6 0 3.5 1.1 3.5 3.4v3c0 .6.1.7.7.8l-.2 1.6c-1.5.2-2.2-.3-2.6-1.1zm0-2.9c-2.1.3-2.8.7-2.8 1.5 0 .6.5 1.1 1.2 1.1s1.2-.3 1.6-.7v-1.9zm8.1 4.1c-2.7 0-4.3-1.7-4.3-4.4s1.8-4.4 4.4-4.4c1.1 0 2.1.3 2.9.7l-.5 1.7c-.7-.4-1.5-.7-2.3-.7-1.5 0-2.4 1-2.4 2.6 0 1.7 1 2.7 2.4 2.7.9 0 1.7-.2 2.3-.6l.3 1.7c-.6.5-1.7.7-2.8.7zm6.1-3.9c.1 1.4 1 2.3 2.5 2.3.9 0 1.8-.3 2.6-.8l.3 1.8c-.8.4-1.9.7-3 .7-2.7 0-4.4-1.7-4.4-4.3 0-2.7 1.8-4.5 4.3-4.5 2.2 0 3.4 1.3 3.4 3.4 0 .5-.1 1-.2 1.4 0-.2-5.5-.1-5.5 0zm3.7-1.3v-.1c0-1.1-.5-1.8-1.6-1.8-1.2 0-1.9 1-2 2l3.6-.1zm7.6 5.2c-.5 0-1.3-.1-1.9-.3l-2 .3V23.3l2.1-.3v4.8c.6-.5 1.3-1.1 2.3-1.1 2.2 0 3.6 1.8 3.6 4.3.1 2.8-1.7 4.6-4.1 4.6zm0-7c-.7 0-1.2.3-1.7.7v4.2c.4.3.9.5 1.6.5 1.4 0 2.2-1.2 2.2-2.7 0-1.7-.8-2.7-2.1-2.7zm9.6 7c-2.4 0-4.2-1.7-4.2-4.4s1.9-4.4 4.3-4.4 4.2 1.7 4.2 4.4c.1 2.7-1.8 4.4-4.3 4.4zm.1-7.1c-1.4 0-2.1 1.1-2.1 2.7s.8 2.7 2.2 2.7c1.4 0 2.1-1.1 2.1-2.7-.1-1.6-.8-2.7-2.2-2.7zm5.4 3.4v-1.8h5.1v1.8h-5.1zm10.6 3.7c-2.7 0-4.3-1.7-4.3-4.4s1.8-4.4 4.4-4.4c1.1 0 2.1.3 2.9.7l-.5 1.7c-.7-.4-1.5-.7-2.3-.7-1.5 0-2.4 1-2.4 2.6 0 1.7 1 2.7 2.4 2.7.9 0 1.7-.2 2.3-.6l.4 1.8c-.8.4-1.8.6-2.9.6zm8.3 0c-2.4 0-4.2-1.7-4.2-4.4s1.9-4.4 4.3-4.4 4.2 1.7 4.2 4.4-1.9 4.4-4.3 4.4zm0-7.1c-1.4 0-2.1 1.1-2.1 2.7s.8 2.7 2.2 2.7c1.4 0 2.1-1.1 2.1-2.7s-.8-2.7-2.2-2.7zm11.5 6.9v-5.1c0-1.2-.5-1.6-1.4-1.6-.7 0-1.4.4-1.8.8v5.9h-2.1v-8.3l2.1-.3v1.3c.7-.8 1.7-1.3 2.7-1.3 1.7 0 2.7 1.1 2.7 2.9v5.7h-2.2zm7.2.2c-1.9 0-2.8-.8-2.8-2.8l.1-3.9-1.3-.1.1-1.4 1.3-.4v-1.8h2.1v1.9h2.3l-.1 1.7h-2.4l-.1 3.8c0 .8.4 1.1 1.1 1.1.4 0 .9-.1 1.3-.3l.3 1.7c-.6.4-1.1.5-1.9.5zm5.7-.2h-2.1v-8.2l2.1-.3v1.4c.5-.9 1.2-1.4 2.2-1.4.5 0 1 .1 1.5.4l-.5 1.9c-.4-.2-.8-.3-1.2-.3-.7 0-1.4.5-2 1.5v5zm8.5.2c-2.4 0-4.2-1.7-4.2-4.4s1.9-4.4 4.3-4.4 4.2 1.7 4.2 4.4-1.9 4.4-4.3 4.4zm0-7.1c-1.4 0-2.1 1.1-2.1 2.7s.8 2.7 2.2 2.7c1.4 0 2.1-1.1 2.1-2.7s-.8-2.7-2.2-2.7zm6.1 6.9v-12l2.1-.3v12.3h-2.1zm4.4 0v-12l2.1-.3v12.3h-2.1zm6-3.7c.1 1.4 1 2.3 2.5 2.3.9 0 1.8-.3 2.6-.8l.3 1.8c-.8.4-1.9.7-3 .7-2.7 0-4.4-1.7-4.4-4.3 0-2.7 1.8-4.5 4.3-4.5 2.2 0 3.4 1.3 3.4 3.4 0 .5-.1 1-.2 1.4-.1-.2-5.5-.1-5.5 0zm3.6-1.3v-.1c0-1.1-.5-1.8-1.6-1.8-1.2 0-1.9 1-2 2l3.6-.1zm9.2-7.1 2.1-.3v12.3h-2.1v-.8c-.6.5-1.3 1.1-2.3 1.1-2.2 0-3.6-1.8-3.6-4.4 0-2.6 1.8-4.5 4.2-4.5.6 0 1.2.1 1.8.3v-3.7zm-1.5 5.2c-1.4 0-2.2 1.2-2.2 2.7 0 1.6.8 2.6 2.1 2.6.7 0 1.2-.3 1.7-.7v-4.2c-.5-.2-1-.4-1.6-.4zm12.6 7.2c-1.1 0-2.4-.3-3.2-.8l.5-1.7c.8.5 1.9.8 2.8.8.8 0 1.4-.3 1.4-.9 0-.6-.7-.9-1.7-1.1-1.6-.4-2.8-1-2.8-2.6s1.3-2.6 3.3-2.6c1 0 2.3.3 3 .7l-.5 1.7c-.8-.4-1.9-.7-2.6-.7-.8 0-1.2.3-1.2.8 0 .6.7.8 1.7 1.1 1.6.4 2.8 1 2.8 2.6 0 1.5-1.4 2.7-3.5 2.7zm8.1-.1c-1.9 0-2.8-.8-2.8-2.8l.1-3.9-1.3-.1.1-1.4 1.3-.4v-1.8h2.1v1.9h2.3l-.1 1.7h-2.4l-.1 3.8c0 .8.4 1.1 1.1 1.1.4 0 .9-.1 1.3-.3l.3 1.7c-.6.4-1.2.5-1.9.5zm5.6-8.5v5.1c0 1.2.5 1.6 1.4 1.6.8 0 1.4-.3 1.8-.7v-6h2.1v8.2l-2.1.3v-1.2c-.7.7-1.7 1.3-2.7 1.3-1.6 0-2.6-1.1-2.6-2.9v-5.7h2.1zm13.1-3.8 2.1-.3v12.3h-2.1v-.8c-.6.5-1.3 1.1-2.3 1.1-2.2 0-3.6-1.8-3.6-4.4 0-2.6 1.8-4.5 4.2-4.5.6 0 1.2.1 1.8.3v-3.7zm-1.6 5.2c-1.4 0-2.2 1.2-2.2 2.7 0 1.6.8 2.6 2.1 2.6.7 0 1.2-.3 1.7-.7v-4.2c-.5-.2-1-.4-1.6-.4zm7-2.9c-.8 0-1.3-.5-1.3-1.3s.5-1.3 1.3-1.3 1.3.5 1.3 1.3c0 .7-.4 1.3-1.3 1.3zm-1 9.8v-8.2l2.1-.3v8.6h-2.1zm5.9-3.7c.1 1.4 1 2.3 2.5 2.3.9 0 1.8-.3 2.6-.8l.3 1.8c-.8.4-1.9.7-3 .7-2.7 0-4.4-1.7-4.4-4.3 0-2.7 1.8-4.5 4.3-4.5 2.2 0 3.4 1.3 3.4 3.4 0 .5-.1 1-.2 1.4 0-.2-5.5-.1-5.5 0zm3.7-1.3v-.1c0-1.1-.5-1.8-1.6-1.8-1.2 0-1.9 1-2 2l3.6-.1zm6.3 5.3c-1.1 0-2.4-.3-3.2-.8l.5-1.7c.8.5 1.9.8 2.8.8.8 0 1.4-.3 1.4-.9 0-.6-.7-.9-1.7-1.1-1.6-.4-2.8-1-2.8-2.6s1.3-2.6 3.3-2.6c1 0 2.3.3 3 .7l-.5 1.7c-.8-.4-1.9-.7-2.6-.7-.8 0-1.2.3-1.2.8 0 .6.7.8 1.7 1.1 1.6.4 2.8 1 2.8 2.6 0 1.5-1.4 2.7-3.5 2.7zm13-.1c-2.4 0-4.2-1.7-4.2-4.4s1.9-4.4 4.3-4.4 4.2 1.7 4.2 4.4-1.9 4.4-4.3 4.4zm0-7.1c-1.4 0-2.1 1.1-2.1 2.7s.8 2.7 2.2 2.7c1.4 0 2.1-1.1 2.1-2.7s-.8-2.7-2.2-2.7zm11-3.4c-.4-.2-.9-.3-1.4-.3-.8 0-1.1.5-1.1 1.5v.9h2.5l-.1 1.7h-2.4v6.5h-2.1v-6.5l-1.4-.1.1-1.4 1.4-.4v-.9c.1-2.4 1.2-3.3 3-3.3.8 0 1.5.2 2 .4-.1.1-.5 1.9-.5 1.9zm9.7 9.3c-.6.7-1.3 1.2-2.3 1.2-1.5 0-2.6-1-2.6-2.3 0-1.5 1.1-2.8 4.9-3v-.2c0-1.1-.5-1.6-1.7-1.6-.8 0-1.9.4-2.8.9l-.4-1.7c.8-.5 2.1-1 3.5-1 2.6 0 3.5 1.1 3.5 3.4v3c0 .6.1.7.7.8l-.2 1.6c-1.5.2-2.2-.3-2.6-1.1zm0-2.9c-2.1.3-2.8.7-2.8 1.5 0 .6.5 1.1 1.2 1.1s1.2-.3 1.6-.7v-1.9zm14.6-7.9.6 1.8c-2.5.5-4.4 1.8-5 3.8h.1c.7-.6 1.6-1.1 2.8-1.1 1.9 0 3.3 1.4 3.3 3.5 0 2.3-1.6 4-4.2 4-2.7 0-4.2-2.2-4.2-4.9 0-3.3 2.3-6.3 6.6-7.1zm-2.3 10.3c1.2 0 1.9-.8 1.9-2.1 0-1.2-.8-2-1.9-2-.8 0-1.6.4-2.1.8-.1.2-.1.5-.1.8.1 1.3.9 2.5 2.2 2.5zm5.3-2v-1.8h5.1v1.8h-5.1zm8.3 3.5-2.5-8.3h2.2l1.4 5.8 1.7-5.8h2.1l1.8 5.8 1.2-5.8h2.3l-2.4 8.3h-2.1l-1.9-5.8-1.8 5.8h-2zm13.2-3.7c.1 1.4 1 2.3 2.5 2.3.9 0 1.8-.3 2.6-.8l.3 1.8c-.8.4-1.9.7-3 .7-2.7 0-4.4-1.7-4.4-4.3 0-2.7 1.8-4.5 4.3-4.5 2.2 0 3.4 1.3 3.4 3.4 0 .5-.1 1-.2 1.4-.1-.2-5.5-.1-5.5 0zm3.6-1.3v-.1c0-1.1-.5-1.8-1.6-1.8-1.2 0-1.9 1-2 2l3.6-.1zm5.3 1.3c.1 1.4 1 2.3 2.5 2.3.9 0 1.8-.3 2.6-.8l.3 1.8c-.8.4-1.9.7-3 .7-2.7 0-4.4-1.7-4.4-4.3 0-2.7 1.8-4.5 4.3-4.5 2.2 0 3.4 1.3 3.4 3.4 0 .5-.1 1-.2 1.4 0-.2-5.5-.1-5.5 0zm3.7-1.3v-.1c0-1.1-.5-1.8-1.6-1.8-1.2 0-1.9 1-2 2l3.6-.1zm5.8 1v4h-2.1v-12l2.1-.4v7.7l3-3.7h2.5l-3.4 3.9 3.5 4.4h-2.5l-3.1-3.9zM23.2 57.2c-1.9 0-2.8-.8-2.8-2.8l.1-3.9-1.3-.1.1-1.4 1.3-.4v-1.8h2.1v1.9H25v1.8h-2.4l-.1 3.8c0 .8.4 1.1 1.1 1.1.4 0 .9-.1 1.3-.3l.3 1.7c-.7.3-1.3.4-2 .4zm5.7-.2h-2.1v-8.2l2.1-.3v1.4c.5-.9 1.2-1.4 2.2-1.4.5 0 1 .1 1.5.4l-.6 1.8c-.4-.2-.8-.3-1.2-.3-.7 0-1.4.5-2 1.5V57zm6.4-3.7c.1 1.4 1 2.3 2.5 2.3.9 0 1.8-.3 2.6-.8l.3 1.8c-.8.4-1.9.7-3 .7-2.7 0-4.4-1.7-4.4-4.3 0-2.7 1.8-4.5 4.3-4.5 2.2 0 3.4 1.3 3.4 3.4 0 .5-.1 1-.2 1.4-.1-.2-5.5-.1-5.5 0zm3.6-1.3v-.1c0-1.1-.5-1.8-1.6-1.8-1.2 0-1.9 1-2 2l3.6-.1zm8.1 4c-.6.7-1.3 1.2-2.3 1.2-1.5 0-2.6-1-2.6-2.3 0-1.5 1.1-2.8 4.9-3v-.2c0-1.1-.5-1.6-1.7-1.6-.8 0-1.9.4-2.8.9l-.4-1.7c.8-.5 2.1-1 3.5-1 2.6 0 3.5 1.1 3.5 3.4v3c0 .6.1.7.7.8l-.2 1.6c-1.5.2-2.2-.3-2.6-1.1zm0-2.9c-2.1.3-2.8.7-2.8 1.5 0 .6.5 1.1 1.2 1.1s1.2-.3 1.6-.7v-1.9zm7.2 4.1c-1.9 0-2.8-.8-2.8-2.8l.1-3.9-1.3-.1.1-1.4 1.3-.4v-1.8h2.1v1.9H56v1.8h-2.4l-.1 3.8c0 .8.4 1.1 1.1 1.1.4 0 .9-.1 1.3-.3l.3 1.7c-.7.3-1.2.4-2 .4zm14-.2v-5c0-1.2-.5-1.7-1.4-1.7-.7 0-1.3.4-1.7.7v6H63v-5c0-1.2-.5-1.7-1.4-1.7-.8 0-1.3.3-1.7.7v6h-2.1v-8.3l2.1-.3v1.2c.8-.8 1.6-1.2 2.6-1.2s1.9.5 2.3 1.4c.8-.9 1.8-1.4 3-1.4 1.6 0 2.6 1.1 2.6 2.9V57h-2.2zm5.9-3.7c.1 1.4 1 2.3 2.5 2.3.9 0 1.8-.3 2.6-.8l.3 1.8c-.8.4-1.9.7-3 .7-2.7 0-4.4-1.7-4.4-4.3 0-2.7 1.8-4.5 4.3-4.5 2.2 0 3.4 1.3 3.4 3.4 0 .5-.1 1-.2 1.4-.1-.2-5.5-.1-5.5 0zm3.6-1.3v-.1c0-1.1-.5-1.8-1.6-1.8-1.2 0-1.9 1-2 2l3.6-.1zm9.2 5v-5.1c0-1.2-.5-1.6-1.4-1.6-.7 0-1.4.4-1.8.8V57h-2.1v-8.3l2.1-.3v1.3c.7-.8 1.7-1.3 2.7-1.3 1.7 0 2.7 1.1 2.7 2.9V57h-2.2zm7.2.2c-1.9 0-2.8-.8-2.8-2.8l.1-3.9-1.3-.1.1-1.4 1.3-.4v-1.8h2.1v1.9H96l-.1 1.7h-2.4l-.1 3.8c0 .8.4 1.1 1.1 1.1.4 0 .9-.1 1.3-.3l.3 1.7c-.7.4-1.2.5-2 .5zm13.1-12.3 2.1-.3V57h-2.1v-.8c-.6.5-1.3 1.1-2.3 1.1-2.2 0-3.6-1.8-3.6-4.4 0-2.6 1.8-4.5 4.2-4.5.6 0 1.2.1 1.8.3v-3.8zm-1.5 5.2c-1.4 0-2.2 1.2-2.2 2.7 0 1.6.8 2.6 2.1 2.6.7 0 1.2-.3 1.7-.7v-4.2c-.5-.2-1-.4-1.6-.4zm8-1.4v5.1c0 1.2.5 1.6 1.4 1.6.8 0 1.4-.3 1.8-.7v-6h2.1v8.2l-2.1.3V56c-.7.7-1.7 1.3-2.7 1.3-1.6 0-2.6-1.1-2.6-2.9v-5.7h2.1zm9.7 8.3h-2.1v-8.2l2.1-.3v1.4c.5-.9 1.2-1.4 2.2-1.4.5 0 1 .1 1.5.4l-.5 1.9c-.4-.2-.8-.3-1.2-.3-.7 0-1.4.5-2 1.5v5zm9.2-1c-.6.7-1.3 1.2-2.3 1.2-1.5 0-2.6-1-2.6-2.3 0-1.5 1.1-2.8 4.9-3v-.2c0-1.1-.5-1.6-1.7-1.6-.8 0-1.9.4-2.8.9l-.4-1.7c.8-.5 2.1-1 3.5-1 2.6 0 3.5 1.1 3.5 3.4v3c0 .6.1.7.7.8l-.2 1.6c-1.5.2-2.2-.3-2.6-1.1zm0-2.9c-2.1.3-2.8.7-2.8 1.5 0 .6.5 1.1 1.2 1.1s1.2-.3 1.6-.7v-1.9zm7.2 4.1c-1.9 0-2.8-.8-2.8-2.8l.1-3.9-1.3-.1.1-1.4 1.3-.4v-1.8h2.1v1.9h2.3l-.1 1.7h-2.4l-.1 3.8c0 .8.4 1.1 1.1 1.1.4 0 .9-.1 1.3-.3l.3 1.7c-.6.4-1.2.5-1.9.5zm4.6-10c-.8 0-1.3-.5-1.3-1.3s.5-1.3 1.3-1.3 1.3.5 1.3 1.3c0 .7-.5 1.3-1.3 1.3zm-1.1 9.8v-8.2l2.1-.3V57h-2.1zm8.1.2c-2.4 0-4.2-1.7-4.2-4.4s1.9-4.4 4.3-4.4 4.2 1.7 4.2 4.4-1.8 4.4-4.3 4.4zm.1-7.1c-1.4 0-2.1 1.1-2.1 2.7s.8 2.7 2.2 2.7c1.4 0 2.1-1.1 2.1-2.7s-.9-2.7-2.2-2.7zm11.4 6.9v-5.1c0-1.2-.5-1.6-1.4-1.6-.7 0-1.4.4-1.8.8V57h-2.1v-8.3l2.1-.3v1.3c.7-.8 1.7-1.3 2.7-1.3 1.7 0 2.7 1.1 2.7 2.9V57h-2.2zm10.6 0h-2.1v-8.2l2.1-.3v1.4c.5-.9 1.2-1.4 2.2-1.4.5 0 1 .1 1.5.4l-.5 1.9c-.4-.2-.8-.3-1.2-.3-.7 0-1.4.5-2 1.5v5zm6.4-3.7c.1 1.4 1 2.3 2.5 2.3.9 0 1.8-.3 2.6-.8l.3 1.8c-.8.4-1.9.7-3 .7-2.7 0-4.4-1.7-4.4-4.3 0-2.7 1.8-4.5 4.3-4.5 2.2 0 3.4 1.3 3.4 3.4 0 .5-.1 1-.2 1.4-.1-.2-5.5-.1-5.5 0zm3.6-1.3v-.1c0-1.1-.5-1.8-1.6-1.8-1.2 0-1.9 1-2 2l3.6-.1zm8.2-3.6c2.2 0 3.6 1.8 3.6 4.3 0 2.6-1.8 4.5-4.2 4.5-.5 0-1.2-.1-1.8-.2v3.9h-2.1V48.7l2.1-.3v1c.6-.5 1.4-1 2.4-1zm-2.3 6.7c.4.3.9.5 1.6.5 1.4 0 2.2-1.2 2.2-2.7 0-1.6-.8-2.6-2.1-2.6-.7 0-1.2.3-1.7.7v4.1zm11.4 2.1c-2.4 0-4.2-1.7-4.2-4.4s1.9-4.4 4.3-4.4 4.2 1.7 4.2 4.4-1.8 4.4-4.3 4.4zm.1-7.1c-1.4 0-2.1 1.1-2.1 2.7s.8 2.7 2.2 2.7c1.4 0 2.1-1.1 2.1-2.7s-.9-2.7-2.2-2.7zM209 57h-2.1v-8.2l2.1-.3v1.4c.5-.9 1.2-1.4 2.2-1.4.5 0 1 .1 1.5.4l-.5 1.9c-.4-.2-.8-.3-1.2-.3-.7 0-1.4.5-2 1.5v5zm8.1.2c-1.9 0-2.8-.8-2.8-2.8l.1-3.9-1.3-.1.1-1.4 1.3-.4v-1.8h2.1v1.9h2.3l-.1 1.7h-2.4l-.1 3.8c0 .8.4 1.1 1.1 1.1.4 0 .9-.1 1.3-.3l.3 1.7c-.6.4-1.2.5-1.9.5zm5-3.9c.1 1.4 1 2.3 2.5 2.3.9 0 1.8-.3 2.6-.8l.3 1.8c-.8.4-1.9.7-3 .7-2.7 0-4.4-1.7-4.4-4.3 0-2.7 1.8-4.5 4.3-4.5 2.2 0 3.4 1.3 3.4 3.4 0 .5-.1 1-.2 1.4-.1-.2-5.5-.1-5.5 0zm3.6-1.3v-.1c0-1.1-.5-1.8-1.6-1.8-1.2 0-1.9 1-2 2l3.6-.1zm9.2-7.1 2.1-.3V57h-2.1v-.8c-.6.5-1.3 1.1-2.3 1.1-2.2 0-3.6-1.8-3.6-4.4 0-2.6 1.8-4.5 4.2-4.5.6 0 1.2.1 1.8.3v-3.8zm-1.5 5.2c-1.4 0-2.2 1.2-2.2 2.7 0 1.6.8 2.6 2.1 2.6.7 0 1.2-.3 1.7-.7v-4.2c-.5-.2-1-.4-1.6-.4zm14.4 5.9c-.6.7-1.3 1.2-2.3 1.2-1.5 0-2.6-1-2.6-2.3 0-1.5 1.1-2.8 4.9-3v-.2c0-1.1-.5-1.6-1.7-1.6-.8 0-1.9.4-2.8.9l-.4-1.7c.8-.5 2.1-1 3.5-1 2.6 0 3.5 1.1 3.5 3.4v3c0 .6.1.7.7.8l-.2 1.6c-1.5.2-2.2-.3-2.6-1.1zm0-2.9c-2.1.3-2.8.7-2.8 1.5 0 .6.5 1.1 1.2 1.1s1.2-.3 1.6-.7v-1.9zm7.2 4.1c-1.9 0-2.8-.8-2.8-2.8l.1-3.9-1.3-.1.1-1.4 1.3-.4v-1.8h2.1v1.9h2.3l-.1 1.7h-2.4l-.1 3.8c0 .8.4 1.1 1.1 1.1.4 0 .9-.1 1.3-.3l.3 1.7c-.6.4-1.2.5-1.9.5zm7.6-.2.1-1.7h6.3V57h-6.4zm0-3.7 4.6-1.8v-.2l-4.6-1.8v-1.7l6.5 2.6v1.9l-6.5 2.6v-1.6zM271 57v-1.6c2.7-1.8 4.6-3 4.6-4.2 0-.7-.6-1.2-1.5-1.2-.8 0-1.7.4-2.6 1l-.6-1.7c.9-.7 2.2-1.2 3.6-1.2 2.1 0 3.4 1.1 3.4 2.7 0 1.7-1.5 2.8-3.9 4.3h4.2v1.8H271zm11.2-5.6c-1.9 0-3.1-1.3-3.1-3 0-1.8 1.2-3.1 3.1-3.1 1.9 0 3.1 1.3 3.1 3.1 0 1.7-1.2 3-3.1 3zm0-4.9c-1 0-1.7.8-1.7 1.9 0 1.1.6 1.9 1.7 1.9 1 0 1.7-.8 1.7-1.9 0-1.2-.7-1.9-1.7-1.9zm0 10.7h-1.6l9.1-11.8h1.6l-9.1 11.8zm7.4.2c-1.9 0-3.1-1.3-3.1-3.1 0-1.7 1.2-3 3.1-3 1.9 0 3.1 1.3 3.1 3 0 1.8-1.2 3.1-3.1 3.1zm0-4.9c-1 0-1.7.8-1.7 1.9 0 1.1.6 1.9 1.7 1.9 1 0 1.6-.8 1.6-1.9.1-1.1-.5-1.9-1.6-1.9zm13 3.5c-.6.7-1.3 1.2-2.3 1.2-1.5 0-2.6-1-2.6-2.3 0-1.5 1.1-2.8 4.9-3v-.2c0-1.1-.5-1.6-1.7-1.6-.8 0-1.9.4-2.8.9l-.4-1.7c.8-.5 2.1-1 3.5-1 2.6 0 3.5 1.1 3.5 3.4v3c0 .6.1.7.7.8l-.2 1.6c-1.5.2-2.2-.3-2.6-1.1zm0-2.9c-2.1.3-2.8.7-2.8 1.5 0 .6.5 1.1 1.2 1.1s1.2-.3 1.6-.7v-1.9zm9.7 3.9v-5.1c0-1.2-.5-1.6-1.4-1.6-.7 0-1.4.4-1.8.8V57H307v-8.3l2.1-.3v1.3c.7-.8 1.7-1.3 2.7-1.3 1.7 0 2.7 1.1 2.7 2.9V57h-2.2zm9.8-12.1 2.1-.3V57h-2.1v-.8c-.6.5-1.3 1.1-2.3 1.1-2.2 0-3.6-1.8-3.6-4.4 0-2.6 1.8-4.5 4.2-4.5.6 0 1.2.1 1.8.3v-3.8zm-1.6 5.2c-1.4 0-2.2 1.2-2.2 2.7 0 1.6.8 2.6 2.1 2.6.7 0 1.2-.3 1.7-.7v-4.2c-.4-.2-.9-.4-1.6-.4zm9.7 6.7V55l4.9-2.1v-.2l-4.9-2.2v-1.8l7.2 3.3v1.4l-7.2 3.4zm13.6-8.4c2.2 0 3.6 1.8 3.6 4.3 0 2.6-1.8 4.5-4.2 4.5-.5 0-1.2-.1-1.8-.2v3.9h-2.1V48.7l2.1-.3v1c.7-.5 1.4-1 2.4-1zm-2.3 6.7c.4.3.9.5 1.6.5 1.4 0 2.2-1.2 2.2-2.7 0-1.6-.8-2.6-2.1-2.6-.7 0-1.2.3-1.7.7v4.1zm7.7 1.9V45l2.1-.3V57h-2.1zm8.8-1c-.6.7-1.3 1.2-2.3 1.2-1.5 0-2.6-1-2.6-2.3 0-1.5 1.1-2.8 4.9-3v-.2c0-1.1-.5-1.6-1.7-1.6-.8 0-1.9.4-2.8.9l-.4-1.7c.8-.5 2.1-1 3.5-1 2.6 0 3.5 1.1 3.5 3.4v3c0 .6.1.7.7.8l-.2 1.6c-1.5.2-2.2-.3-2.6-1.1zm0-2.9c-2.1.3-2.8.7-2.8 1.5 0 .6.5 1.1 1.2 1.1s1.2-.3 1.6-.7v-1.9zm8.1 4.1c-2.7 0-4.3-1.7-4.3-4.4s1.8-4.4 4.4-4.4c1.1 0 2.1.3 2.9.7l-.5 1.7c-.7-.4-1.5-.7-2.3-.7-1.5 0-2.4 1-2.4 2.6 0 1.7 1 2.7 2.4 2.7.9 0 1.7-.2 2.3-.6l.3 1.7c-.6.5-1.7.7-2.8.7zm6.2-3.9c.1 1.4 1 2.3 2.5 2.3.9 0 1.8-.3 2.6-.8l.3 1.8c-.8.4-1.9.7-3 .7-2.7 0-4.4-1.7-4.4-4.3 0-2.7 1.8-4.5 4.3-4.5 2.2 0 3.4 1.3 3.4 3.4 0 .5-.1 1-.2 1.4-.1-.2-5.5-.1-5.5 0zm3.6-1.3v-.1c0-1.1-.5-1.8-1.6-1.8-1.2 0-1.9 1-2 2l3.6-.1zm7.6 5.2c-.5 0-1.3-.1-1.9-.3l-2 .3V44.9l2.1-.3v4.8c.6-.5 1.3-1.1 2.3-1.1 2.2 0 3.6 1.8 3.6 4.3.1 2.8-1.7 4.6-4.1 4.6zm0-7c-.7 0-1.2.3-1.7.7v4.2c.4.3.9.5 1.6.5 1.4 0 2.2-1.2 2.2-2.7 0-1.7-.8-2.7-2.1-2.7zm9.7 7c-2.4 0-4.2-1.7-4.2-4.4s1.9-4.4 4.3-4.4 4.2 1.7 4.2 4.4-1.9 4.4-4.3 4.4zm0-7.1c-1.4 0-2.1 1.1-2.1 2.7s.8 2.7 2.2 2.7c1.4 0 2.1-1.1 2.1-2.7s-.8-2.7-2.2-2.7zm10.1 2.8c0-4.5 2.8-7.6 5.2-8.8l1 1.4c-2 1.2-4.3 3.8-4.3 7.4 0 3.5 2.2 6.2 4.3 7.4l-1 1.4c-2.3-1.2-5.2-4.4-5.2-8.8zm9.7 4.4c-1.1 0-2.4-.3-3.2-.8l.5-1.7c.8.5 1.9.8 2.8.8.8 0 1.4-.3 1.4-.9 0-.6-.7-.9-1.7-1.1-1.6-.4-2.8-1-2.8-2.6s1.3-2.6 3.3-2.6c1 0 2.3.3 3 .7l-.5 1.7c-.8-.4-1.9-.7-2.6-.7-.8 0-1.2.3-1.2.8 0 .6.7.8 1.7 1.1 1.6.4 2.8 1 2.8 2.6 0 1.5-1.4 2.7-3.5 2.7zm9.6-1.3c-.6.7-1.3 1.2-2.3 1.2-1.5 0-2.6-1-2.6-2.3 0-1.5 1.1-2.8 4.9-3v-.2c0-1.1-.5-1.6-1.7-1.6-.8 0-1.9.4-2.8.9l-.4-1.7c.8-.5 2.1-1 3.5-1 2.6 0 3.5 1.1 3.5 3.4v3c0 .6.1.7.7.8l-.2 1.6c-1.5.2-2.3-.3-2.6-1.1zm0-2.9c-2.1.3-2.8.7-2.8 1.5 0 .6.5 1.1 1.2 1.1s1.2-.3 1.6-.7v-1.9zm9.2-6.4c-.4-.2-.9-.3-1.4-.3-.8 0-1.1.5-1.1 1.5v.9h2.5l-.1 1.7h-2.4V57h-2.1v-6.5l-1.4-.1.1-1.4 1.4-.4v-.9c.1-2.4 1.2-3.3 3-3.3.8 0 1.5.2 2 .4-.1.1-.5 1.9-.5 1.9zm2.9 6.6c.1 1.4 1 2.3 2.5 2.3.9 0 1.8-.3 2.6-.8l.3 1.8c-.8.4-1.9.7-3 .7-2.7 0-4.4-1.7-4.4-4.3 0-2.7 1.8-4.5 4.3-4.5 2.2 0 3.4 1.3 3.4 3.4 0 .5-.1 1-.2 1.4-.1-.2-5.5-.1-5.5 0zm3.6-1.3v-.1c0-1.1-.5-1.8-1.6-1.8-1.2 0-1.9 1-2 2l3.6-.1zm6.7 5.2c-1.9 0-2.8-.8-2.8-2.8l.1-3.9-1.3-.1.1-1.4 1.3-.4v-1.8h2.1v1.9h2.3l-.1 1.7h-2.4l-.1 3.8c0 .8.4 1.1 1.1 1.1.4 0 .9-.1 1.3-.3l.3 1.7c-.6.4-1.2.5-1.9.5zm7.8-.4-.5 1.3c-.8 2.3-1.8 3-3.3 3-.8 0-1.4-.2-2.1-.5l.6-1.7c.5.2.9.4 1.3.4.6 0 .9-.3 1.4-1.4l.4-1-3.2-8.2h2.3l2.1 5.9 2-5.9h2.3l-3.3 8.1zm12.8-8.4c2.2 0 3.6 1.8 3.6 4.3 0 2.6-1.8 4.5-4.2 4.5-.5 0-1.2-.1-1.8-.2v3.9h-2.1V48.7l2.1-.3v1c.6-.5 1.4-1 2.4-1zm-2.3 6.7c.4.3.9.5 1.6.5 1.4 0 2.2-1.2 2.2-2.7 0-1.6-.8-2.6-2.1-2.6-.7 0-1.2.3-1.7.7v4.1zm11.4 2.1c-2.4 0-4.2-1.7-4.2-4.4s1.9-4.4 4.3-4.4 4.2 1.7 4.2 4.4-1.9 4.4-4.3 4.4zm.1-7.1c-1.4 0-2.1 1.1-2.1 2.7s.8 2.7 2.2 2.7c1.4 0 2.1-1.1 2.1-2.7s-.9-2.7-2.2-2.7zm10.4-1.7c2.2 0 3.6 1.8 3.6 4.3 0 2.6-1.8 4.5-4.2 4.5-.5 0-1.2-.1-1.8-.2v3.9h-2.1V48.7l2.1-.3v1c.7-.5 1.4-1 2.4-1zm-2.3 6.7c.4.3.9.5 1.6.5 1.4 0 2.2-1.2 2.2-2.7 0-1.6-.8-2.6-2.1-2.6-.7 0-1.2.3-1.7.7v4.1zm9.8-6.4v5.1c0 1.2.5 1.6 1.4 1.6.8 0 1.4-.3 1.8-.7v-6h2.1v8.2l-2.1.3V56c-.7.7-1.7 1.3-2.7 1.3-1.6 0-2.6-1.1-2.6-2.9v-5.7h2.1zm7.6 8.3V45l2.1-.3V57h-2.1zm8.8-1c-.6.7-1.3 1.2-2.3 1.2-1.5 0-2.6-1-2.6-2.3 0-1.5 1.1-2.8 4.9-3v-.2c0-1.1-.5-1.6-1.7-1.6-.8 0-1.9.4-2.8.9l-.4-1.7c.8-.5 2.1-1 3.5-1 2.6 0 3.5 1.1 3.5 3.4v3c0 .6.1.7.7.8l-.2 1.6c-1.5.2-2.2-.3-2.6-1.1zm0-2.9c-2.1.3-2.8.7-2.8 1.5 0 .6.5 1.1 1.2 1.1s1.2-.3 1.6-.7v-1.9zm7.2 4.1c-1.9 0-2.8-.8-2.8-2.8l.1-3.9-1.3-.1.1-1.4 1.3-.4v-1.8h2.1v1.9h2.3l-.1 1.7h-2.4l-.1 3.8c0 .8.4 1.1 1.1 1.1.4 0 .9-.1 1.3-.3l.3 1.7c-.6.4-1.2.5-1.9.5zm4.6-10c-.8 0-1.3-.5-1.3-1.3s.5-1.3 1.3-1.3 1.3.5 1.3 1.3c0 .7-.5 1.3-1.3 1.3zm-1.1 9.8v-8.2l2.1-.3V57h-2.1zm8.1.2c-2.4 0-4.2-1.7-4.2-4.4s1.9-4.4 4.3-4.4 4.2 1.7 4.2 4.4-1.8 4.4-4.3 4.4zm.1-7.1c-1.4 0-2.1 1.1-2.1 2.7s.8 2.7 2.2 2.7c1.4 0 2.1-1.1 2.1-2.7s-.9-2.7-2.2-2.7zm11.4 6.9v-5.1c0-1.2-.5-1.6-1.4-1.6-.7 0-1.4.4-1.8.8V57H534v-8.3l2.1-.3v1.3c.7-.8 1.7-1.3 2.7-1.3 1.7 0 2.7 1.1 2.7 2.9V57h-2.1zm3 3.3c2.1-1.2 4.3-3.9 4.3-7.4 0-3.5-2.2-6.2-4.3-7.4l1.1-1.4c2.3 1.2 5.2 4.3 5.2 8.8s-2.8 7.6-5.2 8.8l-1.1-1.4zm8.9-13.1-1.2.3v-1.1l2.5-.7V51h-1.2v-3.8z" style="fill:#1f213d"/><path class="st6" d="M15.2 401.2h534.6v12.2H15.2z"/><path d="M17.2 406.6h-1.3v-5h1.4c1.6 0 2.6 1 2.6 2.5 0 1.6-1 2.5-2.7 2.5zm0-4.5h-.8v4.1h.8c1.3 0 2.2-.7 2.2-2s-.8-2.1-2.2-2.1zm3.9 0c-.2 0-.3-.2-.3-.4s.1-.4.3-.4.3.2.3.4c0 .3-.1.4-.3.4zm-.3 4.5V403l.5-.1v3.8h-.5zm2.6.2c-.4 0-.9-.1-1.2-.3l.1-.5c.3.2.7.3 1.1.3.4 0 .8-.2.8-.6 0-.4-.5-.6-.9-.7-.5-.2-1.1-.4-1.1-1 0-.7.6-1.1 1.2-1.1.4 0 .8.1 1.1.3l-.1.4c-.3-.2-.7-.3-1-.3-.4 0-.7.2-.7.6 0 .4.4.5.9.7.5.2 1.1.4 1.1 1.1 0 .6-.6 1.1-1.3 1.1zm3.7 0c-1.1 0-1.8-.8-1.8-1.9 0-1.1.8-1.9 1.8-1.9.4 0 .8.1 1.1.3l-.1.4c-.3-.2-.6-.3-1-.3-.8 0-1.3.6-1.3 1.5s.5 1.5 1.3 1.5c.4 0 .7-.1 1-.3l.1.5c-.2 0-.6.2-1.1.2zm3.6 0c-1 0-1.8-.8-1.8-1.9 0-1.2.8-1.9 1.8-1.9s1.8.8 1.8 1.9c0 1.1-.8 1.9-1.8 1.9zm0-3.5c-.8 0-1.3.6-1.3 1.5s.5 1.5 1.3 1.5 1.3-.6 1.3-1.5-.5-1.5-1.3-1.5zm5.1 3.3v-2.4c0-.6-.3-.9-.8-.9-.4 0-.8.2-1.1.5v2.8h-.5V403l.5-.1v.6c.4-.4.9-.6 1.2-.6.7 0 1.2.5 1.2 1.3v2.5h-.5zm2.7.2c-.7 0-1-.4-1-1.2l.1-2.2H37v-.3l.6-.1v-.8h.4v.9h1.2v.4H38l-.1 2.2c0 .5.2.7.5.7.2 0 .5-.1.7-.2l.1.4c-.2.1-.5.2-.7.2zm1.8-4.7c-.2 0-.3-.2-.3-.4s.1-.4.3-.4.3.2.3.4c.1.3 0 .4-.3.4zm-.2 4.5V403l.5-.1v3.8h-.5zm4.1 0v-2.4c0-.6-.3-.9-.8-.9-.4 0-.8.2-1.1.5v2.8h-.5V403l.5-.1v.6c.4-.4.9-.6 1.2-.6.7 0 1.2.5 1.2 1.3v2.5h-.5zm2.1-3.6v2.4c0 .6.3.9.8.9.4 0 .8-.2 1.1-.5V403h.5v3.7l-.5.1v-.6c-.4.4-.9.6-1.3.6-.7 0-1.2-.5-1.2-1.3V403h.6zm5.4 3.2c-.2.3-.6.5-1.1.5-.7 0-1.2-.4-1.2-1 0-.7.5-1.2 2.2-1.3v-.2c0-.6-.3-.9-.9-.9-.4 0-.9.2-1.2.4l-.1-.5c.3-.2.9-.4 1.4-.4.8 0 1.3.4 1.3 1.3v1.8c0 .3 0 .4.4.4v.4c-.4.1-.7-.1-.8-.5zm0-1.4c-1.3.1-1.7.4-1.7.9 0 .4.3.6.8.6.4 0 .7-.2 1-.5v-1zm2.6 2c-.7 0-1-.4-1-1.2l.1-2.2h-.6v-.3l.6-.1v-.8h.5v.9h1.2v.4h-1.2l-.1 2.2c0 .5.2.7.5.7.2 0 .5-.1.7-.2l.1.4c-.2.1-.5.2-.8.2zm1.9-4.7c-.2 0-.3-.2-.3-.4s.1-.4.3-.4c.2 0 .3.2.3.4.1.3 0 .4-.3.4zm-.2 4.5V403l.5-.1v3.8H56zm3.2.2c-1 0-1.8-.8-1.8-1.9 0-1.2.8-1.9 1.8-1.9s1.8.8 1.8 1.9c0 1.1-.8 1.9-1.8 1.9zm0-3.5c-.8 0-1.3.6-1.3 1.5s.5 1.5 1.3 1.5 1.3-.6 1.3-1.5-.5-1.5-1.3-1.5zm5.1 3.3v-2.4c0-.6-.3-.9-.8-.9-.4 0-.8.2-1.1.5v2.8h-.5V403l.5-.1v.6c.4-.4.9-.6 1.2-.6.7 0 1.2.5 1.2 1.3v2.5h-.5zm5.9-5.3.5-.1v5.5h-.5v-.3c-.2.2-.6.4-1.1.4-1 0-1.6-.8-1.6-1.9 0-1.1.8-1.9 1.8-1.9.3 0 .6.1.9.2v-1.9zm-.9 2.1c-.8 0-1.3.6-1.3 1.5 0 .8.5 1.5 1.2 1.5.4 0 .7-.2 1-.4v-2.3c-.2-.2-.5-.3-.9-.3zm3-.4v2.4c0 .6.3.9.8.9.4 0 .8-.2 1.1-.5V403h.5v3.7l-.5.1v-.6c-.4.4-.9.6-1.3.6-.7 0-1.2-.5-1.2-1.3V403h.6zm3.9 1.9c0 .8.5 1.4 1.3 1.4.4 0 .8-.1 1.1-.3l.1.5c-.3.2-.7.3-1.2.3-1.1 0-1.8-.8-1.8-1.9 0-1.2.7-2 1.7-2 .8 0 1.3.5 1.3 1.4 0 .2 0 .4-.1.6h-2.4zm2-.5v-.2c0-.6-.3-.9-.9-.9-.7 0-1.1.5-1.2 1.1h2.1zm4.3 2.4c-.7 0-1-.4-1-1.2l.1-2.2H81v-.3l.6-.1v-.8h.5v.9h1.2v.4H82l-.1 2.2c0 .5.2.7.5.7.2 0 .5-.1.7-.2l.1.4c-.1.1-.4.2-.7.2zm3.1 0c-1 0-1.8-.8-1.8-1.9 0-1.2.8-1.9 1.8-1.9s1.8.8 1.8 1.9c0 1.1-.8 1.9-1.8 1.9zm0-3.5c-.8 0-1.3.6-1.3 1.5s.5 1.5 1.3 1.5 1.3-.6 1.3-1.5-.5-1.5-1.3-1.5zm6.5 2.9c-.2.3-.6.5-1.1.5-.7 0-1.2-.4-1.2-1 0-.7.5-1.2 2.2-1.3v-.2c0-.6-.3-.9-.9-.9-.4 0-.9.2-1.2.4l-.1-.5c.3-.2.9-.4 1.4-.4.8 0 1.3.4 1.3 1.3v1.8c0 .3 0 .4.4.4v.4c-.5.1-.8-.1-.8-.5zm0-1.4c-1.3.1-1.7.4-1.7.9 0 .4.3.6.8.6.4 0 .7-.2 1-.5v-1zm4-3.5.5-.1v5.5h-.5v-.3c-.2.2-.6.4-1.1.4-1 0-1.6-.8-1.6-1.9 0-1.1.8-1.9 1.8-1.9.3 0 .6.1.9.2v-1.9zm-.9 2.1c-.8 0-1.3.6-1.3 1.5 0 .8.5 1.5 1.2 1.5.4 0 .7-.2 1-.4v-2.3c-.2-.2-.5-.3-.9-.3zm3.9 3.3h-.4l-1.4-3.7h.5l1.2 3 1.1-3h.5l-1.5 3.7zm2.3-1.8c0 .8.5 1.4 1.3 1.4.4 0 .8-.1 1.1-.3l.1.5c-.3.2-.7.3-1.2.3-1.1 0-1.8-.8-1.8-1.9 0-1.2.7-2 1.7-2 .8 0 1.3.5 1.3 1.4 0 .2 0 .4-.1.6h-2.4zm2.1-.5v-.2c0-.6-.3-.9-.9-.9-.7 0-1.1.5-1.2 1.1h2.1zm1.9 2.2h-.5V403l.5-.1v.8c.2-.5.6-.8 1.1-.8.2 0 .5.1.6.2l-.1.5c-.2-.1-.4-.2-.6-.2-.4 0-.7.3-1 .9v2.3zm3.2.2c-.4 0-.9-.1-1.2-.3l.1-.5c.3.2.7.3 1.1.3.4 0 .8-.2.8-.6 0-.4-.5-.6-.9-.7-.5-.2-1.1-.4-1.1-1 0-.7.6-1.1 1.2-1.1.4 0 .8.1 1.1.3l-.1.4c-.3-.2-.7-.3-1-.3-.4 0-.7.2-.7.6 0 .4.4.5.9.7.5.2 1.1.4 1.1 1.1 0 .6-.5 1.1-1.3 1.1zm2.5-1.9c0 .8.5 1.4 1.3 1.4.4 0 .8-.1 1.1-.3l.1.5c-.3.2-.7.3-1.2.3-1.1 0-1.8-.8-1.8-1.9 0-1.2.7-2 1.7-2 .8 0 1.3.5 1.3 1.4 0 .2 0 .4-.1.6h-2.4zm2.1-.5v-.2c0-.6-.3-.9-.9-.9-.7 0-1.1.5-1.2 1.1h2.1zm3.7 2.2h-.5V403l.5-.1v.8c.2-.5.6-.8 1.1-.8.2 0 .5.1.6.2l-.1.5c-.2-.1-.4-.2-.6-.2-.4 0-.7.3-1 .9v2.3zm2.5-1.7c0 .8.5 1.4 1.3 1.4.4 0 .8-.1 1.1-.3l.1.5c-.3.2-.7.3-1.2.3-1.1 0-1.8-.8-1.8-1.9 0-1.2.7-2 1.7-2 .8 0 1.3.5 1.3 1.4 0 .2 0 .4-.1.6h-2.4zm2.1-.5v-.2c0-.6-.3-.9-.9-.9-.7 0-1.1.5-1.2 1.1h2.1zm3.4 1.8c-.2.3-.6.5-1.1.5-.7 0-1.2-.4-1.2-1 0-.7.5-1.2 2.2-1.3v-.2c0-.6-.3-.9-.9-.9-.4 0-.9.2-1.2.4l-.1-.5c.3-.2.9-.4 1.4-.4.8 0 1.3.4 1.3 1.3v1.8c0 .3 0 .4.4.4v.4c-.5.1-.8-.1-.8-.5zm-.1-1.4c-1.3.1-1.7.4-1.7.9 0 .4.3.6.8.6.4 0 .7-.2 1-.5v-1zm3.2 2c-1.1 0-1.8-.8-1.8-1.9 0-1.1.8-1.9 1.8-1.9.4 0 .8.1 1.1.3l-.1.4c-.3-.2-.6-.3-1-.3-.8 0-1.3.6-1.3 1.5s.5 1.5 1.3 1.5c.4 0 .7-.1 1-.3l.1.5c-.3 0-.7.2-1.1.2zm3.1 0c-.7 0-1-.4-1-1.2l.1-2.2h-.6v-.3l.6-.1v-.8h.5v.9h1.2v.4h-1.2l-.1 2.2c0 .5.2.7.5.7.2 0 .5-.1.7-.2l.1.4c-.3.1-.6.2-.8.2zm1.8-4.7c-.2 0-.3-.2-.3-.4s.1-.4.3-.4c.2 0 .3.2.3.4.1.3 0 .4-.3.4zm-.2 4.5V403l.5-.1v3.8h-.5zm3.2.2c-1 0-1.8-.8-1.8-1.9 0-1.2.8-1.9 1.8-1.9s1.8.8 1.8 1.9c0 1.1-.8 1.9-1.8 1.9zm0-3.5c-.8 0-1.3.6-1.3 1.5s.5 1.5 1.3 1.5 1.3-.6 1.3-1.5-.5-1.5-1.3-1.5zm5.1 3.3v-2.4c0-.6-.3-.9-.8-.9-.4 0-.8.2-1.1.5v2.8h-.5V403l.5-.1v.6c.4-.4.9-.6 1.2-.6.7 0 1.2.5 1.2 1.3v2.5h-.5zm2.5.2c-.4 0-.9-.1-1.2-.3l.1-.5c.3.2.7.3 1.1.3.4 0 .8-.2.8-.6 0-.4-.5-.6-.9-.7-.5-.2-1.1-.4-1.1-1 0-.7.6-1.1 1.2-1.1.4 0 .8.1 1.1.3l-.1.4c-.3-.2-.7-.3-1-.3-.4 0-.7.2-.7.6 0 .4.4.5.9.7.5.2 1.1.4 1.1 1.1 0 .6-.5 1.1-1.3 1.1zm4.7-.1-1.1-3.7h.5l.8 2.9 1-2.9h.4l1 2.9.8-2.9h.5l-1.1 3.7h-.4l-1-3-1 3h-.4zm6.6-.5c-.2.3-.6.5-1.1.5-.7 0-1.2-.4-1.2-1 0-.7.5-1.2 2.2-1.3v-.2c0-.6-.3-.9-.9-.9-.4 0-.9.2-1.2.4l-.1-.5c.3-.2.9-.4 1.4-.4.8 0 1.3.4 1.3 1.3v1.8c0 .3 0 .4.4.4v.4c-.5.1-.7-.1-.8-.5zm0-1.4c-1.3.1-1.7.4-1.7.9 0 .4.3.6.8.6.4 0 .7-.2 1-.5v-1zm2.5 2c-.4 0-.9-.1-1.2-.3l.1-.5c.3.2.7.3 1.1.3.4 0 .8-.2.8-.6 0-.4-.5-.6-.9-.7-.5-.2-1.1-.4-1.1-1 0-.7.6-1.1 1.2-1.1.4 0 .8.1 1.1.3l-.1.4c-.3-.2-.7-.3-1-.3-.4 0-.7.2-.7.6 0 .4.4.5.9.7.5.2 1.1.4 1.1 1.1 0 .6-.6 1.1-1.3 1.1zm6.6-.2c0 .9-.8 1.5-1.7 1.5-.5 0-1-.1-1.3-.3l.1-.5c.3.2.7.3 1.2.3.7 0 1.2-.4 1.2-1s-.5-.9-1.1-1c-.2 0-.5 0-.7.1v-.4c1-.2 1.7-.6 1.7-1.3 0-.5-.4-.8-1-.8-.4 0-.8.2-1.2.5l-.2-.4c.4-.3.9-.5 1.4-.5.9 0 1.4.5 1.4 1.2 0 .6-.5 1.1-1.1 1.3.9.1 1.3.6 1.3 1.3zm1.6-2.5c-.8 0-1.3-.6-1.3-1.3 0-.7.5-1.3 1.3-1.3s1.3.6 1.3 1.3c.1.7-.4 1.3-1.3 1.3zm0-2.3c-.6 0-1 .4-1 1 0 .5.4 1 1 1s1-.5 1-1c0-.6-.4-1-1-1zm-.2 5h-.4l4.1-5.2h.4l-4.1 5.2zm3.3 0c-.8 0-1.3-.6-1.3-1.3 0-.7.5-1.3 1.3-1.3s1.3.6 1.3 1.3c0 .7-.5 1.3-1.3 1.3zm0-2.3c-.6 0-1 .5-1 1 0 .6.4 1 1 1s1-.4 1-1c-.1-.5-.4-1-1-1zm4.5 2.2L172 403h.5l.8 2.9 1-2.9h.4l1 2.9.8-2.9h.5l-1.1 3.7h-.4l-1-3-1 3h-.4zm4.9-4.6c-.2 0-.3-.2-.3-.4s.1-.4.3-.4c.2 0 .3.2.3.4 0 .3-.1.4-.3.4zm-.3 4.5V403l.5-.1v3.8h-.5zm2.7.2c-.7 0-1-.4-1-1.2l.1-2.2h-.6v-.3l.6-.1v-.8h.5v.9h1.2v.4H180l-.1 2.2c0 .5.2.7.5.7.2 0 .5-.1.7-.2l.1.4c-.2.1-.5.2-.8.2zm4-.2v-2.4c0-.6-.3-.9-.8-.9-.4 0-.8.2-1.1.5v2.8h-.5v-5.4l.5-.1v2.3c.4-.4.9-.6 1.3-.6.7 0 1.1.5 1.1 1.3v2.5h-.5zm3.6 0v-5h.5v5h-.5zm5.2-5h.5v5h-.6l-2.9-4.3v4.3h-.5v-5h.6l2.8 4.3v-4.3zm3.9 5.2c-1.4 0-2.4-1-2.4-2.6s1-2.6 2.4-2.6c.6 0 1.2.2 1.6.4l-.2.5c-.4-.2-.9-.4-1.4-.4-1.1 0-1.9.8-1.9 2.1s.8 2.1 1.9 2.1c.5 0 .9-.1 1.2-.3v-1.4h-1.4v-.5h1.9v2.1c-.4.4-1.1.6-1.7.6zm3.4-.2h-.5v-5h1.3c1.2 0 1.8.6 1.8 1.4 0 .8-.5 1.2-1.2 1.4l1.4 2.2h-.6l-1.3-2.1-1 .1v2zm.9-2.4c.7 0 1.2-.4 1.2-1 0-.7-.5-1-1.4-1h-.8v2.1l1-.1zm2.8 2.4v-5h3v.5h-2.5v1.8h2.1v.5h-2.1v1.8h2.5v.5h-3zm3.7 0v-.4l3-4.2H208v-.5h3.5v.4l-3 4.1h3v.5h-3.6zm4.2 0v-.4l3-4.2h-2.9v-.5h3.5v.4l-3 4.1h3v.5h-3.6zm8.4 0h-.5l-.5-1.4h-2.3l-.5 1.4h-.5l1.9-5h.6l1.8 5zm-2.2-4.4-1 2.6h1.9l-.9-2.6zm6 4.5h-.4l-1.4-3.7h.5l1.2 3 1.1-3h.5l-1.5 3.7zm3 .1c-.4 0-.9-.1-1.2-.3l.1-.5c.3.2.7.3 1.1.3.4 0 .8-.2.8-.6 0-.4-.5-.6-.9-.7-.5-.2-1.1-.4-1.1-1 0-.7.6-1.1 1.2-1.1.4 0 .8.1 1.1.3l-.1.4c-.3-.2-.7-.3-1-.3-.4 0-.7.2-.7.6 0 .4.4.5.9.7.5.2 1.1.4 1.1 1.1 0 .6-.6 1.1-1.3 1.1zm3.8-.2v-.5c1.3-1 2.2-1.6 2.2-2.2 0-.4-.3-.8-.8-.8-.4 0-.8.2-1.1.5l-.2-.4c.4-.3.8-.5 1.4-.5.8 0 1.3.5 1.3 1.2 0 .9-.9 1.4-2 2.3h2.2v.5h-3zm4.6-2.5c-.8 0-1.3-.6-1.3-1.3 0-.7.5-1.3 1.3-1.3s1.3.6 1.3 1.3c0 .7-.5 1.3-1.3 1.3zm0-2.3c-.6 0-1 .4-1 1 0 .5.4 1 1 1s1-.5 1-1c0-.6-.4-1-1-1zm-.3 5h-.4l4.1-5.2h.4l-4.1 5.2zm3.3 0c-.8 0-1.3-.6-1.3-1.3 0-.7.5-1.3 1.3-1.3s1.3.6 1.3 1.3c.1.7-.4 1.3-1.3 1.3zm0-2.3c-.6 0-1 .5-1 1 0 .6.4 1 1 1s1-.4 1-1c0-.5-.4-1-1-1zm4.6 2.2-1.1-3.7h.5l.8 2.9 1-2.9h.4l1 2.9.8-2.9h.5l-1.1 3.7h-.4l-1-3-1 3h-.4zm4.8-4.6c-.2 0-.3-.2-.3-.4s.1-.4.3-.4.3.2.3.4c.1.3 0 .4-.3.4zm-.2 4.5V403l.5-.1v3.8h-.5zm2.7.2c-.7 0-1-.4-1-1.2l.1-2.2h-.6v-.3l.6-.1v-.8h.5v.9h1.2v.4h-1.2l-.1 2.2c0 .5.2.7.5.7.2 0 .5-.1.7-.2l.1.4c-.3.1-.6.2-.8.2zm4-.2v-2.4c0-.6-.3-.9-.8-.9-.4 0-.8.2-1.1.5v2.8h-.5v-5.4l.5-.1v2.3c.4-.4.9-.6 1.3-.6.7 0 1.1.5 1.1 1.3v2.5h-.5zm5-3.7c1 0 1.6.8 1.6 1.9 0 1.1-.8 2-1.8 2-.3 0-.7-.1-.9-.2v2h-.5V403l.5-.1v.5c.3-.3.7-.5 1.1-.5zm-1 3.1c.2.2.6.3.9.3.8 0 1.3-.6 1.3-1.5 0-.8-.5-1.4-1.2-1.4-.4 0-.7.2-1 .4v2.2zm3.6.6v-5.4l.5-.1v5.5h-.5zm3.5-.4c-.2.3-.6.5-1.1.5-.7 0-1.2-.4-1.2-1 0-.7.5-1.2 2.2-1.3v-.2c0-.6-.3-.9-.9-.9-.4 0-.9.2-1.2.4l-.1-.5c.3-.2.9-.4 1.4-.4.8 0 1.3.4 1.3 1.3v1.8c0 .3 0 .4.4.4v.4c-.4.1-.7-.1-.8-.5zm0-1.4c-1.3.1-1.7.4-1.7.9 0 .4.3.6.8.6.4 0 .7-.2 1-.5v-1zm3.2 2c-1.1 0-1.8-.8-1.8-1.9 0-1.1.8-1.9 1.8-1.9.4 0 .8.1 1.1.3l-.1.4c-.3-.2-.6-.3-1-.3-.8 0-1.3.6-1.3 1.5s.5 1.5 1.3 1.5c.4 0 .7-.1 1-.3l.1.5c-.3 0-.7.2-1.1.2zm2.3-1.9c0 .8.5 1.4 1.3 1.4.4 0 .8-.1 1.1-.3l.1.5c-.3.2-.7.3-1.2.3-1.1 0-1.8-.8-1.8-1.9 0-1.2.7-2 1.7-2 .8 0 1.3.5 1.3 1.4 0 .2 0 .4-.1.6h-2.4zm2-.5v-.2c0-.6-.3-.9-.9-.9-.7 0-1.1.5-1.2 1.1h2.1zm2.9 2.4c-.3 0-.7-.1-.9-.2l-.5.2v-5.5l.5-.1v2.2c.2-.2.6-.5 1.1-.5 1 0 1.6.8 1.6 1.9 0 1.1-.8 2-1.8 2zm.1-3.4c-.4 0-.7.2-1 .4v2.2c.2.2.6.3.9.3.8 0 1.3-.6 1.3-1.5 0-.8-.5-1.4-1.2-1.4zm4.1 3.4c-1 0-1.8-.8-1.8-1.9 0-1.2.8-1.9 1.8-1.9s1.8.8 1.8 1.9c0 1.1-.8 1.9-1.8 1.9zm0-3.5c-.8 0-1.3.6-1.3 1.5s.5 1.5 1.3 1.5 1.3-.6 1.3-1.5-.5-1.5-1.3-1.5zm2.9-1.2-.5.2v-.3l.8-.3v2.3h-.3v-1.9zm1.5 4.7c-.2 0-.4-.2-.4-.4s.2-.4.4-.4.4.2.4.4-.2.4-.4.4z"/></svg>