<svg xmlns="http://www.w3.org/2000/svg" viewBox="0 0 485.05 208.62"><style>.st1{fill:#231f20}.st6{fill:#595478}.st7{fill:#f9b990}.st8{fill:none}.st10{enable-background:new}</style><path fill="#f6f8f9" d="M23.68 1.53h458.91V145.3H23.68z" id="Background"/><g id="Type"><path class="st1" d="M5.09 91.04v.44h1.1v.45H2.86v-.92c0-.91.45-1.32 1.08-1.32.75 0 1.13.52 1.15 1.35zm-1.81-.01v.45h1.38L4.65 91c-.01-.56-.26-.85-.69-.85-.45 0-.68.29-.68.88zM6.19 88.99H2.86v-2.11h.42v1.66h1.03v-1.38h.42v1.38h1.04v-1.66h.42v2.11zM6.19 85.66v.45H2.86v-1c0-.8.38-1.23.97-1.23.5 0 .81.29.96.75l1.4-.9v.54l-1.32.81.04.57h1.28zm-1.7-.54c-.02-.44-.22-.77-.63-.77-.39 0-.58.32-.58.83v.49h1.23l-.02-.55zM3.47 80.71c-.19.29-.28.56-.28.91 0 .72.5 1.21 1.33 1.21.83 0 1.35-.49 1.35-1.22 0-.36-.14-.71-.33-.94l.46-.08c.17.27.28.65.28 1.03 0 .97-.68 1.67-1.74 1.67s-1.75-.7-1.75-1.67c0-.38.11-.78.28-1.05l.4.14zM6.19 79.82H2.86v-2.11h.42v1.66h1.03v-1.38h.42v1.38h1.04v-1.66h.42v2.11zM2.86 74.68v-.44h3.36v.49L3.5 76.51h2.68v.44H2.86v-.5l2.68-1.77H2.86zM3.29 71.98h2.9v.45h-2.9v1.17h-.43v-2.78h.43v1.16zM6.19 67.87v.46l-.87.31v1.44l.87.31v.47l-3.33-1.25v-.51l3.33-1.23zm-2.86 1.49l1.58.58v-1.15l-1.58.57zM6.27 65.89c0 .97-.68 1.67-1.74 1.67s-1.75-.7-1.75-1.67c0-.39.11-.83.29-1.11l.42.15c-.17.27-.3.62-.3.96 0 .72.5 1.21 1.33 1.21.83 0 1.35-.49 1.35-1.22 0-.28-.07-.53-.17-.72h-.79v.93h-.42v-1.37h1.46c.22.35.32.82.32 1.17zM6.19 63.82H2.86v-2.11h.42v1.66h1.03v-1.38h.42v1.38h1.04v-1.66h.42v2.11zM5.03 59.52c-1.33 0-2.23-.86-2.54-1.49l.28-.19c.31.58 1.14 1.29 2.26 1.29 1.12 0 1.94-.72 2.26-1.29l.28.19c-.32.64-1.22 1.49-2.54 1.49zM4.5 56.59c0 .54-.4.88-.88.88s-.89-.34-.89-.88c0-.55.4-.88.89-.88.48-.01.88.33.88.88zm1.77.14v.34l-3.48-2.65v-.34l3.48 2.65zm-3.26-.14c0 .37.27.6.61.6.32 0 .6-.22.6-.6 0-.37-.28-.6-.6-.6-.34 0-.61.22-.61.6zm3.32-2.03c0 .55-.4.88-.89.88-.47 0-.88-.34-.88-.88s.4-.88.88-.88.89.34.89.88zm-1.5 0c0 .37.28.6.6.6.34 0 .61-.22.61-.6 0-.37-.27-.6-.61-.6-.31.01-.6.23-.6.6zM7.28 53.32c-.31-.58-1.14-1.29-2.26-1.29-1.12 0-1.95.71-2.26 1.29l-.28-.19c.31-.63 1.21-1.49 2.54-1.49s2.22.86 2.53 1.49l-.27.19zM16.55 61.08l.12.4c-.88.22-1.49.74-1.69 1.49l.02.01c.25-.23.6-.38.97-.38.59 0 1.06.46 1.06 1.16 0 .71-.49 1.25-1.23 1.25-.88 0-1.3-.72-1.3-1.55 0-1.05.67-2.06 2.05-2.38zm-.73 3.47c.44 0 .73-.33.73-.79 0-.47-.27-.74-.7-.74-.34 0-.67.16-.84.32-.02.07-.03.14-.03.23 0 .53.29.98.84.98zM18.92 64.99c-.79 0-1.28-.75-1.28-1.96s.51-1.97 1.3-1.97 1.28.75 1.28 1.96c.01 1.21-.5 1.97-1.3 1.97zm0-3.5c-.45 0-.79.45-.79 1.53 0 1.06.35 1.52.81 1.52s.79-.46.79-1.51c0-1.07-.35-1.54-.81-1.54zM15.73 76.3c.75 0 1.3.41 1.3 1.11 0 .73-.53 1.23-1.31 1.23-.39 0-.8-.11-1.03-.26l.09-.47c.23.14.6.28.95.28.48 0 .82-.26.82-.76 0-.42-.31-.7-.85-.7-.33 0-.64.08-.8.16l-.1-.09.26-2h1.91l.02.47h-1.55l-.14 1.08c.09-.02.23-.05.43-.05zM18.99 78.64c-.79 0-1.28-.75-1.28-1.96s.51-1.97 1.3-1.97 1.28.75 1.28 1.96-.51 1.97-1.3 1.97zm0-3.5c-.45 0-.79.45-.79 1.53 0 1.06.35 1.52.81 1.52.46 0 .79-.46.79-1.51 0-1.07-.35-1.54-.81-1.54zM16.52 91.25v.95h-.44v-.95h-1.7l-.05-.34 1.69-2.49h.51v2.4h.57l.02.43h-.6zm-.44-2.24l-1.23 1.81h1.23v-1.81zM18.92 92.29c-.79 0-1.28-.75-1.28-1.96s.51-1.97 1.3-1.97 1.28.75 1.28 1.96c.01 1.21-.5 1.97-1.3 1.97zm0-3.5c-.45 0-.79.45-.79 1.53 0 1.06.35 1.52.81 1.52s.79-.46.79-1.51c0-1.08-.35-1.54-.81-1.54zM18.93 146.89c-.79 0-1.28-.75-1.28-1.96s.51-1.97 1.3-1.97 1.28.75 1.28 1.96c0 1.2-.51 1.97-1.3 1.97zm0-3.5c-.45 0-.79.45-.79 1.53 0 1.06.35 1.52.81 1.52s.79-.46.79-1.51c0-1.08-.36-1.54-.81-1.54zM16.98 104.78c0 .71-.61 1.16-1.35 1.16-.37 0-.82-.11-1.06-.26l.09-.46c.23.13.6.27.98.27.44 0 .84-.23.84-.67 0-.38-.31-.65-.85-.65-.17 0-.39.02-.55.05v-.41c.74-.17 1.27-.41 1.27-.84 0-.31-.23-.52-.66-.52-.29 0-.65.14-.91.38l-.19-.44c.26-.21.69-.39 1.1-.39.68 0 1.15.34 1.15.91 0 .44-.35.77-.95.94.76.01 1.09.46 1.09.93zM18.93 105.94c-.79 0-1.28-.75-1.28-1.96s.51-1.97 1.3-1.97 1.28.75 1.28 1.96-.51 1.97-1.3 1.97zm0-3.5c-.45 0-.79.45-.79 1.53 0 1.06.35 1.52.81 1.52.46 0 .79-.46.79-1.51-.01-1.08-.36-1.54-.81-1.54zM12.84 7.11l-.94.25-.01-.46 1.42-.4v3.8h-.47V7.11zM15.72 10.39c-.79 0-1.28-.75-1.28-1.96s.51-1.97 1.3-1.97 1.28.75 1.28 1.96-.51 1.97-1.3 1.97zm0-3.49c-.45 0-.79.45-.79 1.53 0 1.06.35 1.52.81 1.52.46 0 .79-.46.79-1.51 0-1.08-.36-1.54-.81-1.54zM18.92 10.39c-.79 0-1.28-.75-1.28-1.96s.51-1.97 1.3-1.97 1.28.75 1.28 1.96c.01 1.21-.5 1.97-1.3 1.97zm0-3.49c-.45 0-.79.45-.79 1.53 0 1.06.35 1.52.81 1.52s.79-.46.79-1.51c0-1.08-.35-1.54-.81-1.54zM15.01 24.03l-.12-.4c.89-.22 1.49-.74 1.69-1.49l-.02-.01c-.25.23-.6.38-.97.38-.59 0-1.05-.46-1.05-1.16 0-.71.48-1.25 1.22-1.25.88 0 1.3.72 1.3 1.55 0 1.05-.66 2.06-2.05 2.38zm.74-3.48c-.44 0-.73.33-.73.79 0 .47.27.74.7.74.34 0 .67-.16.84-.32.02-.07.03-.14.03-.23 0-.52-.3-.98-.84-.98zM18.99 24.04c-.79 0-1.28-.75-1.28-1.96s.51-1.97 1.3-1.97 1.28.75 1.28 1.96-.51 1.97-1.3 1.97zm0-3.49c-.45 0-.79.45-.79 1.53 0 1.06.35 1.52.81 1.52.46 0 .79-.46.79-1.51 0-1.08-.35-1.54-.81-1.54zM15.76 37.7c-.86 0-1.26-.47-1.26-1.03 0-.52.41-.82.73-.97-.36-.19-.67-.43-.67-.86 0-.62.46-1.08 1.23-1.08.8 0 1.17.49 1.17 1.03 0 .46-.34.76-.65.93.38.2.71.44.71.89.01.59-.42 1.09-1.26 1.09zm-.18-1.84c-.35.14-.61.4-.61.76 0 .4.34.65.81.65.5 0 .76-.22.76-.59.01-.43-.44-.68-.96-.82zm.2-1.67c-.48 0-.73.28-.73.6 0 .38.42.64.93.77.31-.14.52-.38.52-.71 0-.41-.32-.66-.72-.66zM18.92 37.7c-.79 0-1.28-.75-1.28-1.96s.51-1.97 1.3-1.97 1.28.75 1.28 1.96c.01 1.2-.5 1.97-1.3 1.97zm0-3.5c-.45 0-.79.45-.79 1.53 0 1.06.35 1.52.81 1.52s.79-.46.79-1.51c0-1.08-.35-1.54-.81-1.54zM14.62 47.97l.02-.47h2.43l.05.41-1.68 3.34h-.49l1.67-3.28h-2zM18.93 51.34c-.79 0-1.28-.75-1.28-1.96s.51-1.97 1.3-1.97 1.28.75 1.28 1.96-.51 1.97-1.3 1.97zm0-3.49c-.45 0-.79.45-.79 1.53 0 1.06.35 1.52.81 1.52.46 0 .79-.46.79-1.51-.01-1.08-.36-1.54-.81-1.54zM14.64 119.5l-.02-.49c1.13-1.07 1.8-1.56 1.8-2.22 0-.41-.29-.68-.71-.68-.32 0-.65.17-.89.4l-.17-.43c.23-.22.66-.42 1.1-.42.7 0 1.18.45 1.18 1.12 0 .71-.62 1.22-1.78 2.27h1.87l.02.45h-2.4zM18.93 119.59c-.79 0-1.28-.75-1.28-1.96s.51-1.97 1.3-1.97 1.28.75 1.28 1.96-.51 1.97-1.3 1.97zm0-3.5c-.45 0-.79.45-.79 1.53 0 1.06.35 1.52.81 1.52.46 0 .79-.46.79-1.51-.01-1.08-.36-1.54-.81-1.54zM16.05 129.95l-.94.25-.02-.46 1.42-.4v3.8h-.47v-3.19zM18.93 133.24c-.79 0-1.28-.75-1.28-1.96s.51-1.97 1.3-1.97 1.28.75 1.28 1.96c0 1.2-.51 1.97-1.3 1.97zm0-3.5c-.45 0-.79.45-.79 1.53 0 1.06.35 1.52.81 1.52.46 0 .79-.46.79-1.51-.01-1.08-.36-1.54-.81-1.54z"/><linearGradient id="SVGID_1_" gradientUnits="userSpaceOnUse" x1="26.631" y1="148.589" x2="26.631" y2="148.589"><stop offset="0" stop-color="#d8d8d9" stop-opacity=".25"/><stop offset=".164" stop-color="#dcdcdd" stop-opacity=".487"/><stop offset=".332" stop-color="#e8e8e9" stop-opacity=".731"/><stop offset=".502" stop-color="#fdfdfd" stop-opacity=".978"/><stop offset=".518" stop-color="#fff"/></linearGradient><path fill="url(#SVGID_1_)" d="M26.63 149.49v-1.8"/><linearGradient id="SVGID_00000103976181474054132660000016612912092809232558_" gradientUnits="userSpaceOnUse" x1="39.413" y1="148.589" x2="39.413" y2="148.589"><stop offset="0" stop-color="#d8d8d9" stop-opacity=".25"/><stop offset=".164" stop-color="#dcdcdd" stop-opacity=".487"/><stop offset=".332" stop-color="#e8e8e9" stop-opacity=".731"/><stop offset=".502" stop-color="#fdfdfd" stop-opacity=".978"/><stop offset=".518" stop-color="#fff"/></linearGradient><path fill="url(#SVGID_00000103976181474054132660000016612912092809232558_)" d="M39.41 149.49v-1.8"/><linearGradient id="SVGID_00000110445785397332691880000007028293471787705021_" gradientUnits="userSpaceOnUse" x1="52.195" y1="148.589" x2="52.195" y2="148.589"><stop offset="0" stop-color="#d8d8d9" stop-opacity=".25"/><stop offset=".164" stop-color="#dcdcdd" stop-opacity=".487"/><stop offset=".332" stop-color="#e8e8e9" stop-opacity=".731"/><stop offset=".502" stop-color="#fdfdfd" stop-opacity=".978"/><stop offset=".518" stop-color="#fff"/></linearGradient><path fill="url(#SVGID_00000110445785397332691880000007028293471787705021_)" d="M52.19 149.49v-1.8"/><linearGradient id="SVGID_00000065787760857586114810000017917307063790460331_" gradientUnits="userSpaceOnUse" x1="64.977" y1="148.589" x2="64.977" y2="148.589"><stop offset="0" stop-color="#d8d8d9" stop-opacity=".25"/><stop offset=".164" stop-color="#dcdcdd" stop-opacity=".487"/><stop offset=".332" stop-color="#e8e8e9" stop-opacity=".731"/><stop offset=".502" stop-color="#fdfdfd" stop-opacity=".978"/><stop offset=".518" stop-color="#fff"/></linearGradient><path fill="url(#SVGID_00000065787760857586114810000017917307063790460331_)" d="M64.98 149.49v-1.8"/><path class="st6" d="M35.56 40.01h11.03V145.3H35.56z"/><path class="st7" d="M49.84 19.27h11.03V145.3H49.84z"/><path class="st8" d="M27.91 149.4h42.85v20.59H27.91z"/><path class="st1" d="M30.95 154.28v-3.75h2.37v.47h-1.87v1.16H33v.47h-1.55v1.17h1.87v.47h-2.37zM36.74 150.53h.5v3.78h-.55l-2.01-3.06v3.02h-.5v-3.75h.56l2 3.02v-3.01zM40.02 154.37c-1.1 0-1.88-.76-1.88-1.95s.79-1.97 1.88-1.97c.44 0 .94.13 1.25.32l-.17.47c-.3-.19-.7-.34-1.08-.34-.82 0-1.36.56-1.36 1.49 0 .93.55 1.52 1.37 1.52.31 0 .59-.08.82-.19v-.89H39.8v-.47h1.54v1.65c-.39.24-.91.36-1.32.36zM45.31 154.28h-.52l-.35-.98h-1.62l-.35.98h-.53l1.41-3.75h.58l1.38 3.75zm-1.68-3.22l-.65 1.77h1.29l-.64-1.77zM47.54 154.37c-1.1 0-1.88-.76-1.88-1.95s.79-1.97 1.88-1.97c.44 0 .94.13 1.25.32l-.17.47c-.3-.19-.7-.34-1.08-.34-.82 0-1.36.56-1.36 1.49 0 .93.55 1.52 1.37 1.52.31 0 .59-.08.82-.19v-.89h-1.05v-.47h1.54v1.65c-.39.24-.92.36-1.32.36zM49.88 154.28v-3.75h2.38v.47h-1.87v1.16h1.55v.47h-1.55v1.17h1.87v.47h-2.38zM56.35 151.16l-1.14 3.06h-.51l-1.15-3.07-.04 3.12h-.5l.13-3.75h.68l1.15 3.08 1.15-3.08h.67l.12 3.75h-.52l-.04-3.11zM57.93 154.28v-3.75h2.38v.47h-1.87v1.16h1.55v.47h-1.55v1.17h1.87v.47h-2.38zM63.72 150.53h.5v3.78h-.55l-2.01-3.06v3.02h-.5v-3.75h.56l2 3.02v-3.01zM66.76 151.01v3.27h-.5v-3.27h-1.31v-.48h3.13v.48h-1.32zM33.66 160.28h-.5l-1.07-3.75h.53l.81 3.05.88-3.05h.59l.91 3.05.8-3.05h.5l-1.06 3.75h-.51l-.93-3.12-.95 3.12zM37.88 160.28v-3.75h.5v3.75h-.5zM40.93 157.01v3.27h-.5v-3.27h-1.31v-.48h3.13v.48h-1.32zM45.53 160.28v-1.66h-2.06v1.66h-.51v-3.75h.51v1.63h2.06v-1.63h.5v3.75h-.5zM48.35 156.53h2.31v.48h-1.81v1.22h1.49v.47h-1.49v1.58h-.51v-3.75zM54.17 160.28h-.52l-.35-.98h-1.62l-.35.98h-.53l1.41-3.75h.58l1.38 3.75zm-1.69-3.22l-.65 1.77h1.29l-.64-1.77zM58.12 157.16l-1.14 3.06h-.51l-1.15-3.07-.04 3.12h-.5l.13-3.75h.68l1.15 3.08 1.15-3.08h.67l.12 3.75h-.52l-.04-3.11zM59.71 160.28v-3.75h.5v3.75h-.5zM61.32 160.28v-3.75h.51v3.27h1.81v.48h-2.32zM65.39 158.79v1.49h-.51v-1.49l-1.31-2.25h.58l1 1.75.98-1.75h.56l-1.3 2.25zM40.13 164.97c0-1.49.97-2.51 1.67-2.86l.22.31c-.65.35-1.46 1.28-1.46 2.55 0 1.26.81 2.19 1.46 2.54l-.21.31c-.71-.35-1.68-1.36-1.68-2.85zM44.12 166.28v-1.73c0-.47-.18-.64-.57-.64-.29 0-.56.15-.72.3v2.06h-.49v-2.76l.49-.08v.41c.25-.25.58-.41.89-.41.56 0 .89.35.89.95v1.89h-.49zM45.52 164.54l-.03-.43h2.39l-.03.43h-2.33zm-.03 1.09l.03-.43h2.33l.03.43h-2.39zM49.37 163.08l-.94.25-.02-.46 1.42-.4v3.8h-.47v-3.19zM52.06 163.08l-.94.25-.02-.46 1.42-.4v3.8h-.47v-3.19zM55.69 162.45l.12.4c-.88.22-1.49.74-1.69 1.49l.02.01c.25-.23.6-.38.97-.38.59 0 1.06.46 1.06 1.16 0 .71-.49 1.25-1.23 1.25-.88 0-1.3-.72-1.3-1.55 0-1.05.67-2.05 2.05-2.38zm-.73 3.48c.44 0 .73-.33.73-.79 0-.47-.27-.74-.7-.74-.34 0-.67.16-.84.32-.02.07-.03.14-.03.23 0 .53.29.98.84.98zM56.64 167.51c.65-.35 1.46-1.28 1.46-2.54 0-1.27-.8-2.19-1.46-2.55l.22-.31c.71.35 1.67 1.37 1.67 2.86s-.97 2.5-1.68 2.85l-.21-.31z"/><path class="st6" d="M86.22 41.79h11.03v103.5H86.22z"/><path class="st7" d="M100.5 15.97h11.03V145.3H100.5z"/><g><path class="st8" d="M74.37 149.29h49.01v22.17H74.37z"/><path class="st1" d="M77.08 154.17h-1.1v-3.75h1.13c1.24 0 1.98.73 1.98 1.85 0 1.15-.72 1.9-2.01 1.9zm0-3.28h-.59v2.8h.62c.89 0 1.48-.47 1.48-1.39-.01-.92-.56-1.41-1.51-1.41zM82.81 154.17h-.52l-.35-.98h-1.62l-.35.98h-.53l1.41-3.75h.58l1.38 3.75zm-1.68-3.22l-.65 1.77h1.29l-.64-1.77zM83.5 154.17v-3.75h.5v3.75h-.5zM85.11 154.17v-3.75h.51v3.27h1.81v.48h-2.32zM89.18 152.68v1.49h-.51v-1.49l-1.31-2.25h.58l1 1.75.98-1.75h.56l-1.3 2.25zM92.38 150.42h2.31v.48h-1.81v1.22h1.49v.47h-1.49v1.58h-.51v-3.75zM96.91 154.26c-.94 0-1.46-.58-1.46-1.48v-2.36h.5v2.28c0 .68.32 1.08.99 1.08.58 0 .94-.34.94-1.04v-2.31h.5v2.3c.01.94-.48 1.53-1.47 1.53zM102.04 150.42h.5v3.78h-.55l-2.01-3.06v3.02h-.5v-3.75h.56l2 3.02v-3.01zM106.35 151.1c-.33-.22-.64-.32-1.03-.32-.82 0-1.36.56-1.36 1.49 0 .93.55 1.52 1.37 1.52.4 0 .8-.16 1.06-.37l.08.51c-.31.19-.74.31-1.16.31-1.1 0-1.88-.76-1.88-1.95s.79-1.97 1.88-1.97c.43 0 .88.12 1.19.31l-.15.47zM108.93 150.9v3.27h-.5v-3.27h-1.31v-.48h3.13v.48h-1.32zM110.97 154.17v-3.75h.5v3.75h-.5zM114.28 154.26c-1.1 0-1.88-.77-1.88-1.95 0-1.12.78-1.97 1.88-1.97 1.1 0 1.88.76 1.88 1.95 0 1.11-.78 1.97-1.88 1.97zm-.02-3.47c-.8 0-1.36.59-1.36 1.49 0 .92.56 1.52 1.38 1.52.8 0 1.36-.6 1.36-1.5.01-.92-.55-1.51-1.38-1.51zM119.63 150.42h.5v3.78h-.55l-2.01-3.06v3.02h-.5v-3.75h.56l2 3.02v-3.01zM121.5 152.41a.39.39 0 0 1-.39-.39c0-.2.16-.38.39-.38.22 0 .38.17.38.38 0 .2-.15.39-.38.39zm0 1.85a.39.39 0 0 1-.39-.39c0-.2.16-.38.39-.38.22 0 .38.17.38.38 0 .2-.15.39-.38.39zM89.56 157.05l-1.14 3.06h-.51l-1.15-3.07-.04 3.12h-.5l.13-3.75h.68l1.15 3.08 1.15-3.08H90l.12 3.75h-.52l-.04-3.11zM92.8 160.26c-1.1 0-1.88-.77-1.88-1.95 0-1.12.78-1.97 1.88-1.97 1.1 0 1.88.76 1.88 1.95.01 1.11-.77 1.97-1.88 1.97zm-.01-3.47c-.8 0-1.36.59-1.36 1.49 0 .92.56 1.52 1.38 1.52.8 0 1.36-.6 1.36-1.5.01-.92-.56-1.51-1.38-1.51zM98.26 159.11c0 .64-.43 1.06-1.39 1.06h-1.28v-3.75h1.24c.91 0 1.31.41 1.31 1 0 .38-.22.67-.64.82.5.12.76.45.76.87zm-1.38-2.22h-.78v1.18h.7c.54 0 .83-.24.83-.61 0-.36-.26-.57-.75-.57zm-.04 1.63h-.74v1.18h.82c.56 0 .83-.2.83-.59 0-.43-.38-.59-.91-.59zM99.18 160.17v-3.75h.5v3.75h-.5zM100.79 160.17v-3.75h.51v3.27h1.81v.48h-2.32zM103.86 160.17v-3.75h.5v3.75h-.5zM106.91 156.9v3.27h-.5v-3.27h-1.31v-.48h3.13v.48h-1.32zM110.53 158.68v1.49h-.51v-1.49l-1.31-2.25h.58l1 1.75.98-1.75h.56l-1.3 2.25zM90.69 164.85c0-1.49.97-2.51 1.67-2.86l.22.31c-.65.35-1.46 1.28-1.46 2.55 0 1.26.81 2.19 1.46 2.54l-.21.31c-.72-.34-1.68-1.35-1.68-2.85zM94.68 166.17v-1.73c0-.47-.18-.64-.57-.64-.29 0-.56.15-.72.3v2.06h-.49v-2.76l.49-.08v.41c.25-.25.58-.41.89-.41.56 0 .89.35.89.95v1.89h-.49zM96.07 164.43l-.03-.43h2.39l-.03.43h-2.33zm-.03 1.09l.03-.43h2.33l.03.43h-2.39zM100.41 166.26c-.86 0-1.26-.47-1.26-1.03 0-.52.41-.82.73-.97-.36-.19-.67-.43-.67-.86 0-.62.46-1.08 1.23-1.08.8 0 1.17.49 1.17 1.03 0 .46-.34.76-.65.93.38.2.71.44.71.89.01.59-.42 1.09-1.26 1.09zm-.18-1.84c-.35.14-.61.4-.61.76 0 .4.34.65.81.65.5 0 .76-.22.76-.59.01-.43-.44-.68-.96-.82zm.2-1.67c-.48 0-.73.28-.73.6 0 .38.42.64.93.77.31-.14.52-.38.52-.71-.01-.41-.32-.66-.72-.66zM104.72 165.09c0 .71-.61 1.16-1.35 1.16-.37 0-.82-.11-1.06-.26l.09-.46c.23.13.6.27.98.27.44 0 .84-.23.84-.67 0-.38-.31-.65-.85-.65-.17 0-.39.02-.55.05v-.41c.74-.17 1.27-.41 1.27-.84 0-.31-.23-.52-.66-.52-.29 0-.65.14-.91.38l-.19-.44c.26-.21.69-.39 1.1-.39.68 0 1.15.34 1.15.91 0 .44-.35.77-.95.94.75.02 1.09.47 1.09.93zM105.17 167.4c.65-.35 1.46-1.28 1.46-2.54 0-1.27-.8-2.19-1.46-2.55l.22-.31c.71.35 1.67 1.37 1.67 2.86s-.97 2.5-1.68 2.85l-.21-.31z"/></g><path class="st6" d="M136.88 43.21h11.03V145.3h-11.03z"/><path class="st7" d="M151.16 15.94h11.03V145.3h-11.03z"/><g><path class="st8" d="M129.24 149.4h42.85v26.16h-42.85z"/><path class="st1" d="M132.28 154.28v-3.75h2.38v.47h-1.87v1.16h1.55v.47h-1.55v1.17h1.87v.47h-2.38zM138.07 150.53h.5v3.78h-.55l-2.01-3.06v3.02h-.5v-3.75h.56l2 3.02v-3.01zM141.35 154.37c-1.1 0-1.88-.76-1.88-1.95s.79-1.97 1.88-1.97c.44 0 .94.13 1.25.32l-.17.47c-.3-.19-.7-.34-1.08-.34-.82 0-1.36.56-1.36 1.49 0 .93.55 1.52 1.37 1.52.31 0 .59-.08.82-.19v-.89h-1.05v-.47h1.54v1.65c-.39.24-.92.36-1.32.36zM146.64 154.28h-.52l-.35-.98h-1.62l-.35.98h-.53l1.41-3.75h.58l1.38 3.75zm-1.68-3.22l-.65 1.77h1.29l-.64-1.77zM148.87 154.37c-1.1 0-1.88-.76-1.88-1.95s.79-1.97 1.88-1.97c.44 0 .94.13 1.25.32l-.17.47c-.3-.19-.7-.34-1.08-.34-.82 0-1.36.56-1.36 1.49 0 .93.55 1.52 1.37 1.52.31 0 .59-.08.82-.19v-.89h-1.05v-.47h1.54v1.65c-.39.24-.92.36-1.32.36zM151.2 154.28v-3.75h2.38v.47h-1.87v1.16h1.55v.47h-1.55v1.17h1.87v.47h-2.38zM157.67 151.16l-1.14 3.06h-.51l-1.15-3.07-.04 3.12h-.5l.13-3.75h.68l1.15 3.08 1.15-3.08h.67l.12 3.75h-.52l-.04-3.11zM159.26 154.28v-3.75h2.38v.47h-1.87v1.16h1.55v.47h-1.55v1.17h1.87v.47h-2.38zM165.05 150.53h.5v3.78H165l-2.01-3.06v3.02h-.5v-3.75h.56l2 3.02v-3.01zM168.09 151.01v3.27h-.5v-3.27h-1.31v-.48h3.13v.48h-1.32zM135.65 160.28v-3.75h.5v3.75h-.5zM139.82 156.53h.5v3.78h-.55l-2.01-3.06v3.02h-.5v-3.75h.56l2 3.02v-3.01zM144.32 160.37c-1.1 0-1.88-.77-1.88-1.95 0-1.12.78-1.97 1.88-1.97 1.1 0 1.88.76 1.88 1.95 0 1.11-.78 1.97-1.88 1.97zm-.01-3.47c-.8 0-1.36.59-1.36 1.49 0 .92.56 1.52 1.38 1.52.8 0 1.36-.6 1.36-1.5 0-.92-.56-1.51-1.38-1.51zM148.55 160.37c-.94 0-1.46-.58-1.46-1.48v-2.36h.5v2.28c0 .68.32 1.08.99 1.08.58 0 .94-.34.94-1.04v-2.31h.5v2.3c0 .94-.49 1.53-1.47 1.53zM152.56 157.01v3.27h-.5v-3.27h-1.31v-.48h3.13v.48h-1.32zM156.48 159.28c0-.38-.29-.53-.9-.69-.53-.14-1.12-.37-1.12-1.1 0-.63.51-1.06 1.25-1.06.43 0 .82.11 1.18.33l-.18.44c-.29-.19-.66-.31-1-.31-.54 0-.76.25-.76.56 0 .38.32.51.91.67.55.14 1.1.41 1.1 1.12 0 .65-.53 1.12-1.32 1.12-.44 0-.89-.13-1.25-.35l.17-.46c.32.21.66.36 1.1.36.48 0 .82-.25.82-.63zM157.87 160.28v-3.75h.5v3.75h-.5zM160.59 160.28h-1.1v-3.75h1.13c1.24 0 1.98.73 1.98 1.85-.01 1.16-.73 1.9-2.01 1.9zm0-3.27H160v2.8h.62c.89 0 1.48-.47 1.48-1.39-.02-.93-.57-1.41-1.51-1.41zM163.49 160.28v-3.75h2.38v.47H164v1.16h1.55v.47H164v1.17h1.87v.47h-2.38zM135.17 162.53h2.31v.48h-1.81v1.22h1.49v.47h-1.49v1.58h-.51v-3.75zM139.7 166.37c-.94 0-1.46-.58-1.46-1.48v-2.36h.5v2.28c0 .68.32 1.08.99 1.08.58 0 .94-.34.94-1.04v-2.31h.5v2.3c.01.94-.48 1.53-1.47 1.53zM144.83 162.53h.5v3.78h-.55l-2.01-3.06v3.02h-.5v-3.75h.56l2 3.02v-3.01zM149.14 163.22c-.33-.22-.64-.32-1.03-.32-.82 0-1.36.56-1.36 1.49 0 .93.55 1.52 1.37 1.52.4 0 .8-.16 1.06-.37l.08.51c-.31.19-.74.31-1.16.31-1.1 0-1.88-.76-1.88-1.95s.79-1.97 1.88-1.97c.43 0 .88.12 1.19.31l-.15.47zM151.73 163.01v3.27h-.5v-3.27h-1.31v-.48h3.13v.48h-1.32zM153.77 166.28v-3.75h.5v3.75h-.5zM157.07 166.37c-1.1 0-1.88-.77-1.88-1.95 0-1.12.78-1.97 1.88-1.97 1.1 0 1.88.76 1.88 1.95 0 1.11-.78 1.97-1.88 1.97zm-.01-3.47c-.8 0-1.36.59-1.36 1.49 0 .92.56 1.52 1.38 1.52.8 0 1.36-.6 1.36-1.5 0-.92-.56-1.51-1.38-1.51zM162.42 162.53h.5v3.78h-.55l-2.01-3.06v3.02h-.5v-3.75h.56l2 3.02v-3.01zM165.86 165.28c0-.38-.29-.53-.9-.69-.53-.14-1.12-.37-1.12-1.1 0-.63.51-1.06 1.25-1.06.43 0 .82.11 1.18.33l-.18.44c-.29-.19-.66-.31-1-.31-.54 0-.76.25-.76.56 0 .38.32.51.91.67.55.14 1.1.41 1.1 1.12 0 .65-.53 1.12-1.32 1.12-.44 0-.89-.13-1.25-.35l.17-.46c.32.21.66.36 1.1.36.48 0 .82-.25.82-.63zM141.24 170.97c0-1.49.97-2.51 1.67-2.86l.22.31c-.65.35-1.46 1.28-1.46 2.55 0 1.26.81 2.19 1.46 2.54l-.21.31c-.71-.35-1.68-1.36-1.68-2.85zM145.23 172.28v-1.73c0-.47-.18-.64-.57-.64-.29 0-.56.15-.72.3v2.06h-.49v-2.76l.49-.08v.41c.25-.25.58-.41.89-.41.56 0 .89.35.89.95v1.89h-.49zM146.63 170.54l-.03-.43h2.39l-.03.43h-2.33zm-.03 1.09l.03-.43h2.33l.03.43h-2.39zM150.48 169.08l-.94.25-.02-.46 1.42-.4v3.8h-.47v-3.19zM153.36 172.37c-.79 0-1.28-.75-1.28-1.96s.51-1.97 1.3-1.97 1.28.75 1.28 1.96-.51 1.97-1.3 1.97zm0-3.5c-.45 0-.79.45-.79 1.53 0 1.06.35 1.52.81 1.52s.79-.46.79-1.51c-.01-1.07-.36-1.54-.81-1.54zM155.75 172.36l-.12-.4c.89-.22 1.49-.74 1.69-1.49l-.02-.01c-.25.23-.6.38-.97.38-.59 0-1.05-.46-1.05-1.16 0-.71.48-1.25 1.22-1.25.88 0 1.3.72 1.3 1.55 0 1.05-.67 2.05-2.05 2.38zm.73-3.48c-.44 0-.73.33-.73.79 0 .47.27.74.7.74.34 0 .67-.16.84-.32.02-.07.03-.14.03-.23 0-.52-.29-.98-.84-.98zM158.19 173.51c.65-.35 1.46-1.28 1.46-2.54 0-1.27-.8-2.19-1.46-2.55l.22-.31c.71.35 1.67 1.37 1.67 2.86s-.97 2.5-1.68 2.85l-.21-.31z"/></g><path class="st6" d="M187.55 46.64h11.03v98.66h-11.03z"/><path class="st7" d="M201.83 21.06h11.03V145.3h-11.03z"/><g><path class="st8" d="M171.21 149.29h70.88v26.27h-70.88z"/><path class="st1" d="M184.86 154.17h-1.1v-3.75h1.13c1.24 0 1.98.73 1.98 1.85 0 1.15-.72 1.9-2.01 1.9zm0-3.28h-.59v2.8h.62c.89 0 1.48-.47 1.48-1.39-.01-.92-.57-1.41-1.51-1.41zM190.59 154.17h-.52l-.35-.98h-1.62l-.35.98h-.53l1.41-3.75h.58l1.38 3.75zm-1.69-3.22l-.65 1.77h1.29l-.64-1.77zM191.27 154.17v-3.75h.5v3.75h-.5zM192.88 154.17v-3.75h.51v3.27h1.81v.48h-2.32zM196.95 152.68v1.49h-.51v-1.49l-1.31-2.25h.58l1 1.75.98-1.75h.56l-1.3 2.25zM200.16 150.42h2.31v.48h-1.81v1.22h1.49v.47h-1.49v1.58h-.51v-3.75zM204.69 154.26c-.94 0-1.46-.58-1.46-1.48v-2.36h.5v2.28c0 .68.32 1.08.99 1.08.58 0 .94-.34.94-1.04v-2.31h.5v2.3c0 .94-.49 1.53-1.47 1.53zM209.82 150.42h.5v3.78h-.55l-2.01-3.06v3.02h-.5v-3.75h.56l2 3.02v-3.01zM214.12 151.1c-.33-.22-.64-.32-1.03-.32-.82 0-1.36.56-1.36 1.49 0 .93.55 1.52 1.37 1.52.4 0 .8-.16 1.06-.37l.08.51c-.31.19-.74.31-1.16.31-1.1 0-1.88-.76-1.88-1.95s.79-1.97 1.88-1.97c.43 0 .88.12 1.19.31l-.15.47zM216.71 150.9v3.27h-.5v-3.27h-1.31v-.48h3.13v.48h-1.32zM218.75 154.17v-3.75h.5v3.75h-.5zM222.05 154.26c-1.1 0-1.88-.77-1.88-1.95 0-1.12.78-1.97 1.88-1.97 1.1 0 1.88.76 1.88 1.95 0 1.11-.78 1.97-1.88 1.97zm-.01-3.47c-.8 0-1.36.59-1.36 1.49 0 .92.56 1.52 1.38 1.52.8 0 1.36-.6 1.36-1.5 0-.92-.56-1.51-1.38-1.51zM227.4 150.42h.5v3.78h-.55l-2.01-3.06v3.02h-.5v-3.75h.56l2 3.02v-3.01zM229.28 152.41a.39.39 0 0 1-.39-.39c0-.2.16-.38.39-.38.22 0 .38.17.38.38 0 .2-.16.39-.38.39zm0 1.85a.39.39 0 0 1-.39-.39c0-.2.16-.38.39-.38.22 0 .38.17.38.38 0 .2-.16.39-.38.39zM198.33 159.17c0-.38-.29-.53-.9-.69-.53-.14-1.12-.37-1.12-1.1 0-.63.51-1.06 1.25-1.06.43 0 .82.11 1.18.33l-.18.44c-.29-.19-.66-.31-1-.31-.54 0-.76.25-.76.56 0 .38.32.51.91.67.55.14 1.1.41 1.1 1.12 0 .65-.53 1.12-1.32 1.12-.44 0-.89-.13-1.25-.35l.17-.46c.32.21.66.36 1.1.36.48 0 .82-.26.82-.63zM200.56 158.92l-.49.01v1.24h-.51v-3.75h1.04c1.03 0 1.49.51 1.49 1.21 0 .85-.59 1.28-1.53 1.29zm.01-2.03h-.5v1.55l.55-.01c.63-.01.95-.29.95-.78 0-.5-.33-.76-1-.76zM202.73 160.17v-3.75h2.38v.47h-1.87v1.16h1.55v.47h-1.55v1.17h1.87v.47h-2.38zM205.82 160.17v-3.75h2.38v.47h-1.87v1.16h1.55v.47h-1.55v1.17h1.87v.47h-2.38zM211.52 157.1c-.33-.22-.64-.32-1.03-.32-.82 0-1.36.56-1.36 1.49 0 .93.55 1.52 1.37 1.52.4 0 .8-.16 1.06-.37l.08.51c-.31.19-.74.31-1.16.31-1.1 0-1.88-.76-1.88-1.95s.79-1.97 1.88-1.97c.43 0 .88.12 1.19.31l-.15.47zM214.94 160.17v-1.66h-2.06v1.66h-.51v-3.75h.51v1.63h2.06v-1.63h.5v3.75h-.5zM216.01 161.36h-.36l1.46-5.4h.36l-1.46 5.4zM186.61 163.1c-.33-.22-.64-.32-1.03-.32-.82 0-1.36.56-1.36 1.49 0 .93.55 1.52 1.37 1.52.4 0 .8-.16 1.06-.37l.08.51c-.31.19-.74.31-1.16.31-1.1 0-1.88-.76-1.88-1.95s.79-1.97 1.88-1.97c.43 0 .88.12 1.19.31l-.15.47zM189.08 166.26c-1.1 0-1.88-.77-1.88-1.95 0-1.12.78-1.97 1.88-1.97 1.1 0 1.88.76 1.88 1.95 0 1.11-.78 1.97-1.88 1.97zm-.02-3.47c-.8 0-1.36.59-1.36 1.49 0 .92.56 1.52 1.38 1.52.8 0 1.36-.6 1.36-1.5.01-.92-.56-1.51-1.38-1.51zM194.95 163.05l-1.14 3.06h-.51l-1.15-3.07-.04 3.12h-.5l.13-3.75h.68l1.15 3.08 1.15-3.08h.67l.12 3.75h-.52l-.04-3.11zM199.64 163.05l-1.14 3.06h-.51l-1.15-3.07-.04 3.12h-.5l.13-3.75h.68l1.15 3.08 1.15-3.08h.67l.12 3.75h-.52l-.04-3.11zM202.49 166.26c-.94 0-1.46-.58-1.46-1.48v-2.36h.5v2.28c0 .68.32 1.08.99 1.08.58 0 .94-.34.94-1.04v-2.31h.5v2.3c.01.94-.48 1.53-1.47 1.53zM207.47 162.42h.5v3.78h-.55l-2.01-3.06v3.02h-.5v-3.75h.56l2 3.02v-3.01zM208.93 166.17v-3.75h.5v3.75h-.5zM213.11 163.1c-.33-.22-.64-.32-1.03-.32-.82 0-1.36.56-1.36 1.49 0 .93.55 1.52 1.37 1.52.4 0 .8-.16 1.06-.37l.08.51c-.31.19-.74.31-1.16.31-1.1 0-1.88-.76-1.88-1.95s.79-1.97 1.88-1.97c.43 0 .88.12 1.19.31l-.15.47zM217.03 166.17h-.52l-.35-.98h-1.62l-.35.98h-.53l1.41-3.75h.58l1.38 3.75zm-1.69-3.22l-.65 1.77h1.29l-.64-1.77zM218.64 162.9v3.27h-.5v-3.27h-1.31v-.48h3.13v.48h-1.32zM220.53 166.17v-3.75h.5v3.75h-.5zM223.69 166.26c-1.1 0-1.88-.77-1.88-1.95 0-1.12.78-1.97 1.88-1.97 1.1 0 1.88.76 1.88 1.95 0 1.11-.78 1.97-1.88 1.97zm-.01-3.47c-.8 0-1.36.59-1.36 1.49 0 .92.56 1.52 1.38 1.52.8 0 1.36-.6 1.36-1.5 0-.92-.56-1.51-1.38-1.51zM228.89 162.42h.5v3.78h-.55l-2.01-3.06v3.02h-.5v-3.75h.56l2 3.02v-3.01zM197.21 170.85c0-1.49.97-2.51 1.67-2.86l.22.31c-.65.35-1.46 1.28-1.46 2.55 0 1.26.81 2.19 1.46 2.54l-.21.31c-.71-.34-1.68-1.35-1.68-2.85zM201.2 172.17v-1.73c0-.47-.18-.64-.57-.64-.29 0-.56.15-.72.3v2.06h-.49v-2.76l.49-.08v.41c.25-.25.58-.41.89-.41.56 0 .89.35.89.95v1.89h-.49zM202.6 170.43l-.03-.43h2.39l-.03.43h-2.33zm-.03 1.09l.03-.43h2.33l.03.43h-2.39zM206.45 168.97l-.94.25-.02-.46 1.42-.4v3.8h-.47v-3.19zM209.33 172.26c-.79 0-1.28-.75-1.28-1.96s.51-1.97 1.3-1.97 1.28.75 1.28 1.96-.51 1.97-1.3 1.97zm0-3.5c-.45 0-.79.45-.79 1.53 0 1.06.35 1.52.81 1.52.46 0 .79-.46.79-1.51 0-1.08-.36-1.54-.81-1.54zM212.5 172.26c-.86 0-1.26-.47-1.26-1.03 0-.52.41-.82.73-.97-.36-.19-.67-.43-.67-.86 0-.62.46-1.08 1.23-1.08.8 0 1.17.49 1.17 1.03 0 .46-.34.76-.65.93.38.2.71.44.71.89 0 .59-.43 1.09-1.26 1.09zm-.18-1.84c-.35.14-.61.4-.61.76 0 .4.34.65.81.65.5 0 .76-.22.76-.59 0-.43-.45-.68-.96-.82zm.2-1.67c-.48 0-.73.28-.73.6 0 .38.42.64.93.77.31-.14.52-.38.52-.71-.01-.41-.33-.66-.72-.66zM214.2 173.4c.65-.35 1.46-1.28 1.46-2.54 0-1.27-.8-2.19-1.46-2.55l.22-.31c.71.35 1.67 1.37 1.67 2.86s-.97 2.5-1.68 2.85l-.21-.31z"/></g><path class="st6" d="M238.85 47.41h11.03v97.88h-11.03z"/><path class="st7" d="M253.13 18.45h11.03v126.84h-11.03z"/><g><path class="st8" d="M231.2 149.4h42.85v12.74H231.2z"/><path class="st1" d="M237.88 153.28c0-.38-.29-.53-.9-.69-.53-.14-1.12-.37-1.12-1.1 0-.63.51-1.06 1.25-1.06.43 0 .82.11 1.18.33l-.18.44c-.29-.19-.66-.31-1-.31-.54 0-.76.25-.76.56 0 .38.32.51.91.67.55.14 1.1.41 1.1 1.12 0 .65-.53 1.12-1.32 1.12-.44 0-.89-.13-1.25-.35l.17-.46c.32.21.66.36 1.1.36.48 0 .82-.25.82-.63zM240.92 154.37c-1.1 0-1.88-.77-1.88-1.95 0-1.12.78-1.97 1.88-1.97 1.1 0 1.88.76 1.88 1.95 0 1.11-.78 1.97-1.88 1.97zm-.02-3.47c-.8 0-1.36.59-1.36 1.49 0 .92.56 1.52 1.38 1.52.8 0 1.36-.6 1.36-1.5.01-.92-.55-1.51-1.38-1.51zM246.41 151.22c-.33-.22-.64-.32-1.03-.32-.82 0-1.36.56-1.36 1.49 0 .93.55 1.52 1.37 1.52.4 0 .8-.16 1.06-.37l.08.51c-.31.19-.74.31-1.16.31-1.1 0-1.88-.76-1.88-1.95s.79-1.97 1.88-1.97c.43 0 .88.12 1.19.31l-.15.47zM247.42 154.28v-3.75h.5v3.75h-.5zM251.98 154.28h-.52l-.35-.98h-1.62l-.35.98h-.53l1.41-3.75h.58l1.38 3.75zm-1.68-3.22l-.65 1.77h1.29l-.64-1.77zM252.66 154.28v-3.75h.51v3.27h1.81v.48h-2.32zM255.74 154.28v-3.75h.5v3.75h-.5zM256.98 154.28v-.38l2.12-2.89h-2.09v-.47h2.72v.4l-2.12 2.88h2.11v.47h-2.74zM260.53 154.28v-3.75h.5v3.75h-.5zM264.7 150.53h.5v3.78h-.55l-2.01-3.06v3.02h-.5v-3.75h.56l2 3.02v-3.01zM267.98 154.37c-1.1 0-1.88-.76-1.88-1.95s.79-1.97 1.88-1.97c.44 0 .94.13 1.25.32l-.17.47c-.3-.19-.7-.34-1.08-.34-.82 0-1.36.56-1.36 1.49 0 .93.55 1.52 1.37 1.52.31 0 .59-.08.82-.19v-.89h-1.05v-.47h1.54v1.65c-.39.24-.92.36-1.32.36zM243.2 158.97c0-1.49.97-2.51 1.67-2.86l.22.31c-.65.35-1.46 1.28-1.46 2.55 0 1.26.81 2.19 1.46 2.54l-.21.31c-.71-.35-1.68-1.36-1.68-2.85zM247.19 160.28v-1.73c0-.47-.18-.64-.57-.64-.29 0-.56.15-.72.3v2.06h-.49v-2.76l.49-.08v.41c.25-.25.58-.41.89-.41.56 0 .89.35.89.95v1.89h-.49zM248.59 158.54l-.03-.43h2.39l-.03.43h-2.33zm-.03 1.09l.03-.43h2.33l.03.43h-2.39zM252.44 157.08l-.94.25-.02-.46 1.42-.4v3.8h-.47v-3.19zM254.04 160.28l-.02-.49c1.13-1.07 1.8-1.56 1.8-2.22 0-.41-.29-.68-.71-.68-.32 0-.65.17-.89.4l-.17-.43c.23-.22.66-.42 1.1-.42.7 0 1.18.45 1.18 1.12 0 .71-.62 1.22-1.78 2.27h1.87l.02.45h-2.4zM258.21 158.03c.75 0 1.3.41 1.3 1.11 0 .73-.53 1.23-1.31 1.23-.39 0-.8-.11-1.03-.26l.09-.47c.23.14.6.28.95.28.48 0 .82-.26.82-.76 0-.42-.31-.7-.85-.7-.33 0-.64.08-.8.16l-.1-.09.26-2h1.91l.02.47h-1.55l-.14 1.08c.1-.03.24-.05.43-.05zM260.16 161.51c.65-.35 1.46-1.28 1.46-2.54 0-1.27-.8-2.19-1.46-2.55l.22-.31c.71.35 1.67 1.37 1.67 2.86s-.97 2.5-1.68 2.85l-.21-.31z"/></g><path class="st6" d="M289.51 53.98h11.03v91.31h-11.03z"/><path class="st7" d="M303.79 15.86h11.03V145.3h-11.03z"/><g><path class="st8" d="M277.66 149.29h49.01v19.24h-49.01z"/><path class="st1" d="M280.37 154.17h-1.1v-3.75h1.13c1.24 0 1.98.73 1.98 1.85 0 1.15-.72 1.9-2.01 1.9zm0-3.28h-.59v2.8h.62c.89 0 1.48-.47 1.48-1.39-.01-.92-.56-1.41-1.51-1.41zM286.11 154.17h-.52l-.35-.98h-1.62l-.35.98h-.53l1.41-3.75h.58l1.38 3.75zm-1.69-3.22l-.65 1.77h1.29l-.64-1.77zM286.79 154.17v-3.75h.5v3.75h-.5zM288.4 154.17v-3.75h.51v3.27h1.81v.48h-2.32zM292.47 152.68v1.49h-.51v-1.49l-1.31-2.25h.58l1 1.75.98-1.75h.56l-1.3 2.25zM295.67 150.42h2.31v.48h-1.81v1.22h1.49v.47h-1.49v1.58h-.51v-3.75zM300.21 154.26c-.94 0-1.46-.58-1.46-1.48v-2.36h.5v2.28c0 .68.32 1.08.99 1.08.58 0 .94-.34.94-1.04v-2.31h.5v2.3c0 .94-.49 1.53-1.47 1.53zM305.33 150.42h.5v3.78h-.55l-2.01-3.06v3.02h-.5v-3.75h.56l2 3.02v-3.01zM309.64 151.1c-.33-.22-.64-.32-1.03-.32-.82 0-1.36.56-1.36 1.49 0 .93.55 1.52 1.37 1.52.4 0 .8-.16 1.06-.37l.08.51c-.31.19-.74.31-1.16.31-1.1 0-1.88-.76-1.88-1.95s.79-1.97 1.88-1.97c.43 0 .88.12 1.19.31l-.15.47zM312.23 150.9v3.27h-.5v-3.27h-1.31v-.48h3.13v.48h-1.32zM314.27 154.17v-3.75h.5v3.75h-.5zM317.57 154.26c-1.1 0-1.88-.77-1.88-1.95 0-1.12.78-1.97 1.88-1.97 1.1 0 1.88.76 1.88 1.95 0 1.11-.78 1.97-1.88 1.97zm-.01-3.47c-.8 0-1.36.59-1.36 1.49 0 .92.56 1.52 1.38 1.52.8 0 1.36-.6 1.36-1.5 0-.92-.56-1.51-1.38-1.51zM322.92 150.42h.5v3.78h-.55l-2.01-3.06v3.02h-.5v-3.75h.56l2 3.02v-3.01zM324.8 152.41a.39.39 0 0 1-.39-.39c0-.2.16-.38.39-.38.22 0 .38.17.38.38-.01.2-.16.39-.38.39zm0 1.85a.39.39 0 0 1-.39-.39c0-.2.16-.38.39-.38.22 0 .38.17.38.38-.01.2-.16.39-.38.39zM292.77 160.17v-3.75h2.38v.47h-1.87v1.16h1.55v.47h-1.55v1.17h1.87v.47h-2.38zM299.1 160.17h-.52l-.35-.98h-1.62l-.35.98h-.53l1.41-3.75h.58l1.38 3.75zm-1.69-3.22l-.65 1.77h1.29l-.64-1.77zM300.86 156.9v3.27h-.5v-3.27h-1.31v-.48h3.13v.48h-1.32zM302.9 160.17v-3.75h.5v3.75h-.5zM307.07 156.42h.5v3.78h-.55l-2.01-3.06v3.02h-.5v-3.75h.56l2 3.02v-3.01zM310.35 160.26c-1.1 0-1.88-.76-1.88-1.95s.79-1.97 1.88-1.97c.44 0 .94.13 1.25.32l-.17.47c-.3-.19-.7-.34-1.08-.34-.82 0-1.36.56-1.36 1.49 0 .93.55 1.52 1.37 1.52.31 0 .59-.08.82-.19v-.89h-1.05v-.47h1.54v1.65c-.39.24-.91.36-1.32.36zM293.94 164.85c0-1.49.97-2.51 1.67-2.86l.22.31c-.65.35-1.46 1.28-1.46 2.55 0 1.26.81 2.19 1.46 2.54l-.21.31c-.71-.34-1.68-1.35-1.68-2.85zM297.93 166.17v-1.73c0-.47-.18-.64-.57-.64-.29 0-.56.15-.72.3v2.06h-.49v-2.76l.49-.08v.41c.25-.25.58-.41.89-.41.56 0 .89.35.89.95v1.89h-.49zM299.33 164.43l-.03-.43h2.39l-.03.43h-2.33zm-.03 1.09l.03-.43h2.33l.03.43h-2.39zM302.82 166.25l-.12-.4c.89-.22 1.49-.74 1.69-1.49l-.02-.01c-.25.23-.6.38-.97.38-.59 0-1.05-.46-1.05-1.16 0-.71.48-1.25 1.22-1.25.88 0 1.3.72 1.3 1.55 0 1.04-.67 2.05-2.05 2.38zm.73-3.48c-.44 0-.73.33-.73.79 0 .47.27.74.7.74.34 0 .67-.16.84-.32.02-.07.03-.14.03-.23 0-.53-.29-.98-.84-.98zM306.56 163.92c.75 0 1.3.41 1.3 1.11 0 .73-.53 1.23-1.31 1.23-.39 0-.8-.11-1.03-.26l.09-.47c.23.14.6.28.95.28.48 0 .82-.26.82-.76 0-.42-.31-.7-.85-.7-.33 0-.64.08-.8.16l-.1-.09.26-2h1.91l.02.47h-1.55l-.14 1.08c.09-.03.23-.05.43-.05zM308.5 167.4c.65-.35 1.46-1.28 1.46-2.54 0-1.27-.8-2.19-1.46-2.55l.22-.31c.71.35 1.67 1.37 1.67 2.86s-.97 2.5-1.68 2.85l-.21-.31z"/></g><path class="st6" d="M340.18 63.65h11.03v81.64h-11.03z"/><path class="st7" d="M354.46 19.88h11.03V145.3h-11.03z"/><g><path class="st8" d="M328.91 149.4h50.08v21.17h-50.08z"/><path class="st1" d="M332.16 154.28h-1.1v-3.75h1.13c1.24 0 1.98.73 1.98 1.85 0 1.16-.72 1.9-2.01 1.9zm0-3.27h-.59v2.8h.62c.89 0 1.48-.47 1.48-1.39-.01-.93-.56-1.41-1.51-1.41zM337.89 154.28h-.52l-.35-.98h-1.62l-.35.98h-.53l1.41-3.75h.58l1.38 3.75zm-1.68-3.22l-.65 1.77h1.29l-.64-1.77zM338.58 154.28v-3.75h.5v3.75h-.5zM340.19 154.28v-3.75h.51v3.27h1.81v.48h-2.32zM344.26 152.79v1.49h-.51v-1.49l-1.31-2.25h.58l1 1.75.98-1.75h.56l-1.3 2.25zM347.46 150.53h2.31v.48h-1.81v1.22h1.49v.47h-1.49v1.58h-.51v-3.75zM351.99 154.37c-.94 0-1.46-.58-1.46-1.48v-2.36h.5v2.28c0 .68.32 1.08.99 1.08.58 0 .94-.34.94-1.04v-2.31h.5v2.3c.01.94-.48 1.53-1.47 1.53zM357.12 150.53h.5v3.78h-.55l-2.01-3.06v3.02h-.5v-3.75h.56l2 3.02v-3.01zM361.43 151.22c-.33-.22-.64-.32-1.03-.32-.82 0-1.36.56-1.36 1.49 0 .93.55 1.52 1.37 1.52.4 0 .8-.16 1.06-.37l.08.51c-.31.19-.74.31-1.16.31-1.1 0-1.88-.76-1.88-1.95s.79-1.97 1.88-1.97c.43 0 .88.12 1.19.31l-.15.47zM364.01 151.01v3.27h-.5v-3.27h-1.31v-.48h3.13v.48h-1.32zM366.05 154.28v-3.75h.5v3.75h-.5zM369.36 154.37c-1.1 0-1.88-.77-1.88-1.95 0-1.12.78-1.97 1.88-1.97 1.1 0 1.88.76 1.88 1.95 0 1.11-.78 1.97-1.88 1.97zm-.02-3.47c-.8 0-1.36.59-1.36 1.49 0 .92.56 1.52 1.38 1.52.8 0 1.36-.6 1.36-1.5.01-.92-.56-1.51-1.38-1.51zM374.71 150.53h.5v3.78h-.55l-2.01-3.06v3.02h-.5v-3.75h.56l2 3.02v-3.01zM376.58 152.52a.39.39 0 0 1-.39-.39c0-.2.16-.38.39-.38.22 0 .38.17.38.38s-.16.39-.38.39zm0 1.85c-.23 0-.39-.19-.39-.39s.16-.38.39-.38c.22 0 .38.17.38.38s-.16.39-.38.39zM330.25 160.28v-3.75h.51v3.27h1.81v.48h-2.32zM333.33 160.28v-3.75h.5v3.75h-.5zM336.47 160.28h-.59l-1.39-3.75h.52l1.16 3.2 1.16-3.2h.53l-1.39 3.75zM338.54 160.28v-3.75h.5v3.75h-.5zM342.71 156.53h.5v3.78h-.55l-2.01-3.06v3.02h-.5v-3.75h.56l2 3.02v-3.01zM345.99 160.37c-1.1 0-1.88-.76-1.88-1.95s.79-1.97 1.88-1.97c.44 0 .94.13 1.25.32l-.17.47c-.3-.19-.7-.34-1.08-.34-.82 0-1.36.56-1.36 1.49 0 .93.55 1.52 1.37 1.52.31 0 .59-.08.82-.19v-.89h-1.05v-.47h1.54v1.65c-.39.24-.92.36-1.32.36zM352.46 160.28h-.52l-.35-.98h-1.62l-.35.98h-.53l1.41-3.75h.58l1.38 3.75zm-1.69-3.22l-.65 1.77h1.29l-.64-1.77zM355.71 157.22c-.33-.22-.64-.32-1.03-.32-.82 0-1.36.56-1.36 1.49 0 .93.55 1.52 1.37 1.52.4 0 .8-.16 1.06-.37l.08.51c-.31.19-.74.31-1.16.31-1.1 0-1.88-.76-1.88-1.95s.79-1.97 1.88-1.97c.43 0 .88.12 1.19.31l-.15.47zM358.29 157.01v3.27h-.5v-3.27h-1.31v-.48h3.13v.48h-1.32zM360.33 160.28v-3.75h.5v3.75h-.5zM363.47 160.28h-.59l-1.39-3.75h.52l1.16 3.2 1.16-3.2h.53l-1.39 3.75zM365.54 160.28v-3.75h.5v3.75h-.5zM368.59 157.01v3.27h-.5v-3.27h-1.31v-.48h3.13v.48h-1.32zM370.63 160.28v-3.75h.5v3.75h-.5zM372.24 160.28v-3.75h2.38v.47h-1.87v1.16h1.55v.47h-1.55v1.17h1.87v.47h-2.38zM377.37 159.28c0-.38-.29-.53-.9-.69-.53-.14-1.12-.37-1.12-1.1 0-.63.51-1.06 1.25-1.06.43 0 .82.11 1.18.33l-.18.44c-.29-.19-.66-.31-1-.31-.54 0-.76.25-.76.56 0 .38.32.51.91.67.55.14 1.1.41 1.1 1.12 0 .65-.53 1.12-1.32 1.12-.44 0-.89-.13-1.25-.35l.17-.46c.32.21.66.36 1.1.36.47 0 .82-.25.82-.63zM345.76 164.97c0-1.49.97-2.51 1.67-2.86l.22.31c-.65.35-1.46 1.28-1.46 2.55 0 1.26.81 2.19 1.46 2.54l-.21.31c-.71-.35-1.68-1.36-1.68-2.85zM349.75 166.28v-1.73c0-.47-.18-.64-.57-.64-.29 0-.56.15-.72.3v2.06h-.49v-2.76l.49-.08v.41c.25-.25.58-.41.89-.41.56 0 .89.35.89.95v1.89h-.49zM351.15 164.54l-.03-.43h2.39l-.03.43h-2.33zm-.03 1.09l.03-.43h2.33l.03.43h-2.39zM354.63 166.36l-.12-.4c.89-.22 1.49-.74 1.69-1.49l-.02-.01c-.25.23-.6.38-.97.38-.59 0-1.05-.46-1.05-1.16 0-.71.48-1.25 1.22-1.25.88 0 1.3.72 1.3 1.55 0 1.05-.66 2.05-2.05 2.38zm.74-3.48c-.44 0-.73.33-.73.79 0 .47.27.74.7.74.34 0 .67-.16.84-.32.02-.07.03-.14.03-.23 0-.52-.29-.98-.84-.98zM358.61 166.37c-.79 0-1.28-.75-1.28-1.96s.51-1.97 1.3-1.97 1.28.75 1.28 1.96c.01 1.21-.5 1.97-1.3 1.97zm0-3.5c-.45 0-.79.45-.79 1.53 0 1.06.35 1.52.81 1.52s.79-.46.79-1.51c0-1.07-.35-1.54-.81-1.54zM360.25 167.51c.65-.35 1.46-1.28 1.46-2.54 0-1.27-.8-2.19-1.46-2.55l.22-.31c.71.35 1.67 1.37 1.67 2.86s-.97 2.5-1.68 2.85l-.21-.31z"/></g><path class="st6" d="M390.84 80.03h11.03v65.26h-11.03z"/><path class="st7" d="M405.12 34.77h11.03V145.3h-11.03z"/><g><path class="st8" d="M378.99 149.29H428v14.46h-49.01z"/><path class="st1" d="M383.19 154.17h-.52l-.35-.98h-1.62l-.35.98h-.53l1.41-3.75h.58l1.38 3.75zm-1.69-3.22l-.65 1.77h1.29l-.64-1.77zM386.53 153.11c0 .64-.43 1.06-1.39 1.06h-1.28v-3.75h1.24c.91 0 1.31.41 1.31 1 0 .38-.22.67-.64.82.5.12.76.45.76.87zm-1.38-2.22h-.77v1.18h.7c.54 0 .83-.24.83-.61-.01-.36-.27-.57-.76-.57zm-.04 1.63h-.74v1.18h.82c.56 0 .83-.2.83-.59 0-.43-.38-.59-.91-.59zM387.45 154.17v-3.75h.5v3.75h-.5zM389.05 154.17v-3.75h.51v3.27h1.81v.48h-2.32zM392.13 154.17v-3.75h.5v3.75h-.5zM395.18 150.9v3.27h-.5v-3.27h-1.31v-.48h3.13v.48h-1.32zM398.8 152.68v1.49h-.51v-1.49l-1.31-2.25h.58l1 1.75.98-1.75h.56l-1.3 2.25zM403.46 150.9v3.27h-.5v-3.27h-1.31v-.48h3.13v.48h-1.32zM407.08 154.26c-1.1 0-1.88-.77-1.88-1.95 0-1.12.78-1.97 1.88-1.97 1.1 0 1.88.76 1.88 1.95 0 1.11-.78 1.97-1.88 1.97zm-.01-3.48c-.8 0-1.36.59-1.36 1.49 0 .92.56 1.52 1.38 1.52.8 0 1.36-.6 1.36-1.5 0-.91-.56-1.51-1.38-1.51zM412.36 154.17h-.5l-1.07-3.75h.53l.81 3.05.88-3.05h.59l.91 3.05.8-3.05h.5l-1.06 3.75h-.51l-.93-3.12-.95 3.12zM418.18 154.26c-1.1 0-1.88-.77-1.88-1.95 0-1.12.78-1.97 1.88-1.97 1.1 0 1.88.76 1.88 1.95.01 1.11-.77 1.97-1.88 1.97zm-.01-3.48c-.8 0-1.36.59-1.36 1.49 0 .92.56 1.52 1.38 1.52.8 0 1.36-.6 1.36-1.5.01-.91-.56-1.51-1.38-1.51zM421.48 154.17h-.51v-3.75h1.12c.91 0 1.38.43 1.38 1.1 0 .56-.33.91-.85 1.08l1.01 1.57h-.61l-.91-1.49-.64.04v1.45zm.62-1.92c.49-.02.86-.25.86-.71 0-.44-.36-.65-.93-.65h-.55v1.39l.62-.03zM424.92 152.21l1.59-1.79h.64l-1.73 1.85 1.75 1.9h-.65l-1.6-1.78h-.01v1.78h-.51v-3.75h.51s0 1.78.01 1.79zM395.37 158.85c0-1.49.97-2.51 1.67-2.86l.22.31c-.65.35-1.46 1.28-1.46 2.55 0 1.26.81 2.19 1.46 2.54l-.21.31c-.71-.35-1.68-1.35-1.68-2.85zM399.36 160.17v-1.73c0-.47-.18-.64-.57-.64-.29 0-.56.15-.72.3v2.06h-.49v-2.76l.49-.08v.41c.25-.25.58-.41.89-.41.56 0 .89.35.89.95v1.89h-.49zM400.76 158.43l-.03-.43h2.39l-.03.43h-2.33zm-.03 1.09l.03-.43h2.33l.03.43h-2.39zM404.25 160.25l-.12-.4c.89-.22 1.49-.74 1.69-1.49l-.02-.01c-.25.23-.6.38-.97.38-.59 0-1.05-.46-1.05-1.16 0-.71.48-1.25 1.22-1.25.88 0 1.3.72 1.3 1.55 0 1.04-.67 2.05-2.05 2.38zm.73-3.48c-.44 0-.73.33-.73.79 0 .47.27.74.7.74.34 0 .67-.16.84-.32.02-.07.03-.14.03-.23 0-.53-.29-.98-.84-.98zM409.27 159.09c0 .71-.61 1.16-1.35 1.16-.37 0-.82-.11-1.06-.26l.09-.46c.23.13.6.27.98.27.44 0 .84-.23.84-.67 0-.38-.31-.65-.85-.65-.17 0-.39.02-.55.05v-.41c.74-.17 1.27-.41 1.27-.84 0-.31-.23-.52-.66-.52-.29 0-.65.14-.91.38l-.19-.44c.26-.21.69-.39 1.1-.39.68 0 1.15.34 1.15.91 0 .44-.35.77-.95.94.76.02 1.09.47 1.09.93zM409.73 161.4c.65-.35 1.46-1.28 1.46-2.54 0-1.27-.8-2.19-1.46-2.55l.22-.31c.71.35 1.67 1.37 1.67 2.86s-.97 2.5-1.68 2.85l-.21-.31z"/></g><path class="st6" d="M441.35 82.13h11.03v63.16h-11.03z"/><path class="st7" d="M455.63 36.33h11.03v108.96h-11.03z"/><g><path class="st8" d="M429.5 149.29h49.01v20.7H429.5z"/><path class="st1" d="M442.68 154.17h-.52l-.35-.98h-1.62l-.35.98h-.53l1.41-3.75h.58l1.38 3.75zm-1.68-3.22l-.65 1.77h1.29l-.64-1.77zM446.03 153.11c0 .64-.43 1.06-1.39 1.06h-1.28v-3.75h1.24c.91 0 1.31.41 1.31 1 0 .38-.22.67-.64.82.49.12.76.45.76.87zm-1.39-2.22h-.77v1.18h.7c.54 0 .83-.24.83-.61 0-.36-.27-.57-.76-.57zm-.03 1.63h-.74v1.18h.82c.56 0 .83-.2.83-.59 0-.43-.39-.59-.91-.59zM446.94 154.17v-3.75h.5v3.75h-.5zM448.55 154.17v-3.75h.51v3.27h1.81v.48h-2.32zM451.63 154.17v-3.75h.5v3.75h-.5zM454.67 150.9v3.27h-.5v-3.27h-1.31v-.48h3.13v.48h-1.32zM458.3 152.68v1.49h-.51v-1.49l-1.31-2.25h.58l1 1.75.98-1.75h.56l-1.3 2.25zM462.96 150.9v3.27h-.5v-3.27h-1.31v-.48h3.13v.48h-1.32zM466.57 154.26c-1.1 0-1.88-.77-1.88-1.95 0-1.12.78-1.97 1.88-1.97 1.1 0 1.88.76 1.88 1.95 0 1.11-.78 1.97-1.88 1.97zm-.01-3.47c-.8 0-1.36.59-1.36 1.49 0 .92.56 1.52 1.38 1.52.8 0 1.36-.6 1.36-1.5 0-.92-.56-1.51-1.38-1.51zM434.42 160.17h-.52l-.35-.98h-1.62l-.35.98h-.53l1.41-3.75h.58l1.38 3.75zm-1.69-3.22l-.65 1.77h1.29l-.64-1.77zM436.18 156.9v3.27h-.5v-3.27h-1.31v-.48h3.13v.48h-1.32zM439.84 156.9v3.27h-.5v-3.27h-1.31v-.48h3.13v.48h-1.32zM441.87 160.17v-3.75h2.38v.47h-1.87v1.16h1.55v.47h-1.55v1.17h1.87v.47h-2.38zM447.66 156.42h.5v3.78h-.55l-2.01-3.06v3.02h-.5v-3.75h.56l2 3.02v-3.01zM450.37 160.17h-1.1v-3.75h1.13c1.24 0 1.98.73 1.98 1.85 0 1.15-.72 1.9-2.01 1.9zm0-3.28h-.59v2.8h.62c.89 0 1.48-.47 1.48-1.39-.01-.92-.56-1.41-1.51-1.41zM456.32 159.17c0-.38-.29-.53-.9-.69-.53-.14-1.12-.37-1.12-1.1 0-.63.51-1.06 1.25-1.06.43 0 .82.11 1.18.33l-.18.44c-.29-.19-.66-.31-1-.31-.54 0-.76.25-.76.56 0 .38.32.51.91.67.55.14 1.1.41 1.1 1.12 0 .65-.53 1.12-1.32 1.12-.44 0-.89-.13-1.25-.35l.17-.46c.32.21.66.36 1.1.36.48 0 .82-.26.82-.63zM460.38 157.1c-.33-.22-.64-.32-1.03-.32-.82 0-1.36.56-1.36 1.49 0 .93.55 1.52 1.37 1.52.4 0 .8-.16 1.06-.37l.08.51c-.31.19-.74.31-1.16.31-1.1 0-1.88-.76-1.88-1.95s.79-1.97 1.88-1.97c.43 0 .88.12 1.19.31l-.15.47zM463.95 160.17v-1.66h-2.06v1.66h-.51v-3.75h.51v1.63h2.06v-1.63h.5v3.75h-.5zM467.24 160.26c-1.1 0-1.88-.77-1.88-1.95 0-1.12.78-1.97 1.88-1.97 1.1 0 1.88.76 1.88 1.95.01 1.11-.77 1.97-1.88 1.97zm-.01-3.47c-.8 0-1.36.59-1.36 1.49 0 .92.56 1.52 1.38 1.52.8 0 1.36-.6 1.36-1.5.01-.92-.56-1.51-1.38-1.51zM471.71 160.26c-1.1 0-1.88-.77-1.88-1.95 0-1.12.78-1.97 1.88-1.97 1.1 0 1.88.76 1.88 1.95.01 1.11-.77 1.97-1.88 1.97zm-.01-3.47c-.8 0-1.36.59-1.36 1.49 0 .92.56 1.52 1.38 1.52.8 0 1.36-.6 1.36-1.5.01-.92-.56-1.51-1.38-1.51zM474.51 160.17v-3.75h.51v3.27h1.81v.48h-2.32zM445.74 164.85c0-1.49.97-2.51 1.67-2.86l.22.31c-.65.35-1.46 1.28-1.46 2.55 0 1.26.81 2.19 1.46 2.54l-.21.31c-.72-.34-1.68-1.35-1.68-2.85zM449.73 166.17v-1.73c0-.47-.18-.64-.57-.64-.29 0-.56.15-.72.3v2.06h-.49v-2.76l.49-.08v.41c.25-.25.58-.41.89-.41.56 0 .89.35.89.95v1.89h-.49zM451.12 164.43l-.03-.43h2.39l-.03.43h-2.33zm-.03 1.09l.03-.43h2.33l.03.43h-2.39zM456.31 162.34l.12.4c-.88.22-1.49.74-1.69 1.49l.02.01c.25-.23.6-.38.97-.38.59 0 1.06.46 1.06 1.16 0 .71-.49 1.25-1.23 1.25-.88 0-1.3-.72-1.3-1.55-.01-1.05.66-2.05 2.05-2.38zm-.74 3.48c.44 0 .73-.33.73-.79 0-.47-.27-.74-.7-.74-.34 0-.67.16-.84.32-.02.07-.03.14-.03.23 0 .52.29.98.84.98zM457.27 162.89l.02-.47h2.43l.05.41-1.68 3.34h-.49l1.67-3.28h-2zM460.37 167.4c.65-.35 1.46-1.28 1.46-2.54 0-1.27-.8-2.19-1.46-2.55l.22-.31c.71.35 1.67 1.37 1.67 2.86s-.97 2.5-1.68 2.85l-.21-.31z"/></g><path d="M481.95 206.88H2.76c-.35 0-.64-.29-.64-.64v-17.41c0-.35.29-.64.64-.64h479.19c.35 0 .64.29.64.64v17.41c0 .35-.29.64-.64.64z" fill="#fff" stroke="#231f20" stroke-width=".61" stroke-miterlimit="10"/><g><path class="st8" d="M89.3 179.47h301.58v8.02H89.3z"/><path class="st1" d="M152.94 183.59v-3.75h.38v3.75h-.38zM157.7 180.31l-1.23 3.25h-.42l-1.24-3.26-.07 3.28h-.38l.13-3.75h.52l1.27 3.31 1.25-3.31h.51l.12 3.75h-.39l-.07-3.27zM160.1 182.26l-.51.01v1.32h-.38v-3.75h.94c.99 0 1.46.48 1.46 1.17 0 .82-.58 1.24-1.51 1.25zm.04-2.07h-.55v1.72l.53-.01c.71-.01 1.09-.29 1.09-.88.01-.53-.37-.83-1.07-.83zM162.79 183.59h-.38v-3.75h1.01c.92 0 1.36.43 1.36 1.08 0 .56-.38.91-.87 1.06l1.04 1.61h-.44l-.96-1.55-.75.05v1.5zm.67-1.87c.5-.02.93-.29.93-.79s-.37-.75-1.02-.75h-.58v1.56l.67-.02zM167.32 183.67c-1.04 0-1.84-.79-1.84-1.94s.77-1.96 1.85-1.96c1.04 0 1.84.78 1.84 1.94 0 1.13-.77 1.96-1.85 1.96zm0-3.57c-.84 0-1.44.65-1.44 1.59 0 .97.62 1.63 1.47 1.63.83 0 1.44-.65 1.44-1.6-.01-.96-.62-1.62-1.47-1.62zM171.37 183.59h-.45l-1.37-3.75h.39l1.22 3.35 1.21-3.35h.39l-1.39 3.75zM173.46 183.59v-3.75h2.27v.35h-1.88v1.34h1.57v.35h-1.57v1.35h1.88v.35h-2.27zM179.84 180.31l-1.23 3.25h-.42l-1.24-3.26-.07 3.28h-.38l.13-3.75h.52l1.27 3.31 1.25-3.31h.51l.12 3.75h-.39l-.07-3.27zM181.34 183.59v-3.75h2.27v.35h-1.88v1.34h1.57v.35h-1.57v1.35h1.88v.35h-2.27zM187 179.84h.37v3.78h-.41l-2.15-3.24v3.21h-.37v-3.75h.43l2.13 3.21v-3.21zM189.83 180.2v3.39h-.38v-3.39h-1.32v-.36h3.02v.36h-1.32zM193.15 183.59v-3.75h.38v3.75h-.38zM197.2 179.84h.37v3.78h-.41l-2.15-3.24v3.21h-.37v-3.75h.43l2.13 3.21v-3.21zM202.79 183.59h-.39l-.4-1.07h-1.7l-.4 1.07h-.39l1.42-3.75h.45l1.41 3.75zm-1.63-3.37l-.72 1.95h1.43l-.71-1.95zM206.04 180.41c-.3-.19-.65-.3-1.04-.3-.82 0-1.42.58-1.42 1.6 0 .99.57 1.61 1.43 1.61.41 0 .79-.14 1.05-.34l.07.38c-.28.18-.69.31-1.13.31-1.09 0-1.81-.76-1.81-1.94 0-1.19.76-1.96 1.81-1.96.46 0 .88.14 1.16.31l-.12.33zM208.49 180.2v3.39h-.38v-3.39h-1.32v-.36h3.02v.36h-1.32zM210.56 183.59v-3.75h.38v3.75h-.38zM213.47 183.59h-.45l-1.37-3.75h.39l1.22 3.35 1.21-3.35h.39l-1.39 3.75zM215.56 183.59v-3.75h.38v3.75h-.38zM218.39 180.2v3.39H218v-3.39h-1.32v-.36h3.02v.36h-1.31zM220.46 183.59v-3.75h.38v3.75h-.38zM221.96 183.59v-3.75h2.27v.35h-1.88v1.34h1.57v.35h-1.57v1.35h1.88v.35h-2.27zM227.01 182.62c0-.44-.36-.61-.95-.79-.53-.16-1.09-.38-1.09-1.05 0-.59.5-1.02 1.2-1.02.43 0 .81.12 1.13.32l-.14.34c-.28-.19-.65-.31-.98-.31-.56 0-.83.3-.83.64 0 .41.37.57.95.75.54.16 1.09.41 1.09 1.09 0 .62-.52 1.08-1.27 1.08-.45 0-.86-.13-1.21-.35l.14-.34c.3.2.65.35 1.08.35.52-.01.88-.32.88-.71zM228.41 181.75c-.17 0-.3-.14-.3-.31 0-.16.13-.29.3-.29.17 0 .3.14.3.29 0 .17-.12.31-.3.31zm0 1.92c-.17 0-.3-.15-.3-.31s.13-.3.3-.3c.17 0 .3.14.3.3s-.12.31-.3.31zM231.9 182.26l-.51.01v1.32H231v-3.75h.94c.99 0 1.46.48 1.46 1.17.01.82-.57 1.24-1.5 1.25zm.03-2.07h-.55v1.72l.53-.01c.71-.01 1.09-.29 1.09-.88.01-.53-.36-.83-1.07-.83zM234.2 183.59v-3.75h2.27v.35h-1.88v1.34h1.57v.35h-1.57v1.35h1.88v.35h-2.27zM237.69 183.59h-.38v-3.75h1.01c.92 0 1.36.43 1.36 1.08 0 .56-.38.91-.87 1.06l1.04 1.61h-.44l-.96-1.55-.75.05v1.5zm.67-1.87c.5-.02.93-.29.93-.79s-.37-.75-1.02-.75h-.58v1.56l.67-.02zM243.24 180.41c-.3-.19-.65-.3-1.04-.3-.82 0-1.42.58-1.42 1.6 0 .99.57 1.61 1.43 1.61.41 0 .79-.14 1.05-.34l.07.38c-.28.18-.69.31-1.13.31-1.09 0-1.81-.76-1.81-1.94 0-1.19.76-1.96 1.81-1.96.46 0 .88.14 1.16.31l-.12.33zM244.17 183.59v-3.75h2.27v.35h-1.88v1.34h1.57v.35h-1.57v1.35h1.88v.35h-2.27zM249.83 179.84h.37v3.78h-.41l-2.15-3.24v3.21h-.37v-3.75h.43l2.13 3.21v-3.21zM252.66 180.2v3.39h-.38v-3.39h-1.32v-.36h3.02v.36h-1.32zM257.21 183.59h-.39l-.4-1.07h-1.7l-.4 1.07h-.39l1.42-3.75h.45l1.41 3.75zm-1.63-3.37l-.72 1.95h1.43l-.71-1.95zM259.43 183.67c-1.09 0-1.81-.76-1.81-1.94 0-1.19.76-1.96 1.81-1.96.46 0 .91.14 1.19.31l-.13.35c-.28-.18-.68-.31-1.07-.31-.82 0-1.42.58-1.42 1.6 0 .99.57 1.61 1.43 1.61.35 0 .66-.1.9-.23v-1.02h-1.09v-.35h1.46v1.57c-.36.24-.85.37-1.27.37zM261.72 183.59v-3.75h2.27v.35h-1.88v1.34h1.57v.35h-1.57v1.35h1.88v.35h-2.27zM267.77 183.67c-1.04 0-1.84-.79-1.84-1.94s.77-1.96 1.85-1.96c1.04 0 1.84.78 1.84 1.94 0 1.13-.78 1.96-1.85 1.96zm-.01-3.57c-.84 0-1.45.65-1.45 1.59 0 .97.62 1.63 1.47 1.63.83 0 1.44-.65 1.44-1.6.01-.96-.6-1.62-1.46-1.62zM270.54 179.84h2.21v.36h-1.82v1.4h1.51v.35h-1.51v1.64h-.38v-3.75zM274.79 183.59v-3.75h.38v3.75h-.38zM279.56 180.31l-1.23 3.25h-.42l-1.24-3.26-.07 3.28h-.38l.13-3.75h.52l1.27 3.31 1.25-3.31h.51l.12 3.75h-.39l-.07-3.27zM281.95 182.26l-.51.01v1.32h-.38v-3.75h.94c.99 0 1.46.48 1.46 1.17 0 .82-.58 1.24-1.51 1.25zm.04-2.07h-.55v1.72l.53-.01c.71-.01 1.09-.29 1.09-.88.01-.53-.37-.83-1.07-.83zM284.64 183.59h-.38v-3.75h1.01c.92 0 1.36.43 1.36 1.08 0 .56-.38.91-.87 1.06l1.04 1.61h-.44l-.96-1.55-.75.05v1.5zm.67-1.87c.5-.02.93-.29.93-.79s-.37-.75-1.02-.75h-.58v1.56l.67-.02zM289.17 183.67c-1.04 0-1.84-.79-1.84-1.94s.77-1.96 1.85-1.96c1.04 0 1.84.78 1.84 1.94 0 1.13-.77 1.96-1.85 1.96zm0-3.57c-.84 0-1.44.65-1.44 1.59 0 .97.62 1.63 1.47 1.63.83 0 1.44-.65 1.44-1.6-.01-.96-.62-1.62-1.47-1.62zM293.22 183.59h-.45l-1.37-3.75h.39l1.22 3.35 1.21-3.35h.39l-1.39 3.75zM295.31 183.59v-3.75h2.27v.35h-1.88v1.34h1.57v.35h-1.57v1.35h1.88v.35h-2.27zM299.4 183.59h-.99v-3.75h1.02c1.23 0 1.98.74 1.98 1.85 0 1.18-.74 1.9-2.01 1.9zm0-3.4h-.61v3.04h.62c.96 0 1.61-.49 1.61-1.52.01-.95-.59-1.52-1.62-1.52zM304.44 182.26l-.51.01v1.32h-.38v-3.75h.94c.99 0 1.46.48 1.46 1.17 0 .82-.58 1.24-1.51 1.25zm.03-2.07h-.55v1.72l.53-.01c.71-.01 1.09-.29 1.09-.88.01-.53-.37-.83-1.07-.83zM309.43 183.59h-.39l-.4-1.07h-1.7l-.4 1.07h-.39l1.42-3.75h.45l1.41 3.75zm-1.63-3.37l-.72 1.95h1.43l-.71-1.95zM311.11 180.2v3.39h-.38v-3.39h-1.32v-.36h3.02v.36h-1.32zM313.18 183.59v-3.75h.38v3.75h-.38zM314.68 183.59v-3.75h2.27v.35h-1.88v1.34h1.57v.35h-1.57v1.35h1.88v.35h-2.27zM320.34 179.84h.37v3.78h-.41l-2.15-3.24v3.21h-.37v-3.75h.43l2.13 3.21v-3.21zM323.16 180.2v3.39h-.38v-3.39h-1.32v-.36h3.02v.36h-1.32zM327.1 182.62c0-.44-.36-.61-.95-.79-.53-.16-1.09-.38-1.09-1.05 0-.59.5-1.02 1.2-1.02.43 0 .81.12 1.13.32l-.14.34c-.28-.19-.65-.31-.98-.31-.56 0-.83.3-.83.64 0 .41.37.57.95.75.54.16 1.09.41 1.09 1.09 0 .62-.52 1.08-1.27 1.08-.45 0-.86-.13-1.21-.35l.14-.34c.3.2.65.35 1.08.35.52-.01.88-.32.88-.71z"/></g><g><g class="st10"><path class="st8" d="M257.94 194h78.94v7.94h-78.94z"/><path class="st1" d="M260.62 198.52c0-.45-.34-.62-1.05-.81-.62-.17-1.31-.43-1.31-1.28 0-.74.6-1.23 1.46-1.23.5 0 .96.13 1.38.39l-.21.52c-.34-.22-.77-.36-1.16-.36-.63 0-.89.29-.89.65 0 .44.37.6 1.06.78.64.17 1.29.48 1.29 1.3 0 .76-.62 1.31-1.54 1.31-.51 0-1.04-.15-1.46-.41l.2-.54c.37.25.77.42 1.28.42.55 0 .95-.31.95-.74zM263.52 199.79c-.91 0-1.55-.67-1.55-1.71 0-1.03.66-1.72 1.58-1.72s1.54.68 1.54 1.72c0 1.03-.67 1.71-1.57 1.71zm.01-2.91c-.64 0-.99.5-.99 1.19s.37 1.2 1 1.2c.64 0 .99-.49.99-1.18s-.37-1.21-1-1.21zM270.03 199.68v-2c0-.56-.2-.76-.62-.76-.36 0-.63.19-.81.36v2.41h-.57v-2c0-.56-.2-.76-.62-.76-.36 0-.63.15-.81.33v2.44h-.57v-3.22l.57-.09v.44c.31-.29.64-.44 1.03-.44.37 0 .68.18.84.53.34-.34.72-.53 1.16-.53.59 0 .97.41.97 1.12v2.19h-.57zM272.1 198.18c.02.63.44 1.08 1.06 1.08.34 0 .7-.09.96-.27l.1.53c-.29.18-.67.27-1.08.27-.97 0-1.62-.69-1.62-1.67 0-1.04.69-1.74 1.58-1.74.78 0 1.23.49 1.23 1.25 0 .18-.03.37-.07.51l-2.16.01v.03zm1.67-.47v-.05c0-.48-.22-.79-.73-.79-.55 0-.87.43-.92.85l1.65-.01zM275.84 199.7l-.99-3.22h.62l.68 2.38.74-2.37h.53l.82 2.37.59-2.39h.64l-.97 3.22h-.53l-.82-2.4-.78 2.4h-.53zM282.29 199.68v-2.02c0-.55-.21-.74-.63-.74-.37 0-.69.17-.88.35v2.41h-.57v-4.72l.57-.09v1.97c.29-.29.67-.47 1.08-.47.62 0 1 .41 1 1.11v2.21h-.57zM285.66 199.34c-.25.29-.54.45-.88.45-.6 0-1.02-.4-1.02-.92 0-.57.41-1.08 1.91-1.15v-.09c0-.52-.2-.73-.72-.73-.33 0-.74.15-1.04.36l-.11-.52c.28-.2.75-.37 1.21-.37.87 0 1.25.37 1.24 1.25v1.34c0 .27.04.31.32.31l-.04.48c-.52.04-.75-.14-.83-.42h-.04zm.01-1.25c-.95.13-1.3.32-1.3.71 0 .29.22.5.57.5.29 0 .55-.15.74-.34v-.87zM288.32 199.79c-.62 0-.95-.3-.93-1l.05-1.79-.53-.04.02-.36.53-.16.01-.69h.55l-.02.74h1l-.02.52h-1l-.05 1.81c-.01.3.13.46.42.46.2 0 .39-.05.58-.12.01 0 .1.5.1.5-.23.08-.47.13-.71.13zM291.68 195.77c-.26 0-.38-.2-.38-.41 0-.22.12-.41.38-.41s.38.2.38.41c0 .21-.12.41-.38.41zm-.29 3.91v-3.22l.57-.09v3.31h-.57zM297.09 199.68v-2c0-.56-.2-.76-.62-.76-.36 0-.63.19-.81.36v2.41h-.57v-2c0-.56-.2-.76-.62-.76-.36 0-.63.15-.81.33v2.44h-.57v-3.22l.57-.09v.44c.31-.29.64-.44 1.03-.44.37 0 .68.18.84.53.34-.34.72-.53 1.16-.53.59 0 .97.41.97 1.12v2.19h-.57zM300.24 196.37c.9 0 1.43.73 1.43 1.7s-.67 1.72-1.63 1.72c-.19 0-.49-.03-.69-.08v1.61h-.57v-4.85l.57-.09v.4c.22-.23.51-.41.89-.41zm-.9 2.67c.19.15.43.23.71.23.65 0 1.02-.53 1.02-1.19 0-.71-.36-1.18-.95-1.18-.3 0-.56.12-.78.31v1.83zM303.17 199.68h-.57v-3.22l.57-.09v.57c.22-.36.49-.57.9-.57.22 0 .43.06.6.16l-.15.54c-.18-.1-.35-.15-.51-.15-.31 0-.6.22-.84.67v2.09zM306.7 199.79c-.91 0-1.55-.67-1.55-1.71 0-1.03.66-1.72 1.58-1.72s1.54.68 1.54 1.72c.01 1.03-.67 1.71-1.57 1.71zm.01-2.91c-.64 0-.99.5-.99 1.19s.37 1.2 1 1.2c.64 0 .99-.49.99-1.18s-.37-1.21-1-1.21zM310.49 199.69h-.53l-1.27-3.21h.62l.94 2.49.9-2.49h.61l-1.27 3.21zM312.73 198.18c.02.63.44 1.08 1.06 1.08.34 0 .7-.09.96-.27l.1.53c-.29.18-.67.27-1.08.27-.97 0-1.62-.69-1.62-1.67 0-1.04.69-1.74 1.58-1.74.78 0 1.23.49 1.23 1.25 0 .18-.03.37-.07.51l-2.16.01v.03zm1.68-.47v-.05c0-.48-.22-.79-.73-.79-.55 0-.87.43-.92.85l1.65-.01zM318.01 194.96l.57-.09v4.81h-.57v-.29c-.23.22-.52.4-.9.4-.9 0-1.43-.73-1.43-1.69 0-.97.67-1.72 1.63-1.72.23 0 .49.04.69.11v-1.53zm-.71 1.93c-.65 0-1.02.53-1.02 1.19 0 .71.36 1.18.95 1.18.3 0 .56-.12.78-.31v-1.83a1.12 1.12 0 0 0-.71-.23z"/></g><path class="st7" d="M252.13 200.44h-5.63a.18.18 0 0 1-.18-.18v-5.63c0-.1.08-.18.18-.18h5.63c.1 0 .18.08.18.18v5.63c0 .1-.08.18-.18.18z"/></g><g><g class="st10"><path class="st8" d="M174.5 194h73.49v7.94H174.5z"/><path class="st1" d="M177.19 198.52c0-.45-.34-.62-1.05-.81-.62-.17-1.31-.43-1.31-1.28 0-.74.6-1.23 1.46-1.23.5 0 .96.13 1.38.39l-.21.52c-.34-.22-.77-.36-1.16-.36-.63 0-.89.29-.89.65 0 .44.37.6 1.06.78.64.17 1.29.48 1.29 1.3 0 .76-.62 1.31-1.54 1.31-.51 0-1.04-.15-1.46-.41l.2-.54c.37.25.77.42 1.28.42.55 0 .95-.31.95-.74zM178.99 195.77c-.26 0-.38-.2-.38-.41 0-.22.12-.41.38-.41s.38.2.38.41c0 .21-.12.41-.38.41zm-.29 3.91v-3.22l.57-.09v3.31h-.57zM180.23 199.19c0-.27.21-.51.53-.62-.34-.2-.53-.55-.53-.99 0-.63.47-1.21 1.3-1.21.34 0 .62.09.83.18l.83-.08.02.57-.62-.11c.13.12.22.42.22.66 0 .64-.53 1.18-1.28 1.18-.16 0-.26-.02-.45-.08-.13.05-.31.18-.31.34 0 .19.13.3.73.3h.29c.96 0 1.4.29 1.4.86 0 .71-.76 1.23-1.73 1.23-.85 0-1.49-.36-1.49-.94 0-.36.25-.67.69-.75-.28-.12-.43-.31-.43-.54zm.3 1.16c0 .34.41.6 1.02.6.6 0 1.08-.26 1.08-.65 0-.35-.31-.43-.96-.43-.2 0-.44-.01-.58-.03-.32.09-.56.28-.56.51zm1.03-2.05c.42 0 .69-.3.69-.75 0-.42-.25-.72-.74-.72-.42 0-.7.31-.7.76 0 .43.29.71.75.71zM186.02 199.68v-2.02c0-.55-.21-.74-.67-.74-.34 0-.66.17-.84.35v2.41h-.57v-3.22l.57-.09v.48c.29-.29.67-.48 1.04-.48.65 0 1.04.41 1.04 1.11v2.21h-.57zM187.98 195.77c-.26 0-.38-.2-.38-.41 0-.22.12-.41.38-.41s.38.2.38.41c-.01.21-.13.41-.38.41zm-.29 3.91v-3.22l.57-.09v3.31h-.57zM191.13 195.49c-.15-.06-.35-.14-.51-.14-.32 0-.48.2-.48.68v.45h1.02l-.02.52h-.99v2.69h-.57V197l-.56-.04.03-.36.53-.15.01-.41c.01-.9.43-1.23 1.06-1.23.24 0 .49.08.64.15-.02.02-.16.54-.16.53zm.82.28c-.26 0-.38-.2-.38-.41 0-.22.12-.41.38-.41s.38.2.38.41c0 .21-.12.41-.38.41zm-.28 3.91v-3.22l.57-.09v3.31h-.57zM194.74 199.79c-1.02 0-1.58-.69-1.58-1.71s.68-1.71 1.62-1.71c.41 0 .74.09 1.04.27l-.15.53c-.27-.18-.57-.27-.89-.27-.66 0-1.02.45-1.02 1.17 0 .74.41 1.18 1.01 1.18.34 0 .67-.09.92-.27l.1.53c-.28.19-.65.28-1.05.28zM198.4 199.34c-.25.29-.54.45-.88.45-.6 0-1.02-.4-1.02-.92 0-.57.41-1.08 1.91-1.15v-.09c0-.52-.2-.73-.72-.73-.33 0-.74.15-1.04.36l-.11-.52c.28-.2.75-.37 1.21-.37.87 0 1.25.37 1.24 1.25v1.34c0 .27.04.31.32.31l-.04.48c-.52.04-.75-.14-.83-.42h-.04zm0-1.25c-.95.13-1.3.32-1.3.71 0 .29.22.5.57.5.29 0 .55-.15.74-.34v-.87zM202.17 199.68v-2.02c0-.55-.21-.74-.67-.74-.34 0-.66.17-.84.35v2.41h-.57v-3.22l.57-.09v.48c.29-.29.67-.48 1.04-.48.65 0 1.04.41 1.04 1.11v2.21h-.57zM204.85 199.79c-.62 0-.95-.3-.93-1l.05-1.79-.53-.04.02-.36.53-.16.01-.69h.55l-.02.74h1l-.02.52h-1l-.05 1.81c-.01.3.13.46.42.46.2 0 .39-.05.58-.12.01 0 .1.5.1.5-.23.08-.47.13-.71.13zM206.38 199.68v-4.72l.57-.09v4.81h-.57zM209.44 199.72l-.22.57c-.31.81-.63 1.06-1.13 1.06-.25 0-.46-.07-.68-.17l.17-.53c.17.08.35.15.51.15.25 0 .4-.13.62-.69l.2-.5-1.25-3.14h.62l.93 2.49.9-2.49h.61l-1.28 3.25zM213.18 195.77c-.26 0-.38-.2-.38-.41 0-.22.12-.41.38-.41s.38.2.38.41c0 .21-.12.41-.38.41zm-.29 3.91v-3.22l.57-.09v3.31h-.57zM218.59 199.68v-2c0-.56-.2-.76-.62-.76-.36 0-.63.19-.81.36v2.41h-.57v-2c0-.56-.2-.76-.62-.76-.36 0-.63.15-.81.33v2.44h-.57v-3.22l.57-.09v.44c.31-.29.64-.44 1.03-.44.37 0 .68.18.84.53.34-.34.72-.53 1.16-.53.59 0 .97.41.97 1.12v2.19h-.57zM221.74 196.37c.9 0 1.43.73 1.43 1.7s-.67 1.72-1.63 1.72c-.19 0-.49-.03-.69-.08v1.61h-.57v-4.85l.57-.09v.4c.22-.23.51-.41.89-.41zm-.9 2.67c.19.15.43.23.71.23.65 0 1.02-.53 1.02-1.19 0-.71-.36-1.18-.95-1.18-.3 0-.56.12-.78.31v1.83zM224.67 199.68h-.57v-3.22l.57-.09v.57c.22-.36.49-.57.9-.57.22 0 .43.06.6.16l-.15.54c-.18-.1-.35-.15-.51-.15-.31 0-.6.22-.84.67v2.09zM228.2 199.79c-.91 0-1.55-.67-1.55-1.71 0-1.03.66-1.72 1.58-1.72s1.54.68 1.54 1.72c.01 1.03-.66 1.71-1.57 1.71zm.01-2.91c-.64 0-.99.5-.99 1.19s.37 1.2 1 1.2c.64 0 .99-.49.99-1.18s-.37-1.21-1-1.21zM231.99 199.69h-.53l-1.27-3.21h.62l.94 2.49.9-2.49h.61l-1.27 3.21zM234.23 198.18c.02.63.44 1.08 1.06 1.08.34 0 .7-.09.96-.27l.1.53c-.29.18-.67.27-1.08.27-.97 0-1.62-.69-1.62-1.67 0-1.04.69-1.74 1.58-1.74.78 0 1.23.49 1.23 1.25 0 .18-.03.37-.07.51l-2.16.01v.03zm1.68-.47v-.05c0-.48-.22-.79-.73-.79-.55 0-.87.43-.92.85l1.65-.01zM239.51 194.96l.57-.09v4.81h-.57v-.29c-.23.22-.52.4-.9.4-.9 0-1.43-.73-1.43-1.69 0-.97.67-1.72 1.63-1.72.23 0 .49.04.69.11v-1.53zm-.71 1.93c-.65 0-1.02.53-1.02 1.19 0 .71.36 1.18.95 1.18.3 0 .56-.12.78-.31v-1.83c-.18-.15-.43-.23-.71-.23z"/></g><path class="st6" d="M168.69 200.44h-5.63a.18.18 0 0 1-.18-.18v-5.63c0-.1.08-.18.18-.18h5.63c.1 0 .18.08.18.18v5.63c0 .1-.08.18-.18.18z"/></g></g></svg>