<svg id="Layer_1" xmlns="http://www.w3.org/2000/svg" viewBox="0 0 1790 728.9"><style>.st10{fill:#fff;stroke:#fff;stroke-width:3;stroke-miterlimit:10}.st14{fill:#ffad78}.st18{fill:#352f46}.st19{fill:#fff}.st23{fill:#5b5573}.st28{fill:#404040}</style><path fill="none" stroke="#666" stroke-width=".75" stroke-miterlimit="10" d="M4.3 493.2h1757.9" id="Grid"/><g id="Data"><path fill-rule="evenodd" clip-rule="evenodd" fill="#352f46" d="M4.3 7.1h329.1v90.6H4.3z"/><path fill-rule="evenodd" clip-rule="evenodd" fill="#ffad78" d="M363.1 7.1h327v90.6h-327z"/><path fill-rule="evenodd" clip-rule="evenodd" fill="#b473af" d="M720.4 7.1h327.5v90.6H720.4z"/><path fill-rule="evenodd" clip-rule="evenodd" fill="#5b5573" d="M1078 7.1h327.5v90.6H1078z"/><path fill-rule="evenodd" clip-rule="evenodd" fill="#a5bac3" d="M1436.5 7.1H1764v90.6h-327.5z"/><path d="M884.8 263.8l-70.1-107.9c21.5-13.9 44.5-20.8 70.1-20.8v128.7z" fill="#f0e3ef" stroke="#fff" stroke-width="3" stroke-miterlimit="10"/><path d="M884.8 263.8l-104.1 75.6c-41.8-57.5-29-137.9 28.5-179.7 2.3-1.7 3.2-2.3 5.6-3.8l70 107.9z" fill="#e5cee3" stroke="#fff" stroke-width="3" stroke-miterlimit="10"/><path d="M884.8 263.8l107.9-70.1c38.7 59.6 21.8 139.3-37.8 178-57.2 37.2-134.1 22.9-174.2-32.3l104.1-75.6z" fill="#ca9dc7" stroke="#fff" stroke-width="3" stroke-miterlimit="10"/><path d="M884.8 263.8V135.2c45.5 0 83.1 20.4 107.9 58.6l-107.9 70z" fill="#b473af" stroke="#fff" stroke-width="3" stroke-miterlimit="10"/><circle class="st10" cx="884.8" cy="263.8" r="95.8"/><g><path d="M526.8 263.7l-62.3-112.4c19.9-11 39.6-16.1 62.3-16.1v128.5z" fill="#ffede1" stroke="#fff" stroke-width="3" stroke-linejoin="round" stroke-miterlimit="10"/><path d="M527.8 262.7l-122.2 39.7c-19.3-59.4 5.3-121.8 59.9-152.1l62.3 112.4z" fill="#ffe2d0" stroke="#fff" stroke-width="3" stroke-linejoin="round" stroke-miterlimit="10"/><path d="M526.8 263.7l75.5 104c-57.4 41.7-137.8 29-179.5-28.4-8.3-11.5-13.9-22.3-18.3-35.8l122.3-39.8z" fill="#ffcaa7" stroke="#fff" stroke-width="3" stroke-linejoin="round" stroke-miterlimit="10"/><path class="st14" d="M526.8 263.7V135.2c71 0 128.5 57.5 128.5 128.5 0 42.6-18.5 78.9-53 104l-75.5-104z"/><circle class="st10" cx="525.7" cy="263.7" r="95.8"/></g><g><path d="M169.2 264l-64.4-111.6c19.9-11.5 41.4-17.3 64.4-17.3V264z" fill="#e5e4e7" stroke="#fff" stroke-width="3" stroke-miterlimit="10"/><path d="M169.2 264L40.9 275.2c-4.5-51.5 19.1-96.9 63.9-122.8L169.2 264z" fill="#aaa7b2" stroke="#fff" stroke-width="3" stroke-miterlimit="10"/><path d="M169.2 264L149 391.3c-59.6-9.4-102.9-55.9-108.2-116L169.2 264z" fill="#726d7f" stroke="#fff" stroke-width="3" stroke-miterlimit="10"/><path class="st18" d="M169.2 264V135.2c71.2 0 128.8 57.7 128.8 128.8s-57.7 128.8-128.8 128.8c-7.2 0-13.1-.5-20.2-1.6L169.2 264z"/><circle class="st19" cx="168.5" cy="265" r="95.8"/></g><g><path d="M1243.4 261.7l-98.4-79.6c24.6-30.4 59.2-46.9 98.4-46.9v126.5z" fill="#e7e6ea" stroke="#fff" stroke-width="3" stroke-linejoin="round" stroke-miterlimit="10"/><path d="M1243.4 261.7l111.7 59.4c-32.8 61.7-109.4 85.1-171.2 52.3-61.7-32.8-85.1-109.4-52.3-171.2 3.9-7.4 8.1-13.7 13.4-20.2l98.4 79.7z" fill="#cdccd5" stroke="#fff" stroke-width="3" stroke-linejoin="round" stroke-miterlimit="10"/><path d="M1243.4 261.7l59.4-111.7c61.7 32.8 85.1 109.4 52.3 171.2l-111.7-59.5z" fill="#9490a4" stroke="#fff" stroke-width="3" stroke-linejoin="round" stroke-miterlimit="10"/><path class="st23" d="M1243.4 261.7V135.2c22.4 0 39.7 4.3 59.4 14.8l-59.4 111.7z"/><circle class="st19" cx="1243.4" cy="261.7" r="95.8"/></g><g><path d="M1601 261.8L1539.7 151c19.6-10.8 39-15.9 61.4-15.9l-.1 126.7z" fill="#e8eef0" stroke="#fff" stroke-width="3" stroke-miterlimit="10"/><path d="M1601 261.8l98.4 79.7c-44 54.3-123.7 62.7-178.1 18.7-54.3-44-62.7-123.7-18.7-178.1 10.6-13 22.3-22.9 37-31.1l61.4 110.8z" fill="#dbe4e7" stroke="#fff" stroke-width="3" stroke-miterlimit="10"/><path d="M1601 261.8l106.2-69c30.5 46.9 27.4 105.2-7.8 148.6l-98.4-79.6z" fill="#bbccd2" stroke="#fff" stroke-width="3" stroke-miterlimit="10"/><path d="M1601 261.8V135.2c44.8 0 81.8 20.1 106.2 57.7L1601 261.8z" fill="#a5bac3" stroke="#fff" stroke-width="3" stroke-miterlimit="10"/><circle class="st19" cx="1601.3" cy="261.8" r="95.8"/></g></g><g id="Text"><path class="st28" d="M831.5 139l-.6-1.9c3.5-.9 5.9-2.7 6.7-5.6-1 .9-2.1 1.5-3.8 1.5-2.4 0-4.4-1.8-4.4-4.7 0-2.8 2-5 5.1-5 3.4 0 5.3 2.8 5.3 6.2 0 4.3-2.7 8.2-8.3 9.5zm2.9-13.8c-1.8 0-3 1.3-3 3.1s1.2 3 2.9 3c1.4 0 2.6-.7 3.3-1.3.1-.3.1-.6.1-1 0-2-1.3-3.8-3.3-3.8zM844.7 127.4c-2.4 0-4-1.8-4-4s1.5-4 4-4 4 1.8 4 4-1.5 4-4 4zm0-6.7c-1.7 0-2.7 1.2-2.7 2.8 0 1.4 1 2.7 2.7 2.7s2.7-1.3 2.7-2.7c0-1.6-1-2.8-2.7-2.8zm-.6 14.7h-1.5l12-15.7h1.5l-12 15.7zm9.8.3c-2.5 0-4-1.8-4-4 0-2.1 1.5-4 4-4 2.4 0 4 1.8 4 4-.1 2.1-1.6 4-4 4zm0-6.8c-1.7 0-2.7 1.3-2.7 2.7 0 1.5 1 2.8 2.7 2.8s2.7-1.2 2.7-2.8c0-1.4-1.1-2.7-2.7-2.7zM710.8 247.7V246c3.4-2.5 6.4-4.4 6.4-6.2 0-1.1-.8-1.9-2.3-1.9-1.2 0-2.3.5-3.4 1.4l-.7-1.7c1.1-.9 2.5-1.5 4.3-1.5 2.4 0 4.2 1.4 4.2 3.5 0 2.6-2.4 4.1-5.5 6.3h6v1.9h-9v-.1zM729.9 232.4l.6 1.9c-3.5.9-5.9 2.7-6.7 5.6 1-.9 2.1-1.5 3.8-1.5 2.4 0 4.4 1.8 4.4 4.7 0 2.8-2 5-5.1 5-3.4 0-5.3-2.8-5.3-6.2 0-4.2 2.8-8.2 8.3-9.5zm-2.9 13.8c1.8 0 3-1.3 3-3.1s-1.2-3-2.9-3c-1.4 0-2.6.7-3.3 1.3-.1.3-.1.6-.1 1 0 2 1.3 3.8 3.3 3.8zM736.7 240.1c-2.4 0-4-1.8-4-4s1.5-4 4-4 4 1.8 4 4-1.5 4-4 4zm0-6.7c-1.7 0-2.7 1.2-2.7 2.8 0 1.4 1 2.7 2.7 2.7s2.7-1.3 2.7-2.7c0-1.6-1-2.8-2.7-2.8zm-.6 14.6h-1.5l12-15.7h1.5l-12 15.7zm9.8.3c-2.5 0-4-1.8-4-4 0-2.1 1.5-4 4-4 2.4 0 4 1.8 4 4-.1 2.2-1.6 4-4 4zm0-6.7c-1.7 0-2.7 1.3-2.7 2.7 0 1.5 1 2.8 2.7 2.8s2.7-1.2 2.7-2.8c-.1-1.5-1.1-2.7-2.7-2.7zM977.4 380.8v4.7h-1.9v-4.7h-7.4l-.2-1.2 7.8-10.3h1.8v9.6h2.3l.1 1.9h-2.5zm-1.9-8.4l-4.8 6.5h4.8v-6.5zM982.8 385l-.6-1.9c3.5-.9 5.9-2.7 6.7-5.6-1 .9-2.1 1.5-3.8 1.5-2.4 0-4.4-1.8-4.4-4.7 0-2.8 2-5 5.1-5 3.4 0 5.3 2.8 5.3 6.2-.1 4.2-2.8 8.2-8.3 9.5zm2.8-13.8c-1.8 0-3 1.3-3 3.1s1.2 3 2.9 3c1.4 0 2.6-.7 3.3-1.3.1-.3.1-.6.1-1 0-2.1-1.3-3.8-3.3-3.8zM996 373.4c-2.4 0-4-1.8-4-4s1.5-4 4-4 4 1.8 4 4c-.1 2.2-1.6 4-4 4zm0-6.7c-1.7 0-2.7 1.2-2.7 2.8 0 1.4 1 2.7 2.7 2.7s2.7-1.3 2.7-2.7c-.1-1.6-1.1-2.8-2.7-2.8zm-.7 14.7h-1.5l12-15.7h1.5l-12 15.7zm9.8.2c-2.5 0-4-1.8-4-4 0-2.1 1.5-4 4-4 2.4 0 4 1.8 4 4s-1.6 4-4 4zm0-6.7c-1.7 0-2.7 1.3-2.7 2.7 0 1.5 1 2.8 2.7 2.8s2.7-1.2 2.7-2.8c0-1.4-1-2.7-2.7-2.7zM951.1 136.9l-2.8.9-.1-1.8 4.8-1.6v11.7h-1.9v-9.2zM964.6 130.8l.6 1.9c-3.5.9-5.9 2.7-6.7 5.6 1-.9 2.1-1.5 3.8-1.5 2.4 0 4.4 1.8 4.4 4.7 0 2.8-2 5-5.1 5-3.4 0-5.3-2.8-5.3-6.2 0-4.3 2.8-8.2 8.3-9.5zm-2.9 13.8c1.8 0 3-1.3 3-3.1s-1.2-3-2.9-3c-1.4 0-2.6.7-3.3 1.3-.1.3-.1.6-.1 1 0 2 1.3 3.8 3.3 3.8zM971.4 138.5c-2.4 0-4-1.8-4-4s1.5-4 4-4 4 1.8 4 4c0 2.1-1.5 4-4 4zm0-6.8c-1.7 0-2.7 1.2-2.7 2.8 0 1.4 1 2.7 2.7 2.7s2.7-1.3 2.7-2.7c0-1.5-1-2.8-2.7-2.8zm-.6 14.7h-1.5l12-15.7h1.5l-12 15.7zm9.8.3c-2.5 0-4-1.8-4-4 0-2.1 1.5-4 4-4 2.4 0 4 1.8 4 4-.1 2.2-1.6 4-4 4zm0-6.7c-1.7 0-2.7 1.3-2.7 2.7 0 1.5 1 2.8 2.7 2.8s2.7-1.2 2.7-2.8c-.1-1.5-1.1-2.7-2.7-2.7zM136.4 129.2c0 2.3-1.8 4.2-5 4.2-3.4 0-5-1.9-5-4.1 0-1.9 1.6-3.4 2.9-3.7-1.4-.7-2.6-1.7-2.6-3.4 0-2.4 1.8-4.2 4.9-4.2 3.2 0 4.6 2 4.6 4.1 0 1.8-1.3 3.1-2.5 3.6 1.4.7 2.7 1.7 2.7 3.5zm-8.1-.1c0 1.5 1.3 2.5 3.1 2.5 1.9 0 2.9-.8 2.9-2.3 0-1.6-1.8-2.3-3.7-3.1-1.4.6-2.3 1.6-2.3 2.9zm5.8-6.9c0-1.6-1.2-2.5-2.7-2.5-1.8 0-2.9 1-2.9 2.3 0 1.5 1.7 2.2 3.6 3 1.2-.6 2-1.5 2-2.8zM141.9 125.4c-2.4 0-4-1.8-4-4s1.5-4 4-4 4 1.8 4 4-1.5 4-4 4zm0-6.7c-1.7 0-2.7 1.2-2.7 2.8 0 1.4 1 2.7 2.7 2.7s2.7-1.3 2.7-2.7c0-1.6-1-2.8-2.7-2.8zm-.6 14.7h-1.5l12-15.7h1.5l-12 15.7zm9.7.3c-2.5 0-4-1.8-4-4 0-2.1 1.5-4 4-4 2.4 0 4 1.8 4 4 0 2.1-1.5 4-4 4zm0-6.8c-1.7 0-2.7 1.3-2.7 2.7 0 1.5 1 2.8 2.7 2.8s2.7-1.2 2.7-2.8c0-1.4-1-2.7-2.7-2.7zM20.7 178.1l-2.8.9-.1-1.8 4.8-1.6v11.7h-1.9v-9.2zM36 183.5c0 2.3-1.8 4.2-5 4.2-3.4 0-5-1.9-5-4.1 0-1.9 1.6-3.4 2.9-3.7-1.4-.7-2.6-1.7-2.6-3.4 0-2.4 1.8-4.2 4.9-4.2 3.2 0 4.6 2 4.6 4.1 0 1.8-1.3 3.1-2.5 3.6 1.4.7 2.7 1.7 2.7 3.5zm-8.1-.1c0 1.5 1.3 2.5 3.1 2.5 1.9 0 2.9-.8 2.9-2.3 0-1.6-1.8-2.3-3.7-3.1-1.3.6-2.3 1.6-2.3 2.9zm5.8-6.9c0-1.6-1.2-2.5-2.7-2.5-1.8 0-2.9 1-2.9 2.3 0 1.5 1.7 2.2 3.6 3 1.2-.6 2-1.5 2-2.8zM41.5 179.8c-2.4 0-4-1.8-4-4s1.5-4 4-4 4 1.8 4 4c0 2.1-1.5 4-4 4zm0-6.8c-1.7 0-2.7 1.2-2.7 2.8 0 1.4 1 2.7 2.7 2.7s2.7-1.3 2.7-2.7c0-1.5-1-2.8-2.7-2.8zm-.6 14.7h-1.5l12-15.7h1.5l-12 15.7zm9.8.3c-2.5 0-4-1.8-4-4 0-2.1 1.5-4 4-4 2.4 0 4 1.8 4 4-.1 2.1-1.6 4-4 4zm0-6.8c-1.7 0-2.7 1.3-2.7 2.7 0 1.5 1 2.8 2.7 2.8s2.7-1.2 2.7-2.8c-.1-1.4-1.1-2.7-2.7-2.7zM34 372.4v-1.7c3.4-2.5 6.4-4.4 6.4-6.2 0-1.1-.8-1.9-2.3-1.9-1.2 0-2.3.5-3.4 1.4l-.7-1.7c1.1-.9 2.5-1.5 4.3-1.5 2.4 0 4.2 1.4 4.2 3.5 0 2.6-2.4 4.1-5.5 6.3h6v1.9l-9-.1zM47.5 363.2l-2.8.9-.1-1.8 4.8-1.6v11.7h-1.9v-9.2zM55.8 364.8c-2.4 0-4-1.8-4-4s1.5-4 4-4 4 1.8 4 4c0 2.1-1.5 4-4 4zm0-6.8c-1.7 0-2.7 1.2-2.7 2.8 0 1.4 1 2.7 2.7 2.7s2.7-1.3 2.7-2.7c0-1.5-1-2.8-2.7-2.8zm-.6 14.7h-1.5l12-15.7h1.5l-12 15.7zm9.7.3c-2.5 0-4-1.8-4-4 0-2.1 1.5-4 4-4 2.4 0 4 1.8 4 4s-1.5 4-4 4zm0-6.7c-1.7 0-2.7 1.3-2.7 2.7 0 1.5 1 2.8 2.7 2.8 1.7 0 2.7-1.2 2.7-2.8 0-1.5-1-2.7-2.7-2.7zM296.3 324.3c3.1 0 5.2 1.8 5.2 4.6 0 3.1-2.4 5.2-5.3 5.2-1.6 0-3.2-.5-4.2-1l.4-1.9c.9.5 2.4 1.1 3.8 1.1 1.9 0 3.2-1.2 3.2-3.2 0-1.6-1.2-3-3.4-3-1.4 0-2.1.1-3 .4l-.5-.5 1-7.7h7.5l.1 1.9h-6l-.6 4.2c.5 0 1-.1 1.8-.1zM303.2 329.6v-1.7c3.4-2.5 6.4-4.4 6.4-6.2 0-1.1-.8-1.9-2.3-1.9-1.2 0-2.3.5-3.4 1.4l-.7-1.7c1.1-.9 2.5-1.5 4.3-1.5 2.4 0 4.2 1.4 4.2 3.5 0 2.6-2.4 4.1-5.5 6.3h6v1.9l-9-.1zM317.2 322c-2.4 0-4-1.8-4-4s1.5-4 4-4 4 1.8 4 4-1.5 4-4 4zm0-6.7c-1.7 0-2.7 1.2-2.7 2.8 0 1.4 1 2.7 2.7 2.7s2.7-1.3 2.7-2.7c0-1.6-1-2.8-2.7-2.8zm-.6 14.7h-1.5l12-15.7h1.5l-12 15.7zm9.8.2c-2.5 0-4-1.8-4-4 0-2.1 1.5-4 4-4 2.4 0 4 1.8 4 4-.1 2.2-1.6 4-4 4zm0-6.7c-1.7 0-2.7 1.3-2.7 2.7 0 1.5 1 2.8 2.7 2.8s2.7-1.2 2.7-2.8c-.1-1.4-1.1-2.7-2.7-2.7zM1142.7 137.2l-2.8.9-.1-1.8 4.8-1.6v11.7h-1.9v-9.2zM1156.6 146.2v4.7h-1.9v-4.7h-7.4l-.2-1.2 7.8-10.3h1.8v9.6h2.3l.1 1.9h-2.5zm-1.9-8.4l-4.8 6.5h4.8v-6.5zM1163.2 138.8c-2.4 0-4-1.8-4-4s1.5-4 4-4 4 1.8 4 4c-.1 2.2-1.6 4-4 4zm0-6.7c-1.7 0-2.7 1.2-2.7 2.8 0 1.4 1 2.7 2.7 2.7s2.7-1.3 2.7-2.7c-.1-1.6-1.1-2.8-2.7-2.8zm-.7 14.7h-1.5l12-15.7h1.5l-12 15.7zm9.8.2c-2.5 0-4-1.8-4-4 0-2.1 1.5-4 4-4 2.4 0 4 1.8 4 4s-1.6 4-4 4zm0-6.7c-1.7 0-2.7 1.3-2.7 2.7 0 1.5 1 2.8 2.7 2.8s2.7-1.2 2.7-2.8c0-1.4-1-2.7-2.7-2.7zM1104.7 355.5c3.1 0 5.2 1.8 5.2 4.6 0 3.1-2.4 5.2-5.3 5.2-1.6 0-3.2-.5-4.2-1l.4-1.9c.9.5 2.4 1.1 3.8 1.1 1.9 0 3.2-1.2 3.2-3.2 0-1.6-1.2-3-3.4-3-1.4 0-2.1.1-3 .4l-.5-.5 1-7.7h7.5l.1 1.9h-6l-.6 4.2c.6 0 1-.1 1.8-.1zM1120.7 360.5c0 3-2.4 4.8-5.5 4.8-1.5 0-3.1-.3-4.1-.9l.4-1.8c.9.6 2.2 1 3.7 1 2 0 3.4-1 3.4-2.8 0-1.7-1.4-2.4-3.3-2.5-.7 0-1.4 0-2.2.2v-1.7c2.5-.6 4.8-1.6 4.8-3.4 0-1.4-1-2.2-2.7-2.2-1.2 0-2.3.6-3.5 1.4l-.7-1.7c1.1-.9 2.6-1.6 4.4-1.6 2.9 0 4.7 1.6 4.7 3.8 0 1.8-1.4 3.2-3 3.8 2.5.2 3.6 1.9 3.6 3.6zM1125.5 353.2c-2.4 0-4-1.8-4-4s1.5-4 4-4 4 1.8 4 4c0 2.1-1.5 4-4 4zm0-6.8c-1.7 0-2.7 1.2-2.7 2.8 0 1.4 1 2.7 2.7 2.7s2.7-1.3 2.7-2.7c0-1.5-1-2.8-2.7-2.8zm-.6 14.7h-1.5l12-15.7h1.5l-12 15.7zm9.7.3c-2.5 0-4-1.8-4-4 0-2.1 1.5-4 4-4 2.4 0 4 1.8 4 4 0 2.1-1.5 4-4 4zm0-6.7c-1.7 0-2.7 1.3-2.7 2.7 0 1.5 1 2.8 2.7 2.8s2.7-1.2 2.7-2.8c0-1.5-1-2.7-2.7-2.7zM1359.5 207.1v-1.7c3.4-2.5 6.4-4.4 6.4-6.2 0-1.1-.8-1.9-2.3-1.9-1.2 0-2.3.5-3.4 1.4l-.7-1.7c1.1-.9 2.5-1.5 4.3-1.5 2.4 0 4.2 1.4 4.2 3.5 0 2.6-2.4 4.1-5.5 6.3h6v1.9h-9v-.1zM1373.9 201.8c3.1 0 5.2 1.8 5.2 4.6 0 3.1-2.4 5.2-5.3 5.2-1.6 0-3.2-.5-4.2-1l.4-1.9c.9.5 2.4 1.1 3.8 1.1 1.9 0 3.2-1.2 3.2-3.2 0-1.6-1.2-3-3.4-3-1.4 0-2.1.1-3 .4l-.5-.5 1-7.7h7.5l.1 1.9h-6l-.6 4.2c.6 0 1-.1 1.8-.1zM1384.3 199.5c-2.4 0-4-1.8-4-4s1.5-4 4-4 4 1.8 4 4c-.1 2.1-1.6 4-4 4zm0-6.8c-1.7 0-2.7 1.2-2.7 2.8 0 1.4 1 2.7 2.7 2.7s2.7-1.3 2.7-2.7c-.1-1.5-1.1-2.8-2.7-2.8zm-.7 14.7h-1.5l12-15.7h1.5l-12 15.7zm9.8.3c-2.5 0-4-1.8-4-4 0-2.1 1.5-4 4-4 2.4 0 4 1.8 4 4s-1.6 4-4 4zm0-6.7c-1.7 0-2.7 1.3-2.7 2.7 0 1.5 1 2.8 2.7 2.8s2.7-1.2 2.7-2.8c0-1.5-1-2.7-2.7-2.7zM1273.2 129.2c0 2.3-1.8 4.2-5 4.2-3.4 0-5-1.9-5-4.1 0-1.9 1.6-3.4 2.9-3.7-1.4-.7-2.6-1.7-2.6-3.4 0-2.4 1.8-4.2 4.9-4.2 3.2 0 4.6 2 4.6 4.1 0 1.8-1.3 3.1-2.5 3.6 1.4.7 2.7 1.7 2.7 3.5zm-8.1-.1c0 1.5 1.3 2.5 3.1 2.5 1.9 0 2.9-.8 2.9-2.3 0-1.6-1.8-2.3-3.7-3.1-1.3.6-2.3 1.6-2.3 2.9zm5.8-6.9c0-1.6-1.2-2.5-2.7-2.5-1.8 0-2.9 1-2.9 2.3 0 1.5 1.7 2.2 3.6 3 1.2-.6 2-1.5 2-2.8zM1278.7 125.4c-2.4 0-4-1.8-4-4s1.5-4 4-4 4 1.8 4 4-1.5 4-4 4zm0-6.7c-1.7 0-2.7 1.2-2.7 2.8 0 1.4 1 2.7 2.7 2.7s2.7-1.3 2.7-2.7c0-1.6-1-2.8-2.7-2.8zm-.6 14.7h-1.5l12-15.7h1.5l-12 15.7zm9.7.3c-2.5 0-4-1.8-4-4 0-2.1 1.5-4 4-4 2.4 0 4 1.8 4 4 0 2.1-1.5 4-4 4zm0-6.8c-1.7 0-2.7 1.3-2.7 2.7 0 1.5 1 2.8 2.7 2.8s2.7-1.2 2.7-2.8c0-1.4-1-2.7-2.7-2.7zM1561.8 129.2c0 2.3-1.8 4.2-5 4.2-3.4 0-5-1.9-5-4.1 0-1.9 1.6-3.4 2.9-3.7-1.4-.7-2.6-1.7-2.6-3.4 0-2.4 1.8-4.2 4.9-4.2 3.2 0 4.6 2 4.6 4.1 0 1.8-1.3 3.1-2.5 3.6 1.4.7 2.7 1.7 2.7 3.5zm-8.1-.1c0 1.5 1.3 2.5 3.1 2.5 1.9 0 2.9-.8 2.9-2.3 0-1.6-1.8-2.3-3.7-3.1-1.3.6-2.3 1.6-2.3 2.9zm5.9-6.9c0-1.6-1.2-2.5-2.7-2.5-1.8 0-2.9 1-2.9 2.3 0 1.5 1.7 2.2 3.6 3 1.1-.6 2-1.5 2-2.8zM1567.3 125.4c-2.4 0-4-1.8-4-4s1.5-4 4-4 4 1.8 4 4-1.5 4-4 4zm0-6.7c-1.7 0-2.7 1.2-2.7 2.8 0 1.4 1 2.7 2.7 2.7s2.7-1.3 2.7-2.7c0-1.6-1-2.8-2.7-2.8zm-.6 14.7h-1.5l12-15.7h1.5l-12 15.7zm9.8.3c-2.5 0-4-1.8-4-4 0-2.1 1.5-4 4-4 2.4 0 4 1.8 4 4 0 2.1-1.6 4-4 4zm0-6.8c-1.7 0-2.7 1.3-2.7 2.7 0 1.5 1 2.8 2.7 2.8s2.7-1.2 2.7-2.8c0-1.4-1.1-2.7-2.7-2.7zM1472.1 362.3c3.1 0 5.2 1.8 5.2 4.6 0 3.1-2.4 5.2-5.3 5.2-1.6 0-3.2-.5-4.2-1l.4-1.9c.9.5 2.4 1.1 3.8 1.1 1.9 0 3.2-1.2 3.2-3.2 0-1.6-1.2-3-3.4-3-1.4 0-2.1.1-3 .4l-.5-.5 1-7.7h7.5l.1 1.9h-6l-.6 4.2c.6 0 1-.1 1.8-.1zM1486.9 352.3l.6 1.9c-3.5.9-5.9 2.7-6.7 5.6 1-.9 2.1-1.5 3.8-1.5 2.4 0 4.4 1.8 4.4 4.7 0 2.8-2 5-5.1 5-3.4 0-5.3-2.8-5.3-6.2.1-4.2 2.8-8.2 8.3-9.5zm-2.8 13.9c1.8 0 3-1.3 3-3.1s-1.2-3-2.9-3c-1.4 0-2.6.7-3.3 1.3-.1.3-.1.6-.1 1 0 2 1.2 3.8 3.3 3.8zM1493.8 360c-2.4 0-4-1.8-4-4s1.5-4 4-4 4 1.8 4 4-1.5 4-4 4zm0-6.7c-1.7 0-2.7 1.2-2.7 2.8 0 1.4 1 2.7 2.7 2.7s2.7-1.3 2.7-2.7c0-1.6-1-2.8-2.7-2.8zm-.7 14.7h-1.5l12-15.7h1.5l-12 15.7zm9.8.2c-2.5 0-4-1.8-4-4 0-2.1 1.5-4 4-4 2.4 0 4 1.8 4 4s-1.5 4-4 4zm0-6.7c-1.7 0-2.7 1.3-2.7 2.7 0 1.5 1 2.8 2.7 2.8s2.7-1.2 2.7-2.8c0-1.4-1-2.7-2.7-2.7zM1731.4 275.2v-1.7c3.4-2.5 6.4-4.4 6.4-6.2 0-1.1-.8-1.9-2.3-1.9-1.2 0-2.3.5-3.4 1.4l-.7-1.7c1.1-.9 2.5-1.5 4.3-1.5 2.4 0 4.2 1.4 4.2 3.5 0 2.6-2.4 4.1-5.5 6.3h6v1.9l-9-.1zM1747.9 275.6c-3.4 0-5.8-2.4-5.8-6s2.4-6 5.8-6 5.8 2.4 5.8 6c.1 3.5-2.4 6-5.8 6zm0-10.2c-2.3 0-3.8 1.8-3.8 4.2 0 2.4 1.5 4.2 3.8 4.2s3.8-1.8 3.8-4.2c.1-2.4-1.5-4.2-3.8-4.2zM1758.8 267.6c-2.4 0-4-1.8-4-4s1.5-4 4-4 4 1.8 4 4c-.1 2.2-1.6 4-4 4zm0-6.7c-1.7 0-2.7 1.2-2.7 2.8 0 1.4 1 2.7 2.7 2.7s2.7-1.3 2.7-2.7c-.1-1.6-1.1-2.8-2.7-2.8zm-.7 14.7h-1.5l12-15.7h1.5l-12 15.7zm9.8.2c-2.5 0-4-1.8-4-4 0-2.1 1.5-4 4-4 2.4 0 4 1.8 4 4s-1.6 4-4 4zm0-6.7c-1.7 0-2.7 1.3-2.7 2.7 0 1.5 1 2.8 2.7 2.8s2.7-1.2 2.7-2.8c0-1.4-1-2.7-2.7-2.7zM1658.8 133.8l-2.8.9-.1-1.8 4.8-1.6V143h-1.9v-9.2zM1672.2 127.7l.6 1.9c-3.5.9-5.9 2.7-6.7 5.6 1-.9 2.1-1.5 3.8-1.5 2.4 0 4.4 1.8 4.4 4.7 0 2.8-2 5-5.1 5-3.4 0-5.3-2.8-5.3-6.2.1-4.2 2.8-8.2 8.3-9.5zm-2.8 13.8c1.8 0 3-1.3 3-3.1s-1.2-3-2.9-3c-1.4 0-2.6.7-3.3 1.3-.1.3-.1.6-.1 1 0 2.1 1.2 3.8 3.3 3.8zM1679.1 135.4c-2.4 0-4-1.8-4-4s1.5-4 4-4 4 1.8 4 4-1.6 4-4 4zm0-6.7c-1.7 0-2.7 1.2-2.7 2.8 0 1.4 1 2.7 2.7 2.7s2.7-1.3 2.7-2.7c0-1.6-1-2.8-2.7-2.8zm-.7 14.7h-1.5l12-15.7h1.5l-12 15.7zm9.8.2c-2.5 0-4-1.8-4-4 0-2.1 1.5-4 4-4 2.4 0 4 1.8 4 4s-1.6 4-4 4zm0-6.7c-1.7 0-2.7 1.3-2.7 2.7 0 1.5 1 2.8 2.7 2.8s2.7-1.2 2.7-2.8c0-1.4-1-2.7-2.7-2.7zM722.2 467c0-6.3 4.1-10.7 7-12.2l.8 1.1c-2.8 1.5-6.3 5.5-6.3 11s3.5 9.5 6.3 11l-.8 1.1c-3-1.4-7-5.7-7-12zM734.3 464.6c-2.7 0-4.3-2-4.3-4.3 0-2.4 1.7-4.3 4.3-4.3 2.7 0 4.3 2 4.3 4.3s-1.6 4.3-4.3 4.3zm0-7.5c-2 0-3.1 1.4-3.1 3.2 0 1.7 1.2 3.2 3.1 3.2 2 0 3.1-1.5 3.1-3.2.1-1.8-1.1-3.2-3.1-3.2zm-.9 16.1H732l13.2-17h1.4l-13.2 17zm10.8.3c-2.7 0-4.3-2-4.3-4.3s1.6-4.3 4.3-4.3 4.3 2 4.3 4.3-1.7 4.3-4.3 4.3zm0-7.5c-2 0-3.1 1.5-3.1 3.2 0 1.8 1.2 3.2 3.1 3.2 2 0 3.1-1.4 3.1-3.2 0-1.7-1.1-3.2-3.1-3.2zM761.7 473.2c-3.3 0-5.7-2.4-5.7-6.3 0-3.8 2.5-6.3 5.9-6.3s5.7 2.4 5.7 6.3c-.1 3.8-2.6 6.3-5.9 6.3zm0-11.1c-2.5 0-4.2 2-4.2 4.8 0 2.9 1.7 4.9 4.2 4.9s4.2-2 4.2-4.8c.1-3-1.6-4.9-4.2-4.9zM775.9 456.7c-.5-.3-1.2-.5-1.8-.5-1.3 0-2 .9-2 2.8v2h3.7l-.1 1.4H772v10.4h-1.6v-10.4l-1.9-.1.1-1 1.8-.4V459c.1-3.1 1.5-4.3 3.6-4.3.8 0 1.6.3 2.2.5.1.1-.3 1.6-.3 1.5zM784.7 458.2c-.7 0-1.1-.6-1.1-1.2s.4-1.1 1.1-1.1 1.1.5 1.1 1.1-.4 1.2-1.1 1.2zm-.8 14.6v-11.9l1.6-.3v12.2h-1.6zM803.8 472.8v-7.7c0-2.1-.8-3-2.5-3-1.3 0-2.4.7-3.4 1.5 0 .2.1.8.1 1.1v8.1h-1.6v-7.7c0-2.1-.8-3-2.5-3-1.2 0-2.4.6-3.3 1.4v9.3H789v-11.9l1.6-.3v1.6c1.2-1.1 2.5-1.6 3.8-1.6 1.5 0 2.7.6 3.2 2 1.3-1.3 2.8-2 4.2-2 2.3 0 3.7 1.5 3.7 4.1v8.1h-1.7zM813.9 460.7c3.2 0 5.3 2.5 5.3 6.2s-2.4 6.3-5.9 6.3c-.9 0-2.1-.3-2.9-.6v6.3h-1.6v-18l1.6-.3v1.6c.9-.8 2.1-1.5 3.5-1.5zm-3.4 10.1c.7.6 1.8.9 3 .9 2.5 0 4.1-2.1 4.1-4.9s-1.5-4.7-3.9-4.7c-1.2 0-2.3.5-3.2 1.3v7.4zM823.6 472.8H822v-11.9l1.6-.3v2.5c.8-1.5 2-2.5 3.5-2.5.8 0 1.5.2 2.1.5l-.4 1.5c-.5-.3-1.1-.5-1.8-.5-1.2 0-2.4.9-3.4 3.1v7.6zM835.8 473.2c-3.3 0-5.7-2.4-5.7-6.3 0-3.8 2.5-6.3 5.9-6.3s5.7 2.4 5.7 6.3c0 3.8-2.6 6.3-5.9 6.3zm.1-11.1c-2.5 0-4.2 2-4.2 4.8 0 2.9 1.7 4.9 4.2 4.9s4.2-2 4.2-4.8c0-3-1.7-4.9-4.2-4.9zM848.7 472.9h-1.5l-4.7-11.9h1.7l3.8 9.8 3.6-9.8h1.7l-4.6 11.9zM855.8 467.1c.1 2.7 1.7 4.6 4.2 4.6 1.3 0 2.5-.4 3.5-1l.3 1.5c-1 .6-2.3 1-3.8 1-3.4 0-5.7-2.6-5.7-6.2 0-3.7 2.4-6.4 5.6-6.4 2.6 0 4.3 1.7 4.3 4.4 0 .6-.1 1.4-.3 1.9l-8.1.1v.1zm6.7-1.5v-.5c0-1.8-1-3.1-2.9-3.1-2.1 0-3.5 1.6-3.8 3.6h6.7zM874.9 455.3l1.6-.3v17.9h-1.6v-1.1c-.8.7-2 1.5-3.5 1.5-3.2 0-5.3-2.6-5.3-6.2 0-3.7 2.5-6.3 5.9-6.3 1 0 2.1.3 2.9.6v-6.1zm-2.9 6.8c-2.5 0-4.2 2-4.2 4.8s1.5 4.7 4 4.7c1.2 0 2.3-.5 3.2-1.3V463c-.8-.5-1.9-.9-3-.9zM891.3 460.7c3.2 0 5.3 2.5 5.3 6.2s-2.4 6.3-5.9 6.3c-.9 0-2.1-.3-2.9-.6v6.3h-1.6v-18l1.6-.3v1.6c.8-.8 2-1.5 3.5-1.5zm-3.5 10.1c.7.6 1.8.9 3 .9 2.5 0 4.1-2.1 4.1-4.9s-1.5-4.7-3.9-4.7c-1.2 0-2.3.5-3.2 1.3v7.4zM905.7 471.4c-.8 1-2.1 1.8-3.5 1.8-2.2 0-3.8-1.4-3.8-3.3 0-2.2 1.7-3.9 7.2-4.2v-.7c0-1.9-.8-2.8-2.8-2.8-1.3 0-2.9.7-3.9 1.4l-.4-1.5c1.1-.8 2.9-1.4 4.4-1.4 2.8 0 4.3 1.2 4.3 4.3v5.7c0 .9.2 1.2 1.2 1.2l-.1 1.3c-1.5 0-2.3-.6-2.6-1.8zm0-4.7c-4.1.5-5.5 1.4-5.5 3 0 1.3 1 2.1 2.4 2.1 1.3 0 2.4-.7 3.1-1.6v-3.5zM914 473.2c-2.3 0-3.3-1.2-3.2-3.7l.2-7-1.8-.1.1-1 1.8-.4.1-2.7h1.5l-.1 2.8h4l-.1 1.4h-4l-.2 7.1c-.1 1.5.5 2.2 1.7 2.2.8 0 1.6-.3 2.3-.6l.3 1.4c-.8.4-1.8.6-2.6.6zM919.7 458.2c-.7 0-1.1-.6-1.1-1.2s.4-1.1 1.1-1.1 1.1.5 1.1 1.1-.3 1.2-1.1 1.2zm-.8 14.6v-11.9l1.6-.3v12.2h-1.6zM924.9 467.1c.1 2.7 1.7 4.6 4.2 4.6 1.3 0 2.5-.4 3.5-1l.3 1.5c-1 .6-2.3 1-3.8 1-3.4 0-5.7-2.6-5.7-6.2 0-3.7 2.4-6.4 5.6-6.4 2.6 0 4.3 1.7 4.3 4.4 0 .6-.1 1.4-.3 1.9l-8.1.1v.1zm6.7-1.5v-.5c0-1.8-1-3.1-2.9-3.1-2.1 0-3.5 1.6-3.8 3.6h6.7zM943.9 472.8v-7.7c0-2.1-.8-3-2.6-3-1.3 0-2.6.7-3.6 1.7v9H936v-11.9l1.6-.3v1.9c1.2-1.2 2.8-1.9 4.1-1.9 2.4 0 3.8 1.5 3.8 4.1v8.2h-1.6v-.1zM952.2 473.2c-2.3 0-3.3-1.2-3.2-3.7l.2-7-1.8-.1.1-1 1.8-.4.1-2.7h1.5l-.1 2.8h4l-.1 1.4h-4l-.2 7.1c-.1 1.5.5 2.2 1.7 2.2.8 0 1.6-.3 2.3-.6l.3 1.4c-.8.4-1.8.6-2.6.6zM960.5 473.2c-1.4 0-2.9-.4-3.9-1.1l.4-1.5c1 .7 2.3 1.1 3.5 1.1 1.4 0 2.7-.7 2.7-2 0-1.4-1.5-1.8-3-2.3-1.6-.5-3.5-1.3-3.5-3.4 0-2.2 1.8-3.4 4-3.4 1.3 0 2.6.4 3.6.9l-.5 1.5c-1-.5-2.2-.9-3.2-.9-1.5 0-2.4.7-2.4 1.8 0 1.4 1.4 1.8 2.9 2.2 1.7.5 3.5 1.3 3.5 3.5.2 2.2-1.7 3.6-4.1 3.6z"/><path class="st28" d="M963.5 478c2.8-1.5 6.3-5.5 6.3-11s-3.5-9.6-6.3-11l.8-1.1c2.9 1.5 7 5.9 7 12.2s-4.1 10.6-7 12.1l-.8-1.2zM980.7 467c0-6.3 4.1-10.7 7-12.2l.8 1.1c-2.8 1.5-6.3 5.5-6.3 11s3.5 9.5 6.3 11l-.8 1.1c-2.9-1.4-7-5.7-7-12z"/><path class="st28" d="M995.8 472.8v-7.7c0-2.1-.8-3-2.6-3-1.3 0-2.6.7-3.6 1.7v9H988v-11.9l1.6-.3v1.9c1.2-1.2 2.8-1.9 4.1-1.9 2.4 0 3.8 1.5 3.8 4.1v8.2h-1.7v-.1zM1000.4 465.2l-.1-1.4h9.8l-.1 1.4h-9.6zm-.1 4.6l.1-1.4h9.6l.1 1.4h-9.8zM1021.9 456.3l.5 1.5c-4.4 1-7 3.7-7.8 7h.1c1.1-1.1 2.6-1.8 4.4-1.8 2.5 0 4.7 1.7 4.7 4.8 0 3.1-2.1 5.4-5.3 5.4-3.5 0-5.5-2.9-5.5-6.5-.2-4.4 2.7-9 8.9-10.4zm-3.5 15.4c2.2 0 3.6-1.6 3.6-3.8 0-2.2-1.5-3.5-3.4-3.5-1.6 0-3 .7-4.1 1.7-.1.3-.1.6-.1.9.1 2.5 1.5 4.7 4 4.7zM1032.2 473.2c-3.6 0-6.2-2.7-6.2-6.5s2.7-6.5 6.2-6.5c3.6 0 6.3 2.7 6.3 6.5s-2.7 6.5-6.3 6.5zm0-11.4c-2.7 0-4.6 2.1-4.6 4.9s1.9 4.9 4.6 4.9c2.8 0 4.7-2.1 4.7-4.9 0-2.8-2-4.9-4.7-4.9zM1043.5 462.3l-3 1.1-.1-1.5 4.7-1.7v12.6h-1.6v-10.5zM1045.4 478c2.8-1.5 6.3-5.5 6.3-11s-3.5-9.6-6.3-11l.8-1.1c2.9 1.5 7 5.9 7 12.2s-4.1 10.6-7 12.1l-.8-1.2z"/><g><path class="st28" d="M485.8 443.5v-16.3h2.2v16.3h-2.2zM506.2 430l-4.9 13.3H499l-5-13.3-.2 13.5h-2.2l.5-16.3h2.9l5 13.4 5-13.4h2.9l.5 16.3h-2.2V430zM516.6 438.1h-2.1v5.4h-2.2v-16.3h4.5c4.4 0 6.4 2.2 6.4 5.3 0 3.7-2.5 5.5-6.6 5.6zm0-8.8h-2.2v6.7l2.4-.1c2.7-.1 4.1-1.3 4.1-3.4.1-2.1-1.4-3.2-4.3-3.2zM528 443.5h-2.2v-16.3h4.9c3.9 0 6 1.9 6 4.8 0 2.4-1.4 4-3.7 4.7l4.4 6.8h-2.6l-4-6.4-2.8.2v6.2zm2.7-8.3c2.1-.1 3.7-1.1 3.7-3.1 0-1.9-1.6-2.8-4-2.8H528v6l2.7-.1zM547 443.9c-4.8 0-8.2-3.3-8.2-8.5 0-4.9 3.4-8.6 8.2-8.6s8.2 3.3 8.2 8.5c0 4.9-3.4 8.6-8.2 8.6zm0-15.1c-3.5 0-5.9 2.6-5.9 6.5 0 4 2.4 6.6 6 6.6 3.5 0 5.9-2.6 5.9-6.5 0-4-2.5-6.6-6-6.6zM564.4 443.5h-2.5l-6-16.3h2.3l5 13.9 5-13.9h2.3l-6.1 16.3zM572.5 443.5v-16.3h10.3v2.1h-8.1v5h6.7v2.1h-6.7v5.1h8.1v2.1h-10.3v-.1zM599.8 430l-4.9 13.3h-2.2l-5-13.3-.2 13.5h-2.2l.5-16.3h2.9l5 13.4 5-13.4h2.9l.5 16.3H600l-.2-13.5zM605.9 443.5v-16.3h10.3v2.1h-8.1v5h6.7v2.1h-6.7v5.1h8.1v2.1h-10.3v-.1zM630.2 427.3h2.2v16.4H630l-8.7-13.3v13.1h-2.2v-16.3h2.4l8.7 13.1v-13zM642.6 429.3v14.2h-2.2v-14.2h-5.7v-2.1h13.6v2.1h-5.7zM656.8 443.5v-16.3h2.2v16.3h-2.2zM674.1 427.3h2.2v16.4h-2.4l-8.7-13.3v13.1H663v-16.3h2.4l8.7 13.1v-13zM690.6 438.1h-2.1v5.4h-2.2v-16.3h4.5c4.4 0 6.4 2.2 6.4 5.3 0 3.7-2.5 5.5-6.6 5.6zm.1-8.8h-2.2v6.7l2.4-.1c2.7-.1 4.1-1.3 4.1-3.4s-1.4-3.2-4.3-3.2zM708.2 439.2c0-1.7-1.2-2.3-3.9-3-2.3-.6-4.9-1.6-4.9-4.8 0-2.7 2.2-4.6 5.4-4.6 1.9 0 3.6.5 5.1 1.4l-.8 1.9c-1.2-.8-2.9-1.4-4.3-1.4-2.3 0-3.3 1.1-3.3 2.4 0 1.6 1.4 2.2 4 2.9 2.4.6 4.8 1.8 4.8 4.8 0 2.8-2.3 4.9-5.7 4.9-1.9 0-3.9-.5-5.4-1.5l.7-2c1.4.9 2.9 1.6 4.8 1.6 2 .1 3.5-1 3.5-2.6zM719.6 437.1v6.4h-2.2V437l-5.7-9.8h2.5l4.3 7.6 4.3-7.6h2.4l-5.6 9.9zM738.2 430.2c-1.4-.9-2.8-1.4-4.4-1.4-3.5 0-5.9 2.4-5.9 6.5s2.4 6.6 6 6.6c1.7 0 3.5-.7 4.6-1.6l.4 2.2c-1.3.8-3.2 1.4-5 1.4-4.8 0-8.1-3.3-8.1-8.5s3.4-8.6 8.1-8.6c1.8 0 3.8.5 5.1 1.4l-.8 2zM752.9 443.5v-7.2H744v7.2h-2.2v-16.3h2.2v7.1h8.9v-7.1h2.2v16.3h-2.2zM759.1 443.5v-16.3h2.2v16.3h-2.2zM778.1 443.5h-2.3l-1.5-4.3h-7l-1.5 4.3h-2.3l6.1-16.3h2.5l6 16.3zm-7.3-14l-2.8 7.7h5.6l-2.8-7.7zM784.8 429.3v14.2h-2.2v-14.2h-5.7v-2.1h13.6v2.1h-5.7zM795 443.5h-2.2v-16.3h4.9c3.9 0 6 1.9 6 4.8 0 2.4-1.4 4-3.7 4.7l4.4 6.8h-2.6l-4-6.4-2.8.2v6.2zm2.7-8.3c2.1-.1 3.7-1.1 3.7-3.1 0-1.9-1.6-2.8-4-2.8H795v6l2.7-.1zM807 443.5v-16.3h2.2v16.3H807zM824.9 430.2c-1.4-.9-2.8-1.4-4.4-1.4-3.5 0-5.9 2.4-5.9 6.5s2.4 6.6 6 6.6c1.7 0 3.5-.7 4.6-1.6l.4 2.2c-1.3.8-3.2 1.4-5 1.4-4.8 0-8.1-3.3-8.1-8.5s3.4-8.6 8.1-8.6c1.8 0 3.8.5 5.1 1.4l-.8 2zM842.7 439.2c0-1.7-1.2-2.3-3.9-3-2.3-.6-4.9-1.6-4.9-4.8 0-2.7 2.2-4.6 5.4-4.6 1.9 0 3.6.5 5.1 1.4l-.8 1.9c-1.2-.8-2.9-1.4-4.3-1.4-2.3 0-3.3 1.1-3.3 2.4 0 1.6 1.4 2.2 4 2.9 2.4.6 4.8 1.8 4.8 4.8 0 2.8-2.3 4.9-5.7 4.9-1.9 0-3.9-.5-5.4-1.5l.7-2c1.4.9 2.9 1.6 4.8 1.6 2 .1 3.5-1 3.5-2.6zM854.4 429.3v14.2h-2.2v-14.2h-5.7v-2.1h13.6v2.1h-5.7zM873.5 443.5h-2.3l-1.5-4.3h-7l-1.5 4.3h-2.3l6.1-16.3h2.5l6 16.3zm-7.3-14l-2.8 7.7h5.6l-2.8-7.7zM880.2 429.3v14.2H878v-14.2h-5.7v-2.1h13.6v2.1h-5.7zM894.5 443.9c-4.1 0-6.3-2.5-6.3-6.4v-10.2h2.2v9.9c0 2.9 1.4 4.7 4.3 4.7 2.5 0 4.1-1.5 4.1-4.5v-10h2.2v10c-.1 3.9-2.2 6.5-6.5 6.5zM912.7 439.2c0-1.7-1.2-2.3-3.9-3-2.3-.6-4.9-1.6-4.9-4.8 0-2.7 2.2-4.6 5.4-4.6 1.9 0 3.6.5 5.1 1.4l-.8 1.9c-1.2-.8-2.9-1.4-4.3-1.4-2.3 0-3.3 1.1-3.3 2.4 0 1.6 1.4 2.2 4 2.9 2.4.6 4.8 1.8 4.8 4.8 0 2.8-2.3 4.9-5.7 4.9-1.9 0-3.9-.5-5.4-1.5l.7-2c1.4.9 2.9 1.6 4.8 1.6 2 .1 3.5-1 3.5-2.6zM931.3 443.9c-4.8 0-8.2-3.3-8.2-8.5 0-4.9 3.4-8.6 8.2-8.6s8.2 3.3 8.2 8.5c-.1 4.9-3.4 8.6-8.2 8.6zm-.1-15.1c-3.5 0-5.9 2.6-5.9 6.5 0 4 2.4 6.6 6 6.6 3.5 0 5.9-2.6 5.9-6.5 0-4-2.4-6.6-6-6.6zM944.8 443.5h-2.2v-16.3h4.9c3.9 0 6 1.9 6 4.8 0 2.4-1.4 4-3.7 4.7l4.4 6.8h-2.6l-4-6.4-2.8.2v6.2zm2.7-8.3c2.1-.1 3.7-1.1 3.7-3.1 0-1.9-1.6-2.8-4-2.8h-2.4v6l2.7-.1zM967 438.1h-2.1v5.4h-2.2v-16.3h4.5c4.4 0 6.4 2.2 6.4 5.3 0 3.7-2.5 5.5-6.6 5.6zm.1-8.8h-2.2v6.7l2.4-.1c2.7-.1 4.1-1.3 4.1-3.4 0-2.1-1.4-3.2-4.3-3.2zM984.6 439.2c0-1.7-1.2-2.3-3.9-3-2.3-.6-4.9-1.6-4.9-4.8 0-2.7 2.2-4.6 5.4-4.6 1.9 0 3.6.5 5.1 1.4l-.8 1.9c-1.2-.8-2.9-1.4-4.3-1.4-2.3 0-3.3 1.1-3.3 2.4 0 1.6 1.4 2.2 4 2.9 2.4.6 4.8 1.8 4.8 4.8 0 2.8-2.3 4.9-5.7 4.9-1.9 0-3.9-.5-5.4-1.5l.7-2c1.4.9 2.9 1.6 4.8 1.6 2 .1 3.5-1 3.5-2.6zM996 437.1v6.4h-2.2V437l-5.7-9.8h2.5l4.3 7.6 4.3-7.6h2.4l-5.6 9.9zM1014.6 430.2c-1.4-.9-2.8-1.4-4.4-1.4-3.5 0-5.9 2.4-5.9 6.5s2.4 6.6 6 6.6c1.7 0 3.5-.7 4.6-1.6l.4 2.2c-1.3.8-3.2 1.4-5 1.4-4.8 0-8.1-3.3-8.1-8.5s3.4-8.6 8.1-8.6c1.8 0 3.8.5 5.1 1.4l-.8 2zM1029.3 443.5v-7.2h-8.9v7.2h-2.2v-16.3h2.2v7.1h8.9v-7.1h2.2v16.3h-2.2zM1035.5 443.5v-16.3h2.2v16.3h-2.2zM1054.5 443.5h-2.3l-1.5-4.3h-7l-1.5 4.3h-2.3l6.1-16.3h2.5l6 16.3zm-7.3-14l-2.8 7.7h5.6l-2.8-7.7zM1061.2 429.3v14.2h-2.2v-14.2h-5.7v-2.1h13.6v2.1h-5.7zM1071.4 443.5h-2.2v-16.3h4.9c3.9 0 6 1.9 6 4.8 0 2.4-1.4 4-3.7 4.7l4.4 6.8h-2.6l-4-6.4-2.8.2v6.2zm2.7-8.3c2.1-.1 3.7-1.1 3.7-3.1 0-1.9-1.6-2.8-4-2.8h-2.4v6l2.7-.1zM1083.4 443.5v-16.3h2.2v16.3h-2.2zM1101.3 430.2c-1.4-.9-2.8-1.4-4.4-1.4-3.5 0-5.9 2.4-5.9 6.5s2.4 6.6 6 6.6c1.7 0 3.5-.7 4.6-1.6l.4 2.2c-1.3.8-3.2 1.4-5 1.4-4.8 0-8.1-3.3-8.1-8.5s3.4-8.6 8.1-8.6c1.8 0 3.8.5 5.1 1.4l-.8 2zM1122.9 430.2c-1.4-.9-2.8-1.4-4.4-1.4-3.5 0-5.9 2.4-5.9 6.5s2.4 6.6 6 6.6c1.7 0 3.5-.7 4.6-1.6l.4 2.2c-1.3.8-3.2 1.4-5 1.4-4.8 0-8.1-3.3-8.1-8.5s3.4-8.6 8.1-8.6c1.8 0 3.8.5 5.1 1.4l-.8 2zM1133.4 443.9c-4.8 0-8.2-3.3-8.2-8.5 0-4.9 3.4-8.6 8.2-8.6 4.8 0 8.2 3.3 8.2 8.5-.1 4.9-3.5 8.6-8.2 8.6zm-.1-15.1c-3.5 0-5.9 2.6-5.9 6.5 0 4 2.4 6.6 6 6.6 3.5 0 5.9-2.6 5.9-6.5 0-4-2.4-6.6-6-6.6zM1158.7 430l-4.9 13.3h-2.2l-5-13.3-.2 13.5h-2.2l.5-16.3h2.9l5 13.4 5-13.4h2.9l.5 16.3h-2.2l-.1-13.5zM1172 443.9c-4.8 0-8.2-3.3-8.2-8.5 0-4.9 3.4-8.6 8.2-8.6 4.8 0 8.2 3.3 8.2 8.5 0 4.9-3.4 8.6-8.2 8.6zm0-15.1c-3.5 0-5.9 2.6-5.9 6.5 0 4 2.4 6.6 6 6.6 3.5 0 5.9-2.6 5.9-6.5 0-4-2.5-6.6-6-6.6zM1185.6 443.5h-2.2v-16.3h4.9c3.9 0 6 1.9 6 4.8 0 2.4-1.4 4-3.7 4.7l4.4 6.8h-2.6l-4-6.4-2.8.2v6.2zm2.6-8.3c2.1-.1 3.7-1.1 3.7-3.1 0-1.9-1.6-2.8-4-2.8h-2.4v6l2.7-.1zM1209 438.9c0 2.8-1.8 4.6-6 4.6h-5.5v-16.3h5.4c3.9 0 5.7 1.8 5.7 4.3 0 1.7-1 2.9-2.8 3.6 2 .6 3.2 2 3.2 3.8zm-6-9.6h-3.4v5.1h3c2.3 0 3.6-1 3.6-2.6.1-1.6-1.1-2.5-3.2-2.5zm-.2 7.1h-3.2v5.1h3.5c2.4 0 3.6-.9 3.6-2.5.1-1.9-1.6-2.6-3.9-2.6zM1212.2 443.5v-16.3h2.2v16.3h-2.2zM1223.2 443.5h-4.8v-16.3h4.9c5.4 0 8.6 3.2 8.6 8 0 5.1-3.1 8.3-8.7 8.3zm0-14.2h-2.6v12.1h2.7c3.9 0 6.4-2.1 6.4-6 0-4-2.4-6.1-6.5-6.1zM1235.1 443.5v-16.3h2.2v16.3h-2.2zM1247.5 429.3v14.2h-2.2v-14.2h-5.7v-2.1h13.6v2.1h-5.7zM1255.5 443.5v-16.3h2.2v16.3h-2.2zM1261.7 443.5v-16.3h10.3v2.1h-8.1v5h6.7v2.1h-6.7v5.1h8.1v2.1h-10.3v-.1zM1283.2 439.2c0-1.7-1.2-2.3-3.9-3-2.3-.6-4.9-1.6-4.9-4.8 0-2.7 2.2-4.6 5.4-4.6 1.9 0 3.6.5 5.1 1.4l-.8 1.9c-1.2-.8-2.9-1.4-4.3-1.4-2.3 0-3.3 1.1-3.3 2.4 0 1.6 1.4 2.2 4 2.9 2.4.6 4.8 1.8 4.8 4.8 0 2.8-2.3 4.9-5.7 4.9-1.9 0-3.9-.5-5.4-1.5l.7-2c1.4.9 2.9 1.6 4.8 1.6 2 .1 3.5-1 3.5-2.6z"/></g><g><path class="st19" d="M28.8 39.5c0-1.1-1.2-1.5-3.3-2.1-2.4-.6-5.2-1.7-5.2-5 0-3 2.2-5 6.2-5 2.5 0 4.5.6 6.1 1.4l-.8 3.4c-1.6-.9-3.6-1.4-5.3-1.4-1.4 0-2.1.5-2.1 1.4 0 1.1 1.5 1.5 3.4 2 2.5.7 5.1 1.8 5.1 4.9 0 3.1-2.4 5.3-6.7 5.3-2.4 0-4.8-.6-6.3-1.5l.8-3.4c1.6.9 3.6 1.5 5.6 1.5 1.4.1 2.5-.5 2.5-1.5zM37.2 30.3c-1.5 0-2.4-.8-2.4-2.1 0-1.4.9-2.2 2.4-2.2s2.4.8 2.4 2.2c-.1 1.3-.9 2.1-2.4 2.1zm-2 13.8V32.2l4-.5v12.4h-4zM41.3 42.7c0-1.1 1-2.3 2.5-2.7-1.4-.7-2.4-2-2.4-3.7 0-2.6 2.2-4.7 5.7-4.7 1.4 0 2.8.4 3.7.9l3.4-.3.2 3.2-2.4-.3c.2.2.3.9.3 1.3 0 2.4-2.2 4.4-5.3 4.4-.5 0-1-.1-1.6-.2-.3.2-.7.5-.7.9 0 .5.6.8 2.2.8h1.4c3.3 0 5.6.8 5.6 3.4 0 3-3.6 5-7.6 5-3.3 0-5.9-1-5.9-3.1 0-1.2 1-2.3 2.9-2.5-1-.5-2-1.3-2-2.4zm2.7 4c0 .9 1.2 1.6 3 1.6 2 0 3.4-.6 3.4-1.6s-1-1.2-3.1-1.2c-.8 0-2-.1-2.4-.1-.4.2-.9.6-.9 1.3zm3.1-8.3c1.2 0 1.8-.9 1.8-2.2s-.6-2.1-1.8-2.1c-1.1 0-1.8.9-1.8 2.2-.1 1.3.5 2.1 1.8 2.1zM63.7 44.1v-7.2c0-1.5-.7-1.9-1.7-1.9-.9 0-1.7.4-2.2.9v8.2h-4V32.2l4-.5v2c1.1-1.2 2.5-2.1 4.1-2.1 2.4 0 3.8 1.6 3.8 4.2v8.3h-4zM72.3 30.3c-1.5 0-2.4-.8-2.4-2.1 0-1.4.9-2.2 2.4-2.2s2.4.8 2.4 2.2c0 1.3-.9 2.1-2.4 2.1zm-2 13.8V32.2l4-.5v12.4h-4zM84.8 29.8c-.5-.2-1-.4-1.6-.4-1 0-1.4.6-1.4 1.8v1H85l-.1 3.1H82v8.8h-4v-8.8l-2.1-.2.1-2.5 2-.6v-1c.1-3.5 1.7-5 4.7-5 1.1 0 2.2.3 2.8.5l-.7 3.3zm3.6.8c-1.5 0-2.4-.8-2.4-2.2 0-1.4.9-2.2 2.4-2.2s2.4.8 2.4 2.2c0 1.5-1 2.2-2.4 2.2zm-2 13.5V32.2l4-.5v12.4h-4zM99.1 44.5c-4 0-6.6-2.2-6.6-6.3 0-4 2.6-6.5 6.7-6.5 1.7 0 3.3.4 4.4 1l-.8 3c-1-.5-2.1-.9-3.2-.9-1.9 0-3 1.4-3 3.3 0 2.2 1.2 3.4 3.1 3.4 1.2 0 2.3-.3 3.2-.9l.6 3c-1 .5-2.7.9-4.4.9zM112.2 42.6c-.9 1-1.8 1.8-3.5 1.8-2.1 0-3.7-1.5-3.7-3.4 0-2.3 1.7-4.1 7.2-4.3v-.2c0-1.3-.7-1.8-2.1-1.8-1.2 0-2.7.5-4.1 1.2l-.8-2.9c1.3-.7 3.3-1.4 5.6-1.4 4.2 0 5.6 1.9 5.5 5.3v3.6c0 .8.2.9 1 1l-.4 2.9c-2.8.3-4.1-.4-4.7-1.8zm-.1-3.9c-2.5.3-3.4.8-3.4 1.8 0 .8.6 1.3 1.5 1.3.8 0 1.5-.3 1.9-.8v-2.3zM126.9 44.1v-7.2c0-1.5-.6-1.9-1.7-1.9-.9 0-1.7.4-2.2.9v8.2h-4V32.2l4-.5v2c1.1-1.2 2.5-2.1 4.1-2.1 2.4 0 3.8 1.6 3.8 4.2v8.3h-4zM138.5 44.5c-3 0-4.6-1.2-4.4-4.4l.2-4.6-1.8-.3.1-2.5 1.8-.6.1-2.8h3.9v2.9h3l-.1 3.1h-3.2l-.1 4.3c-.1 1.1.6 1.6 1.6 1.6.5 0 1-.1 1.6-.3l.5 3.1c-1.2.3-2 .5-3.2.5zM143.4 44.1V26.9l4-.5v17.7h-4zM157.8 43.5l-.6 1.6c-1.2 3.5-2.8 4.6-5.3 4.6-1.3 0-2.5-.3-3.6-.8l1.2-3c.8.3 1.2.5 1.9.5.9 0 1.2-.3 1.7-1.5l.3-.9-4.7-12h4.3l2.6 8 2.3-8h4.3l-4.4 11.5zM169.7 44.1V27.8h4.1v16.3h-4.1zM192.1 44.1V37c0-1.5-.6-2-1.6-2-.8 0-1.5.4-2 .8V44.1h-4V37c0-1.5-.7-2-1.7-2-.8 0-1.5.3-1.9.7V44h-4V32.2l4-.5v1.7c1.1-1.1 2.3-1.8 3.8-1.8s2.8.8 3.4 2.2c1.1-1.3 2.5-2.2 4.2-2.2 2.3 0 3.8 1.6 3.8 4.2v8.3h-4zM206.3 31.6c3 0 5.2 2.4 5.2 6.3 0 4-2.8 6.6-6.1 6.6-.8 0-1.7-.2-2.5-.4v5.4h-4V32.2l4-.5v1.5c.7-.7 1.8-1.6 3.4-1.6zm-3.4 9.4c.5.3 1.1.5 1.8.5 1.7 0 2.7-1.4 2.7-3.4 0-2.1-.9-3.3-2.5-3.3-.9 0-1.5.3-2 .8V41zM217.6 44.1h-4V32.2l4-.5v1.8c.7-1.2 1.6-1.9 2.9-1.9.7 0 1.4.2 2 .5l-.8 3.5c-.5-.2-1-.4-1.5-.4-1 0-1.9.5-2.6 1.8v7.1zM229.5 44.5c-3.6 0-6.4-2.3-6.4-6.4s2.9-6.5 6.6-6.5c3.6 0 6.4 2.3 6.4 6.4s-3 6.5-6.6 6.5zm.1-9.9c-1.6 0-2.5 1.3-2.5 3.4 0 2.1.9 3.4 2.5 3.4s2.5-1.3 2.5-3.4c0-2-.9-3.4-2.5-3.4zM245.3 44.1h-4.5L236.3 32h4.3l2.5 8.3 2.5-8.3h4.3l-4.6 12.1zM254 39c.1 1.6 1.2 2.5 3.2 2.5 1.3 0 2.7-.5 4-1.2l.4 3.1c-1.2.6-3 1-4.7 1-4.1 0-6.8-2.3-6.8-6.3s2.7-6.5 6.6-6.5c3.4 0 5.3 2.1 5.3 5.1 0 .6-.1 1.6-.3 2.1l-7.7.2zm4.3-2.1v-.2c0-1.4-.6-2.3-1.8-2.3-1.4 0-2.2 1.2-2.3 2.6l4.1-.1zM272.1 26.9l4-.5v17.7h-4v-1.2c-.8.8-1.9 1.6-3.4 1.6-3 0-5.2-2.4-5.2-6.3 0-4 2.8-6.6 6.1-6.6.9 0 1.7.2 2.5.4v-5.1zm-1.8 7.7c-1.7 0-2.7 1.4-2.7 3.4 0 2.1 1 3.3 2.5 3.3.9 0 1.5-.3 2-.8v-5.3c-.4-.4-1-.6-1.8-.6zM293.4 31.3v12.8h-4.1V31.3h-5.2v-3.5h14.5v3.5h-5.2zM306.5 44.1h-5.8V27.8h6.1c5.7 0 9 3.2 9 8-.1 5-3.4 8.3-9.3 8.3zm0-13h-1.7v9.6h1.9c3 0 4.9-1.5 4.9-4.8s-1.7-4.8-5.1-4.8zM127 69.2c0-6.4 4-11 7.7-13l2.1 2.7c-3.1 1.9-6 5.5-6 10.3s2.9 8.4 6 10.3l-2.1 2.7c-3.6-2-7.7-6.6-7.7-13z"/><path class="st19" d="M144.2 75.3v-7.2c0-1.5-.7-1.9-1.7-1.9-.9 0-1.7.4-2.2.9v8.2h-4V63.4l4-.5v2c1.1-1.2 2.5-2.1 4.1-2.1 2.4 0 3.8 1.6 3.8 4.2v8.3h-4zM150.9 67.8l-.1-3h11l-.1 3h-10.8zm-.1 5.7l.1-3h10.8l.1 3h-11zM166.9 66.5l-3 .7-.1-3.3 7.1-1.5v12.9h-4v-8.8zM184.6 75.2v4.6h-3.7v-4.6h-7.2l-.5-2.5 7-10.1h4.4V72h2.5l.1 3.2h-2.6zm-3.6-9l-4 5.9h4v-5.9zM188.7 75.3v-2.8c4.1-2.6 6.3-3.8 6.3-5.3 0-.9-.7-1.5-2-1.5-1.1 0-2.5.5-3.8 1.4l-.9-3c1.5-1 3.6-1.8 5.6-1.8 3.4 0 5.3 1.7 5.3 4.1 0 2.1-1.8 3.8-5.2 5.5h5.7l.1 3.2h-11.1v.2z"/><path class="st19" d="M199 79.4c3.1-1.9 6-5.5 6-10.3s-2.9-8.4-6-10.3l2.1-2.7c3.7 2 7.7 6.6 7.7 13s-4 11.1-7.7 13l-2.1-2.7z"/></g><g><path class="st19" d="M435 31.6l-3.6 12.3H427l-3.6-12.2-.1 12.5h-3.8l.6-16.3h5.9l3.4 12.2 3.4-12.2h5.8l.5 16.3h-3.9l-.2-12.6zM445.8 32v7.2c0 1.5.6 2 1.7 2 .9 0 1.6-.4 2.1-.8V32h4v11.9l-4 .5v-1.8c-.9 1-2.3 1.9-3.9 1.9-2.4 0-3.8-1.6-3.8-4.2V32h3.9zM462.2 44.5c-4 0-6.6-2.2-6.6-6.3 0-4 2.6-6.5 6.7-6.5 1.7 0 3.3.4 4.4 1l-.8 3c-1-.5-2.1-.9-3.2-.9-1.9 0-3 1.4-3 3.3 0 2.2 1.2 3.4 3.1 3.4 1.2 0 2.3-.3 3.2-.9l.6 3c-1 .5-2.6.9-4.4.9zM476.7 44.1v-7.2c0-1.5-.7-1.9-1.7-1.9-.9 0-1.7.4-2.2.9v8.2h-4V26.9l4-.5v7.3c1.1-1.2 2.5-2.1 4.1-2.1 2.4 0 3.8 1.6 3.8 4.2v8.3h-4zM489.7 44.1V27.8h4.1v16.3h-4.1zM512.1 44.1V37c0-1.5-.6-2-1.6-2-.8 0-1.5.4-1.9.8V44.1h-4V37c0-1.5-.7-2-1.7-2-.8 0-1.5.3-2 .7V44h-4V32.2l4-.5v1.7c1.1-1.1 2.3-1.8 3.8-1.8s2.8.8 3.4 2.2c1.1-1.3 2.5-2.2 4.2-2.2 2.3 0 3.8 1.6 3.8 4.2v8.3h-4zM526.2 31.6c3 0 5.2 2.4 5.2 6.3 0 4-2.8 6.6-6.1 6.6-.8 0-1.7-.2-2.5-.4v5.4h-4V32.2l4-.5v1.5c.8-.7 1.9-1.6 3.4-1.6zm-3.3 9.4c.5.3 1.1.5 1.8.5 1.7 0 2.7-1.4 2.7-3.4 0-2.1-.9-3.3-2.5-3.3-.9 0-1.5.3-2 .8V41zM537.6 44.1h-4V32.2l4-.5v1.8c.7-1.2 1.6-1.9 2.9-1.9.6 0 1.4.2 2 .5l-.8 3.5c-.5-.2-1-.4-1.5-.4-1 0-1.9.5-2.6 1.8v7.1zM549.5 44.5c-3.6 0-6.4-2.3-6.4-6.4s2.9-6.5 6.6-6.5c3.6 0 6.4 2.3 6.4 6.4-.1 4.1-3 6.5-6.6 6.5zm0-9.9c-1.6 0-2.5 1.3-2.5 3.4 0 2.1.9 3.4 2.5 3.4s2.5-1.3 2.5-3.4c.1-2-.8-3.4-2.5-3.4zM565.3 44.1h-4.5L556.3 32h4.3l2.5 8.3 2.5-8.3h4.3l-4.6 12.1zM574 39c.1 1.6 1.2 2.5 3.2 2.5 1.3 0 2.7-.5 4-1.2l.4 3.1c-1.2.6-3 1-4.7 1-4.1 0-6.8-2.3-6.8-6.3s2.7-6.5 6.6-6.5c3.4 0 5.3 2.1 5.3 5.1 0 .6-.1 1.6-.3 2.1l-7.7.2zm4.2-2.1v-.2c0-1.4-.6-2.3-1.8-2.3-1.4 0-2.2 1.2-2.3 2.6l4.1-.1zM592.1 26.9l4-.5v17.7h-4v-1.2c-.8.8-1.9 1.6-3.4 1.6-3 0-5.2-2.4-5.2-6.3 0-4 2.8-6.6 6.1-6.6.9 0 1.7.2 2.5.4v-5.1zm-1.8 7.7c-1.7 0-2.7 1.4-2.7 3.4 0 2.1 1 3.3 2.5 3.3.9 0 1.5-.3 2-.8v-5.3c-.4-.4-1.1-.6-1.8-.6zM613.4 31.3v12.8h-4.1V31.3h-5.2v-3.5h14.5v3.5h-5.2zM626.4 44.1h-5.8V27.8h6.1c5.7 0 9 3.2 9 8 0 5-3.3 8.3-9.3 8.3zm.1-13h-1.7v9.6h1.9c3 0 4.9-1.5 4.9-4.8-.1-3.3-1.8-4.8-5.1-4.8zM485.1 69.2c0-6.4 4-11 7.7-13l2.1 2.7c-3.1 1.9-6 5.5-6 10.3s2.9 8.4 6 10.3l-2.1 2.7c-3.7-2-7.7-6.6-7.7-13z"/><path class="st19" d="M502.3 75.3v-7.2c0-1.5-.7-1.9-1.7-1.9-.9 0-1.7.4-2.2.9v8.2h-4V63.4l4-.5v2c1.1-1.2 2.5-2.1 4.1-2.1 2.4 0 3.8 1.6 3.8 4.2v8.3h-4zM509 67.8l-.1-3h11l-.1 3H509zm-.1 5.7l.1-3h10.8l.1 3h-11zM522.3 75.3v-2.8c4.1-2.6 6.3-3.8 6.3-5.3 0-.9-.7-1.5-2-1.5-1.1 0-2.5.5-3.8 1.4l-.9-3c1.5-1 3.6-1.8 5.6-1.8 3.4 0 5.3 1.7 5.3 4.1 0 2.1-1.8 3.8-5.2 5.5h5.7l.1 3.2h-11.1v.2zM546.4 74.8c0 3.4-3 5.3-6.7 5.3-2 0-3.7-.5-5.1-1.2l.5-3.2c1.2.7 2.8 1.2 4.3 1.3 1.8.1 2.9-.7 2.9-2.1 0-1.3-1-2-3-2.1-.7 0-1.5.1-2.1.1V70c2.3-.4 4.4-.9 4.4-2.7 0-1.1-.8-1.7-2.4-1.7-1.2 0-2.5.6-3.7 1.4l-.9-2.9c1.4-1 3.2-1.8 5.5-1.8 3.3 0 5.7 1.7 5.7 4.3 0 1.9-1.5 3.4-3.3 4 2.6.6 3.9 2.3 3.9 4.2zM554.4 75.7c-4 0-6.5-2.6-6.5-6.6s2.6-6.6 6.6-6.6 6.6 2.6 6.6 6.6c-.1 3.9-2.7 6.6-6.7 6.6zm0-10.2c-1.6 0-2.7 1.4-2.7 3.6 0 2.3 1.1 3.6 2.7 3.6s2.7-1.3 2.7-3.6-1.1-3.6-2.7-3.6z"/><path class="st19" d="M560 79.4c3.1-1.9 6-5.5 6-10.3s-2.9-8.4-6-10.3l2.1-2.7c3.7 2 7.7 6.6 7.7 13s-4 11.1-7.7 13l-2.1-2.7z"/></g><g><path class="st19" d="M755.5 39.5c0-1.1-1.2-1.5-3.3-2.1-2.4-.6-5.2-1.7-5.2-5 0-3 2.2-5 6.2-5 2.5 0 4.5.6 6.1 1.4l-.8 3.4c-1.6-.9-3.6-1.4-5.3-1.4-1.4 0-2.1.5-2.1 1.4 0 1.1 1.5 1.5 3.4 2 2.5.7 5.1 1.8 5.1 4.9 0 3.1-2.4 5.3-6.7 5.3-2.4 0-4.8-.6-6.3-1.5l.8-3.4c1.6.9 3.6 1.5 5.6 1.5 1.4.1 2.5-.5 2.5-1.5zM767.7 44.5c-3.6 0-6.4-2.3-6.4-6.4s2.9-6.5 6.6-6.5c3.6 0 6.4 2.3 6.4 6.4-.1 4.1-3 6.5-6.6 6.5zm0-9.9c-1.6 0-2.5 1.3-2.5 3.4 0 2.1.9 3.4 2.5 3.4s2.5-1.3 2.5-3.4c0-2-.8-3.4-2.5-3.4zM791.6 44.1V37c0-1.5-.6-2-1.6-2-.8 0-1.5.4-2 .8V44.1h-4V37c0-1.5-.7-2-1.7-2-.8 0-1.5.3-1.9.7V44h-4V32.2l4-.5v1.7c1.1-1.1 2.3-1.8 3.8-1.8s2.8.8 3.4 2.2c1.1-1.3 2.5-2.2 4.2-2.2 2.3 0 3.8 1.6 3.8 4.2v8.3h-4zM801.6 39c.1 1.6 1.2 2.5 3.2 2.5 1.3 0 2.7-.5 4-1.2l.4 3.1c-1.2.6-3 1-4.7 1-4.1 0-6.8-2.3-6.8-6.3s2.7-6.5 6.6-6.5c3.4 0 5.3 2.1 5.3 5.1 0 .6-.1 1.6-.3 2.1l-7.7.2zm4.2-2.1v-.2c0-1.4-.6-2.3-1.8-2.3-1.4 0-2.2 1.2-2.3 2.6l4.1-.1zM813.8 44.1L810.4 32h4.1l1.6 8 2.1-8h4.2l2.1 7.9 1.4-7.9h4.2l-3.4 12.1h-4.1l-2.3-8-2.3 8h-4.2zM839.3 44.1v-7.2c0-1.5-.6-1.9-1.7-1.9-.9 0-1.7.4-2.2.9v8.2h-4V26.9l4-.5v7.3c1.1-1.2 2.5-2.1 4.1-2.1 2.4 0 3.8 1.6 3.8 4.2v8.3h-4zM852.6 42.6c-.9 1-1.8 1.8-3.5 1.8-2.1 0-3.7-1.5-3.7-3.4 0-2.3 1.7-4.1 7.2-4.3v-.2c0-1.3-.7-1.8-2.1-1.8-1.2 0-2.7.5-4.1 1.2l-.8-2.9c1.3-.7 3.3-1.4 5.6-1.4 4.2 0 5.6 1.9 5.5 5.3v3.6c0 .8.2.9 1 1l-.4 2.9c-2.8.3-4.1-.4-4.7-1.8zm0-3.9c-2.5.3-3.4.8-3.4 1.8 0 .8.6 1.3 1.5 1.3.8 0 1.5-.3 1.9-.8v-2.3zM864.2 44.5c-3 0-4.6-1.2-4.4-4.4l.2-4.6-1.8-.3.1-2.5 1.7-.7.1-2.8h3.9v2.9h3l-.1 3.1h-3.2l-.1 4.3c-.1 1.1.6 1.6 1.6 1.6.5 0 1-.1 1.6-.3l.5 3.1c-1.1.4-1.8.6-3.1.6zM875.4 44.1V27.8h4.1v16.3h-4.1zM897.8 44.1V37c0-1.5-.6-2-1.6-2-.8 0-1.5.4-2 .8V44.1h-4V37c0-1.5-.7-2-1.7-2-.8 0-1.5.3-1.9.7V44h-4V32.2l4-.5v1.7c1.1-1.1 2.3-1.8 3.8-1.8s2.8.8 3.4 2.2c1.1-1.3 2.5-2.2 4.2-2.2 2.3 0 3.8 1.6 3.8 4.2v8.3h-4zM912 31.6c3 0 5.2 2.4 5.2 6.3 0 4-2.8 6.6-6.1 6.6-.8 0-1.7-.2-2.5-.4v5.4h-4V32.2l4-.5v1.5c.7-.7 1.8-1.6 3.4-1.6zm-3.4 9.4c.5.3 1.1.5 1.8.5 1.7 0 2.7-1.4 2.7-3.4 0-2.1-.9-3.3-2.5-3.3-.9 0-1.5.3-2 .8V41zM923.3 44.1h-4V32.2l4-.5v1.8c.7-1.2 1.6-1.9 2.9-1.9.7 0 1.4.2 2 .5l-.8 3.5c-.5-.2-1-.4-1.5-.4-1 0-1.9.5-2.6 1.8v7.1zM935.2 44.5c-3.6 0-6.4-2.3-6.4-6.4s2.9-6.5 6.6-6.5c3.6 0 6.4 2.3 6.4 6.4-.1 4.1-3 6.5-6.6 6.5zm0-9.9c-1.6 0-2.5 1.3-2.5 3.4 0 2.1.9 3.4 2.5 3.4s2.5-1.3 2.5-3.4c.1-2-.8-3.4-2.5-3.4zM951 44.1h-4.5L942 32h4.3l2.5 8.3 2.5-8.3h4.3L951 44.1zM959.7 39c.1 1.6 1.2 2.5 3.2 2.5 1.3 0 2.7-.5 4-1.2l.4 3.1c-1.2.6-3 1-4.7 1-4.1 0-6.8-2.3-6.8-6.3s2.7-6.5 6.6-6.5c3.4 0 5.3 2.1 5.3 5.1 0 .6-.1 1.6-.3 2.1l-7.7.2zm4.3-2.1v-.2c0-1.4-.6-2.3-1.8-2.3-1.4 0-2.2 1.2-2.3 2.6l4.1-.1zM977.8 26.9l4-.5v17.7h-4v-1.2c-.8.8-1.9 1.6-3.4 1.6-3 0-5.2-2.4-5.2-6.3 0-4 2.8-6.6 6.1-6.6.9 0 1.7.2 2.5.4v-5.1zm-1.8 7.7c-1.7 0-2.7 1.4-2.7 3.4 0 2.1 1 3.3 2.5 3.3.9 0 1.5-.3 2-.8v-5.3c-.4-.4-1.1-.6-1.8-.6zM999.1 31.3v12.8H995V31.3h-5.2v-3.5h14.5v3.5h-5.2zM1012.2 44.1h-5.8V27.8h6.1c5.7 0 9 3.2 9 8-.1 5-3.4 8.3-9.3 8.3zm0-13h-1.7v9.6h1.9c3 0 4.9-1.5 4.9-4.8-.1-3.3-1.7-4.8-5.1-4.8zM842.2 69.2c0-6.4 4-11 7.7-13l2.1 2.7c-3.1 1.9-6 5.5-6 10.3s2.9 8.4 6 10.3l-2.1 2.7c-3.6-2-7.7-6.6-7.7-13z"/><path class="st19" d="M859.5 75.3v-7.2c0-1.5-.7-1.9-1.7-1.9-.9 0-1.7.4-2.2.9v8.2h-4V63.4l4-.5v2c1.1-1.2 2.5-2.1 4.1-2.1 2.4 0 3.8 1.6 3.8 4.2v8.3h-4zM866.1 67.8l-.1-3h11l-.1 3h-10.8zm-.1 5.7l.1-3h10.8l.1 3h-11zM882.1 66.5l-3 .7-.1-3.3 7.1-1.5v12.9h-4v-8.8zM899.4 57.9l1 3.2c-3.5.6-6.4 2.3-7.2 4.8l.1.1c.9-.9 2.2-1.6 4.1-1.6 2.8 0 4.9 1.9 4.9 5.1 0 3.5-2.3 6.1-6.5 6.1s-6.6-3.1-6.6-7.5c0-4.9 3.7-9.3 10.2-10.2zm-3.6 14.8c1.4 0 2.3-1.1 2.3-2.8 0-1.5-.9-2.5-2.3-2.5-1 0-1.9.4-2.4.9-.1.3-.1.8-.1 1.2 0 1.7.9 3.2 2.5 3.2zM916.2 70.7c0 2.8-2 4.9-6.2 4.9-3.6 0-6.1-1.7-6.1-4.5 0-1.8 1.3-3.1 3.3-3.6-1.7-.7-3-1.9-3-3.9 0-2.9 2-4.9 6-4.9 3.5 0 5.7 1.7 5.7 4.5 0 1.7-1.1 3-3 3.6 1.8.7 3.3 1.9 3.3 3.9zm-8.6.1c0 1.2 1 2.1 2.5 2.1s2.3-.7 2.3-1.9-1.2-1.9-3.1-2.5c-1.1.5-1.7 1.5-1.7 2.3zm4.7-7.1c0-1.4-.9-2.1-2.2-2.1-1.4 0-2.2.9-2.2 2s1 1.8 2.8 2.4c1-.7 1.6-1.6 1.6-2.3zM916.2 79.4c3.1-1.9 6-5.5 6-10.3s-2.9-8.4-6-10.3l2.1-2.7c3.7 2 7.7 6.6 7.7 13s-4 11.1-7.7 13l-2.1-2.7z"/></g><g><path class="st28" d="M496 129.2c0 2.3-1.8 4.2-5 4.2-3.4 0-5-1.9-5-4.1 0-1.9 1.6-3.4 2.9-3.7-1.4-.7-2.6-1.7-2.6-3.4 0-2.4 1.8-4.2 4.9-4.2 3.2 0 4.6 2 4.6 4.1 0 1.8-1.3 3.1-2.5 3.6 1.5.7 2.7 1.7 2.7 3.5zm-8-.1c0 1.5 1.3 2.5 3.1 2.5 1.9 0 2.9-.8 2.9-2.3 0-1.6-1.8-2.3-3.7-3.1-1.4.6-2.3 1.6-2.3 2.9zm5.8-6.9c0-1.6-1.2-2.5-2.7-2.5-1.8 0-2.9 1-2.9 2.3 0 1.5 1.7 2.2 3.6 3 1.2-.6 2-1.5 2-2.8zM501.6 125.4c-2.4 0-4-1.8-4-4s1.5-4 4-4 4 1.8 4 4-1.5 4-4 4zm0-6.7c-1.7 0-2.7 1.2-2.7 2.8 0 1.4 1 2.7 2.7 2.7s2.7-1.3 2.7-2.7c0-1.6-1-2.8-2.7-2.8zm-.7 14.7h-1.5l12-15.7h1.5l-12 15.7zm9.8.3c-2.5 0-4-1.8-4-4 0-2.1 1.5-4 4-4 2.4 0 4 1.8 4 4 0 2.1-1.5 4-4 4zm0-6.8c-1.7 0-2.7 1.3-2.7 2.7 0 1.5 1 2.8 2.7 2.8s2.7-1.2 2.7-2.8c0-1.4-1-2.7-2.7-2.7z"/></g><g><path class="st28" d="M370.4 198.6v-1.7c3.4-2.5 6.4-4.4 6.4-6.2 0-1.1-.8-1.9-2.3-1.9-1.2 0-2.3.5-3.4 1.4l-.7-1.7c1.1-.9 2.5-1.5 4.3-1.5 2.4 0 4.2 1.4 4.2 3.5 0 2.6-2.4 4.1-5.5 6.3h6v1.9h-9v-.1zM381.4 198.6v-1.7c3.4-2.5 6.4-4.4 6.4-6.2 0-1.1-.8-1.9-2.3-1.9-1.2 0-2.3.5-3.4 1.4l-.7-1.7c1.1-.9 2.5-1.5 4.3-1.5 2.4 0 4.2 1.4 4.2 3.5 0 2.6-2.4 4.1-5.5 6.3h6v1.9h-9v-.1zM395.4 191c-2.4 0-4-1.8-4-4s1.5-4 4-4 4 1.8 4 4-1.5 4-4 4zm0-6.7c-1.7 0-2.7 1.2-2.7 2.8 0 1.4 1 2.7 2.7 2.7s2.7-1.3 2.7-2.7c0-1.6-1-2.8-2.7-2.8zm-.6 14.7h-1.5l12-15.7h1.5l-12 15.7zm9.8.2c-2.5 0-4-1.8-4-4 0-2.1 1.5-4 4-4 2.4 0 4 1.8 4 4-.1 2.2-1.6 4-4 4zm0-6.7c-1.7 0-2.7 1.3-2.7 2.7 0 1.5 1 2.8 2.7 2.8s2.7-1.2 2.7-2.8c-.1-1.4-1.1-2.7-2.7-2.7z"/></g><g><path class="st28" d="M429.2 392.6c0 3-2.4 4.8-5.5 4.8-1.5 0-3.1-.3-4.1-.9l.4-1.8c.9.6 2.2 1 3.7 1 2 0 3.4-1 3.4-2.8 0-1.7-1.4-2.4-3.3-2.5-.7 0-1.4 0-2.2.2v-1.7c2.5-.6 4.8-1.6 4.8-3.4 0-1.4-1-2.2-2.7-2.2-1.2 0-2.3.6-3.5 1.4l-.7-1.7c1.1-.9 2.6-1.6 4.4-1.6 2.9 0 4.7 1.6 4.7 3.8 0 1.8-1.4 3.2-3 3.8 2.5.2 3.6 1.9 3.6 3.6zM436.7 393.2c-3.4 0-5.8-2.4-5.8-6s2.4-6 5.8-6 5.8 2.4 5.8 6-2.4 6-5.8 6zm0-10.2c-2.3 0-3.8 1.8-3.8 4.2 0 2.4 1.5 4.2 3.8 4.2s3.8-1.8 3.8-4.2c.1-2.4-1.5-4.2-3.8-4.2zM447.5 385.2c-2.4 0-4-1.8-4-4s1.5-4 4-4 4 1.8 4 4-1.5 4-4 4zm0-6.7c-1.7 0-2.7 1.2-2.7 2.8 0 1.4 1 2.7 2.7 2.7s2.7-1.3 2.7-2.7c0-1.6-1-2.8-2.7-2.8zm-.6 14.7h-1.5l12-15.7h1.5l-12 15.7zm9.8.3c-2.5 0-4-1.8-4-4 0-2.1 1.5-4 4-4 2.4 0 4 1.8 4 4-.1 2.1-1.6 4-4 4zm0-6.8c-1.7 0-2.7 1.3-2.7 2.7 0 1.5 1 2.8 2.7 2.8s2.7-1.2 2.7-2.8c-.1-1.4-1.1-2.7-2.7-2.7z"/></g><g><path class="st28" d="M643.9 192.4v4.7H642v-4.7h-7.4l-.2-1.2 7.8-10.3h1.8v9.6h2.3l.1 1.9h-2.5zM642 184l-4.8 6.5h4.8V184zM653.3 193c-3.4 0-5.8-2.4-5.8-6s2.4-6 5.8-6 5.8 2.4 5.8 6c0 3.5-2.4 6-5.8 6zm0-10.2c-2.3 0-3.8 1.8-3.8 4.2s1.5 4.2 3.8 4.2 3.8-1.8 3.8-4.2c.1-2.5-1.5-4.2-3.8-4.2zM664.1 185c-2.4 0-4-1.8-4-4s1.5-4 4-4 4 1.8 4 4-1.5 4-4 4zm0-6.7c-1.7 0-2.7 1.2-2.7 2.8 0 1.4 1 2.7 2.7 2.7s2.7-1.3 2.7-2.7c0-1.6-1-2.8-2.7-2.8zm-.6 14.7H662l12-15.7h1.5l-12 15.7zm9.8.2c-2.5 0-4-1.8-4-4 0-2.1 1.5-4 4-4 2.4 0 4 1.8 4 4-.1 2.2-1.6 4-4 4zm0-6.7c-1.7 0-2.7 1.3-2.7 2.7 0 1.5 1 2.8 2.7 2.8s2.7-1.2 2.7-2.8c-.1-1.5-1.1-2.7-2.7-2.7z"/></g><g><path class="st28" d="M95.8 526.3c0-1.7-1.2-2.3-3.9-3-2.3-.6-4.9-1.6-4.9-4.8 0-2.7 2.2-4.6 5.4-4.6 1.9 0 3.6.5 5.1 1.4l-.8 1.9c-1.2-.8-2.9-1.4-4.3-1.4-2.3 0-3.3 1.1-3.3 2.4 0 1.6 1.4 2.2 4 2.9 2.4.6 4.8 1.8 4.8 4.8 0 2.8-2.3 4.9-5.7 4.9-1.9 0-3.9-.5-5.4-1.5l.7-2c1.4.9 2.9 1.6 4.8 1.6 2 .1 3.5-1 3.5-2.6zM101.7 516.1c-1 0-1.4-.7-1.4-1.5s.4-1.5 1.4-1.5 1.4.7 1.4 1.5c0 .7-.4 1.5-1.4 1.5zm-1.1 14.5v-12l2.1-.3v12.3h-2.1zM105.6 528.8c0-1 .8-1.9 2-2.3-1.2-.7-2-2-2-3.7 0-2.3 1.7-4.5 4.8-4.5 1.3 0 2.3.3 3.1.7l3.1-.3.1 2.1-2.3-.4c.5.4.8 1.6.8 2.4 0 2.4-2 4.4-4.8 4.4-.6 0-1-.1-1.7-.3-.5.2-1.2.7-1.2 1.2 0 .7.5 1.1 2.7 1.1h1.1c3.6 0 5.2 1.1 5.2 3.2 0 2.6-2.8 4.6-6.4 4.6-3.1 0-5.5-1.4-5.5-3.5 0-1.4.9-2.5 2.5-2.8-1-.4-1.5-1.1-1.5-1.9zm1.1 4.3c0 1.3 1.5 2.2 3.8 2.2 2.2 0 4-1 4-2.4 0-1.3-1.2-1.6-3.6-1.6-.8 0-1.6-.1-2.2-.1-1.2.3-2 1-2 1.9zm3.8-7.6c1.6 0 2.5-1.1 2.5-2.8 0-1.6-.9-2.7-2.7-2.7-1.6 0-2.6 1.1-2.6 2.8 0 1.6 1.1 2.7 2.8 2.7zM126.3 530.6v-7.5c0-2.1-.8-2.8-2.5-2.8-1.2 0-2.4.6-3.1 1.3v8.9h-2.1v-12l2.1-.3v1.8c1.1-1.1 2.5-1.8 3.9-1.8 2.4 0 3.8 1.5 3.8 4.1v8.2l-2.1.1zM132.8 516.1c-1 0-1.4-.7-1.4-1.5s.4-1.5 1.4-1.5 1.4.7 1.4 1.5c0 .7-.4 1.5-1.4 1.5zm-1.1 14.5v-12l2.1-.3v12.3h-2.1zM143.7 515c-.5-.2-1.3-.5-1.9-.5-1.2 0-1.8.7-1.8 2.5v1.7h3.8l-.1 1.9H140v10h-2.1v-10l-2.1-.2.1-1.4 2-.6v-1.5c.1-3.3 1.6-4.5 3.9-4.5.9 0 1.8.3 2.4.6.1.1-.5 2.1-.5 2zm3.1 1.1c-1 0-1.4-.7-1.4-1.5s.4-1.5 1.4-1.5 1.4.7 1.4 1.5c0 .7-.4 1.5-1.4 1.5zm-1.1 14.5v-12l2.1-.3v12.3h-2.1zM156.4 531c-3.8 0-5.8-2.6-5.8-6.3 0-3.8 2.5-6.3 6-6.3 1.5 0 2.8.3 3.8 1l-.5 2c-1-.7-2.1-1-3.3-1-2.4 0-3.8 1.7-3.8 4.3 0 2.8 1.5 4.4 3.7 4.4 1.2 0 2.5-.3 3.4-1l.4 2c-1.1.6-2.4.9-3.9.9zM169.2 529.3c-.9 1.1-2 1.7-3.3 1.7-2.2 0-3.8-1.5-3.8-3.4 0-2.1 1.5-4 7.1-4.3v-.3c0-1.9-.8-2.7-2.7-2.7-1.2 0-2.7.6-3.8 1.3l-.4-1.9c1-.7 2.8-1.4 4.5-1.4 3.2 0 4.7 1.4 4.6 4.6v5c0 1 .1 1.2 1.2 1.2l-.1 1.8c-1.9.2-2.8-.5-3.1-1.6h-.2zm0-4.6c-3.5.5-4.8 1.2-4.8 2.7 0 1.1.8 1.8 2.1 1.8 1.1 0 2.1-.5 2.7-1.3v-3.2zM182.5 530.6v-7.5c0-2.1-.8-2.8-2.5-2.8-1.2 0-2.4.6-3.1 1.3v8.9h-2.1v-12l2.1-.3v1.8c1.1-1.1 2.5-1.8 3.9-1.8 2.4 0 3.8 1.5 3.8 4.1v8.2l-2.1.1zM191.7 531c-2.3 0-3.5-1.1-3.5-3.7l.2-6.7-2-.1.1-1.4 2-.6.1-2.6h2.1l-.1 2.7h3.7l-.1 1.9h-3.7l-.2 6.7c0 1.1.5 1.7 1.6 1.7.7 0 1.5-.2 2.2-.4l.4 1.9c-1.1.4-2 .6-2.8.6zM196.5 530.6v-17.5l2.1-.3v17.9h-2.1v-.1zM207.2 530.7l-.8 2.1c-1.1 3-2.3 3.9-4.2 3.9-.9 0-1.7-.3-2.5-.6l.6-2c.6.3 1.3.6 1.9.6.9 0 1.5-.5 2.3-2.6l.7-1.8-4.6-11.6h2.3l3.5 9.3 3.4-9.3h2.3l-4.9 12zM114.2 556.6v-16.3h2.2v16.3h-2.2zM134.9 556.6v-7.4c0-2.1-.8-2.8-2.3-2.8-1.3 0-2.3.7-3 1.4V556.7h-2.1v-7.4c0-2.1-.8-2.8-2.3-2.8-1.3 0-2.3.6-3 1.2v9h-2.1v-12l2.1-.3v1.6c1.1-1.1 2.4-1.6 3.8-1.6s2.5.7 3.1 2c1.3-1.3 2.7-2 4.3-2 2.2 0 3.6 1.5 3.6 4.2v8.1h-2.1v-.1zM145.9 544.3c3.4 0 5.3 2.7 5.3 6.3s-2.5 6.4-6.1 6.4c-.7 0-1.8-.1-2.6-.3v6h-2.1v-18l2.1-.3v1.5c.9-.9 1.9-1.6 3.4-1.6zm-3.4 9.9c.7.6 1.6.9 2.7.9 2.4 0 3.8-2 3.8-4.4 0-2.6-1.3-4.4-3.5-4.4-1.1 0-2.1.4-2.9 1.1-.1-.1-.1 6.8-.1 6.8zM156 556.6h-2.1v-12l2.1-.3v2.1c.8-1.3 1.8-2.1 3.3-2.1.8 0 1.6.2 2.2.6l-.5 2c-.6-.4-1.3-.5-1.9-.5-1.1 0-2.2.8-3.1 2.5v7.7zM168.3 557c-3.4 0-5.7-2.5-5.7-6.3s2.4-6.4 5.9-6.4c3.4 0 5.7 2.5 5.7 6.4 0 3.8-2.5 6.3-5.9 6.3zm0-10.8c-2.4 0-3.7 1.8-3.7 4.4 0 2.5 1.4 4.4 3.7 4.4 2.4 0 3.7-1.8 3.7-4.4.1-2.5-1.3-4.4-3.7-4.4zM181.6 556.6h-2l-4.7-11.9h2.3l3.5 9.3 3.3-9.3h2.3l-4.7 11.9zM189.1 551c.1 2.3 1.6 4 3.9 4 1.2 0 2.6-.3 3.6-1l.4 2c-1.1.6-2.5 1-4 1-3.6 0-6-2.6-6-6.2 0-3.8 2.5-6.5 5.9-6.5 2.9 0 4.5 1.8 4.5 4.7 0 .7-.1 1.4-.3 1.9l-8 .1zm6.3-1.7v-.2c0-1.8-.8-2.9-2.7-2.9-2 0-3.2 1.6-3.4 3.2l6.1-.1zM208 539.1l2.1-.3v17.9H208v-1.1c-.9.8-1.9 1.5-3.3 1.5-3.4 0-5.3-2.7-5.3-6.3s2.5-6.4 6.1-6.4c.9 0 1.8.2 2.6.4v-5.7h-.1zm-2.7 7.1c-2.4 0-3.8 2-3.8 4.4 0 2.6 1.3 4.4 3.5 4.4 1.1 0 2.1-.4 2.9-1.1v-6.8c-.6-.6-1.5-.9-2.6-.9z"/></g><g><path class="st28" d="M111 590.7c0-1.7-1.2-2.3-3.9-3-2.3-.6-4.9-1.6-4.9-4.8 0-2.7 2.2-4.6 5.4-4.6 1.9 0 3.6.5 5.1 1.4l-.8 1.9c-1.2-.8-2.9-1.4-4.3-1.4-2.3 0-3.3 1.1-3.3 2.4 0 1.6 1.4 2.2 4 2.9 2.4.6 4.8 1.8 4.8 4.8 0 2.8-2.3 4.9-5.7 4.9-1.9 0-3.9-.5-5.4-1.5l.7-2c1.4.9 2.9 1.6 4.8 1.6 2.1.1 3.5-1 3.5-2.6zM121 595.4c-3.4 0-5.7-2.5-5.7-6.3s2.4-6.4 5.9-6.4c3.4 0 5.7 2.5 5.7 6.4 0 3.8-2.5 6.3-5.9 6.3zm.1-10.8c-2.4 0-3.7 1.8-3.7 4.4 0 2.5 1.4 4.4 3.7 4.4 2.4 0 3.7-1.8 3.7-4.4 0-2.5-1.4-4.4-3.7-4.4zM144.4 595v-7.4c0-2.1-.8-2.8-2.3-2.8-1.3 0-2.3.7-3 1.4V595.1H137v-7.4c0-2.1-.8-2.8-2.3-2.8-1.3 0-2.3.6-3 1.2v9h-2.1v-12l2.1-.3v1.6c1.1-1.1 2.4-1.6 3.8-1.6s2.5.7 3.1 2c1.3-1.3 2.7-2 4.3-2 2.2 0 3.6 1.5 3.6 4.2v8.1h-2.1v-.1zM151.4 589.4c.1 2.3 1.6 4 3.9 4 1.2 0 2.6-.3 3.6-1l.4 2c-1.1.6-2.5 1-4 1-3.6 0-6-2.6-6-6.2 0-3.8 2.5-6.5 5.9-6.5 2.9 0 4.5 1.8 4.5 4.7 0 .7-.1 1.4-.3 1.9l-8 .1zm6.2-1.7v-.2c0-1.8-.8-2.9-2.7-2.9-2 0-3.2 1.6-3.4 3.2l6.1-.1zM164.5 595l-3.7-12h2.3l2.5 8.8 2.8-8.8h1.9l3 8.8 2.2-8.9h2.4l-3.6 12h-2l-3-8.9-2.9 8.9h-1.9v.1zM187.7 595v-7.5c0-2.1-.8-2.8-2.3-2.8-1.4 0-2.6.6-3.2 1.3v8.9H180v-17.5l2.1-.3v7.3c1.1-1.1 2.5-1.7 4-1.7 2.3 0 3.7 1.5 3.7 4.1v8.2h-2.1zM199.5 593.7c-.9 1.1-2 1.7-3.3 1.7-2.2 0-3.8-1.5-3.8-3.4 0-2.1 1.5-4 7.1-4.3v-.3c0-1.9-.8-2.7-2.7-2.7-1.2 0-2.7.6-3.8 1.3l-.4-1.9c1-.7 2.8-1.4 4.5-1.4 3.2 0 4.7 1.4 4.6 4.6v5c0 1 .1 1.2 1.2 1.2l-.1 1.8c-1.9.2-2.8-.5-3.1-1.6h-.2zm0-4.6c-3.5.5-4.8 1.2-4.8 2.7 0 1.1.8 1.8 2.1 1.8 1.1 0 2.1-.5 2.7-1.3v-3.2zM208.6 595.4c-2.3 0-3.5-1.1-3.5-3.7l.2-6.7-2-.1.1-1.4 2-.6.1-2.6h2.1l-.1 2.7h3.7l-.1 1.9h-3.7l-.2 6.7c0 1.1.5 1.7 1.6 1.7.7 0 1.5-.2 2.2-.4l.4 1.9c-1 .4-1.9.6-2.8.6zM114.2 621v-16.3h2.2V621h-2.2zM134.9 621v-7.4c0-2.1-.8-2.8-2.3-2.8-1.3 0-2.3.7-3 1.4V621.1h-2.1v-7.4c0-2.1-.8-2.8-2.3-2.8-1.3 0-2.3.6-3 1.2v9h-2.1v-12l2.1-.3v1.6c1.1-1.1 2.4-1.6 3.8-1.6s2.5.7 3.1 2c1.3-1.3 2.7-2 4.3-2 2.2 0 3.6 1.5 3.6 4.2v8.1h-2.1v-.1zM145.9 608.7c3.4 0 5.3 2.7 5.3 6.3s-2.5 6.4-6.1 6.4c-.7 0-1.8-.1-2.6-.3v6h-2.1v-18l2.1-.3v1.5c.9-.9 1.9-1.6 3.4-1.6zm-3.4 9.9c.7.6 1.6.9 2.7.9 2.4 0 3.8-2 3.8-4.4 0-2.6-1.3-4.4-3.5-4.4-1.1 0-2.1.4-2.9 1.1-.1-.1-.1 6.8-.1 6.8zM156 621h-2.1v-12l2.1-.3v2.1c.8-1.3 1.8-2.1 3.3-2.1.8 0 1.6.2 2.2.6l-.5 2c-.6-.4-1.3-.5-1.9-.5-1.1 0-2.2.8-3.1 2.5v7.7zM168.3 621.4c-3.4 0-5.7-2.5-5.7-6.3s2.4-6.4 5.9-6.4c3.4 0 5.7 2.5 5.7 6.4 0 3.8-2.5 6.3-5.9 6.3zm0-10.8c-2.4 0-3.7 1.8-3.7 4.4 0 2.5 1.4 4.4 3.7 4.4 2.4 0 3.7-1.8 3.7-4.4.1-2.5-1.3-4.4-3.7-4.4zM181.6 621h-2l-4.7-11.9h2.3l3.5 9.3 3.3-9.3h2.3l-4.7 11.9zM189.1 615.4c.1 2.3 1.6 4 3.9 4 1.2 0 2.6-.3 3.6-1l.4 2c-1.1.6-2.5 1-4 1-3.6 0-6-2.6-6-6.2 0-3.8 2.5-6.5 5.9-6.5 2.9 0 4.5 1.8 4.5 4.7 0 .7-.1 1.4-.3 1.9l-8 .1zm6.3-1.7v-.2c0-1.8-.8-2.9-2.7-2.9-2 0-3.2 1.6-3.4 3.2l6.1-.1zM208 603.5l2.1-.3V621H208v-1.1c-.9.8-1.9 1.5-3.3 1.5-3.4 0-5.3-2.7-5.3-6.3s2.5-6.4 6.1-6.4c.9 0 1.8.2 2.6.4v-5.6h-.1zm-2.7 7.1c-2.4 0-3.8 2-3.8 4.4 0 2.6 1.3 4.4 3.5 4.4 1.1 0 2.1-.4 2.9-1.1v-6.8c-.6-.6-1.5-.9-2.6-.9z"/></g><g><path class="st28" d="M168.6 642.7h2.2v16.4h-2.4l-8.7-13.3v13.1h-2.2v-16.3h2.4l8.7 13.1v-13zM179.6 659.3c-3.4 0-5.7-2.5-5.7-6.3s2.4-6.4 5.9-6.4c3.4 0 5.7 2.5 5.7 6.4-.1 3.8-2.6 6.3-5.9 6.3zm0-10.8c-2.4 0-3.7 1.8-3.7 4.4 0 2.5 1.4 4.4 3.7 4.4 2.4 0 3.7-1.8 3.7-4.4 0-2.4-1.4-4.4-3.7-4.4zM195.8 658.9v-7.5c0-2.1-.8-2.8-2.5-2.8-1.2 0-2.4.6-3.1 1.3v8.9h-2.1v-12l2.1-.3v1.8c1.1-1.1 2.5-1.8 3.9-1.8 2.4 0 3.8 1.5 3.8 4.1v8.2l-2.1.1zM202.7 653.3c.1 2.3 1.6 4 3.9 4 1.2 0 2.6-.3 3.6-1l.4 2c-1.1.6-2.5 1-4 1-3.6 0-6-2.6-6-6.2 0-3.8 2.5-6.5 5.9-6.5 2.9 0 4.5 1.8 4.5 4.7 0 .7-.1 1.4-.3 1.9l-8 .1zm6.2-1.7v-.2c0-1.8-.8-2.9-2.7-2.9-2 0-3.2 1.6-3.4 3.2l6.1-.1z"/></g><g><path class="st28" d="M58.3 712.9h-4.8v-16.3h4.9c5.4 0 8.6 3.2 8.6 8 0 5.1-3.1 8.3-8.7 8.3zm0-14.2h-2.6v12.1h2.7c3.9 0 6.4-2.1 6.4-6 0-4-2.4-6.1-6.5-6.1zM75 713.3c-3.4 0-5.7-2.5-5.7-6.3s2.4-6.4 5.9-6.4c3.4 0 5.7 2.5 5.7 6.4-.1 3.8-2.6 6.3-5.9 6.3zm0-10.8c-2.4 0-3.7 1.8-3.7 4.4 0 2.5 1.4 4.4 3.7 4.4 2.4 0 3.7-1.8 3.7-4.4 0-2.5-1.3-4.4-3.7-4.4zM91.3 712.9v-7.5c0-2.1-.8-2.8-2.5-2.8-1.2 0-2.4.6-3.1 1.3v8.9h-2.1v-12l2.1-.3v1.8c1.1-1.1 2.5-1.8 3.9-1.8 2.4 0 3.8 1.5 3.8 4.1v8.2l-2.1.1zM97.9 695.6c1.1 0 2.2 1 2.2 2.4 0 2.2-1.9 3.8-3.8 5.1l-.9-.9c1.8-1.3 2.7-2.4 2.7-3.3 0-.6-.5-1.1-1.9-1.7 0-.9.6-1.6 1.7-1.6zM106 713.3c-2.3 0-3.5-1.1-3.5-3.7l.2-6.7-2-.1.1-1.4 2-.6.1-2.6h2.1l-.1 2.7h3.7l-.1 1.9h-3.7l-.2 6.7c0 1.1.5 1.7 1.6 1.7.7 0 1.5-.2 2.2-.4l.4 1.9c-1 .4-1.9.6-2.8.6zM119.6 704.4l6.9-7.7h2.8l-7.5 8 7.6 8.2h-2.8l-6.9-7.7v7.7h-2.2v-16.3h2.2c-.1.1-.1 7.8-.1 7.8zM139.2 712.9v-7.5c0-2.1-.8-2.8-2.5-2.8-1.2 0-2.4.6-3.1 1.3v8.9h-2.1v-12l2.1-.3v1.8c1.1-1.1 2.5-1.8 3.9-1.8 2.4 0 3.8 1.5 3.8 4.1v8.2l-2.1.1zM149.7 713.3c-3.4 0-5.7-2.5-5.7-6.3s2.4-6.4 5.9-6.4c3.4 0 5.7 2.5 5.7 6.4-.1 3.8-2.6 6.3-5.9 6.3zm0-10.8c-2.4 0-3.7 1.8-3.7 4.4 0 2.5 1.4 4.4 3.7 4.4 2.4 0 3.7-1.8 3.7-4.4 0-2.5-1.4-4.4-3.7-4.4zM160.2 713l-3.7-12h2.3l2.5 8.8 2.8-8.8h2l3 8.8 2.2-8.9h2.4l-3.6 12h-2l-3-8.9-2.9 8.9h-2v.1zM174 718.1h-1.6l6.3-23.4h1.6l-6.3 23.4zM192.8 696.7h2.2v16.4h-2.4l-8.7-13.3v13.1h-2.2v-16.3h2.4l8.7 13.1v-13zM211.8 712.9h-2.3l-1.5-4.3h-7l-1.5 4.3h-2.3l6.1-16.3h2.5l6 16.3zm-7.3-13.9l-2.8 7.7h5.6l-2.8-7.7z"/></g><path class="st18" d="M230 524.4h24v24h-24z"/><path fill="#726d7f" d="M230 581.4h24v24h-24z"/><path fill="#aaa7b2" d="M230 638.4h24v24h-24z"/><path fill="#e5e4e7" d="M230 691.3h24v24h-24z"/><g><path class="st28" d="M456.5 526.3c0-1.7-1.2-2.3-3.9-3-2.3-.6-4.9-1.6-4.9-4.8 0-2.7 2.2-4.6 5.4-4.6 1.9 0 3.6.5 5.1 1.4l-.8 1.9c-1.2-.8-2.9-1.4-4.3-1.4-2.3 0-3.3 1.1-3.3 2.4 0 1.6 1.4 2.2 4 2.9 2.4.6 4.8 1.8 4.8 4.8 0 2.8-2.3 4.9-5.7 4.9-1.9 0-3.9-.5-5.4-1.5l.7-2c1.4.9 2.9 1.6 4.8 1.6 2 .1 3.5-1 3.5-2.6zM462.4 516.1c-1 0-1.4-.7-1.4-1.5s.4-1.5 1.4-1.5 1.4.7 1.4 1.5c0 .7-.4 1.5-1.4 1.5zm-1.1 14.5v-12l2.1-.3v12.3h-2.1zM466.3 528.8c0-1 .8-1.9 2-2.3-1.2-.7-2-2-2-3.7 0-2.3 1.7-4.5 4.8-4.5 1.3 0 2.3.3 3.1.7l3.1-.3.1 2.1-2.3-.4c.5.4.8 1.6.8 2.4 0 2.4-2 4.4-4.8 4.4-.6 0-1-.1-1.7-.3-.5.2-1.2.7-1.2 1.2 0 .7.5 1.1 2.7 1.1h1.1c3.6 0 5.2 1.1 5.2 3.2 0 2.6-2.8 4.6-6.4 4.6-3.1 0-5.5-1.4-5.5-3.5 0-1.4.9-2.5 2.5-2.8-1-.4-1.5-1.1-1.5-1.9zm1.1 4.3c0 1.3 1.5 2.2 3.8 2.2 2.2 0 4-1 4-2.4 0-1.3-1.2-1.6-3.6-1.6-.8 0-1.6-.1-2.2-.1-1.2.3-2 1-2 1.9zm3.8-7.6c1.6 0 2.5-1.1 2.5-2.8 0-1.6-.9-2.7-2.7-2.7-1.6 0-2.6 1.1-2.6 2.8 0 1.6 1.1 2.7 2.8 2.7zM487 530.6v-7.5c0-2.1-.8-2.8-2.5-2.8-1.2 0-2.4.6-3.1 1.3v8.9h-2.1v-12l2.1-.3v1.8c1.1-1.1 2.5-1.8 3.9-1.8 2.4 0 3.8 1.5 3.8 4.1v8.2l-2.1.1zM493.5 516.1c-1 0-1.4-.7-1.4-1.5s.4-1.5 1.4-1.5 1.4.7 1.4 1.5c0 .7-.4 1.5-1.4 1.5zm-1.1 14.5v-12l2.1-.3v12.3h-2.1zM504.5 515c-.5-.2-1.3-.5-1.9-.5-1.2 0-1.8.7-1.8 2.5v1.7h3.8l-.1 1.9h-3.7v10h-2.1v-10l-2.1-.2.1-1.4 2-.6v-1.5c.1-3.3 1.6-4.5 3.9-4.5.9 0 1.8.3 2.4.6 0 .1-.5 2.1-.5 2zm3 1.1c-1 0-1.4-.7-1.4-1.5s.4-1.5 1.4-1.5 1.4.7 1.4 1.5c0 .7-.4 1.5-1.4 1.5zm-1.1 14.5v-12l2.1-.3v12.3h-2.1zM517.1 531c-3.8 0-5.8-2.6-5.8-6.3 0-3.8 2.5-6.3 6-6.3 1.5 0 2.8.3 3.8 1l-.5 2c-1-.7-2.1-1-3.3-1-2.4 0-3.8 1.7-3.8 4.3 0 2.8 1.5 4.4 3.7 4.4 1.2 0 2.5-.3 3.4-1l.4 2c-1.1.6-2.4.9-3.9.9zM529.9 529.3c-.9 1.1-2 1.7-3.3 1.7-2.2 0-3.8-1.5-3.8-3.4 0-2.1 1.5-4 7.1-4.3v-.3c0-1.9-.8-2.7-2.7-2.7-1.2 0-2.7.6-3.8 1.3l-.4-1.9c1-.7 2.8-1.4 4.5-1.4 3.2 0 4.7 1.4 4.6 4.6v5c0 1 .1 1.2 1.2 1.2l-.1 1.8c-1.9.2-2.8-.5-3.1-1.6h-.2zm0-4.6c-3.5.5-4.8 1.2-4.8 2.7 0 1.1.8 1.8 2.1 1.8 1.1 0 2.1-.5 2.7-1.3v-3.2zM543.2 530.6v-7.5c0-2.1-.8-2.8-2.5-2.8-1.2 0-2.4.6-3.1 1.3v8.9h-2.1v-12l2.1-.3v1.8c1.1-1.1 2.5-1.8 3.9-1.8 2.4 0 3.8 1.5 3.8 4.1v8.2l-2.1.1zM552.4 531c-2.3 0-3.5-1.1-3.5-3.7l.2-6.7-2-.1.1-1.4 2-.6.1-2.6h2.1l-.1 2.7h3.7l-.1 1.9h-3.7l-.2 6.7c0 1.1.5 1.7 1.6 1.7.7 0 1.5-.2 2.2-.4l.4 1.9c-1 .4-2 .6-2.8.6zM557.3 530.6v-17.5l2.1-.3v17.9h-2.1v-.1zM567.9 530.7l-.8 2.1c-1.1 3-2.3 3.9-4.2 3.9-.9 0-1.7-.3-2.5-.6l.6-2c.6.3 1.3.6 1.9.6.9 0 1.5-.5 2.3-2.6l.7-1.8-4.6-11.6h2.3l3.5 9.3 3.4-9.3h2.3l-4.9 12zM474.9 556.6v-16.3h2.2v16.3h-2.2zM495.6 556.6v-7.4c0-2.1-.8-2.8-2.3-2.8-1.3 0-2.3.7-3 1.4V556.7h-2.1v-7.4c0-2.1-.8-2.8-2.3-2.8-1.3 0-2.3.6-3 1.2v9h-2.1v-12l2.1-.3v1.6c1.1-1.1 2.4-1.6 3.8-1.6s2.5.7 3.1 2c1.3-1.3 2.7-2 4.3-2 2.2 0 3.6 1.5 3.6 4.2v8.1h-2.1v-.1zM506.6 544.3c3.4 0 5.3 2.7 5.3 6.3s-2.5 6.4-6.1 6.4c-.7 0-1.8-.1-2.6-.3v6h-2.1v-18l2.1-.3v1.5c.9-.9 2-1.6 3.4-1.6zm-3.4 9.9c.7.6 1.6.9 2.7.9 2.4 0 3.8-2 3.8-4.4 0-2.6-1.3-4.4-3.5-4.4-1.1 0-2.1.4-2.9 1.1-.1-.1-.1 6.8-.1 6.8zM516.7 556.6h-2.1v-12l2.1-.3v2.1c.8-1.3 1.8-2.1 3.3-2.1.8 0 1.6.2 2.2.6l-.5 2c-.6-.4-1.3-.5-1.9-.5-1.1 0-2.2.8-3.1 2.5v7.7zM529 557c-3.4 0-5.7-2.5-5.7-6.3s2.4-6.4 5.9-6.4c3.4 0 5.7 2.5 5.7 6.4 0 3.8-2.5 6.3-5.9 6.3zm0-10.8c-2.4 0-3.7 1.8-3.7 4.4 0 2.5 1.4 4.4 3.7 4.4 2.4 0 3.7-1.8 3.7-4.4.1-2.5-1.3-4.4-3.7-4.4zM542.3 556.6h-2l-4.7-11.9h2.3l3.5 9.3 3.3-9.3h2.3l-4.7 11.9zM549.8 551c.1 2.3 1.6 4 3.9 4 1.2 0 2.6-.3 3.6-1l.4 2c-1.1.6-2.5 1-4 1-3.6 0-6-2.6-6-6.2 0-3.8 2.5-6.5 5.9-6.5 2.9 0 4.5 1.8 4.5 4.7 0 .7-.1 1.4-.3 1.9l-8 .1zm6.3-1.7v-.2c0-1.8-.8-2.9-2.7-2.9-2 0-3.2 1.6-3.4 3.2l6.1-.1zM568.7 539.1l2.1-.3v17.9h-2.1v-1.1c-.9.8-1.9 1.5-3.3 1.5-3.4 0-5.3-2.7-5.3-6.3s2.5-6.4 6.1-6.4c.9 0 1.8.2 2.6.4l-.1-5.7zm-2.6 7.1c-2.4 0-3.8 2-3.8 4.4 0 2.6 1.3 4.4 3.5 4.4 1.1 0 2.1-.4 2.9-1.1v-6.8c-.7-.6-1.6-.9-2.6-.9z"/></g><g><path class="st28" d="M471.8 590.7c0-1.7-1.2-2.3-3.9-3-2.3-.6-4.9-1.6-4.9-4.8 0-2.7 2.2-4.6 5.4-4.6 1.9 0 3.6.5 5.1 1.4l-.8 1.9c-1.2-.8-2.9-1.4-4.3-1.4-2.3 0-3.3 1.1-3.3 2.4 0 1.6 1.4 2.2 4 2.9 2.4.6 4.8 1.8 4.8 4.8 0 2.8-2.3 4.9-5.7 4.9-1.9 0-3.9-.5-5.4-1.5l.7-2c1.4.9 2.9 1.6 4.8 1.6 2 .1 3.5-1 3.5-2.6zM481.7 595.4c-3.4 0-5.7-2.5-5.7-6.3s2.4-6.4 5.9-6.4c3.4 0 5.7 2.5 5.7 6.4 0 3.8-2.5 6.3-5.9 6.3zm.1-10.8c-2.4 0-3.7 1.8-3.7 4.4 0 2.5 1.4 4.4 3.7 4.4 2.4 0 3.7-1.8 3.7-4.4 0-2.5-1.4-4.4-3.7-4.4zM505.2 595v-7.4c0-2.1-.8-2.8-2.3-2.8-1.3 0-2.3.7-3 1.4V595.1h-2.1v-7.4c0-2.1-.8-2.8-2.3-2.8-1.3 0-2.3.6-3 1.2v9h-2.1v-12l2.1-.3v1.6c1.1-1.1 2.4-1.6 3.8-1.6s2.5.7 3.1 2c1.3-1.3 2.7-2 4.3-2 2.2 0 3.6 1.5 3.6 4.2v8.1h-2.1v-.1zM512.1 589.4c.1 2.3 1.6 4 3.9 4 1.2 0 2.6-.3 3.6-1l.4 2c-1.1.6-2.5 1-4 1-3.6 0-6-2.6-6-6.2 0-3.8 2.5-6.5 5.9-6.5 2.9 0 4.5 1.8 4.5 4.7 0 .7-.1 1.4-.3 1.9l-8 .1zm6.2-1.7v-.2c0-1.8-.8-2.9-2.7-2.9-2 0-3.2 1.6-3.4 3.2l6.1-.1zM525.2 595l-3.7-12h2.3l2.5 8.8 2.8-8.8h1.9l3 8.8 2.2-8.9h2.4l-3.6 12h-2l-3-8.9-2.9 8.9h-1.9v.1zM548.4 595v-7.5c0-2.1-.8-2.8-2.3-2.8-1.4 0-2.6.6-3.2 1.3v8.9h-2.1v-17.5l2.1-.3v7.3c1.1-1.1 2.5-1.7 4-1.7 2.3 0 3.7 1.5 3.7 4.1v8.2h-2.2zM560.2 593.7c-.9 1.1-2 1.7-3.3 1.7-2.2 0-3.8-1.5-3.8-3.4 0-2.1 1.5-4 7.1-4.3v-.3c0-1.9-.8-2.7-2.7-2.7-1.2 0-2.7.6-3.8 1.3l-.4-1.9c1-.7 2.8-1.4 4.5-1.4 3.2 0 4.7 1.4 4.6 4.6v5c0 1 .1 1.2 1.2 1.2l-.1 1.8c-1.9.2-2.8-.5-3.1-1.6h-.2zm0-4.6c-3.5.5-4.8 1.2-4.8 2.7 0 1.1.8 1.8 2.1 1.8 1.1 0 2.1-.5 2.7-1.3v-3.2zM569.3 595.4c-2.3 0-3.5-1.1-3.5-3.7l.2-6.7-2-.1.1-1.4 2-.6.1-2.6h2.1l-.1 2.7h3.7l-.1 1.9h-3.7l-.2 6.7c0 1.1.5 1.7 1.6 1.7.7 0 1.5-.2 2.2-.4l.4 1.9c-1 .4-1.9.6-2.8.6zM474.9 621v-16.3h2.2V621h-2.2zM495.6 621v-7.4c0-2.1-.8-2.8-2.3-2.8-1.3 0-2.3.7-3 1.4V621.1h-2.1v-7.4c0-2.1-.8-2.8-2.3-2.8-1.3 0-2.3.6-3 1.2v9h-2.1v-12l2.1-.3v1.6c1.1-1.1 2.4-1.6 3.8-1.6s2.5.7 3.1 2c1.3-1.3 2.7-2 4.3-2 2.2 0 3.6 1.5 3.6 4.2v8.1h-2.1v-.1zM506.6 608.7c3.4 0 5.3 2.7 5.3 6.3s-2.5 6.4-6.1 6.4c-.7 0-1.8-.1-2.6-.3v6h-2.1v-18l2.1-.3v1.5c.9-.9 2-1.6 3.4-1.6zm-3.4 9.9c.7.6 1.6.9 2.7.9 2.4 0 3.8-2 3.8-4.4 0-2.6-1.3-4.4-3.5-4.4-1.1 0-2.1.4-2.9 1.1-.1-.1-.1 6.8-.1 6.8zM516.7 621h-2.1v-12l2.1-.3v2.1c.8-1.3 1.8-2.1 3.3-2.1.8 0 1.6.2 2.2.6l-.5 2c-.6-.4-1.3-.5-1.9-.5-1.1 0-2.2.8-3.1 2.5v7.7zM529 621.4c-3.4 0-5.7-2.5-5.7-6.3s2.4-6.4 5.9-6.4c3.4 0 5.7 2.5 5.7 6.4 0 3.8-2.5 6.3-5.9 6.3zm0-10.8c-2.4 0-3.7 1.8-3.7 4.4 0 2.5 1.4 4.4 3.7 4.4 2.4 0 3.7-1.8 3.7-4.4.1-2.5-1.3-4.4-3.7-4.4zM542.3 621h-2l-4.7-11.9h2.3l3.5 9.3 3.3-9.3h2.3l-4.7 11.9zM549.8 615.4c.1 2.3 1.6 4 3.9 4 1.2 0 2.6-.3 3.6-1l.4 2c-1.1.6-2.5 1-4 1-3.6 0-6-2.6-6-6.2 0-3.8 2.5-6.5 5.9-6.5 2.9 0 4.5 1.8 4.5 4.7 0 .7-.1 1.4-.3 1.9l-8 .1zm6.3-1.7v-.2c0-1.8-.8-2.9-2.7-2.9-2 0-3.2 1.6-3.4 3.2l6.1-.1zM568.7 603.5l2.1-.3V621h-2.1v-1.1c-.9.8-1.9 1.5-3.3 1.5-3.4 0-5.3-2.7-5.3-6.3s2.5-6.4 6.1-6.4c.9 0 1.8.2 2.6.4l-.1-5.6zm-2.6 7.1c-2.4 0-3.8 2-3.8 4.4 0 2.6 1.3 4.4 3.5 4.4 1.1 0 2.1-.4 2.9-1.1v-6.8c-.7-.6-1.6-.9-2.6-.9z"/></g><g><path class="st28" d="M529.3 642.7h2.2v16.4h-2.4l-8.7-13.3v13.1h-2.2v-16.3h2.4l8.7 13.1v-13zM540.3 659.3c-3.4 0-5.7-2.5-5.7-6.3s2.4-6.4 5.9-6.4c3.4 0 5.7 2.5 5.7 6.4-.1 3.8-2.6 6.3-5.9 6.3zm0-10.8c-2.4 0-3.7 1.8-3.7 4.4 0 2.5 1.4 4.4 3.7 4.4 2.4 0 3.7-1.8 3.7-4.4 0-2.4-1.4-4.4-3.7-4.4zM556.5 658.9v-7.5c0-2.1-.8-2.8-2.5-2.8-1.2 0-2.4.6-3.1 1.3v8.9h-2.1v-12l2.1-.3v1.8c1.1-1.1 2.5-1.8 3.9-1.8 2.4 0 3.8 1.5 3.8 4.1v8.2l-2.1.1zM563.4 653.3c.1 2.3 1.6 4 3.9 4 1.2 0 2.6-.3 3.6-1l.4 2c-1.1.6-2.5 1-4 1-3.6 0-6-2.6-6-6.2 0-3.8 2.5-6.5 5.9-6.5 2.9 0 4.5 1.8 4.5 4.7 0 .7-.1 1.4-.3 1.9l-8 .1zm6.2-1.7v-.2c0-1.8-.8-2.9-2.7-2.9-2 0-3.2 1.6-3.4 3.2l6.1-.1z"/></g><g><path class="st28" d="M419 712.9h-4.8v-16.3h4.9c5.4 0 8.6 3.2 8.6 8 .1 5.1-3.1 8.3-8.7 8.3zm0-14.2h-2.6v12.1h2.7c3.9 0 6.4-2.1 6.4-6 0-4-2.4-6.1-6.5-6.1zM435.7 713.3c-3.4 0-5.7-2.5-5.7-6.3s2.4-6.4 5.9-6.4c3.4 0 5.7 2.5 5.7 6.4-.1 3.8-2.6 6.3-5.9 6.3zm0-10.8c-2.4 0-3.7 1.8-3.7 4.4 0 2.5 1.4 4.4 3.7 4.4 2.4 0 3.7-1.8 3.7-4.4 0-2.5-1.3-4.4-3.7-4.4zM452 712.9v-7.5c0-2.1-.8-2.8-2.5-2.8-1.2 0-2.4.6-3.1 1.3v8.9h-2.1v-12l2.1-.3v1.8c1.1-1.1 2.5-1.8 3.9-1.8 2.4 0 3.8 1.5 3.8 4.1v8.2l-2.1.1zM458.6 695.6c1.1 0 2.2 1 2.2 2.4 0 2.2-1.9 3.8-3.8 5.1l-.9-.9c1.8-1.3 2.7-2.4 2.7-3.3 0-.6-.5-1.1-1.9-1.7 0-.9.6-1.6 1.7-1.6zM466.7 713.3c-2.3 0-3.5-1.1-3.5-3.7l.2-6.7-2-.1.1-1.4 2-.6.1-2.6h2.1l-.1 2.7h3.7l-.1 1.9h-3.7l-.2 6.7c0 1.1.5 1.7 1.6 1.7.7 0 1.5-.2 2.2-.4l.4 1.9c-1 .4-1.9.6-2.8.6zM480.3 704.4l6.9-7.7h2.8l-7.5 8 7.6 8.2h-2.8l-6.9-7.7v7.7h-2.2v-16.3h2.2c-.1.1-.1 7.8-.1 7.8zM499.9 712.9v-7.5c0-2.1-.8-2.8-2.5-2.8-1.2 0-2.4.6-3.1 1.3v8.9h-2.1v-12l2.1-.3v1.8c1.1-1.1 2.5-1.8 3.9-1.8 2.4 0 3.8 1.5 3.8 4.1v8.2l-2.1.1zM510.4 713.3c-3.4 0-5.7-2.5-5.7-6.3s2.4-6.4 5.9-6.4c3.4 0 5.7 2.5 5.7 6.4-.1 3.8-2.6 6.3-5.9 6.3zm0-10.8c-2.4 0-3.7 1.8-3.7 4.4 0 2.5 1.4 4.4 3.7 4.4 2.4 0 3.7-1.8 3.7-4.4 0-2.5-1.4-4.4-3.7-4.4zM520.9 713l-3.7-12h2.3l2.5 8.8 2.8-8.8h2l3 8.8 2.2-8.9h2.4l-3.6 12h-2l-3-8.9-2.9 8.9h-2v.1zM534.7 718.1h-1.6l6.3-23.4h1.6l-6.3 23.4zM553.5 696.7h2.2v16.4h-2.4l-8.7-13.3v13.1h-2.2v-16.3h2.4l8.7 13.1v-13zM572.5 712.9h-2.3l-1.5-4.3h-7l-1.5 4.3h-2.3l6.1-16.3h2.5l6 16.3zm-7.3-13.9l-2.8 7.7h5.6l-2.8-7.7z"/></g><path fill="#a5bac3" d="M1693.4 524.4h24v24h-24z"/><path fill="#bbccd2" d="M1693.4 581.4h24v24h-24z"/><path fill="#dbe4e7" d="M1693.4 638.4h24v24h-24z"/><path fill="#e8eef0" d="M1693.4 691.3h24v24h-24z"/><g><path class="st28" d="M817.2 526.3c0-1.7-1.2-2.3-3.9-3-2.3-.6-4.9-1.6-4.9-4.8 0-2.7 2.2-4.6 5.4-4.6 1.9 0 3.6.5 5.1 1.4l-.8 1.9c-1.2-.8-2.9-1.4-4.3-1.4-2.3 0-3.3 1.1-3.3 2.4 0 1.6 1.4 2.2 4 2.9 2.4.6 4.8 1.8 4.8 4.8 0 2.8-2.3 4.9-5.7 4.9-1.9 0-3.9-.5-5.4-1.5l.7-2c1.4.9 2.9 1.6 4.8 1.6 2 .1 3.5-1 3.5-2.6zM823.1 516.1c-1 0-1.4-.7-1.4-1.5s.4-1.5 1.4-1.5 1.4.7 1.4 1.5c0 .7-.4 1.5-1.4 1.5zm-1.1 14.5v-12l2.1-.3v12.3H822zM827 528.8c0-1 .8-1.9 2-2.3-1.2-.7-2-2-2-3.7 0-2.3 1.7-4.5 4.8-4.5 1.3 0 2.3.3 3.1.7l3.1-.3.1 2.1-2.3-.4c.5.4.8 1.6.8 2.4 0 2.4-2 4.4-4.8 4.4-.6 0-1-.1-1.7-.3-.5.2-1.2.7-1.2 1.2 0 .7.5 1.1 2.7 1.1h1.1c3.6 0 5.2 1.1 5.2 3.2 0 2.6-2.8 4.6-6.4 4.6-3.1 0-5.5-1.4-5.5-3.5 0-1.4.9-2.5 2.5-2.8-1-.4-1.5-1.1-1.5-1.9zm1.1 4.3c0 1.3 1.5 2.2 3.8 2.2 2.2 0 4-1 4-2.4 0-1.3-1.2-1.6-3.6-1.6-.8 0-1.6-.1-2.2-.1-1.2.3-2 1-2 1.9zm3.8-7.6c1.6 0 2.5-1.1 2.5-2.8 0-1.6-.9-2.7-2.7-2.7-1.6 0-2.6 1.1-2.6 2.8 0 1.6 1.1 2.7 2.8 2.7zM847.7 530.6v-7.5c0-2.1-.8-2.8-2.5-2.8-1.2 0-2.4.6-3.1 1.3v8.9H840v-12l2.1-.3v1.8c1.1-1.1 2.5-1.8 3.9-1.8 2.4 0 3.8 1.5 3.8 4.1v8.2l-2.1.1zM854.2 516.1c-1 0-1.4-.7-1.4-1.5s.4-1.5 1.4-1.5 1.4.7 1.4 1.5c0 .7-.4 1.5-1.4 1.5zm-1.1 14.5v-12l2.1-.3v12.3h-2.1zM865.2 515c-.5-.2-1.3-.5-1.9-.5-1.2 0-1.8.7-1.8 2.5v1.7h3.8l-.1 1.9h-3.7v10h-2.1v-10l-2.1-.2.1-1.4 2-.6v-1.5c.1-3.3 1.6-4.5 3.9-4.5.9 0 1.8.3 2.4.6 0 .1-.5 2.1-.5 2zm3 1.1c-1 0-1.4-.7-1.4-1.5s.4-1.5 1.4-1.5 1.4.7 1.4 1.5c0 .7-.4 1.5-1.4 1.5zm-1.1 14.5v-12l2.1-.3v12.3h-2.1zM877.8 531c-3.8 0-5.8-2.6-5.8-6.3 0-3.8 2.5-6.3 6-6.3 1.5 0 2.8.3 3.8 1l-.5 2c-1-.7-2.1-1-3.3-1-2.4 0-3.8 1.7-3.8 4.3 0 2.8 1.5 4.4 3.7 4.4 1.2 0 2.5-.3 3.4-1l.4 2c-1.1.6-2.4.9-3.9.9zM890.6 529.3c-.9 1.1-2 1.7-3.3 1.7-2.2 0-3.8-1.5-3.8-3.4 0-2.1 1.5-4 7.1-4.3v-.3c0-1.9-.8-2.7-2.7-2.7-1.2 0-2.7.6-3.8 1.3l-.4-1.9c1-.7 2.8-1.4 4.5-1.4 3.2 0 4.7 1.4 4.6 4.6v5c0 1 .1 1.2 1.2 1.2l-.1 1.8c-1.9.2-2.8-.5-3.1-1.6h-.2zm0-4.6c-3.5.5-4.8 1.2-4.8 2.7 0 1.1.8 1.8 2.1 1.8 1.1 0 2.1-.5 2.7-1.3v-3.2zM903.9 530.6v-7.5c0-2.1-.8-2.8-2.5-2.8-1.2 0-2.4.6-3.1 1.3v8.9h-2.1v-12l2.1-.3v1.8c1.1-1.1 2.5-1.8 3.9-1.8 2.4 0 3.8 1.5 3.8 4.1v8.2l-2.1.1zM913.1 531c-2.3 0-3.5-1.1-3.5-3.7l.2-6.7-2-.1.1-1.4 2-.6.1-2.6h2.1l-.1 2.7h3.7l-.1 1.9h-3.7l-.2 6.7c0 1.1.5 1.7 1.6 1.7.7 0 1.5-.2 2.2-.4l.4 1.9c-1 .4-1.9.6-2.8.6zM918 530.6v-17.5l2.1-.3v17.9H918v-.1zM928.6 530.7l-.8 2.1c-1.1 3-2.3 3.9-4.2 3.9-.9 0-1.7-.3-2.5-.6l.6-2c.6.3 1.3.6 1.9.6.9 0 1.5-.5 2.3-2.6l.7-1.8-4.6-11.6h2.3l3.5 9.3 3.4-9.3h2.3l-4.9 12zM835.6 556.6v-16.3h2.2v16.3h-2.2zM856.3 556.6v-7.4c0-2.1-.8-2.8-2.3-2.8-1.3 0-2.3.7-3 1.4V556.7h-2.1v-7.4c0-2.1-.8-2.8-2.3-2.8-1.3 0-2.3.6-3 1.2v9h-2.1v-12l2.1-.3v1.6c1.1-1.1 2.4-1.6 3.8-1.6s2.5.7 3.1 2c1.3-1.3 2.7-2 4.3-2 2.2 0 3.6 1.5 3.6 4.2v8.1h-2.1v-.1zM867.3 544.3c3.4 0 5.3 2.7 5.3 6.3s-2.5 6.4-6.1 6.4c-.7 0-1.8-.1-2.6-.3v6h-2.1v-18l2.1-.3v1.5c.9-.9 2-1.6 3.4-1.6zm-3.4 9.9c.7.6 1.6.9 2.7.9 2.4 0 3.8-2 3.8-4.4 0-2.6-1.3-4.4-3.5-4.4-1.1 0-2.1.4-2.9 1.1-.1-.1-.1 6.8-.1 6.8zM877.4 556.6h-2.1v-12l2.1-.3v2.1c.8-1.3 1.8-2.1 3.3-2.1.8 0 1.6.2 2.2.6l-.5 2c-.6-.4-1.3-.5-1.9-.5-1.1 0-2.2.8-3.1 2.5v7.7zM889.7 557c-3.4 0-5.7-2.5-5.7-6.3s2.4-6.4 5.9-6.4c3.4 0 5.7 2.5 5.7 6.4 0 3.8-2.5 6.3-5.9 6.3zm.1-10.8c-2.4 0-3.7 1.8-3.7 4.4 0 2.5 1.4 4.4 3.7 4.4 2.4 0 3.7-1.8 3.7-4.4 0-2.5-1.4-4.4-3.7-4.4zM903 556.6h-2l-4.7-11.9h2.3l3.5 9.3 3.3-9.3h2.3l-4.7 11.9zM910.6 551c.1 2.3 1.6 4 3.9 4 1.2 0 2.6-.3 3.6-1l.4 2c-1.1.6-2.5 1-4 1-3.6 0-6-2.6-6-6.2 0-3.8 2.5-6.5 5.9-6.5 2.9 0 4.5 1.8 4.5 4.7 0 .7-.1 1.4-.3 1.9l-8 .1zm6.2-1.7v-.2c0-1.8-.8-2.9-2.7-2.9-2 0-3.2 1.6-3.4 3.2l6.1-.1zM929.4 539.1l2.1-.3v17.9h-2.1v-1.1c-.9.8-1.9 1.5-3.3 1.5-3.4 0-5.3-2.7-5.3-6.3s2.5-6.4 6.1-6.4c.9 0 1.8.2 2.6.4l-.1-5.7zm-2.6 7.1c-2.4 0-3.8 2-3.8 4.4 0 2.6 1.3 4.4 3.5 4.4 1.1 0 2.1-.4 2.9-1.1v-6.8c-.7-.6-1.6-.9-2.6-.9z"/></g><g><path class="st28" d="M832.5 590.7c0-1.7-1.2-2.3-3.9-3-2.3-.6-4.9-1.6-4.9-4.8 0-2.7 2.2-4.6 5.4-4.6 1.9 0 3.6.5 5.1 1.4l-.8 1.9c-1.2-.8-2.9-1.4-4.3-1.4-2.3 0-3.3 1.1-3.3 2.4 0 1.6 1.4 2.2 4 2.9 2.4.6 4.8 1.8 4.8 4.8 0 2.8-2.3 4.9-5.7 4.9-1.9 0-3.9-.5-5.4-1.5l.7-2c1.4.9 2.9 1.6 4.8 1.6 2 .1 3.5-1 3.5-2.6zM842.5 595.4c-3.4 0-5.7-2.5-5.7-6.3s2.4-6.4 5.9-6.4c3.4 0 5.7 2.5 5.7 6.4-.1 3.8-2.6 6.3-5.9 6.3zm0-10.8c-2.4 0-3.7 1.8-3.7 4.4 0 2.5 1.4 4.4 3.7 4.4 2.4 0 3.7-1.8 3.7-4.4 0-2.5-1.4-4.4-3.7-4.4zM865.9 595v-7.4c0-2.1-.8-2.8-2.3-2.8-1.3 0-2.3.7-3 1.4V595.1h-2.1v-7.4c0-2.1-.8-2.8-2.3-2.8-1.3 0-2.3.6-3 1.2v9H851v-12l2.1-.3v1.6c1.1-1.1 2.4-1.6 3.8-1.6s2.5.7 3.1 2c1.3-1.3 2.7-2 4.3-2 2.2 0 3.6 1.5 3.6 4.2v8.1h-2v-.1zM872.8 589.4c.1 2.3 1.6 4 3.9 4 1.2 0 2.6-.3 3.6-1l.4 2c-1.1.6-2.5 1-4 1-3.6 0-6-2.6-6-6.2 0-3.8 2.5-6.5 5.9-6.5 2.9 0 4.5 1.8 4.5 4.7 0 .7-.1 1.4-.3 1.9l-8 .1zm6.2-1.7v-.2c0-1.8-.8-2.9-2.7-2.9-2 0-3.2 1.6-3.4 3.2l6.1-.1zM885.9 595l-3.7-12h2.3l2.5 8.8 2.8-8.8h1.9l3 8.8 2.2-8.9h2.4l-3.6 12h-2l-3-8.9-2.9 8.9h-1.9v.1zM909.1 595v-7.5c0-2.1-.8-2.8-2.3-2.8-1.4 0-2.6.6-3.2 1.3v8.9h-2.1v-17.5l2.1-.3v7.3c1.1-1.1 2.5-1.7 4-1.7 2.3 0 3.7 1.5 3.7 4.1v8.2h-2.2zM920.9 593.7c-.9 1.1-2 1.7-3.3 1.7-2.2 0-3.8-1.5-3.8-3.4 0-2.1 1.5-4 7.1-4.3v-.3c0-1.9-.8-2.7-2.7-2.7-1.2 0-2.7.6-3.8 1.3l-.4-1.9c1-.7 2.8-1.4 4.5-1.4 3.2 0 4.7 1.4 4.6 4.6v5c0 1 .1 1.2 1.2 1.2l-.1 1.8c-1.9.2-2.8-.5-3.1-1.6h-.2zm0-4.6c-3.5.5-4.8 1.2-4.8 2.7 0 1.1.8 1.8 2.1 1.8 1.1 0 2.1-.5 2.7-1.3v-3.2zM930 595.4c-2.3 0-3.5-1.1-3.5-3.7l.2-6.7-2-.1.1-1.4 2-.6.1-2.6h2.1l-.1 2.7h3.7l-.1 1.9h-3.7l-.2 6.7c0 1.1.5 1.7 1.6 1.7.7 0 1.5-.2 2.2-.4l.4 1.9c-1 .4-1.9.6-2.8.6zM835.6 621v-16.3h2.2V621h-2.2zM856.3 621v-7.4c0-2.1-.8-2.8-2.3-2.8-1.3 0-2.3.7-3 1.4V621.1h-2.1v-7.4c0-2.1-.8-2.8-2.3-2.8-1.3 0-2.3.6-3 1.2v9h-2.1v-12l2.1-.3v1.6c1.1-1.1 2.4-1.6 3.8-1.6s2.5.7 3.1 2c1.3-1.3 2.7-2 4.3-2 2.2 0 3.6 1.5 3.6 4.2v8.1h-2.1v-.1zM867.3 608.7c3.4 0 5.3 2.7 5.3 6.3s-2.5 6.4-6.1 6.4c-.7 0-1.8-.1-2.6-.3v6h-2.1v-18l2.1-.3v1.5c.9-.9 2-1.6 3.4-1.6zm-3.4 9.9c.7.6 1.6.9 2.7.9 2.4 0 3.8-2 3.8-4.4 0-2.6-1.3-4.4-3.5-4.4-1.1 0-2.1.4-2.9 1.1-.1-.1-.1 6.8-.1 6.8zM877.4 621h-2.1v-12l2.1-.3v2.1c.8-1.3 1.8-2.1 3.3-2.1.8 0 1.6.2 2.2.6l-.5 2c-.6-.4-1.3-.5-1.9-.5-1.1 0-2.2.8-3.1 2.5v7.7zM889.7 621.4c-3.4 0-5.7-2.5-5.7-6.3s2.4-6.4 5.9-6.4c3.4 0 5.7 2.5 5.7 6.4 0 3.8-2.5 6.3-5.9 6.3zm.1-10.8c-2.4 0-3.7 1.8-3.7 4.4 0 2.5 1.4 4.4 3.7 4.4 2.4 0 3.7-1.8 3.7-4.4 0-2.5-1.4-4.4-3.7-4.4zM903 621h-2l-4.7-11.9h2.3l3.5 9.3 3.3-9.3h2.3L903 621zM910.6 615.4c.1 2.3 1.6 4 3.9 4 1.2 0 2.6-.3 3.6-1l.4 2c-1.1.6-2.5 1-4 1-3.6 0-6-2.6-6-6.2 0-3.8 2.5-6.5 5.9-6.5 2.9 0 4.5 1.8 4.5 4.7 0 .7-.1 1.4-.3 1.9l-8 .1zm6.2-1.7v-.2c0-1.8-.8-2.9-2.7-2.9-2 0-3.2 1.6-3.4 3.2l6.1-.1zM929.4 603.5l2.1-.3V621h-2.1v-1.1c-.9.8-1.9 1.5-3.3 1.5-3.4 0-5.3-2.7-5.3-6.3s2.5-6.4 6.1-6.4c.9 0 1.8.2 2.6.4l-.1-5.6zm-2.6 7.1c-2.4 0-3.8 2-3.8 4.4 0 2.6 1.3 4.4 3.5 4.4 1.1 0 2.1-.4 2.9-1.1v-6.8c-.7-.6-1.6-.9-2.6-.9z"/></g><g><path class="st28" d="M890.1 642.7h2.2v16.4h-2.4l-8.7-13.3v13.1H879v-16.3h2.4l8.7 13.1v-13zM901 659.3c-3.4 0-5.7-2.5-5.7-6.3s2.4-6.4 5.9-6.4c3.4 0 5.7 2.5 5.7 6.4-.1 3.8-2.6 6.3-5.9 6.3zm0-10.8c-2.4 0-3.7 1.8-3.7 4.4 0 2.5 1.4 4.4 3.7 4.4 2.4 0 3.7-1.8 3.7-4.4 0-2.4-1.4-4.4-3.7-4.4zM917.2 658.9v-7.5c0-2.1-.8-2.8-2.5-2.8-1.2 0-2.4.6-3.1 1.3v8.9h-2.1v-12l2.1-.3v1.8c1.1-1.1 2.5-1.8 3.9-1.8 2.4 0 3.8 1.5 3.8 4.1v8.2l-2.1.1zM924.1 653.3c.1 2.3 1.6 4 3.9 4 1.2 0 2.6-.3 3.6-1l.4 2c-1.1.6-2.5 1-4 1-3.6 0-6-2.6-6-6.2 0-3.8 2.5-6.5 5.9-6.5 2.9 0 4.5 1.8 4.5 4.7 0 .7-.1 1.4-.3 1.9l-8 .1zm6.3-1.7v-.2c0-1.8-.8-2.9-2.7-2.9-2 0-3.2 1.6-3.4 3.2l6.1-.1z"/></g><g><path class="st28" d="M779.7 712.9h-4.8v-16.3h4.9c5.4 0 8.6 3.2 8.6 8 .1 5.1-3.1 8.3-8.7 8.3zm0-14.2h-2.6v12.1h2.7c3.9 0 6.4-2.1 6.4-6 0-4-2.3-6.1-6.5-6.1zM796.4 713.3c-3.4 0-5.7-2.5-5.7-6.3s2.4-6.4 5.9-6.4c3.4 0 5.7 2.5 5.7 6.4 0 3.8-2.5 6.3-5.9 6.3zm0-10.8c-2.4 0-3.7 1.8-3.7 4.4 0 2.5 1.4 4.4 3.7 4.4 2.4 0 3.7-1.8 3.7-4.4 0-2.5-1.3-4.4-3.7-4.4zM812.7 712.9v-7.5c0-2.1-.8-2.8-2.5-2.8-1.2 0-2.4.6-3.1 1.3v8.9H805v-12l2.1-.3v1.8c1.1-1.1 2.5-1.8 3.9-1.8 2.4 0 3.8 1.5 3.8 4.1v8.2l-2.1.1zM819.3 695.6c1.1 0 2.2 1 2.2 2.4 0 2.2-1.9 3.8-3.8 5.1l-.9-.9c1.8-1.3 2.7-2.4 2.7-3.3 0-.6-.5-1.1-1.9-1.7.1-.9.6-1.6 1.7-1.6zM827.5 713.3c-2.3 0-3.5-1.1-3.5-3.7l.2-6.7-2-.1.1-1.4 2-.6.1-2.6h2.1l-.1 2.7h3.7l-.1 1.9h-3.7l-.2 6.7c0 1.1.5 1.7 1.6 1.7.7 0 1.5-.2 2.2-.4l.4 1.9c-1.1.4-2 .6-2.8.6zM841 704.4l6.9-7.7h2.8l-7.5 8 7.6 8.2H848l-6.9-7.7v7.7h-2.2v-16.3h2.2c-.1.1-.1 7.8-.1 7.8zM860.6 712.9v-7.5c0-2.1-.8-2.8-2.5-2.8-1.2 0-2.4.6-3.1 1.3v8.9h-2.1v-12l2.1-.3v1.8c1.1-1.1 2.5-1.8 3.9-1.8 2.4 0 3.8 1.5 3.8 4.1v8.2l-2.1.1zM871.1 713.3c-3.4 0-5.7-2.5-5.7-6.3s2.4-6.4 5.9-6.4c3.4 0 5.7 2.5 5.7 6.4-.1 3.8-2.6 6.3-5.9 6.3zm0-10.8c-2.4 0-3.7 1.8-3.7 4.4 0 2.5 1.4 4.4 3.7 4.4 2.4 0 3.7-1.8 3.7-4.4 0-2.5-1.3-4.4-3.7-4.4zM881.6 713l-3.7-12h2.3l2.5 8.8 2.8-8.8h2l3 8.8 2.2-8.9h2.4l-3.6 12h-2l-3-8.9-2.9 8.9h-2v.1zM895.4 718.1h-1.6l6.3-23.4h1.6l-6.3 23.4zM914.2 696.7h2.2v16.4H914l-8.7-13.3v13.1h-2.2v-16.3h2.4l8.7 13.1v-13zM933.2 712.9H931l-1.5-4.3h-7l-1.5 4.3h-2.3l6.1-16.3h2.5l5.9 16.3zm-7.3-13.9l-2.8 7.7h5.6l-2.8-7.7z"/></g><path fill="#b473af" d="M951.4 524.4h24v24h-24z"/><path fill="#ca9dc7" d="M951.4 581.4h24v24h-24z"/><path fill="#e5cee3" d="M951.4 638.4h24v24h-24z"/><path fill="#f0e3ef" d="M951.4 691.3h24v24h-24z"/><g><path class="st19" d="M1105.7 44.1V27.8h4.1v16.3h-4.1zM1128.2 44.1V37c0-1.5-.6-2-1.6-2-.8 0-1.5.4-1.9.8V44.1h-4V37c0-1.5-.7-2-1.7-2-.8 0-1.5.3-2 .7V44h-4V32.2l4-.5v1.7c1.1-1.1 2.3-1.8 3.8-1.8s2.8.8 3.4 2.2c1.1-1.3 2.5-2.2 4.2-2.2 2.3 0 3.8 1.6 3.8 4.2v8.3h-4zM1142.3 31.6c3 0 5.2 2.4 5.2 6.3 0 4-2.8 6.6-6.1 6.6-.8 0-1.7-.2-2.5-.4v5.4h-4V32.2l4-.5v1.5c.8-.7 1.9-1.6 3.4-1.6zm-3.4 9.4c.5.3 1.1.5 1.8.5 1.7 0 2.7-1.4 2.7-3.4 0-2.1-.9-3.3-2.5-3.3-.9 0-1.5.3-2 .8V41zM1153.6 44.1h-4V32.2l4-.5v1.8c.7-1.2 1.6-1.9 2.9-1.9.7 0 1.4.2 2 .5l-.8 3.5c-.5-.2-1-.4-1.5-.4-1 0-1.9.5-2.6 1.8v7.1zM1165.5 44.5c-3.6 0-6.4-2.3-6.4-6.4s2.9-6.5 6.6-6.5c3.6 0 6.4 2.3 6.4 6.4s-2.9 6.5-6.6 6.5zm.1-9.9c-1.6 0-2.5 1.3-2.5 3.4 0 2.1.9 3.4 2.5 3.4s2.5-1.3 2.5-3.4c0-2-.9-3.4-2.5-3.4zM1181.4 44.1h-4.5l-4.5-12.1h4.3l2.5 8.3 2.5-8.3h4.3l-4.6 12.1zM1189.3 30.3c-1.5 0-2.4-.8-2.4-2.1 0-1.4.9-2.2 2.4-2.2s2.4.8 2.4 2.2c0 1.3-.9 2.1-2.4 2.1zm-2 13.8V32.2l4-.5v12.4h-4zM1201.9 44.1v-7.2c0-1.5-.7-1.9-1.7-1.9-.9 0-1.7.4-2.2.9v8.2h-4V32.2l4-.5v2c1.1-1.2 2.5-2.1 4.1-2.1 2.4 0 3.8 1.6 3.8 4.2v8.3h-4zM1208 42.7c0-1.1 1-2.3 2.5-2.7-1.4-.7-2.4-2-2.4-3.7 0-2.6 2.2-4.7 5.7-4.7 1.4 0 2.8.4 3.7.9l3.4-.3.2 3.2-2.3-.4c.2.2.3.9.3 1.3 0 2.4-2.2 4.4-5.3 4.4-.5 0-1-.1-1.6-.2-.3.2-.7.5-.7.9 0 .5.6.8 2.2.8h1.4c3.3 0 5.6.8 5.6 3.4 0 3-3.6 5-7.6 5-3.2 0-5.9-1-5.9-3.1 0-1.2 1-2.3 2.9-2.5-1.1-.4-2.1-1.2-2.1-2.3zm2.7 4c0 .9 1.2 1.6 3 1.6 2 0 3.4-.6 3.4-1.6s-1-1.2-3.1-1.2c-.8 0-1.9-.1-2.4-.1-.4.2-.9.6-.9 1.3zm3.1-8.3c1.2 0 1.8-.9 1.8-2.2s-.6-2.1-1.8-2.1c-1.1 0-1.8.9-1.8 2.2-.1 1.3.5 2.1 1.8 2.1zM1223.9 49.3h-3.3l6.3-23.4h3.3l-6.3 23.4zM1239 39.5c0-1.1-1.2-1.5-3.3-2.1-2.4-.6-5.2-1.7-5.2-5 0-3 2.2-5 6.2-5 2.5 0 4.5.6 6.1 1.4l-.8 3.4c-1.6-.9-3.6-1.4-5.3-1.4-1.4 0-2.1.5-2.1 1.4 0 1.1 1.5 1.5 3.4 2 2.5.7 5.1 1.8 5.1 4.9 0 3.1-2.4 5.3-6.7 5.3-2.4 0-4.8-.6-6.3-1.5l.8-3.4c1.6.9 3.6 1.5 5.6 1.5 1.5.1 2.5-.5 2.5-1.5zM1250.3 44.5c-3 0-4.6-1.2-4.4-4.4l.2-4.6-1.8-.3.1-2.5 1.8-.6.1-2.8h3.9v2.9h3l-.1 3.1h-3.2l-.1 4.3c-.1 1.1.6 1.6 1.6 1.6.5 0 1-.1 1.6-.3l.5 3.1c-1.2.3-2 .5-3.2.5zM1257.2 30.3c-1.5 0-2.4-.8-2.4-2.1 0-1.4.9-2.2 2.4-2.2s2.4.8 2.4 2.2c-.1 1.3-.9 2.1-2.4 2.1zm-2 13.8V32.2l4-.5v12.4h-4zM1261.9 44.1V26.9l4-.5v17.7h-4zM1268.6 44.1V26.9l4-.5v17.7h-4zM1289.9 31.3v12.8h-4.1V31.3h-5.2v-3.5h14.5v3.5h-5.2zM1299.1 30.3c-1.5 0-2.4-.8-2.4-2.1 0-1.4.9-2.2 2.4-2.2s2.4.8 2.4 2.2c-.1 1.3-1 2.1-2.4 2.1zm-2 13.8V32.2l4-.5v12.4h-4zM1308.7 44.5c-3 0-4.6-1.2-4.4-4.4l.2-4.6-1.8-.3.1-2.5 1.8-.6.1-2.8h3.9v2.9h3l-.1 3.1h-3.2l-.1 4.3c-.1 1.1.6 1.6 1.6 1.6.5 0 1-.1 1.6-.3l.5 3.1c-1.1.3-1.9.5-3.2.5zM1317.7 44.1h-4V32.2l4-.5v1.8c.7-1.2 1.6-1.9 2.9-1.9.7 0 1.4.2 2 .5l-.8 3.5c-.5-.2-1-.4-1.5-.4-1 0-1.9.5-2.6 1.8v7.1zM1330.8 42.6c-.9 1-1.8 1.8-3.5 1.8-2.1 0-3.7-1.5-3.7-3.4 0-2.3 1.7-4.1 7.2-4.3v-.2c0-1.3-.7-1.8-2.1-1.8-1.2 0-2.7.5-4.1 1.2l-.8-2.9c1.3-.7 3.3-1.4 5.6-1.4 4.2 0 5.6 1.9 5.5 5.3v3.6c0 .8.2.9 1 1l-.4 2.9c-2.8.3-4.1-.4-4.7-1.8zm-.1-3.9c-2.5.3-3.4.8-3.4 1.8 0 .8.6 1.3 1.5 1.3.8 0 1.5-.3 1.9-.8v-2.3zM1342.4 44.5c-3 0-4.6-1.2-4.4-4.4l.2-4.6-1.8-.3.1-2.5 1.8-.6.1-2.8h3.9v2.9h3l-.1 3.1h-3.2l-.1 4.3c-.1 1.1.6 1.6 1.6 1.6.5 0 1-.1 1.6-.3l.5 3.1c-1.2.3-2 .5-3.2.5zM1349.3 30.3c-1.5 0-2.4-.8-2.4-2.1 0-1.4.9-2.2 2.4-2.2s2.4.8 2.4 2.2c-.1 1.3-.9 2.1-2.4 2.1zm-2 13.8V32.2l4-.5v12.4h-4zM1361.9 44.1v-7.2c0-1.5-.7-1.9-1.7-1.9-.9 0-1.7.4-2.2.9v8.2h-4V32.2l4-.5v2c1.1-1.2 2.5-2.1 4.1-2.1 2.4 0 3.8 1.6 3.8 4.2v8.3h-4zM1368 42.7c0-1.1 1-2.3 2.5-2.7-1.4-.7-2.4-2-2.4-3.7 0-2.6 2.2-4.7 5.7-4.7 1.4 0 2.8.4 3.7.9l3.4-.3.2 3.2-2.3-.4c.2.2.3.9.3 1.3 0 2.4-2.2 4.4-5.3 4.4-.5 0-1-.1-1.6-.2-.3.2-.7.5-.7.9 0 .5.6.8 2.2.8h1.4c3.3 0 5.6.8 5.6 3.4 0 3-3.6 5-7.6 5-3.2 0-5.9-1-5.9-3.1 0-1.2 1-2.3 2.9-2.5-1.1-.4-2.1-1.2-2.1-2.3zm2.7 4c0 .9 1.2 1.6 3 1.6 2 0 3.4-.6 3.4-1.6s-1-1.2-3.1-1.2c-.8 0-1.9-.1-2.4-.1-.5.2-.9.6-.9 1.3zm3.1-8.3c1.2 0 1.8-.9 1.8-2.2s-.6-2.1-1.8-2.1c-1.1 0-1.8.9-1.8 2.2-.1 1.3.5 2.1 1.8 2.1zM1206.2 69.2c0-6.4 4-11 7.7-13l2.1 2.7c-3.1 1.9-6 5.5-6 10.3s2.9 8.4 6 10.3l-2.1 2.7c-3.6-2-7.7-6.6-7.7-13z"/><path class="st19" d="M1223.4 75.3v-7.2c0-1.5-.7-1.9-1.7-1.9-.9 0-1.7.4-2.2.9v8.2h-4V63.4l4-.5v2c1.1-1.2 2.5-2.1 4.1-2.1 2.4 0 3.8 1.6 3.8 4.2v8.3h-4zM1230.1 67.8l-.1-3h11l-.1 3h-10.8zm-.1 5.7l.1-3h10.8l.1 3h-11zM1254.3 74.8c0 3.4-3 5.3-6.7 5.3-2 0-3.7-.5-5.1-1.2l.5-3.2c1.2.7 2.8 1.2 4.3 1.3 1.8.1 2.9-.7 2.9-2.1 0-1.3-1-2-3-2.1-.7 0-1.5.1-2.1.1V70c2.3-.4 4.4-.9 4.4-2.7 0-1.1-.8-1.7-2.4-1.7-1.2 0-2.5.6-3.7 1.4l-.9-2.9c1.4-1 3.2-1.8 5.5-1.8 3.3 0 5.7 1.7 5.7 4.3 0 1.9-1.5 3.4-3.3 4 2.6.6 3.9 2.3 3.9 4.2zM1266.2 57.9l1 3.2c-3.5.6-6.4 2.3-7.2 4.8l.1.1c.9-.9 2.2-1.6 4.1-1.6 2.8 0 4.9 1.9 4.9 5.1 0 3.5-2.3 6.1-6.5 6.1s-6.6-3.1-6.6-7.5c0-4.9 3.8-9.3 10.2-10.2zm-3.6 14.8c1.4 0 2.3-1.1 2.3-2.8 0-1.5-.9-2.5-2.3-2.5-1 0-1.9.4-2.4.9-.1.3-.1.8-.1 1.2 0 1.7.9 3.2 2.5 3.2z"/><path class="st19" d="M1269 79.4c3.1-1.9 6-5.5 6-10.3s-2.9-8.4-6-10.3l2.1-2.7c3.7 2 7.7 6.6 7.7 13s-4 11.1-7.7 13l-2.1-2.7z"/></g><g><path class="st28" d="M1177.9 526.3c0-1.7-1.2-2.3-3.9-3-2.3-.6-4.9-1.6-4.9-4.8 0-2.7 2.2-4.6 5.4-4.6 1.9 0 3.6.5 5.1 1.4l-.8 1.9c-1.2-.8-2.9-1.4-4.3-1.4-2.3 0-3.3 1.1-3.3 2.4 0 1.6 1.4 2.2 4 2.9 2.4.6 4.8 1.8 4.8 4.8 0 2.8-2.3 4.9-5.7 4.9-1.9 0-3.9-.5-5.4-1.5l.7-2c1.4.9 2.9 1.6 4.8 1.6 2 .1 3.5-1 3.5-2.6zM1183.8 516.1c-1 0-1.4-.7-1.4-1.5s.4-1.5 1.4-1.5 1.4.7 1.4 1.5c0 .7-.4 1.5-1.4 1.5zm-1 14.5v-12l2.1-.3v12.3h-2.1zM1187.7 528.8c0-1 .8-1.9 2-2.3-1.2-.7-2-2-2-3.7 0-2.3 1.7-4.5 4.8-4.5 1.3 0 2.3.3 3.1.7l3.1-.3.1 2.1-2.3-.4c.5.4.8 1.6.8 2.4 0 2.4-2 4.4-4.8 4.4-.6 0-1-.1-1.7-.3-.5.2-1.2.7-1.2 1.2 0 .7.5 1.1 2.7 1.1h1.1c3.6 0 5.2 1.1 5.2 3.2 0 2.6-2.8 4.6-6.4 4.6-3.1 0-5.5-1.4-5.5-3.5 0-1.4.9-2.5 2.5-2.8-1-.4-1.5-1.1-1.5-1.9zm1.1 4.3c0 1.3 1.5 2.2 3.8 2.2 2.2 0 4-1 4-2.4 0-1.3-1.2-1.6-3.6-1.6-.8 0-1.6-.1-2.2-.1-1.1.3-2 1-2 1.9zm3.8-7.6c1.6 0 2.5-1.1 2.5-2.8 0-1.6-.9-2.7-2.7-2.7-1.6 0-2.6 1.1-2.6 2.8 0 1.6 1.1 2.7 2.8 2.7zM1208.4 530.6v-7.5c0-2.1-.8-2.8-2.5-2.8-1.2 0-2.4.6-3.1 1.3v8.9h-2.1v-12l2.1-.3v1.8c1.1-1.1 2.5-1.8 3.9-1.8 2.4 0 3.8 1.5 3.8 4.1v8.2l-2.1.1zM1214.9 516.1c-1 0-1.4-.7-1.4-1.5s.4-1.5 1.4-1.5 1.4.7 1.4 1.5c0 .7-.4 1.5-1.4 1.5zm-1.1 14.5v-12l2.1-.3v12.3h-2.1zM1225.9 515c-.5-.2-1.3-.5-1.9-.5-1.2 0-1.8.7-1.8 2.5v1.7h3.8l-.1 1.9h-3.7v10h-2.1v-10l-2.1-.2.1-1.4 2-.6v-1.5c.1-3.3 1.6-4.5 3.9-4.5.9 0 1.8.3 2.4.6 0 .1-.5 2.1-.5 2zm3 1.1c-1 0-1.4-.7-1.4-1.5s.4-1.5 1.4-1.5 1.4.7 1.4 1.5c0 .7-.4 1.5-1.4 1.5zm-1.1 14.5v-12l2.1-.3v12.3h-2.1zM1238.5 531c-3.8 0-5.8-2.6-5.8-6.3 0-3.8 2.5-6.3 6-6.3 1.5 0 2.8.3 3.8 1l-.5 2c-1-.7-2.1-1-3.3-1-2.4 0-3.8 1.7-3.8 4.3 0 2.8 1.5 4.4 3.7 4.4 1.2 0 2.5-.3 3.4-1l.4 2c-1.1.6-2.4.9-3.9.9zM1251.3 529.3c-.9 1.1-2 1.7-3.3 1.7-2.2 0-3.8-1.5-3.8-3.4 0-2.1 1.5-4 7.1-4.3v-.3c0-1.9-.8-2.7-2.7-2.7-1.2 0-2.7.6-3.8 1.3l-.4-1.9c1-.7 2.8-1.4 4.5-1.4 3.2 0 4.7 1.4 4.6 4.6v5c0 1 .1 1.2 1.2 1.2l-.1 1.8c-1.9.2-2.8-.5-3.1-1.6h-.2zm0-4.6c-3.5.5-4.8 1.2-4.8 2.7 0 1.1.8 1.8 2.1 1.8 1.1 0 2.1-.5 2.7-1.3v-3.2zM1264.6 530.6v-7.5c0-2.1-.8-2.8-2.5-2.8-1.2 0-2.4.6-3.1 1.3v8.9h-2.1v-12l2.1-.3v1.8c1.1-1.1 2.5-1.8 3.9-1.8 2.4 0 3.8 1.5 3.8 4.1v8.2l-2.1.1zM1273.8 531c-2.3 0-3.5-1.1-3.5-3.7l.2-6.7-2-.1.1-1.4 2-.6.1-2.6h2.1l-.1 2.7h3.7l-.1 1.9h-3.7l-.2 6.7c0 1.1.5 1.7 1.6 1.7.7 0 1.5-.2 2.2-.4l.4 1.9c-1 .4-1.9.6-2.8.6zM1278.7 530.6v-17.5l2.1-.3v17.9h-2.1v-.1zM1289.3 530.7l-.8 2.1c-1.1 3-2.3 3.9-4.2 3.9-.9 0-1.7-.3-2.5-.6l.6-2c.6.3 1.3.6 1.9.6.9 0 1.5-.5 2.3-2.6l.7-1.8-4.6-11.6h2.3l3.5 9.3 3.4-9.3h2.3l-4.9 12zM1196.3 556.6v-16.3h2.2v16.3h-2.2zM1217 556.6v-7.4c0-2.1-.8-2.8-2.3-2.8-1.3 0-2.3.7-3 1.4V556.7h-2.1v-7.4c0-2.1-.8-2.8-2.3-2.8-1.3 0-2.3.6-3 1.2v9h-2.1v-12l2.1-.3v1.6c1.1-1.1 2.4-1.6 3.8-1.6s2.5.7 3.1 2c1.3-1.3 2.7-2 4.3-2 2.2 0 3.6 1.5 3.6 4.2v8.1h-2.1v-.1zM1228 544.3c3.4 0 5.3 2.7 5.3 6.3s-2.5 6.4-6.1 6.4c-.7 0-1.8-.1-2.6-.3v6h-2.1v-18l2.1-.3v1.5c.9-.9 2-1.6 3.4-1.6zm-3.4 9.9c.7.6 1.6.9 2.7.9 2.4 0 3.8-2 3.8-4.4 0-2.6-1.3-4.4-3.5-4.4-1.1 0-2.1.4-2.9 1.1-.1-.1-.1 6.8-.1 6.8zM1238.1 556.6h-2.1v-12l2.1-.3v2.1c.8-1.3 1.8-2.1 3.3-2.1.8 0 1.6.2 2.2.6l-.5 2c-.6-.4-1.3-.5-1.9-.5-1.1 0-2.2.8-3.1 2.5v7.7zM1250.4 557c-3.4 0-5.7-2.5-5.7-6.3s2.4-6.4 5.9-6.4c3.4 0 5.7 2.5 5.7 6.4 0 3.8-2.5 6.3-5.9 6.3zm.1-10.8c-2.4 0-3.7 1.8-3.7 4.4 0 2.5 1.4 4.4 3.7 4.4 2.4 0 3.7-1.8 3.7-4.4 0-2.5-1.4-4.4-3.7-4.4zM1263.7 556.6h-2l-4.7-11.9h2.3l3.5 9.3 3.3-9.3h2.3l-4.7 11.9zM1271.3 551c.1 2.3 1.6 4 3.9 4 1.2 0 2.6-.3 3.6-1l.4 2c-1.1.6-2.5 1-4 1-3.6 0-6-2.6-6-6.2 0-3.8 2.5-6.5 5.9-6.5 2.9 0 4.5 1.8 4.5 4.7 0 .7-.1 1.4-.3 1.9l-8 .1zm6.2-1.7v-.2c0-1.8-.8-2.9-2.7-2.9-2 0-3.2 1.6-3.4 3.2l6.1-.1zM1290.1 539.1l2.1-.3v17.9h-2.1v-1.1c-.9.8-1.9 1.5-3.3 1.5-3.4 0-5.3-2.7-5.3-6.3s2.5-6.4 6.1-6.4c.9 0 1.8.2 2.6.4l-.1-5.7zm-2.6 7.1c-2.4 0-3.8 2-3.8 4.4 0 2.6 1.3 4.4 3.5 4.4 1.1 0 2.1-.4 2.9-1.1v-6.8c-.7-.6-1.6-.9-2.6-.9z"/></g><g><path class="st28" d="M1193.2 590.7c0-1.7-1.2-2.3-3.9-3-2.3-.6-4.9-1.6-4.9-4.8 0-2.7 2.2-4.6 5.4-4.6 1.9 0 3.6.5 5.1 1.4l-.8 1.9c-1.2-.8-2.9-1.4-4.3-1.4-2.3 0-3.3 1.1-3.3 2.4 0 1.6 1.4 2.2 4 2.9 2.4.6 4.8 1.8 4.8 4.8 0 2.8-2.3 4.9-5.7 4.9-1.9 0-3.9-.5-5.4-1.5l.7-2c1.4.9 2.9 1.6 4.8 1.6 2 .1 3.5-1 3.5-2.6zM1203.2 595.4c-3.4 0-5.7-2.5-5.7-6.3s2.4-6.4 5.9-6.4c3.4 0 5.7 2.5 5.7 6.4-.1 3.8-2.6 6.3-5.9 6.3zm0-10.8c-2.4 0-3.7 1.8-3.7 4.4 0 2.5 1.4 4.4 3.7 4.4 2.4 0 3.7-1.8 3.7-4.4 0-2.5-1.4-4.4-3.7-4.4zM1226.6 595v-7.4c0-2.1-.8-2.8-2.3-2.8-1.3 0-2.3.7-3 1.4V595.1h-2.1v-7.4c0-2.1-.8-2.8-2.3-2.8-1.3 0-2.3.6-3 1.2v9h-2.1v-12l2.1-.3v1.6c1.1-1.1 2.4-1.6 3.8-1.6s2.5.7 3.1 2c1.3-1.3 2.7-2 4.3-2 2.2 0 3.6 1.5 3.6 4.2v8.1h-2.1v-.1zM1233.5 589.4c.1 2.3 1.6 4 3.9 4 1.2 0 2.6-.3 3.6-1l.4 2c-1.1.6-2.5 1-4 1-3.6 0-6-2.6-6-6.2 0-3.8 2.5-6.5 5.9-6.5 2.9 0 4.5 1.8 4.5 4.7 0 .7-.1 1.4-.3 1.9l-8 .1zm6.2-1.7v-.2c0-1.8-.8-2.9-2.7-2.9-2 0-3.2 1.6-3.4 3.2l6.1-.1zM1246.6 595l-3.7-12h2.3l2.5 8.8 2.8-8.8h1.9l3 8.8 2.2-8.9h2.4l-3.6 12h-2l-3-8.9-2.9 8.9h-1.9v.1zM1269.8 595v-7.5c0-2.1-.8-2.8-2.3-2.8-1.4 0-2.6.6-3.2 1.3v8.9h-2.1v-17.5l2.1-.3v7.3c1.1-1.1 2.5-1.7 4-1.7 2.3 0 3.7 1.5 3.7 4.1v8.2h-2.2zM1281.6 593.7c-.9 1.1-2 1.7-3.3 1.7-2.2 0-3.8-1.5-3.8-3.4 0-2.1 1.5-4 7.1-4.3v-.3c0-1.9-.8-2.7-2.7-2.7-1.2 0-2.7.6-3.8 1.3l-.4-1.9c1-.7 2.8-1.4 4.5-1.4 3.2 0 4.7 1.4 4.6 4.6v5c0 1 .1 1.2 1.2 1.2l-.1 1.8c-1.9.2-2.8-.5-3.1-1.6h-.2zm0-4.6c-3.5.5-4.8 1.2-4.8 2.7 0 1.1.8 1.8 2.1 1.8 1.1 0 2.1-.5 2.7-1.3v-3.2zM1290.7 595.4c-2.3 0-3.5-1.1-3.5-3.7l.2-6.7-2-.1.1-1.4 2-.6.1-2.6h2.1l-.1 2.7h3.7l-.1 1.9h-3.7l-.2 6.7c0 1.1.5 1.7 1.6 1.7.7 0 1.5-.2 2.2-.4l.4 1.9c-1 .4-1.9.6-2.8.6zM1196.3 621v-16.3h2.2V621h-2.2zM1217 621v-7.4c0-2.1-.8-2.8-2.3-2.8-1.3 0-2.3.7-3 1.4V621.1h-2.1v-7.4c0-2.1-.8-2.8-2.3-2.8-1.3 0-2.3.6-3 1.2v9h-2.1v-12l2.1-.3v1.6c1.1-1.1 2.4-1.6 3.8-1.6s2.5.7 3.1 2c1.3-1.3 2.7-2 4.3-2 2.2 0 3.6 1.5 3.6 4.2v8.1h-2.1v-.1zM1228 608.7c3.4 0 5.3 2.7 5.3 6.3s-2.5 6.4-6.1 6.4c-.7 0-1.8-.1-2.6-.3v6h-2.1v-18l2.1-.3v1.5c.9-.9 2-1.6 3.4-1.6zm-3.4 9.9c.7.6 1.6.9 2.7.9 2.4 0 3.8-2 3.8-4.4 0-2.6-1.3-4.4-3.5-4.4-1.1 0-2.1.4-2.9 1.1-.1-.1-.1 6.8-.1 6.8zM1238.1 621h-2.1v-12l2.1-.3v2.1c.8-1.3 1.8-2.1 3.3-2.1.8 0 1.6.2 2.2.6l-.5 2c-.6-.4-1.3-.5-1.9-.5-1.1 0-2.2.8-3.1 2.5v7.7zM1250.4 621.4c-3.4 0-5.7-2.5-5.7-6.3s2.4-6.4 5.9-6.4c3.4 0 5.7 2.5 5.7 6.4 0 3.8-2.5 6.3-5.9 6.3zm.1-10.8c-2.4 0-3.7 1.8-3.7 4.4 0 2.5 1.4 4.4 3.7 4.4 2.4 0 3.7-1.8 3.7-4.4 0-2.5-1.4-4.4-3.7-4.4zM1263.7 621h-2l-4.7-11.9h2.3l3.5 9.3 3.3-9.3h2.3l-4.7 11.9zM1271.3 615.4c.1 2.3 1.6 4 3.9 4 1.2 0 2.6-.3 3.6-1l.4 2c-1.1.6-2.5 1-4 1-3.6 0-6-2.6-6-6.2 0-3.8 2.5-6.5 5.9-6.5 2.9 0 4.5 1.8 4.5 4.7 0 .7-.1 1.4-.3 1.9l-8 .1zm6.2-1.7v-.2c0-1.8-.8-2.9-2.7-2.9-2 0-3.2 1.6-3.4 3.2l6.1-.1zM1290.1 603.5l2.1-.3V621h-2.1v-1.1c-.9.8-1.9 1.5-3.3 1.5-3.4 0-5.3-2.7-5.3-6.3s2.5-6.4 6.1-6.4c.9 0 1.8.2 2.6.4l-.1-5.6zm-2.6 7.1c-2.4 0-3.8 2-3.8 4.4 0 2.6 1.3 4.4 3.5 4.4 1.1 0 2.1-.4 2.9-1.1v-6.8c-.7-.6-1.6-.9-2.6-.9z"/></g><g><path class="st28" d="M1250.8 642.7h2.2v16.4h-2.4l-8.7-13.3v13.1h-2.2v-16.3h2.4l8.7 13.1v-13zM1261.7 659.3c-3.4 0-5.7-2.5-5.7-6.3s2.4-6.4 5.9-6.4c3.4 0 5.7 2.5 5.7 6.4-.1 3.8-2.6 6.3-5.9 6.3zm0-10.8c-2.4 0-3.7 1.8-3.7 4.4 0 2.5 1.4 4.4 3.7 4.4 2.4 0 3.7-1.8 3.7-4.4 0-2.4-1.3-4.4-3.7-4.4zM1278 658.9v-7.5c0-2.1-.8-2.8-2.5-2.8-1.2 0-2.4.6-3.1 1.3v8.9h-2.1v-12l2.1-.3v1.8c1.1-1.1 2.5-1.8 3.9-1.8 2.4 0 3.8 1.5 3.8 4.1v8.2l-2.1.1zM1284.8 653.3c.1 2.3 1.6 4 3.9 4 1.2 0 2.6-.3 3.6-1l.4 2c-1.1.6-2.5 1-4 1-3.6 0-6-2.6-6-6.2 0-3.8 2.5-6.5 5.9-6.5 2.9 0 4.5 1.8 4.5 4.7 0 .7-.1 1.4-.3 1.9l-8 .1zm6.3-1.7v-.2c0-1.8-.8-2.9-2.7-2.9-2 0-3.2 1.6-3.4 3.2l6.1-.1z"/></g><g><path class="st28" d="M1140.5 712.9h-4.8v-16.3h4.9c5.4 0 8.6 3.2 8.6 8 0 5.1-3.2 8.3-8.7 8.3zm0-14.2h-2.6v12.1h2.7c3.9 0 6.4-2.1 6.4-6 0-4-2.4-6.1-6.5-6.1zM1157.1 713.3c-3.4 0-5.7-2.5-5.7-6.3s2.4-6.4 5.9-6.4c3.4 0 5.7 2.5 5.7 6.4 0 3.8-2.5 6.3-5.9 6.3zm0-10.8c-2.4 0-3.7 1.8-3.7 4.4 0 2.5 1.4 4.4 3.7 4.4 2.4 0 3.7-1.8 3.7-4.4.1-2.5-1.3-4.4-3.7-4.4zM1173.4 712.9v-7.5c0-2.1-.8-2.8-2.5-2.8-1.2 0-2.4.6-3.1 1.3v8.9h-2.1v-12l2.1-.3v1.8c1.1-1.1 2.5-1.8 3.9-1.8 2.4 0 3.8 1.5 3.8 4.1v8.2l-2.1.1zM1180 695.6c1.1 0 2.2 1 2.2 2.4 0 2.2-1.9 3.8-3.8 5.1l-.9-.9c1.8-1.3 2.7-2.4 2.7-3.3 0-.6-.5-1.1-1.9-1.7.1-.9.6-1.6 1.7-1.6zM1188.2 713.3c-2.3 0-3.5-1.1-3.5-3.7l.2-6.7-2-.1.1-1.4 2-.6.1-2.6h2.1l-.1 2.7h3.7l-.1 1.9h-3.7l-.2 6.7c0 1.1.5 1.7 1.6 1.7.7 0 1.5-.2 2.2-.4l.4 1.9c-1 .4-2 .6-2.8.6zM1201.8 704.4l6.9-7.7h2.8l-7.5 8 7.6 8.2h-2.8l-6.9-7.7v7.7h-2.2v-16.3h2.2c-.2.1-.2 7.8-.1 7.8zM1221.3 712.9v-7.5c0-2.1-.8-2.8-2.5-2.8-1.2 0-2.4.6-3.1 1.3v8.9h-2.1v-12l2.1-.3v1.8c1.1-1.1 2.5-1.8 3.9-1.8 2.4 0 3.8 1.5 3.8 4.1v8.2l-2.1.1zM1231.8 713.3c-3.4 0-5.7-2.5-5.7-6.3s2.4-6.4 5.9-6.4c3.4 0 5.7 2.5 5.7 6.4-.1 3.8-2.5 6.3-5.9 6.3zm0-10.8c-2.4 0-3.7 1.8-3.7 4.4 0 2.5 1.4 4.4 3.7 4.4 2.4 0 3.7-1.8 3.7-4.4 0-2.5-1.3-4.4-3.7-4.4zM1242.3 713l-3.7-12h2.3l2.5 8.8 2.8-8.8h2l3 8.8 2.2-8.9h2.4l-3.6 12h-2l-3-8.9-2.9 8.9h-2v.1zM1256.1 718.1h-1.6l6.3-23.4h1.6l-6.3 23.4zM1274.9 696.7h2.2v16.4h-2.4l-8.7-13.3v13.1h-2.2v-16.3h2.4l8.7 13.1v-13zM1293.9 712.9h-2.3l-1.5-4.3h-7l-1.5 4.3h-2.3l6.1-16.3h2.5l6 16.3zm-7.3-13.9l-2.8 7.7h5.6l-2.8-7.7z"/></g><path class="st23" d="M1312.1 524.4h24v24h-24z"/><path fill="#9490a4" d="M1312.1 581.4h24v24h-24z"/><path fill="#cdccd5" d="M1312.1 638.4h24v24h-24z"/><path fill="#e7e6ea" d="M1312.1 691.3h24v24h-24z"/><g><path class="st19" d="M1475.3 39.4h-1.6v4.7h-4.1V27.8h6c4.6 0 6.9 2.3 6.9 5.6 0 3.9-2.6 6-7.2 6zm0-8.3h-1.7v5.1h1.7c2.1 0 3.1-.9 3.1-2.6 0-1.7-1.1-2.5-3.1-2.5zM1491.2 42.6c-.9 1-1.8 1.8-3.5 1.8-2.1 0-3.7-1.5-3.7-3.4 0-2.3 1.7-4.1 7.2-4.3v-.2c0-1.3-.7-1.8-2.1-1.8-1.2 0-2.7.5-4.1 1.2l-.8-2.9c1.3-.7 3.3-1.4 5.6-1.4 4.2 0 5.6 1.9 5.5 5.3v3.6c0 .8.2.9 1 1l-.4 2.9c-2.7.3-4-.4-4.7-1.8zm0-3.9c-2.5.3-3.4.8-3.4 1.8 0 .8.6 1.3 1.5 1.3.8 0 1.5-.3 1.9-.8v-2.3zM1502.8 44.5c-3 0-4.6-1.2-4.4-4.4l.2-4.6-1.8-.3.1-2.5 1.8-.6.1-2.8h3.9v2.9h3l-.1 3.1h-3.2l-.1 4.3c-.1 1.1.6 1.6 1.6 1.6.5 0 1-.1 1.6-.3l.5 3.1c-1.2.3-1.9.5-3.2.5zM1509.8 30.3c-1.5 0-2.4-.8-2.4-2.1 0-1.4.9-2.2 2.4-2.2s2.4.8 2.4 2.2c-.1 1.3-1 2.1-2.4 2.1zm-2.1 13.8V32.2l4-.5v12.4h-4zM1517.7 39c.1 1.6 1.2 2.5 3.2 2.5 1.3 0 2.7-.5 4-1.2l.4 3.1c-1.2.6-3 1-4.7 1-4.1 0-6.8-2.3-6.8-6.3s2.7-6.5 6.6-6.5c3.4 0 5.3 2.1 5.3 5.1 0 .6-.1 1.6-.3 2.1l-7.7.2zm4.2-2.1v-.2c0-1.4-.6-2.3-1.8-2.3-1.4 0-2.2 1.2-2.3 2.6l4.1-.1zM1535.8 44.1v-7.2c0-1.5-.6-1.9-1.7-1.9-.9 0-1.7.4-2.2.9v8.2h-4V32.2l4-.5v2c1.1-1.2 2.5-2.1 4.1-2.1 2.4 0 3.8 1.6 3.8 4.2v8.3h-4zM1547.4 44.5c-3 0-4.6-1.2-4.4-4.4l.2-4.6-1.8-.3.1-2.5 1.8-.6.1-2.8h3.9v2.9h3l-.1 3.1h-3.2l-.1 4.3c-.1 1.1.6 1.6 1.6 1.6.5 0 1-.1 1.6-.3l.5 3.1c-1.2.3-1.9.5-3.2.5zM1566.4 39.5c0-1.1-1.2-1.5-3.3-2.1-2.4-.6-5.2-1.7-5.2-5 0-3 2.2-5 6.2-5 2.5 0 4.5.6 6.1 1.4l-.8 3.4c-1.6-.9-3.6-1.4-5.3-1.4-1.4 0-2.1.5-2.1 1.4 0 1.1 1.5 1.5 3.4 2 2.5.7 5.1 1.8 5.1 4.9 0 3.1-2.4 5.3-6.7 5.3-2.4 0-4.8-.6-6.3-1.5l.8-3.4c1.6.9 3.6 1.5 5.6 1.5 1.5.1 2.5-.5 2.5-1.5zM1577.7 44.5c-3 0-4.6-1.2-4.4-4.4l.2-4.6-1.8-.3.1-2.5 1.8-.6.1-2.8h3.9v2.9h3l-.1 3.1h-3.2l-.1 4.3c-.1 1.1.6 1.6 1.6 1.6.5 0 1-.1 1.6-.3l.5 3.1c-1.2.3-2 .5-3.2.5zM1588.1 44.5c-3.6 0-6.4-2.3-6.4-6.4s2.9-6.5 6.6-6.5c3.6 0 6.4 2.3 6.4 6.4s-3 6.5-6.6 6.5zm.1-9.9c-1.6 0-2.5 1.3-2.5 3.4 0 2.1.9 3.4 2.5 3.4s2.5-1.3 2.5-3.4c0-2-.9-3.4-2.5-3.4zM1604.2 31.6c3 0 5.2 2.4 5.2 6.3 0 4-2.8 6.6-6.1 6.6-.8 0-1.7-.2-2.5-.4v5.4h-4V32.2l4-.5v1.5c.8-.7 1.9-1.6 3.4-1.6zm-3.4 9.4c.5.3 1.1.5 1.8.5 1.7 0 2.7-1.4 2.7-3.4 0-2.1-.9-3.3-2.5-3.3-.9 0-1.5.3-2 .8V41zM1618.9 31.6c3 0 5.2 2.4 5.2 6.3 0 4-2.8 6.6-6.1 6.6-.8 0-1.7-.2-2.5-.4v5.4h-4V32.2l4-.5v1.5c.8-.7 1.9-1.6 3.4-1.6zm-3.4 9.4c.5.3 1.1.5 1.8.5 1.7 0 2.7-1.4 2.7-3.4 0-2.1-.9-3.3-2.5-3.3-.9 0-1.5.3-2 .8V41zM1629.6 39c.1 1.6 1.2 2.5 3.2 2.5 1.3 0 2.7-.5 4-1.2l.4 3.1c-1.2.6-3 1-4.7 1-4.1 0-6.8-2.3-6.8-6.3s2.7-6.5 6.6-6.5c3.4 0 5.3 2.1 5.3 5.1 0 .6-.1 1.6-.3 2.1l-7.7.2zm4.2-2.1v-.2c0-1.4-.6-2.3-1.8-2.3-1.4 0-2.2 1.2-2.3 2.6l4.1-.1zM1647.7 26.9l4-.5v17.7h-4v-1.2c-.8.8-1.9 1.6-3.4 1.6-3 0-5.2-2.4-5.2-6.3 0-4 2.8-6.6 6.1-6.6.9 0 1.7.2 2.5.4v-5.1zm-1.9 7.7c-1.7 0-2.7 1.4-2.7 3.4 0 2.1 1 3.3 2.5 3.3.9 0 1.5-.3 2-.8v-5.3c-.4-.4-1-.6-1.8-.6zM1668.9 31.3v12.8h-4.1V31.3h-5.2v-3.5h14.5v3.5h-5.2zM1680.6 42.6c-.9 1-1.8 1.8-3.5 1.8-2.1 0-3.7-1.5-3.7-3.4 0-2.3 1.7-4.1 7.2-4.3v-.2c0-1.3-.7-1.8-2.1-1.8-1.2 0-2.7.5-4.1 1.2l-.8-2.9c1.3-.7 3.3-1.4 5.6-1.4 4.2 0 5.6 1.9 5.5 5.3v3.6c0 .8.2.9 1 1l-.4 2.9c-2.8.3-4.1-.4-4.7-1.8zm0-3.9c-2.5.3-3.4.8-3.4 1.8 0 .8.6 1.3 1.5 1.3.8 0 1.5-.3 1.9-.8v-2.3zM1691.4 38.4v5.7h-4V26.9l4-.5v10.8l3.7-5.2h4.6l-4.4 5.7 4.5 6.3h-4.6l-3.8-5.6zM1703.2 30.3c-1.5 0-2.4-.8-2.4-2.1 0-1.4.9-2.2 2.4-2.2s2.4.8 2.4 2.2c-.1 1.3-1 2.1-2.4 2.1zm-2 13.8V32.2l4-.5v12.4h-4zM1715.8 44.1v-7.2c0-1.5-.6-1.9-1.7-1.9-.9 0-1.7.4-2.2.9v8.2h-4V32.2l4-.5v2c1.1-1.2 2.5-2.1 4.1-2.1 2.4 0 3.8 1.6 3.8 4.2v8.3h-4zM1721.9 42.7c0-1.1 1-2.3 2.5-2.7-1.4-.7-2.4-2-2.4-3.7 0-2.6 2.2-4.7 5.7-4.7 1.4 0 2.8.4 3.7.9l3.4-.3.2 3.2-2.3-.4c.2.2.3.9.3 1.3 0 2.4-2.2 4.4-5.3 4.4-.5 0-1-.1-1.6-.2-.3.2-.7.5-.7.9 0 .5.6.8 2.2.8h1.4c3.3 0 5.6.8 5.6 3.4 0 3-3.6 5-7.6 5-3.2 0-5.9-1-5.9-3.1 0-1.2 1-2.3 2.9-2.5-1.1-.4-2.1-1.2-2.1-2.3zm2.7 4c0 .9 1.2 1.6 3 1.6 1.9 0 3.4-.6 3.4-1.6s-1-1.2-3.1-1.2c-.8 0-2-.1-2.4-.1-.5.2-.9.6-.9 1.3zm3.1-8.3c1.2 0 1.8-.9 1.8-2.2s-.6-2.1-1.8-2.1c-1.1 0-1.8.9-1.8 2.2-.1 1.3.5 2.1 1.8 2.1zM1513.9 62.8l-3.6 12.3h-4.4l-3.6-12.2-.1 12.5h-3.8l.6-16.4h5.9l3.4 12.2 3.4-12.2h5.8l.5 16.3h-3.9l-.2-12.5zM1524 70.2c.1 1.6 1.2 2.5 3.2 2.5 1.3 0 2.7-.5 4-1.2l.4 3.1c-1.2.6-3 1-4.7 1-4.1 0-6.8-2.3-6.8-6.3s2.7-6.5 6.6-6.5c3.4 0 5.3 2.1 5.3 5.1 0 .7-.1 1.6-.3 2.1l-7.7.2zm4.2-2.1v-.2c0-1.4-.6-2.3-1.8-2.3-1.4 0-2.2 1.2-2.3 2.6l4.1-.1zM1542.1 58.1l4-.5v17.7h-4v-1.2c-.8.8-1.9 1.6-3.4 1.6-3 0-5.2-2.4-5.2-6.3 0-4 2.8-6.6 6.1-6.6.9 0 1.7.2 2.5.4v-5.1zm-1.8 7.7c-1.7 0-2.7 1.4-2.7 3.4 0 2.1 1 3.3 2.5 3.3.9 0 1.5-.3 2-.8v-5.3c-.4-.4-1.1-.6-1.8-.6zM1550.9 61.5c-1.5 0-2.4-.8-2.4-2.1 0-1.4.9-2.2 2.4-2.2s2.4.8 2.4 2.2c0 1.3-.9 2.1-2.4 2.1zm-2 13.8V63.4l4-.5v12.4h-4zM1561.5 75.7c-4 0-6.6-2.2-6.6-6.3 0-4 2.6-6.5 6.7-6.5 1.7 0 3.3.4 4.4 1l-.8 3c-1-.5-2.1-.9-3.2-.9-1.9 0-3 1.4-3 3.3 0 2.2 1.2 3.4 3.1 3.4 1.2 0 2.3-.3 3.2-.9l.6 3c-1 .5-2.6.9-4.4.9zM1574.6 73.8c-.9 1-1.8 1.8-3.5 1.8-2.1 0-3.7-1.5-3.7-3.4 0-2.3 1.7-4.1 7.2-4.3v-.2c0-1.3-.7-1.8-2.1-1.8-1.2 0-2.7.5-4.1 1.2l-.8-2.9c1.3-.7 3.3-1.4 5.6-1.4 4.2 0 5.6 1.9 5.5 5.3v3.6c0 .8.2.9 1 1l-.4 2.9c-2.7.3-4-.4-4.7-1.8zm0-3.9c-2.5.3-3.4.8-3.4 1.8 0 .8.6 1.3 1.5 1.3.8 0 1.5-.3 1.9-.8v-2.3zM1586.3 75.7c-3 0-4.6-1.2-4.4-4.4l.2-4.6-1.8-.3.1-2.5 1.8-.6.1-2.8h3.9v2.9h3l-.1 3.1h-3.2l-.1 4.3c-.1 1.1.6 1.6 1.6 1.6.5 0 1-.1 1.6-.3l.5 3.1c-1.2.3-2 .5-3.2.5zM1593.2 61.5c-1.5 0-2.4-.8-2.4-2.1 0-1.4.9-2.2 2.4-2.2s2.4.8 2.4 2.2c-.1 1.3-1 2.1-2.4 2.1zm-2 13.8V63.4l4-.5v12.4h-4zM1603.6 75.7c-3.6 0-6.4-2.3-6.4-6.4s2.9-6.5 6.6-6.5c3.6 0 6.4 2.3 6.4 6.4 0 4.1-3 6.5-6.6 6.5zm.1-9.9c-1.6 0-2.5 1.3-2.5 3.4s.9 3.4 2.5 3.4 2.5-1.3 2.5-3.4c0-2-.9-3.4-2.5-3.4zM1620.2 75.3v-7.2c0-1.5-.7-1.9-1.7-1.9-.9 0-1.7.4-2.2.9v8.2h-4V63.4l4-.5v2c1.1-1.2 2.5-2.1 4.1-2.1 2.4 0 3.8 1.6 3.8 4.2v8.3h-4zM1633 69.2c0-6.4 4-11 7.7-13l2.1 2.7c-3.1 1.9-6 5.5-6 10.3s2.9 8.4 6 10.3l-2.1 2.7c-3.7-2-7.7-6.6-7.7-13z"/><path class="st19" d="M1650.2 75.3v-7.2c0-1.5-.7-1.9-1.7-1.9-.9 0-1.7.4-2.2.9v8.2h-4V63.4l4-.5v2c1.1-1.2 2.5-2.1 4.1-2.1 2.4 0 3.8 1.6 3.8 4.2v8.3h-4zM1656.9 67.8l-.1-3h11l-.1 3h-10.8zm-.2 5.7l.1-3h10.8l.1 3h-11zM1670.2 75.3v-2.8c4.1-2.6 6.3-3.8 6.3-5.3 0-.9-.7-1.5-2-1.5-1.1 0-2.5.5-3.8 1.4l-.9-3c1.5-1 3.6-1.8 5.6-1.8 3.4 0 5.3 1.7 5.3 4.1 0 2.1-1.8 3.8-5.2 5.5h5.7l.1 3.2h-11.1v.2zM1688.6 69.3c3.8 0 5.8 2.1 5.8 4.9 0 3.4-2.5 6-6.7 6-1.6 0-3.5-.3-4.9-1l.4-3.4c1.2.6 3 1.1 4.4 1.1 1.8 0 3-.9 3-2.4 0-1.4-1-2.3-3.4-2.3-1.2 0-2.4.2-3.2.5l-.5-.6 1.1-9.3h9.5l.1 3.3h-6.3l-.4 3.2h1.1zM1694.4 79.4c3.1-1.9 6-5.5 6-10.3s-2.9-8.4-6-10.3l2.1-2.7c3.7 2 7.7 6.6 7.7 13s-4 11.1-7.7 13l-2.1-2.7z"/></g><g><path class="st28" d="M1558.6 526.3c0-1.7-1.2-2.3-3.9-3-2.3-.6-4.9-1.6-4.9-4.8 0-2.7 2.2-4.6 5.4-4.6 1.9 0 3.6.5 5.1 1.4l-.8 1.9c-1.2-.8-2.9-1.4-4.3-1.4-2.3 0-3.3 1.1-3.3 2.4 0 1.6 1.4 2.2 4 2.9 2.4.6 4.8 1.8 4.8 4.8 0 2.8-2.3 4.9-5.7 4.9-1.9 0-3.9-.5-5.4-1.5l.7-2c1.4.9 2.9 1.6 4.8 1.6 2 .1 3.5-1 3.5-2.6zM1564.5 516.1c-1 0-1.4-.7-1.4-1.5s.4-1.5 1.4-1.5 1.4.7 1.4 1.5c0 .7-.4 1.5-1.4 1.5zm-1 14.5v-12l2.1-.3v12.3h-2.1zM1568.4 528.8c0-1 .8-1.9 2-2.3-1.2-.7-2-2-2-3.7 0-2.3 1.7-4.5 4.8-4.5 1.3 0 2.3.3 3.1.7l3.1-.3.1 2.1-2.3-.4c.5.4.8 1.6.8 2.4 0 2.4-2 4.4-4.8 4.4-.6 0-1-.1-1.7-.3-.5.2-1.2.7-1.2 1.2 0 .7.5 1.1 2.7 1.1h1.1c3.6 0 5.2 1.1 5.2 3.2 0 2.6-2.8 4.6-6.4 4.6-3.1 0-5.5-1.4-5.5-3.5 0-1.4.9-2.5 2.5-2.8-1-.4-1.5-1.1-1.5-1.9zm1.1 4.3c0 1.3 1.5 2.2 3.8 2.2 2.2 0 4-1 4-2.4 0-1.3-1.2-1.6-3.6-1.6-.8 0-1.6-.1-2.2-.1-1.1.3-2 1-2 1.9zm3.8-7.6c1.6 0 2.5-1.1 2.5-2.8 0-1.6-.9-2.7-2.7-2.7-1.6 0-2.6 1.1-2.6 2.8 0 1.6 1.1 2.7 2.8 2.7zM1589.1 530.6v-7.5c0-2.1-.8-2.8-2.5-2.8-1.2 0-2.4.6-3.1 1.3v8.9h-2.1v-12l2.1-.3v1.8c1.1-1.1 2.5-1.8 3.9-1.8 2.4 0 3.8 1.5 3.8 4.1v8.2l-2.1.1zM1595.6 516.1c-1 0-1.4-.7-1.4-1.5s.4-1.5 1.4-1.5 1.4.7 1.4 1.5c0 .7-.4 1.5-1.4 1.5zm-1 14.5v-12l2.1-.3v12.3h-2.1zM1606.6 515c-.5-.2-1.3-.5-1.9-.5-1.2 0-1.8.7-1.8 2.5v1.7h3.8l-.1 1.9h-3.7v10h-2.1v-10l-2.1-.2.1-1.4 2-.6v-1.5c.1-3.3 1.6-4.5 3.9-4.5.9 0 1.8.3 2.4.6 0 .1-.5 2.1-.5 2zm3 1.1c-1 0-1.4-.7-1.4-1.5s.4-1.5 1.4-1.5 1.4.7 1.4 1.5c0 .7-.4 1.5-1.4 1.5zm-1 14.5v-12l2.1-.3v12.3h-2.1zM1619.2 531c-3.8 0-5.8-2.6-5.8-6.3 0-3.8 2.5-6.3 6-6.3 1.5 0 2.8.3 3.8 1l-.5 2c-1-.7-2.1-1-3.3-1-2.4 0-3.8 1.7-3.8 4.3 0 2.8 1.5 4.4 3.7 4.4 1.2 0 2.5-.3 3.4-1l.4 2c-1.1.6-2.4.9-3.9.9zM1632 529.3c-.9 1.1-2 1.7-3.3 1.7-2.2 0-3.8-1.5-3.8-3.4 0-2.1 1.5-4 7.1-4.3v-.3c0-1.9-.8-2.7-2.7-2.7-1.2 0-2.7.6-3.8 1.3l-.4-1.9c1-.7 2.8-1.4 4.5-1.4 3.2 0 4.7 1.4 4.6 4.6v5c0 1 .1 1.2 1.2 1.2l-.1 1.8c-1.9.2-2.8-.5-3.1-1.6h-.2zm.1-4.6c-3.5.5-4.8 1.2-4.8 2.7 0 1.1.8 1.8 2.1 1.8 1.1 0 2.1-.5 2.7-1.3v-3.2zM1645.3 530.6v-7.5c0-2.1-.8-2.8-2.5-2.8-1.2 0-2.4.6-3.1 1.3v8.9h-2.1v-12l2.1-.3v1.8c1.1-1.1 2.5-1.8 3.9-1.8 2.4 0 3.8 1.5 3.8 4.1v8.2l-2.1.1zM1654.5 531c-2.3 0-3.5-1.1-3.5-3.7l.2-6.7-2-.1.1-1.4 2-.6.1-2.6h2.1l-.1 2.7h3.7l-.1 1.9h-3.7l-.2 6.7c0 1.1.5 1.7 1.6 1.7.7 0 1.5-.2 2.2-.4l.4 1.9c-1 .4-1.9.6-2.8.6zM1659.4 530.6v-17.5l2.1-.3v17.9h-2.1v-.1zM1670 530.7l-.8 2.1c-1.1 3-2.3 3.9-4.2 3.9-.9 0-1.7-.3-2.5-.6l.6-2c.6.3 1.3.6 1.9.6.9 0 1.5-.5 2.3-2.6l.7-1.8-4.6-11.6h2.3l3.5 9.3 3.4-9.3h2.3l-4.9 12zM1577 556.6v-16.3h2.2v16.3h-2.2zM1597.8 556.6v-7.4c0-2.1-.8-2.8-2.3-2.8-1.3 0-2.3.7-3 1.4V556.7h-2.1v-7.4c0-2.1-.8-2.8-2.3-2.8-1.3 0-2.3.6-3 1.2v9h-2.1v-12l2.1-.3v1.6c1.1-1.1 2.4-1.6 3.8-1.6s2.5.7 3.1 2c1.3-1.3 2.7-2 4.3-2 2.2 0 3.6 1.5 3.6 4.2v8.1h-2.1v-.1zM1608.7 544.3c3.4 0 5.3 2.7 5.3 6.3s-2.5 6.4-6.1 6.4c-.7 0-1.8-.1-2.6-.3v6h-2.1v-18l2.1-.3v1.5c.9-.9 2-1.6 3.4-1.6zm-3.3 9.9c.7.6 1.6.9 2.7.9 2.4 0 3.8-2 3.8-4.4 0-2.6-1.3-4.4-3.5-4.4-1.1 0-2.1.4-2.9 1.1-.1-.1-.1 6.8-.1 6.8zM1618.8 556.6h-2.1v-12l2.1-.3v2.1c.8-1.3 1.8-2.1 3.3-2.1.8 0 1.6.2 2.2.6l-.5 2c-.6-.4-1.3-.5-1.9-.5-1.1 0-2.2.8-3.1 2.5v7.7zM1631.1 557c-3.4 0-5.7-2.5-5.7-6.3s2.4-6.4 5.9-6.4c3.4 0 5.7 2.5 5.7 6.4 0 3.8-2.5 6.3-5.9 6.3zm.1-10.8c-2.4 0-3.7 1.8-3.7 4.4 0 2.5 1.4 4.4 3.7 4.4 2.4 0 3.7-1.8 3.7-4.4 0-2.5-1.4-4.4-3.7-4.4zM1644.4 556.6h-2l-4.7-11.9h2.3l3.5 9.3 3.3-9.3h2.3l-4.7 11.9zM1652 551c.1 2.3 1.6 4 3.9 4 1.2 0 2.6-.3 3.6-1l.4 2c-1.1.6-2.5 1-4 1-3.6 0-6-2.6-6-6.2 0-3.8 2.5-6.5 5.9-6.5 2.9 0 4.5 1.8 4.5 4.7 0 .7-.1 1.4-.3 1.9l-8 .1zm6.2-1.7v-.2c0-1.8-.8-2.9-2.7-2.9-2 0-3.2 1.6-3.4 3.2l6.1-.1zM1670.8 539.1l2.1-.3v17.9h-2.1v-1.1c-.9.8-1.9 1.5-3.3 1.5-3.4 0-5.3-2.7-5.3-6.3s2.5-6.4 6.1-6.4c.9 0 1.8.2 2.6.4l-.1-5.7zm-2.6 7.1c-2.4 0-3.8 2-3.8 4.4 0 2.6 1.3 4.4 3.5 4.4 1.1 0 2.1-.4 2.9-1.1v-6.8c-.7-.6-1.6-.9-2.6-.9z"/></g><g><path class="st28" d="M1573.9 590.7c0-1.7-1.2-2.3-3.9-3-2.3-.6-4.9-1.6-4.9-4.8 0-2.7 2.2-4.6 5.4-4.6 1.9 0 3.6.5 5.1 1.4l-.8 1.9c-1.2-.8-2.9-1.4-4.3-1.4-2.3 0-3.3 1.1-3.3 2.4 0 1.6 1.4 2.2 4 2.9 2.4.6 4.8 1.8 4.8 4.8 0 2.8-2.3 4.9-5.7 4.9-1.9 0-3.9-.5-5.4-1.5l.7-2c1.4.9 2.9 1.6 4.8 1.6 2 .1 3.5-1 3.5-2.6zM1583.9 595.4c-3.4 0-5.7-2.5-5.7-6.3s2.4-6.4 5.9-6.4c3.4 0 5.7 2.5 5.7 6.4-.1 3.8-2.6 6.3-5.9 6.3zm0-10.8c-2.4 0-3.7 1.8-3.7 4.4 0 2.5 1.4 4.4 3.7 4.4 2.4 0 3.7-1.8 3.7-4.4 0-2.5-1.4-4.4-3.7-4.4zM1607.3 595v-7.4c0-2.1-.8-2.8-2.3-2.8-1.3 0-2.3.7-3 1.4V595.1h-2.1v-7.4c0-2.1-.8-2.8-2.3-2.8-1.3 0-2.3.6-3 1.2v9h-2.1v-12l2.1-.3v1.6c1.1-1.1 2.4-1.6 3.8-1.6s2.5.7 3.1 2c1.3-1.3 2.7-2 4.3-2 2.2 0 3.6 1.5 3.6 4.2v8.1h-2.1v-.1zM1614.2 589.4c.1 2.3 1.6 4 3.9 4 1.2 0 2.6-.3 3.6-1l.4 2c-1.1.6-2.5 1-4 1-3.6 0-6-2.6-6-6.2 0-3.8 2.5-6.5 5.9-6.5 2.9 0 4.5 1.8 4.5 4.7 0 .7-.1 1.4-.3 1.9l-8 .1zm6.2-1.7v-.2c0-1.8-.8-2.9-2.7-2.9-2 0-3.2 1.6-3.4 3.2l6.1-.1zM1627.3 595l-3.7-12h2.3l2.5 8.8 2.8-8.8h1.9l3 8.8 2.2-8.9h2.4l-3.6 12h-2l-3-8.9-2.9 8.9h-1.9v.1zM1650.6 595v-7.5c0-2.1-.8-2.8-2.3-2.8-1.4 0-2.6.6-3.2 1.3v8.9h-2.1v-17.5l2.1-.3v7.3c1.1-1.1 2.5-1.7 4-1.7 2.3 0 3.7 1.5 3.7 4.1v8.2h-2.2zM1662.3 593.7c-.9 1.1-2 1.7-3.3 1.7-2.2 0-3.8-1.5-3.8-3.4 0-2.1 1.5-4 7.1-4.3v-.3c0-1.9-.8-2.7-2.7-2.7-1.2 0-2.7.6-3.8 1.3l-.4-1.9c1-.7 2.8-1.4 4.5-1.4 3.2 0 4.7 1.4 4.6 4.6v5c0 1 .1 1.2 1.2 1.2l-.1 1.8c-1.9.2-2.8-.5-3.1-1.6h-.2zm0-4.6c-3.5.5-4.8 1.2-4.8 2.7 0 1.1.8 1.8 2.1 1.8 1.1 0 2.1-.5 2.7-1.3v-3.2zM1671.4 595.4c-2.3 0-3.5-1.1-3.5-3.7l.2-6.7-2-.1.1-1.4 2-.6.1-2.6h2.1l-.1 2.7h3.7l-.1 1.9h-3.7l-.2 6.7c0 1.1.5 1.7 1.6 1.7.7 0 1.5-.2 2.2-.4l.4 1.9c-1 .4-1.9.6-2.8.6zM1577 621v-16.3h2.2V621h-2.2zM1597.8 621v-7.4c0-2.1-.8-2.8-2.3-2.8-1.3 0-2.3.7-3 1.4V621.1h-2.1v-7.4c0-2.1-.8-2.8-2.3-2.8-1.3 0-2.3.6-3 1.2v9h-2.1v-12l2.1-.3v1.6c1.1-1.1 2.4-1.6 3.8-1.6s2.5.7 3.1 2c1.3-1.3 2.7-2 4.3-2 2.2 0 3.6 1.5 3.6 4.2v8.1h-2.1v-.1zM1608.7 608.7c3.4 0 5.3 2.7 5.3 6.3s-2.5 6.4-6.1 6.4c-.7 0-1.8-.1-2.6-.3v6h-2.1v-18l2.1-.3v1.5c.9-.9 2-1.6 3.4-1.6zm-3.3 9.9c.7.6 1.6.9 2.7.9 2.4 0 3.8-2 3.8-4.4 0-2.6-1.3-4.4-3.5-4.4-1.1 0-2.1.4-2.9 1.1-.1-.1-.1 6.8-.1 6.8zM1618.8 621h-2.1v-12l2.1-.3v2.1c.8-1.3 1.8-2.1 3.3-2.1.8 0 1.6.2 2.2.6l-.5 2c-.6-.4-1.3-.5-1.9-.5-1.1 0-2.2.8-3.1 2.5v7.7zM1631.1 621.4c-3.4 0-5.7-2.5-5.7-6.3s2.4-6.4 5.9-6.4c3.4 0 5.7 2.5 5.7 6.4 0 3.8-2.5 6.3-5.9 6.3zm.1-10.8c-2.4 0-3.7 1.8-3.7 4.4 0 2.5 1.4 4.4 3.7 4.4 2.4 0 3.7-1.8 3.7-4.4 0-2.5-1.4-4.4-3.7-4.4zM1644.4 621h-2l-4.7-11.9h2.3l3.5 9.3 3.3-9.3h2.3l-4.7 11.9zM1652 615.4c.1 2.3 1.6 4 3.9 4 1.2 0 2.6-.3 3.6-1l.4 2c-1.1.6-2.5 1-4 1-3.6 0-6-2.6-6-6.2 0-3.8 2.5-6.5 5.9-6.5 2.9 0 4.5 1.8 4.5 4.7 0 .7-.1 1.4-.3 1.9l-8 .1zm6.2-1.7v-.2c0-1.8-.8-2.9-2.7-2.9-2 0-3.2 1.6-3.4 3.2l6.1-.1zM1670.8 603.5l2.1-.3V621h-2.1v-1.1c-.9.8-1.9 1.5-3.3 1.5-3.4 0-5.3-2.7-5.3-6.3s2.5-6.4 6.1-6.4c.9 0 1.8.2 2.6.4l-.1-5.6zm-2.6 7.1c-2.4 0-3.8 2-3.8 4.4 0 2.6 1.3 4.4 3.5 4.4 1.1 0 2.1-.4 2.9-1.1v-6.8c-.7-.6-1.6-.9-2.6-.9z"/></g><g><path class="st28" d="M1631.5 642.7h2.2v16.4h-2.4l-8.7-13.3v13.1h-2.2v-16.3h2.4l8.7 13.1v-13zM1642.4 659.3c-3.4 0-5.7-2.5-5.7-6.3s2.4-6.4 5.9-6.4c3.4 0 5.7 2.5 5.7 6.4-.1 3.8-2.5 6.3-5.9 6.3zm0-10.8c-2.4 0-3.7 1.8-3.7 4.4 0 2.5 1.4 4.4 3.7 4.4 2.4 0 3.7-1.8 3.7-4.4 0-2.4-1.3-4.4-3.7-4.4zM1658.7 658.9v-7.5c0-2.1-.8-2.8-2.5-2.8-1.2 0-2.4.6-3.1 1.3v8.9h-2.1v-12l2.1-.3v1.8c1.1-1.1 2.5-1.8 3.9-1.8 2.4 0 3.8 1.5 3.8 4.1v8.2l-2.1.1zM1665.6 653.3c.1 2.3 1.6 4 3.9 4 1.2 0 2.6-.3 3.6-1l.4 2c-1.1.6-2.5 1-4 1-3.6 0-6-2.6-6-6.2 0-3.8 2.5-6.5 5.9-6.5 2.9 0 4.5 1.8 4.5 4.7 0 .7-.1 1.4-.3 1.9l-8 .1zm6.2-1.7v-.2c0-1.8-.8-2.9-2.7-2.9-2 0-3.2 1.6-3.4 3.2l6.1-.1z"/></g><g><path class="st28" d="M1521.2 712.9h-4.8v-16.3h4.9c5.4 0 8.6 3.2 8.6 8 0 5.1-3.1 8.3-8.7 8.3zm0-14.2h-2.6v12.1h2.7c3.9 0 6.4-2.1 6.4-6 0-4-2.4-6.1-6.5-6.1zM1537.8 713.3c-3.4 0-5.7-2.5-5.7-6.3s2.4-6.4 5.9-6.4c3.4 0 5.7 2.5 5.7 6.4 0 3.8-2.5 6.3-5.9 6.3zm0-10.8c-2.4 0-3.7 1.8-3.7 4.4 0 2.5 1.4 4.4 3.7 4.4 2.4 0 3.7-1.8 3.7-4.4.1-2.5-1.3-4.4-3.7-4.4zM1554.1 712.9v-7.5c0-2.1-.8-2.8-2.5-2.8-1.2 0-2.4.6-3.1 1.3v8.9h-2.1v-12l2.1-.3v1.8c1.1-1.1 2.5-1.8 3.9-1.8 2.4 0 3.8 1.5 3.8 4.1v8.2l-2.1.1zM1560.7 695.6c1.1 0 2.2 1 2.2 2.4 0 2.2-1.9 3.8-3.8 5.1l-.9-.9c1.8-1.3 2.7-2.4 2.7-3.3 0-.6-.5-1.1-1.9-1.7.1-.9.6-1.6 1.7-1.6zM1568.9 713.3c-2.3 0-3.5-1.1-3.5-3.7l.2-6.7-2-.1.1-1.4 2-.6.1-2.6h2.1l-.1 2.7h3.7l-.1 1.9h-3.7l-.2 6.7c0 1.1.5 1.7 1.6 1.7.7 0 1.5-.2 2.2-.4l.4 1.9c-1 .4-1.9.6-2.8.6zM1582.5 704.4l6.9-7.7h2.8l-7.5 8 7.6 8.2h-2.8l-6.9-7.7v7.7h-2.2v-16.3h2.2c-.2.1-.2 7.8-.1 7.8zM1602 712.9v-7.5c0-2.1-.8-2.8-2.5-2.8-1.2 0-2.4.6-3.1 1.3v8.9h-2.1v-12l2.1-.3v1.8c1.1-1.1 2.5-1.8 3.9-1.8 2.4 0 3.8 1.5 3.8 4.1v8.2l-2.1.1zM1612.5 713.3c-3.4 0-5.7-2.5-5.7-6.3s2.4-6.4 5.9-6.4c3.4 0 5.7 2.5 5.7 6.4 0 3.8-2.5 6.3-5.9 6.3zm0-10.8c-2.4 0-3.7 1.8-3.7 4.4 0 2.5 1.4 4.4 3.7 4.4 2.4 0 3.7-1.8 3.7-4.4 0-2.5-1.3-4.4-3.7-4.4zM1623 713l-3.7-12h2.3l2.5 8.8 2.8-8.8h2l3 8.8 2.2-8.9h2.4l-3.6 12h-2l-3-8.9-2.9 8.9h-2v.1zM1636.9 718.1h-1.6l6.3-23.4h1.6l-6.3 23.4zM1655.6 696.7h2.2v16.4h-2.4l-8.7-13.3v13.1h-2.2v-16.3h2.4l8.7 13.1v-13zM1674.6 712.9h-2.3l-1.5-4.3h-7l-1.5 4.3h-2.3l6.1-16.3h2.5l6 16.3zm-7.3-13.9l-2.8 7.7h5.6l-2.8-7.7z"/></g><path class="st14" d="M591.6 524.4h24v24h-24z"/><path fill="#ffcaa7" d="M591.6 581.4h24v24h-24z"/><path fill="#ffe2d0" d="M591.6 638.4h24v24h-24z"/><path fill="#ffede1" d="M591.6 691.3h24v24h-24z"/></g></svg>