<svg xmlns="http://www.w3.org/2000/svg" viewBox="0 0 299.09 218.38"><style>.st1{fill:#595478}.st2{fill:#f9b990}.st3{fill:#bbccd2}.st4{fill:#231f20}.st9{fill:none}.st10{fill:#fff}.st12{enable-background:new}</style><path fill="#f6f8f9" d="M8.56.44h281.6v173.12H8.56z" id="Background"/><g id="Type"><path transform="rotate(90 98.578 20.416)" class="st1" d="M90.49-67.18h16.19v175.19H90.49z"/><path transform="rotate(90 198.357 20.416)" class="st2" d="M190.26 7.59h16.19v25.64h-16.19z"/><path transform="rotate(90 249.773 20.416)" class="st3" d="M241.68-19h16.19v78.83h-16.19z"/><path transform="rotate(90 69.266 53.019)" class="st1" d="M61.17-5.26h16.19V111.3H61.17z"/><path transform="rotate(90 155.447 53.019)" class="st2" d="M147.35 25.07h16.19v55.89h-16.19z"/><path transform="rotate(90 236.023 53.019)" class="st3" d="M227.93-.15h16.19v106.33h-16.19z"/><path transform="rotate(90 97.112 86.252)" class="st1" d="M89.02.13h16.19v172.25H89.02z"/><path transform="rotate(90 201.383 86.252)" class="st2" d="M193.29 68.18h16.19v36.14h-16.19z"/><path transform="rotate(90 254.396 86.252)" class="st3" d="M246.3 51.46h16.19v69.58H246.3z"/><path transform="rotate(90 65.166 119.557)" class="st1" d="M57.07 65.38h16.19v108.36H57.07z"/><path transform="rotate(90 137.41 119.557)" class="st2" d="M129.32 101.63h16.19v35.84h-16.19z"/><path transform="rotate(90 222.108 119.557)" class="st3" d="M214.02 52.48h16.19v134.16h-16.19z"/><path transform="rotate(90 80.174 152.8)" class="st1" d="M72.08 83.61h16.19v138.38H72.08z"/><path transform="rotate(90 160.537 152.8)" class="st2" d="M152.44 141.63h16.19v22.35h-16.19z"/><path transform="rotate(90 230.485 152.8)" class="st3" d="M222.39 94.1h16.19v117.41h-16.19z"/><path class="st4" d="M120.97 181.01v.95h-.44v-.95h-1.7l-.05-.34 1.69-2.49h.51v2.4h.57l.02.43h-.6zm-.44-2.23l-1.23 1.81h1.23v-1.81zM123.37 182.06c-.79 0-1.28-.75-1.28-1.96s.51-1.97 1.3-1.97 1.28.75 1.28 1.96-.51 1.97-1.3 1.97zm0-3.5c-.45 0-.79.45-.79 1.53 0 1.06.35 1.52.81 1.52s.79-.46.79-1.51c0-1.08-.35-1.54-.81-1.54zM259.66 182.05l-.12-.4c.89-.22 1.49-.74 1.69-1.49l-.02-.01c-.25.23-.6.38-.97.38-.59 0-1.05-.46-1.05-1.16 0-.71.48-1.25 1.22-1.25.88 0 1.3.72 1.3 1.55 0 1.04-.67 2.05-2.05 2.38zm.74-3.48c-.44 0-.73.33-.73.79 0 .47.27.74.7.74.34 0 .67-.16.84-.32.02-.07.03-.14.03-.23 0-.53-.3-.98-.84-.98zM263.64 182.06c-.79 0-1.28-.75-1.28-1.96s.51-1.97 1.3-1.97 1.28.75 1.28 1.96-.51 1.97-1.3 1.97zm0-3.5c-.45 0-.79.45-.79 1.53 0 1.06.35 1.52.81 1.52.46 0 .79-.46.79-1.51 0-1.08-.35-1.54-.81-1.54zM93.24 180.89c0 .71-.61 1.16-1.35 1.16-.37 0-.82-.11-1.06-.26l.09-.46c.23.13.6.27.98.27.44 0 .84-.23.84-.67 0-.38-.31-.65-.85-.65-.17 0-.39.02-.55.05v-.41c.74-.17 1.27-.41 1.27-.84 0-.31-.23-.52-.66-.52-.29 0-.65.14-.91.38l-.19-.44c.26-.21.69-.39 1.1-.39.68 0 1.15.34 1.15.91 0 .44-.35.77-.95.94.75.02 1.09.47 1.09.93zM95.18 182.06c-.79 0-1.28-.75-1.28-1.96s.51-1.97 1.3-1.97 1.28.75 1.28 1.96-.51 1.97-1.3 1.97zm0-3.5c-.45 0-.79.45-.79 1.53 0 1.06.35 1.52.81 1.52s.79-.46.79-1.51c0-1.08-.36-1.54-.81-1.54zM9.43 182.06c-.79 0-1.28-.75-1.28-1.96s.51-1.97 1.3-1.97 1.28.75 1.28 1.96c.01 1.21-.5 1.97-1.3 1.97zm0-3.5c-.45 0-.79.45-.79 1.53 0 1.06.35 1.52.81 1.52s.79-.46.79-1.51c0-1.08-.35-1.54-.81-1.54zM203.13 178.69l.02-.47h2.43l.05.41-1.68 3.34h-.49l1.67-3.28h-2zM207.43 182.06c-.79 0-1.28-.75-1.28-1.96s.51-1.97 1.3-1.97 1.28.75 1.28 1.96-.51 1.97-1.3 1.97zm0-3.5c-.45 0-.79.45-.79 1.53 0 1.06.35 1.52.81 1.52.46 0 .79-.46.79-1.51 0-1.08-.36-1.54-.81-1.54zM286.92 178.77l-.94.25-.02-.46 1.42-.4v3.8h-.47v-3.19zM289.8 182.06c-.79 0-1.28-.75-1.28-1.96s.51-1.97 1.3-1.97 1.28.75 1.28 1.96-.51 1.97-1.3 1.97zm0-3.5c-.45 0-.79.45-.79 1.53 0 1.06.35 1.52.81 1.52.46 0 .79-.46.79-1.51 0-1.08-.36-1.54-.81-1.54zM293 182.06c-.79 0-1.28-.75-1.28-1.96s.51-1.97 1.3-1.97 1.28.75 1.28 1.96-.51 1.97-1.3 1.97zm0-3.5c-.45 0-.79.45-.79 1.53 0 1.06.35 1.52.81 1.52s.79-.46.79-1.51c0-1.08-.35-1.54-.81-1.54zM177.05 178.14l.12.4c-.88.22-1.49.74-1.69 1.49l.02.01c.25-.23.6-.38.97-.38.59 0 1.06.46 1.06 1.16 0 .71-.49 1.25-1.23 1.25-.88 0-1.3-.72-1.3-1.55 0-1.05.66-2.05 2.05-2.38zm-.73 3.48c.44 0 .73-.33.73-.79 0-.47-.27-.74-.7-.74-.34 0-.67.16-.84.32-.02.07-.03.14-.03.23-.01.52.29.98.84.98zM179.42 182.06c-.79 0-1.28-.75-1.28-1.96s.51-1.97 1.3-1.97 1.28.75 1.28 1.96-.51 1.97-1.3 1.97zm0-3.5c-.45 0-.79.45-.79 1.53 0 1.06.35 1.52.81 1.52.46 0 .79-.46.79-1.51 0-1.08-.35-1.54-.81-1.54zM148.03 179.72c.75 0 1.3.41 1.3 1.11 0 .73-.53 1.23-1.31 1.23-.39 0-.8-.11-1.03-.26l.09-.47c.23.14.6.28.95.28.48 0 .82-.26.82-.76 0-.42-.31-.7-.85-.7-.33 0-.64.08-.8.16l-.1-.09.26-2h1.91l.02.47h-1.55l-.14 1.08c.09-.03.23-.05.43-.05zM151.29 182.06c-.79 0-1.28-.75-1.28-1.96s.51-1.97 1.3-1.97 1.28.75 1.28 1.96c.01 1.21-.5 1.97-1.3 1.97zm0-3.5c-.45 0-.79.45-.79 1.53 0 1.06.35 1.52.81 1.52s.79-.46.79-1.51c0-1.08-.35-1.54-.81-1.54zM232.4 182.06c-.86 0-1.26-.47-1.26-1.03 0-.52.41-.82.73-.97-.36-.19-.67-.43-.67-.86 0-.62.46-1.08 1.23-1.08.8 0 1.17.49 1.17 1.03 0 .46-.34.76-.65.93.38.2.71.44.71.89 0 .59-.43 1.09-1.26 1.09zm-.18-1.84c-.35.14-.61.4-.61.76 0 .4.34.65.81.65.5 0 .76-.22.76-.59 0-.43-.45-.68-.96-.82zm.19-1.67c-.48 0-.73.28-.73.6 0 .38.42.64.93.77.31-.14.52-.38.52-.71 0-.41-.32-.66-.72-.66zM235.56 182.06c-.79 0-1.28-.75-1.28-1.96s.51-1.97 1.3-1.97 1.28.75 1.28 1.96-.51 1.97-1.3 1.97zm0-3.5c-.45 0-.79.45-.79 1.53 0 1.06.35 1.52.81 1.52.46 0 .79-.46.79-1.51 0-1.08-.36-1.54-.81-1.54zM62.8 181.97l-.02-.49c1.13-1.07 1.8-1.56 1.8-2.22 0-.41-.29-.68-.71-.68-.32 0-.65.17-.89.4l-.17-.43c.23-.22.66-.42 1.1-.42.7 0 1.18.45 1.18 1.12 0 .71-.62 1.22-1.78 2.27h1.87l.02.45h-2.4zM67.09 182.06c-.79 0-1.28-.75-1.28-1.96s.51-1.97 1.3-1.97 1.28.75 1.28 1.96-.51 1.97-1.3 1.97zm0-3.5c-.45 0-.79.45-.79 1.53 0 1.06.35 1.52.81 1.52.46 0 .79-.46.79-1.51 0-1.08-.36-1.54-.81-1.54zM35.9 178.77l-.94.25-.02-.46 1.42-.4v3.8h-.46v-3.19zM38.78 182.06c-.79 0-1.28-.75-1.28-1.96s.51-1.97 1.3-1.97 1.28.75 1.28 1.96-.51 1.97-1.3 1.97zm0-3.5c-.45 0-.79.45-.79 1.53 0 1.06.35 1.52.81 1.52.46 0 .79-.46.79-1.51 0-1.08-.35-1.54-.81-1.54z"/><linearGradient id="SVGID_1_" gradientUnits="userSpaceOnUse" x1="11.514" y1="176.859" x2="11.514" y2="176.859"><stop offset="0" stop-color="#d8d8d9" stop-opacity=".25"/><stop offset=".164" stop-color="#dcdcdd" stop-opacity=".487"/><stop offset=".332" stop-color="#e8e8e9" stop-opacity=".731"/><stop offset=".502" stop-color="#fdfdfd" stop-opacity=".978"/><stop offset=".518" stop-color="#fff"/></linearGradient><path fill="url(#SVGID_1_)" d="M11.51 177.76v-1.8"/><linearGradient id="SVGID_00000179626655813751807730000002937467115993911485_" gradientUnits="userSpaceOnUse" x1="24.296" y1="176.859" x2="24.296" y2="176.859"><stop offset="0" stop-color="#d8d8d9" stop-opacity=".25"/><stop offset=".164" stop-color="#dcdcdd" stop-opacity=".487"/><stop offset=".332" stop-color="#e8e8e9" stop-opacity=".731"/><stop offset=".502" stop-color="#fdfdfd" stop-opacity=".978"/><stop offset=".518" stop-color="#fff"/></linearGradient><path fill="url(#SVGID_00000179626655813751807730000002937467115993911485_)" d="M24.3 177.76v-1.8"/><linearGradient id="SVGID_00000037672190176616395730000007819001418952823701_" gradientUnits="userSpaceOnUse" x1="37.078" y1="176.859" x2="37.078" y2="176.859"><stop offset="0" stop-color="#d8d8d9" stop-opacity=".25"/><stop offset=".164" stop-color="#dcdcdd" stop-opacity=".487"/><stop offset=".332" stop-color="#e8e8e9" stop-opacity=".731"/><stop offset=".502" stop-color="#fdfdfd" stop-opacity=".978"/><stop offset=".518" stop-color="#fff"/></linearGradient><path fill="url(#SVGID_00000037672190176616395730000007819001418952823701_)" d="M37.08 177.76v-1.8"/><linearGradient id="SVGID_00000078006820827941536020000016249836270580389044_" gradientUnits="userSpaceOnUse" x1="49.86" y1="176.859" x2="49.86" y2="176.859"><stop offset="0" stop-color="#d8d8d9" stop-opacity=".25"/><stop offset=".164" stop-color="#dcdcdd" stop-opacity=".487"/><stop offset=".332" stop-color="#e8e8e9" stop-opacity=".731"/><stop offset=".502" stop-color="#fdfdfd" stop-opacity=".978"/><stop offset=".518" stop-color="#fff"/></linearGradient><path fill="url(#SVGID_00000078006820827941536020000016249836270580389044_)" d="M49.86 177.76v-1.8"/><path class="st9" d="M12.27 3.48h105.29v6.37H12.27z"/><path class="st4" d="M14.57 7.36c0-.38-.29-.53-.9-.69-.53-.14-1.12-.37-1.12-1.1 0-.63.51-1.06 1.25-1.06.43 0 .82.11 1.18.33l-.18.45c-.29-.19-.66-.31-1-.31-.54 0-.76.25-.76.56 0 .38.32.51.91.67.55.14 1.1.41 1.1 1.12 0 .65-.53 1.12-1.32 1.12-.44 0-.89-.13-1.25-.35l.17-.46c.32.21.66.36 1.1.36.48-.01.82-.27.82-.64zM18.63 5.29c-.33-.22-.64-.32-1.03-.32-.82 0-1.36.56-1.36 1.49 0 .93.55 1.52 1.37 1.52.4 0 .8-.16 1.06-.37l.08.51c-.31.19-.74.31-1.16.31-1.1 0-1.88-.76-1.88-1.95s.79-1.97 1.88-1.97c.43 0 .88.12 1.19.31l-.15.47zM22.2 8.35V6.7h-2.06v1.66h-.51V4.61h.51v1.63h2.06V4.61h.5v3.75h-.5zM23.81 8.35V4.61h.5v3.75h-.5zM25.05 8.35v-.38l2.12-2.89h-2.09v-.47h2.72V5l-2.1 2.88h2.11v.47h-2.76zM30.17 8.44c-1.1 0-1.88-.77-1.88-1.95 0-1.12.78-1.97 1.88-1.97 1.1 0 1.88.76 1.88 1.95 0 1.12-.78 1.97-1.88 1.97zm-.02-3.47c-.8 0-1.36.59-1.36 1.49 0 .92.56 1.52 1.38 1.52.8 0 1.36-.6 1.36-1.5.01-.91-.55-1.51-1.38-1.51zM33.96 7.11l-.49.01v1.24h-.51V4.61H34c1.03 0 1.49.51 1.49 1.21-.01.84-.6 1.28-1.53 1.29zm.01-2.03h-.5v1.55l.55-.01c.63-.01.95-.29.95-.78 0-.5-.33-.76-1-.76zM38.84 8.35V6.7h-2.06v1.66h-.51V4.61h.51v1.63h2.06V4.61h.5v3.75h-.5zM40.96 8.35h-.51V4.61h1.12c.91 0 1.38.43 1.38 1.1 0 .56-.33.91-.85 1.08l1.01 1.57h-.61l-.9-1.49-.64.04v1.44zm.62-1.91c.49-.02.86-.25.86-.71 0-.44-.36-.65-.93-.65h-.55v1.39l.62-.03zM43.88 8.35V4.61h2.38v.47h-1.87v1.16h1.55v.47h-1.55v1.17h1.87v.47h-2.38zM49.67 4.61h.5v3.78h-.55l-2.01-3.06v3.02h-.5V4.61h.56l2 3.02V4.61zM51.28 8.35V4.61h.5v3.75h-.5zM55.84 8.35h-.52l-.35-.98h-1.62l-.35.98h-.53l1.41-3.75h.58l1.38 3.75zm-1.68-3.22l-.65 1.77h1.29l-.64-1.77zM58.05 7.04c0-1.49.97-2.51 1.67-2.86l.22.31c-.65.35-1.46 1.28-1.46 2.55 0 1.26.81 2.19 1.46 2.54l-.21.32c-.71-.36-1.68-1.37-1.68-2.86zM62.04 8.35V6.63c0-.47-.18-.64-.57-.64-.29 0-.56.15-.72.3v2.06h-.49V5.6l.49-.08v.41c.25-.25.58-.41.89-.41.56 0 .89.35.89.95v1.89h-.49zM63.44 6.62l-.03-.43h2.39l-.03.43h-2.33zm-.03 1.09l.03-.43h2.33l.03.43h-2.39zM67.29 5.16l-.94.25-.02-.46 1.42-.4v3.8h-.47V5.16zM68.84 5.07l.02-.47h2.43l.05.41-1.68 3.34h-.49l1.67-3.28h-2zM72.05 8.35l-.02-.49c1.13-1.07 1.8-1.56 1.8-2.22 0-.41-.29-.68-.71-.68-.32 0-.65.17-.89.4l-.17-.43c.23-.22.66-.42 1.1-.42.7 0 1.18.45 1.18 1.12 0 .71-.62 1.22-1.78 2.27h1.87l.02.45h-2.4zM74.87 9.58c.65-.35 1.46-1.28 1.46-2.54 0-1.27-.8-2.19-1.46-2.55l.22-.31c.71.35 1.67 1.37 1.67 2.86s-.97 2.5-1.68 2.85l-.21-.31z"/><g><path class="st10" d="M61.8 55.34v1.27h-.59v-1.27h-2.27l-.07-.45 2.25-3.32h.68v3.2h.76l.02.57h-.78zm-.59-2.99l-1.64 2.42h1.64v-2.42zM63.1 56.61l-.03-.65c1.51-1.42 2.41-2.09 2.41-2.96 0-.54-.39-.9-.94-.9-.42 0-.87.23-1.19.54l-.23-.58c.31-.29.88-.56 1.46-.56.94 0 1.58.6 1.58 1.49 0 .95-.82 1.62-2.37 3.02h2.49l.03.6H63.1zM68.3 54.07c-.82 0-1.33-.61-1.33-1.32 0-.73.51-1.33 1.33-1.33.82 0 1.33.61 1.33 1.33 0 .72-.5 1.32-1.33 1.32zm0-2.24c-.56 0-.9.41-.9.92 0 .48.34.9.9.9s.9-.42.9-.9c0-.51-.34-.92-.9-.92zm-.21 4.9h-.5l3.98-5.23h.5l-3.98 5.23zm3.25.08c-.82 0-1.33-.61-1.33-1.33 0-.71.5-1.32 1.33-1.32.82 0 1.33.61 1.33 1.32 0 .72-.51 1.33-1.33 1.33zm0-2.24c-.56 0-.9.42-.9.9 0 .51.34.92.9.92s.9-.41.9-.92c0-.48-.34-.9-.9-.9z"/></g><g><path class="st4" d="M147.28 56.61l-.03-.65c1.51-1.42 2.41-2.09 2.41-2.96 0-.54-.39-.9-.94-.9-.42 0-.87.23-1.19.54l-.23-.58c.31-.29.88-.56 1.46-.56.94 0 1.58.6 1.58 1.49 0 .95-.82 1.62-2.38 3.02h2.5l.03.6h-3.21zM152.92 56.73c-1.06 0-1.7-1-1.7-2.61 0-1.61.68-2.62 1.74-2.62s1.7 1 1.7 2.61c0 1.6-.68 2.62-1.74 2.62zm0-4.66c-.6 0-1.05.6-1.05 2.04 0 1.41.47 2.03 1.08 2.03s1.05-.61 1.05-2.02c0-1.44-.47-2.05-1.08-2.05zM156.62 54.07c-.82 0-1.33-.61-1.33-1.32 0-.73.51-1.33 1.33-1.33.82 0 1.33.61 1.33 1.33-.01.72-.51 1.32-1.33 1.32zm0-2.24c-.56 0-.9.41-.9.92 0 .48.34.9.9.9s.9-.42.9-.9c-.01-.51-.34-.92-.9-.92zm-.22 4.9h-.5l3.98-5.23h.5l-3.98 5.23zm3.26.08c-.82 0-1.33-.61-1.33-1.33 0-.71.5-1.32 1.33-1.32.82 0 1.33.61 1.33 1.32-.01.72-.52 1.33-1.33 1.33zm0-2.24c-.56 0-.9.42-.9.9 0 .51.34.92.9.92s.9-.41.9-.92c-.01-.48-.35-.9-.9-.9z"/></g><g><path class="st4" d="M236.41 55.18c0 .95-.82 1.55-1.8 1.55-.49 0-1.09-.15-1.42-.34l.12-.61c.3.17.8.36 1.3.36.59 0 1.12-.31 1.12-.89 0-.5-.41-.87-1.14-.87-.22 0-.52.03-.74.07v-.55c.98-.23 1.69-.55 1.69-1.12 0-.42-.31-.7-.88-.7-.39 0-.87.19-1.21.5l-.25-.58c.35-.28.92-.52 1.46-.52.9 0 1.54.45 1.54 1.22 0 .59-.46 1.02-1.27 1.26 1.03 0 1.48.6 1.48 1.22zM238.95 56.73c-1.15 0-1.68-.63-1.68-1.38 0-.69.55-1.09.98-1.29-.48-.25-.89-.58-.89-1.14 0-.83.62-1.44 1.64-1.44 1.07 0 1.56.65 1.56 1.38 0 .62-.46 1.02-.86 1.24.5.26.94.59.94 1.19 0 .77-.58 1.44-1.69 1.44zm-.24-2.45c-.46.19-.81.54-.81 1.01 0 .53.45.87 1.08.87.66 0 1.02-.3 1.02-.79 0-.57-.6-.91-1.29-1.09zm.27-2.23c-.64 0-.98.37-.98.8 0 .51.56.85 1.24 1.02.41-.19.69-.51.69-.95 0-.53-.43-.87-.95-.87zM242.63 54.07c-.82 0-1.33-.61-1.33-1.32 0-.73.51-1.33 1.33-1.33.82 0 1.33.61 1.33 1.33 0 .72-.5 1.32-1.33 1.32zm0-2.24c-.56 0-.9.41-.9.92 0 .48.34.9.9.9s.9-.42.9-.9c0-.51-.34-.92-.9-.92zm-.21 4.9h-.5l3.98-5.23h.5l-3.98 5.23zm3.25.08c-.82 0-1.33-.61-1.33-1.33 0-.71.5-1.32 1.33-1.32.82 0 1.33.61 1.33 1.32 0 .72-.51 1.33-1.33 1.33zm0-2.24c-.56 0-.9.42-.9.9 0 .51.34.92.9.92s.9-.41.9-.92c0-.48-.34-.9-.9-.9z"/></g><g><path class="st9" d="M12.27 35.76h105.29v6.37H12.27z"/><path class="st4" d="M15.42 39.58c0 .64-.43 1.06-1.39 1.06h-1.28v-3.75h1.24c.91 0 1.31.41 1.31 1 0 .38-.22.67-.64.82.49.12.76.45.76.87zm-1.39-2.22h-.77v1.18h.7c.54 0 .83-.24.83-.61 0-.36-.27-.57-.76-.57zm-.04 1.63h-.74v1.18h.82c.56 0 .83-.2.83-.59.01-.43-.38-.59-.91-.59zM16.33 40.64v-3.75h.5v3.75h-.5zM18.94 39.39l-.49.01v1.24h-.51v-3.75h1.04c1.03 0 1.49.51 1.49 1.21-.01.85-.59 1.28-1.53 1.29zm.01-2.03h-.5v1.55l.55-.01c.63-.01.95-.29.95-.78 0-.5-.33-.76-1-.76zM23 40.73c-1.1 0-1.88-.77-1.88-1.95 0-1.12.78-1.97 1.88-1.97 1.1 0 1.88.76 1.88 1.95 0 1.11-.78 1.97-1.88 1.97zm-.01-3.48c-.8 0-1.36.59-1.36 1.49 0 .92.56 1.52 1.38 1.52.8 0 1.36-.6 1.36-1.5.01-.91-.56-1.51-1.38-1.51zM25.79 40.64v-3.75h.51v3.27h1.81v.48h-2.32zM32 40.64h-.52l-.35-.98H29.5l-.35.98h-.53l1.41-3.75h.58L32 40.64zm-1.68-3.22l-.65 1.77h1.29l-.64-1.77zM33.19 40.64h-.51v-3.75h1.12c.91 0 1.38.43 1.38 1.1 0 .56-.33.91-.85 1.08l1.01 1.57h-.61l-.91-1.49-.64.04v1.45zm.62-1.92c.49-.02.86-.25.86-.71 0-.44-.36-.65-.93-.65h-.55v1.39l.62-.03zM38.42 40.64h-1.1v-3.75h1.13c1.24 0 1.98.73 1.98 1.85 0 1.15-.72 1.9-2.01 1.9zm0-3.28h-.59v2.8h.62c.89 0 1.48-.47 1.48-1.39-.01-.92-.56-1.41-1.51-1.41zM41.34 40.64v-3.75h.5v3.75h-.5zM44.79 39.64c0-.38-.29-.53-.9-.69-.53-.14-1.12-.37-1.12-1.1 0-.63.51-1.06 1.25-1.06.43 0 .82.11 1.18.33l-.18.44c-.29-.19-.66-.31-1-.31-.54 0-.76.25-.76.56 0 .38.32.51.91.67.55.14 1.1.41 1.1 1.12 0 .65-.53 1.12-1.32 1.12-.44 0-.89-.13-1.25-.35l.17-.46c.32.21.66.36 1.1.36.48 0 .82-.26.82-.63zM47.83 40.73c-1.1 0-1.88-.77-1.88-1.95 0-1.12.78-1.97 1.88-1.97 1.1 0 1.88.76 1.88 1.95 0 1.11-.78 1.97-1.88 1.97zm-.02-3.48c-.8 0-1.36.59-1.36 1.49 0 .92.56 1.52 1.38 1.52.8 0 1.36-.6 1.36-1.5.01-.91-.55-1.51-1.38-1.51zM51.13 40.64h-.51v-3.75h1.12c.91 0 1.38.43 1.38 1.1 0 .56-.33.91-.85 1.08l1.01 1.57h-.61l-.91-1.49-.64.04v1.45zm.62-1.92c.49-.02.86-.25.86-.71 0-.44-.36-.65-.93-.65h-.55v1.39l.62-.03zM55.15 40.64h-1.1v-3.75h1.13c1.24 0 1.98.73 1.98 1.85 0 1.15-.72 1.9-2.01 1.9zm0-3.28h-.59v2.8h.62c.89 0 1.48-.47 1.48-1.39-.01-.92-.56-1.41-1.51-1.41zM58.06 40.64v-3.75h2.38v.47h-1.87v1.16h1.55v.47h-1.55v1.17h1.87v.47h-2.38zM61.8 40.64h-.51v-3.75h1.12c.91 0 1.38.43 1.38 1.1 0 .56-.33.91-.85 1.08l1.01 1.57h-.61l-.91-1.49-.64.04v1.45zm.61-1.92c.49-.02.86-.25.86-.71 0-.44-.36-.65-.93-.65h-.54v1.39l.61-.03zM66.26 39.32c0-1.49.97-2.51 1.67-2.86l.22.31c-.65.35-1.46 1.28-1.46 2.55 0 1.26.81 2.19 1.46 2.54l-.21.31c-.71-.35-1.68-1.35-1.68-2.85zM70.25 40.64v-1.73c0-.47-.18-.64-.57-.64-.29 0-.56.15-.72.3v2.06h-.49v-2.76l.49-.08v.41c.25-.25.58-.41.89-.41.56 0 .89.35.89.95v1.89h-.49zM71.65 38.9l-.03-.43H74l-.03.43h-2.32zm-.03 1.09l.03-.43h2.33l.02.43h-2.38zM75.5 37.44l-.94.25-.02-.46 1.42-.4v3.8h-.46v-3.19zM78.17 38.39c.75 0 1.3.41 1.3 1.11 0 .73-.53 1.23-1.31 1.23-.39 0-.8-.11-1.03-.26l.08-.47c.23.14.6.28.95.28.48 0 .82-.26.82-.76 0-.42-.31-.7-.85-.7-.33 0-.64.08-.8.16l-.1-.09.26-2h1.91l.02.47h-1.55l-.14 1.08c.1-.03.24-.05.44-.05zM80.56 40.71l-.12-.4c.89-.22 1.49-.74 1.69-1.49l-.02-.01c-.25.23-.6.38-.97.38-.59 0-1.05-.46-1.05-1.16 0-.71.48-1.25 1.22-1.25.88 0 1.3.72 1.3 1.55 0 1.05-.67 2.06-2.05 2.38zm.74-3.47c-.44 0-.73.33-.73.79 0 .47.27.74.7.74.34 0 .67-.16.84-.32.02-.07.03-.14.03-.23 0-.53-.3-.98-.84-.98zM83 41.87c.65-.35 1.46-1.28 1.46-2.54 0-1.27-.8-2.19-1.46-2.55l.22-.31c.71.35 1.67 1.37 1.67 2.86s-.97 2.5-1.68 2.85l-.21-.31z"/></g><g><path class="st10" d="M90.69 84.46l.16.54c-1.18.3-1.99.99-2.25 1.98l.02.01c.33-.31.8-.51 1.29-.51.79 0 1.41.61 1.41 1.54 0 .94-.65 1.66-1.64 1.66-1.17 0-1.73-.96-1.73-2.07.01-1.38.9-2.72 2.74-3.15zm-.97 4.64c.58 0 .97-.44.97-1.05 0-.62-.36-.99-.94-.99-.46 0-.89.22-1.12.43-.02.09-.04.19-.04.3 0 .7.39 1.31 1.13 1.31zM92.11 89.56l-.03-.65c1.51-1.42 2.41-2.09 2.41-2.96 0-.54-.39-.9-.94-.9-.42 0-.87.23-1.19.54l-.23-.58c.31-.29.88-.56 1.46-.56.94 0 1.58.6 1.58 1.49 0 .95-.82 1.62-2.37 3.02h2.49l.03.6h-3.21zM97.31 87.03c-.82 0-1.33-.61-1.33-1.32 0-.73.51-1.33 1.33-1.33.82 0 1.33.61 1.33 1.33 0 .71-.51 1.32-1.33 1.32zm0-2.24c-.56 0-.9.41-.9.92 0 .48.34.9.9.9s.9-.42.9-.9c0-.52-.34-.92-.9-.92zm-.22 4.89h-.5l3.98-5.23h.5l-3.98 5.23zm3.26.08c-.82 0-1.33-.61-1.33-1.33 0-.71.5-1.32 1.33-1.32.82 0 1.33.61 1.33 1.32 0 .72-.52 1.33-1.33 1.33zm0-2.24c-.56 0-.9.42-.9.9 0 .51.34.92.9.92s.9-.41.9-.92c-.01-.48-.34-.9-.9-.9z"/></g><g><path class="st4" d="M195.41 85.3l-1.25.34-.02-.61 1.9-.53v5.06h-.62V85.3zM200.65 88.13c0 .95-.82 1.55-1.8 1.55-.49 0-1.09-.15-1.42-.34l.12-.61c.3.17.8.36 1.3.36.59 0 1.12-.31 1.12-.89 0-.5-.41-.87-1.14-.87-.22 0-.52.03-.74.07v-.54c.98-.23 1.69-.55 1.69-1.12 0-.42-.31-.7-.88-.7-.39 0-.87.19-1.21.5l-.25-.58c.35-.28.92-.52 1.46-.52.9 0 1.54.45 1.54 1.22 0 .59-.46 1.02-1.27 1.26 1.03-.01 1.48.59 1.48 1.21zM202.64 87.03c-.82 0-1.33-.61-1.33-1.32 0-.73.51-1.33 1.33-1.33.82 0 1.33.61 1.33 1.33-.01.71-.51 1.32-1.33 1.32zm0-2.24c-.56 0-.9.41-.9.92 0 .48.34.9.9.9s.9-.42.9-.9c-.01-.52-.34-.92-.9-.92zm-.22 4.89h-.5l3.98-5.23h.5l-3.98 5.23zm3.26.08c-.82 0-1.33-.61-1.33-1.33 0-.71.5-1.32 1.33-1.32.82 0 1.33.61 1.33 1.32-.01.72-.52 1.33-1.33 1.33zm0-2.24c-.56 0-.9.42-.9.9 0 .51.34.92.9.92s.9-.41.9-.92c-.01-.48-.34-.9-.9-.9z"/></g><g><path class="st4" d="M246.68 89.56l-.03-.65c1.51-1.42 2.41-2.09 2.41-2.96 0-.54-.39-.9-.94-.9-.42 0-.87.23-1.19.54l-.23-.58c.31-.29.88-.56 1.46-.56.94 0 1.58.6 1.58 1.49 0 .95-.82 1.62-2.37 3.02h2.49l.03.6h-3.21zM252.18 86.56c1 0 1.73.54 1.73 1.48 0 .97-.71 1.64-1.74 1.64-.52 0-1.06-.15-1.38-.34l.12-.62c.31.19.8.37 1.26.37.64 0 1.09-.34 1.09-1.01 0-.56-.41-.94-1.13-.94-.44 0-.85.1-1.07.22l-.14-.12.34-2.67h2.55l.02.62h-2.06l-.18 1.44c.14-.04.32-.07.59-.07zM255.96 87.03c-.82 0-1.33-.61-1.33-1.32 0-.73.51-1.33 1.33-1.33.82 0 1.33.61 1.33 1.33-.01.71-.51 1.32-1.33 1.32zm0-2.24c-.56 0-.9.41-.9.92 0 .48.34.9.9.9s.9-.42.9-.9c-.01-.52-.34-.92-.9-.92zm-.22 4.89h-.5l3.98-5.23h.5l-3.98 5.23zm3.25.08c-.82 0-1.33-.61-1.33-1.33 0-.71.5-1.32 1.33-1.32.82 0 1.33.61 1.33 1.32 0 .72-.51 1.33-1.33 1.33zm0-2.24c-.56 0-.9.42-.9.9 0 .51.34.92.9.92s.9-.41.9-.92c0-.48-.34-.9-.9-.9z"/></g><g><path class="st9" d="M12.27 68.85h105.29v6.37H12.27z"/><path class="st4" d="M14.57 72.73c0-.38-.29-.53-.9-.69-.53-.14-1.12-.37-1.12-1.1 0-.63.51-1.06 1.25-1.06.43 0 .82.11 1.18.33l-.18.44c-.29-.19-.66-.31-1-.31-.54 0-.76.25-.76.56 0 .38.32.51.91.67.55.14 1.1.41 1.1 1.12 0 .65-.53 1.12-1.32 1.12-.44 0-.89-.13-1.25-.35l.18-.46c.32.21.66.36 1.1.36.47 0 .81-.25.81-.63zM18.63 70.67c-.33-.22-.64-.32-1.03-.32-.82 0-1.36.56-1.36 1.49 0 .93.55 1.52 1.37 1.52.4 0 .8-.16 1.06-.37l.08.51c-.31.19-.74.31-1.16.31-1.1 0-1.88-.76-1.88-1.95s.79-1.97 1.88-1.97c.43 0 .88.12 1.19.31l-.15.47zM22.2 73.73v-1.66h-2.06v1.66h-.51v-3.75h.51v1.63h2.06v-1.63h.5v3.75h-.5zM23.81 73.73v-3.75h.5v3.75h-.5zM25.05 73.73v-.38l2.12-2.89h-2.09v-.47h2.72v.4l-2.12 2.88h2.11v.47h-2.74zM30.17 73.82c-1.1 0-1.88-.77-1.88-1.95 0-1.12.78-1.97 1.88-1.97 1.1 0 1.88.76 1.88 1.95 0 1.11-.78 1.97-1.88 1.97zm-.02-3.47c-.8 0-1.36.59-1.36 1.49 0 .92.56 1.52 1.38 1.52.8 0 1.36-.6 1.36-1.5.01-.92-.55-1.51-1.38-1.51zM35.77 73.73h-.52l-.35-.98h-1.62l-.35.98h-.53l1.41-3.75h.58l1.38 3.75zm-1.68-3.22l-.65 1.77h1.29l-.64-1.77zM36.45 69.98h2.31v.48h-1.81v1.22h1.49v.47h-1.49v1.58h-.51v-3.75zM39.52 69.98h2.31v.48h-1.81v1.22h1.49v.47h-1.49v1.58h-.51v-3.75zM42.59 73.73v-3.75h2.38v.47H43.1v1.16h1.55v.47H43.1v1.17h1.87v.47h-2.38zM48.45 70.67c-.33-.22-.64-.32-1.03-.32-.82 0-1.36.56-1.36 1.49 0 .93.55 1.52 1.37 1.52.4 0 .8-.16 1.06-.37l.08.51c-.31.19-.74.31-1.16.31-1.1 0-1.88-.76-1.88-1.95s.79-1.97 1.88-1.97c.43 0 .88.12 1.19.31l-.15.47zM51.04 70.46v3.27h-.5v-3.27h-1.31v-.48h3.13v.48h-1.32zM53.08 73.73v-3.75h.5v3.75h-.5zM56.21 73.73h-.59l-1.39-3.75h.52l1.16 3.2 1.16-3.2h.53l-1.39 3.75zM58.28 73.73v-3.75h2.38v.47h-1.87v1.16h1.55v.47h-1.55v1.17h1.87v.47h-2.38zM63.89 73.73h-1.1v-3.75h1.13c1.24 0 1.98.73 1.98 1.85-.01 1.16-.73 1.9-2.01 1.9zm0-3.27h-.59v2.8h.62c.89 0 1.48-.47 1.48-1.39-.02-.93-.57-1.41-1.51-1.41zM66.81 73.73v-3.75h.5v3.75h-.5zM70.25 72.73c0-.38-.29-.53-.9-.69-.53-.14-1.12-.37-1.12-1.1 0-.63.51-1.06 1.25-1.06.43 0 .82.11 1.18.33l-.18.44c-.29-.19-.66-.31-1-.31-.54 0-.76.25-.76.56 0 .38.32.51.91.67.55.14 1.1.41 1.1 1.12 0 .65-.53 1.12-1.32 1.12-.44 0-.89-.13-1.25-.35l.18-.46c.32.21.66.36 1.1.36.47 0 .81-.25.81-.63zM73.29 73.82c-1.1 0-1.88-.77-1.88-1.95 0-1.12.78-1.97 1.88-1.97 1.1 0 1.88.76 1.88 1.95 0 1.11-.78 1.97-1.88 1.97zm-.01-3.47c-.8 0-1.36.59-1.36 1.49 0 .92.56 1.52 1.38 1.52.8 0 1.36-.6 1.36-1.5 0-.92-.56-1.51-1.38-1.51zM76.59 73.73h-.51v-3.75h1.12c.91 0 1.38.43 1.38 1.1 0 .56-.33.91-.85 1.08l1.01 1.57h-.61l-.91-1.49-.64.04v1.45zm.62-1.91c.49-.02.86-.25.86-.71 0-.44-.36-.65-.93-.65h-.55v1.39l.62-.03zM80.61 73.73h-1.1v-3.75h1.13c1.24 0 1.98.73 1.98 1.85 0 1.16-.72 1.9-2.01 1.9zm0-3.27h-.59v2.8h.62c.89 0 1.48-.47 1.48-1.39-.01-.93-.56-1.41-1.51-1.41zM83.52 73.73v-3.75h2.38v.47h-1.87v1.16h1.55v.47h-1.55v1.17h1.87v.47h-2.38zM87.26 73.73h-.51v-3.75h1.12c.91 0 1.38.43 1.38 1.1 0 .56-.33.91-.85 1.08l1.01 1.57h-.61l-.91-1.49-.64.04v1.45zm.62-1.91c.49-.02.86-.25.86-.71 0-.44-.36-.65-.93-.65h-.55v1.39l.62-.03zM91.72 72.42c0-1.49.97-2.51 1.67-2.86l.22.31c-.65.35-1.46 1.28-1.46 2.55 0 1.26.81 2.19 1.46 2.54l-.21.31c-.71-.35-1.68-1.36-1.68-2.85zM95.71 73.73V72c0-.47-.18-.64-.57-.64-.29 0-.56.15-.72.3v2.06h-.49v-2.76l.49-.08v.41c.25-.25.58-.41.89-.41.56 0 .89.35.89.95v1.89h-.49zM97.11 71.99l-.03-.43h2.39l-.03.43h-2.33zm-.03 1.09l.03-.43h2.33l.03.43h-2.39zM100.96 70.53l-.94.25-.02-.46 1.42-.4v3.8h-.47v-3.19zM102.56 73.73l-.02-.49c1.13-1.07 1.8-1.56 1.8-2.22 0-.41-.29-.68-.71-.68-.32 0-.65.17-.89.4l-.17-.43c.23-.22.66-.42 1.1-.42.7 0 1.18.45 1.18 1.12 0 .71-.62 1.22-1.78 2.27h1.87l.02.45h-2.4zM106.73 71.48c.75 0 1.3.41 1.3 1.11 0 .73-.53 1.23-1.31 1.23-.39 0-.8-.11-1.03-.26l.09-.47c.23.14.6.28.95.28.48 0 .82-.26.82-.76 0-.42-.31-.7-.85-.7-.33 0-.64.08-.8.16l-.1-.09.26-2h1.91l.02.47h-1.55l-.14 1.08c.1-.03.24-.05.43-.05zM108.68 74.96c.65-.35 1.46-1.28 1.46-2.54 0-1.27-.8-2.19-1.46-2.55l.22-.31c.71.35 1.67 1.37 1.67 2.86s-.97 2.5-1.68 2.85l-.21-.31z"/></g><g><path class="st10" d="M58.44 121.32c0 .95-.82 1.55-1.8 1.55-.49 0-1.09-.15-1.42-.34l.12-.61c.3.17.8.36 1.3.36.59 0 1.12-.31 1.12-.89 0-.5-.41-.87-1.14-.87-.22 0-.52.03-.74.07v-.54c.98-.23 1.69-.55 1.69-1.12 0-.42-.31-.7-.88-.7-.39 0-.87.19-1.21.5l-.25-.58c.35-.28.92-.52 1.46-.52.9 0 1.54.45 1.54 1.22 0 .59-.46 1.02-1.27 1.26 1.03-.01 1.48.59 1.48 1.21zM59.82 122.85l-.16-.54c1.18-.3 1.99-.99 2.25-1.98l-.02-.01c-.33.31-.8.51-1.29.51-.79 0-1.4-.61-1.4-1.54 0-.94.64-1.66 1.63-1.66 1.17 0 1.73.96 1.73 2.07-.01 1.38-.89 2.72-2.74 3.15zm.98-4.63c-.59 0-.98.44-.98 1.05 0 .62.36.99.94.99.46 0 .89-.22 1.12-.43.02-.09.04-.19.04-.3 0-.7-.39-1.31-1.12-1.31zM64.58 120.22c-.82 0-1.33-.61-1.33-1.32 0-.73.51-1.33 1.33-1.33.82 0 1.33.61 1.33 1.33 0 .71-.51 1.32-1.33 1.32zm0-2.24c-.56 0-.9.41-.9.92 0 .48.34.9.9.9s.9-.42.9-.9c-.01-.51-.34-.92-.9-.92zm-.22 4.89h-.5l3.98-5.23h.5l-3.98 5.23zm3.26.08c-.82 0-1.33-.61-1.33-1.33 0-.71.5-1.32 1.33-1.32.82 0 1.33.61 1.33 1.32-.01.72-.52 1.33-1.33 1.33zm0-2.24c-.56 0-.9.42-.9.9 0 .51.34.92.9.92s.9-.41.9-.92c-.01-.47-.34-.9-.9-.9z"/></g><g><path class="st4" d="M130.78 118.49l-1.25.34-.02-.61 1.9-.53v5.06h-.62v-4.26zM136.01 121.32c0 .95-.82 1.55-1.8 1.55-.49 0-1.09-.15-1.42-.34l.12-.61c.3.17.8.36 1.3.36.59 0 1.12-.31 1.12-.89 0-.5-.41-.87-1.14-.87-.22 0-.52.03-.74.07v-.54c.98-.23 1.69-.55 1.69-1.12 0-.42-.31-.7-.88-.7-.39 0-.87.19-1.21.5l-.25-.58c.35-.28.92-.52 1.46-.52.9 0 1.54.45 1.54 1.22 0 .59-.46 1.02-1.27 1.26 1.03-.01 1.48.59 1.48 1.21zM138 120.22c-.82 0-1.33-.61-1.33-1.32 0-.73.51-1.33 1.33-1.33.82 0 1.33.61 1.33 1.33 0 .71-.5 1.32-1.33 1.32zm0-2.24c-.56 0-.9.41-.9.92 0 .48.34.9.9.9s.9-.42.9-.9c0-.51-.34-.92-.9-.92zm-.21 4.89h-.5l3.98-5.23h.5l-3.98 5.23zm3.25.08c-.82 0-1.33-.61-1.33-1.33 0-.71.5-1.32 1.33-1.32.82 0 1.33.61 1.33 1.32 0 .72-.51 1.33-1.33 1.33zm0-2.24c-.56 0-.9.42-.9.9 0 .51.34.92.9.92s.9-.41.9-.92c0-.47-.34-.9-.9-.9z"/></g><g><path class="st4" d="M217.46 121.48v1.27h-.59v-1.27h-2.27l-.07-.45 2.25-3.32h.68v3.2h.76l.02.57h-.78zm-.59-2.98l-1.64 2.42h1.64v-2.42zM220.61 122.87c-1.15 0-1.68-.63-1.68-1.38 0-.69.55-1.09.98-1.29-.48-.25-.89-.58-.89-1.14 0-.83.62-1.44 1.64-1.44 1.07 0 1.56.65 1.56 1.38 0 .62-.46 1.02-.86 1.24.5.26.94.59.94 1.19 0 .78-.57 1.44-1.69 1.44zm-.23-2.45c-.46.19-.81.54-.81 1.01 0 .53.45.87 1.08.87.66 0 1.02-.3 1.02-.79-.01-.57-.61-.9-1.29-1.09zm.26-2.23c-.64 0-.98.37-.98.8 0 .51.56.85 1.24 1.02.41-.19.69-.51.69-.95 0-.53-.42-.87-.95-.87zM224.29 120.22c-.82 0-1.33-.61-1.33-1.32 0-.73.51-1.33 1.33-1.33.82 0 1.33.61 1.33 1.33 0 .71-.5 1.32-1.33 1.32zm0-2.24c-.56 0-.9.41-.9.92 0 .48.34.9.9.9s.9-.42.9-.9c0-.51-.34-.92-.9-.92zm-.21 4.89h-.5l3.98-5.23h.5l-3.98 5.23zm3.25.08c-.82 0-1.33-.61-1.33-1.33 0-.71.5-1.32 1.33-1.32.82 0 1.33.61 1.33 1.32 0 .72-.51 1.33-1.33 1.33zm0-2.24c-.56 0-.9.42-.9.9 0 .51.34.92.9.92s.9-.41.9-.92c0-.47-.34-.9-.9-.9z"/></g><g><path class="st9" d="M12.27 102.18h105.29v6.37H12.27z"/><path class="st4" d="M15.98 103.94L14.84 107h-.51l-1.15-3.07-.04 3.12h-.5l.13-3.75h.68l1.15 3.08 1.15-3.08h.67l.12 3.75h-.52l-.04-3.11zM20.54 107.06h-.52l-.35-.98h-1.62l-.35.98h-.53l1.41-3.75h.58l1.38 3.75zm-1.69-3.22l-.65 1.77h1.29l-.64-1.77zM21.82 107.15c-.32 0-.63-.11-.83-.23l.08-.49c.23.16.47.26.74.26.43 0 .63-.26.63-.79v-2.58h.5v2.61c.01.72-.34 1.22-1.12 1.22zM25.72 107.15c-1.1 0-1.88-.77-1.88-1.95 0-1.12.78-1.97 1.88-1.97 1.1 0 1.88.76 1.88 1.95 0 1.11-.78 1.97-1.88 1.97zm-.01-3.47c-.8 0-1.36.59-1.36 1.49 0 .92.56 1.52 1.38 1.52.8 0 1.36-.6 1.36-1.5 0-.92-.56-1.51-1.38-1.51zM29.02 107.06h-.51v-3.75h1.12c.91 0 1.38.43 1.38 1.1 0 .56-.33.91-.85 1.08l1.01 1.57h-.61l-.91-1.49-.64.04v1.45zm.62-1.91c.49-.02.86-.25.86-.71 0-.44-.36-.65-.93-.65h-.55v1.39l.62-.03zM34.25 107.06h-1.1v-3.75h1.13c1.24 0 1.98.73 1.98 1.85 0 1.16-.72 1.9-2.01 1.9zm0-3.27h-.59v2.8h.62c.89 0 1.48-.47 1.48-1.39-.01-.93-.56-1.41-1.51-1.41zM37.16 107.06v-3.75h2.38v.47h-1.87v1.16h1.55v.47h-1.55v1.17h1.87v.47h-2.38zM41.39 105.81l-.49.01v1.24h-.51v-3.75h1.04c1.03 0 1.49.51 1.49 1.21-.01.85-.59 1.28-1.53 1.29zm.01-2.02h-.5v1.55l.55-.01c.63-.01.95-.29.95-.78 0-.51-.33-.76-1-.76zM44.21 107.06h-.51v-3.75h1.12c.91 0 1.38.43 1.38 1.1 0 .56-.33.91-.85 1.08l1.01 1.57h-.61l-.91-1.49-.64.04v1.45zm.62-1.91c.49-.02.86-.25.86-.71 0-.44-.36-.65-.93-.65h-.55v1.39l.62-.03zM47.13 107.06v-3.75h2.38v.47h-1.87v1.16h1.55v.47h-1.55v1.17h1.87v.47h-2.38zM52.26 106.06c0-.38-.29-.53-.9-.69-.53-.14-1.12-.37-1.12-1.1 0-.63.51-1.06 1.25-1.06.43 0 .82.11 1.18.33l-.18.46c-.29-.19-.66-.31-1-.31-.54 0-.76.25-.76.56 0 .38.32.51.91.67.55.14 1.1.41 1.1 1.12 0 .65-.53 1.12-1.32 1.12-.44 0-.89-.13-1.25-.35l.17-.46c.32.21.66.36 1.1.36.48-.02.82-.27.82-.65zM55.43 106.06c0-.38-.29-.53-.9-.69-.53-.14-1.12-.37-1.12-1.1 0-.63.51-1.06 1.25-1.06.43 0 .82.11 1.18.33l-.17.46c-.29-.19-.66-.31-1-.31-.54 0-.76.25-.76.56 0 .38.32.51.91.67.55.14 1.1.41 1.1 1.12 0 .65-.53 1.12-1.32 1.12-.44 0-.89-.13-1.25-.35l.17-.46c.32.21.66.36 1.1.36.47-.02.81-.27.81-.65zM56.83 107.06v-3.75h.5v3.75h-.5zM59.97 107.06h-.59l-1.39-3.75h.52l1.16 3.2 1.16-3.2h.53l-1.39 3.75zM62.03 107.06v-3.75h2.38v.47h-1.87v1.16h1.55v.47h-1.55v1.17h1.87v.47h-2.38zM67.64 107.06h-1.1v-3.75h1.13c1.24 0 1.98.73 1.98 1.85 0 1.16-.72 1.9-2.01 1.9zm0-3.27h-.59v2.8h.62c.89 0 1.48-.47 1.48-1.39-.01-.93-.57-1.41-1.51-1.41zM70.56 107.06v-3.75h.5v3.75h-.5zM74 106.06c0-.38-.29-.53-.9-.69-.53-.14-1.12-.37-1.12-1.1 0-.63.51-1.06 1.25-1.06.43 0 .82.11 1.18.33l-.17.46c-.29-.19-.66-.31-1-.31-.54 0-.76.25-.76.56 0 .38.32.51.91.67.55.14 1.1.41 1.1 1.12 0 .65-.53 1.12-1.32 1.12-.44 0-.89-.13-1.25-.35l.17-.46c.32.21.66.36 1.1.36.47-.02.81-.27.81-.65zM77.04 107.15c-1.1 0-1.88-.77-1.88-1.95 0-1.12.78-1.97 1.88-1.97 1.1 0 1.88.76 1.88 1.95 0 1.11-.77 1.97-1.88 1.97zm-.01-3.47c-.8 0-1.36.59-1.36 1.49 0 .92.56 1.52 1.38 1.52.8 0 1.36-.6 1.36-1.5.01-.92-.56-1.51-1.38-1.51zM80.34 107.06h-.51v-3.75h1.12c.91 0 1.38.43 1.38 1.1 0 .56-.33.91-.85 1.08l1.01 1.57h-.59l-.91-1.49-.64.04v1.45zm.62-1.91c.49-.02.86-.25.86-.71 0-.44-.36-.65-.93-.65h-.55v1.39l.62-.03zM84.36 107.06h-1.1v-3.75h1.13c1.24 0 1.98.73 1.98 1.85 0 1.16-.72 1.9-2.01 1.9zm0-3.27h-.59v2.8h.62c.89 0 1.48-.47 1.48-1.39-.01-.93-.56-1.41-1.51-1.41zM87.27 107.06v-3.75h2.38v.47h-1.87v1.16h1.55v.47h-1.55v1.17h1.87v.47h-2.38zM91.01 107.06h-.51v-3.75h1.12c.91 0 1.38.43 1.38 1.1 0 .56-.33.91-.85 1.08l1.01 1.57h-.61l-.91-1.49-.64.04v1.45zm.62-1.91c.49-.02.86-.25.86-.71 0-.44-.36-.65-.93-.65h-.55v1.39l.62-.03zM95.48 105.75c0-1.49.97-2.51 1.67-2.86l.22.31c-.65.35-1.46 1.28-1.46 2.55 0 1.26.81 2.19 1.46 2.54l-.21.31c-.72-.35-1.68-1.36-1.68-2.85zM99.47 107.06v-1.73c0-.47-.18-.64-.57-.64-.29 0-.56.15-.72.3v2.06h-.49v-2.76l.49-.08v.41c.25-.25.58-.41.89-.41.56 0 .89.35.89.95v1.89h-.49zM100.86 105.32l-.03-.43h2.39l-.03.43h-2.33zm-.03 1.09l.03-.43h2.33l.03.43h-2.39zM106.04 103.23l.12.4c-.88.22-1.49.74-1.69 1.49l.02.01c.25-.23.6-.38.97-.38.59 0 1.06.46 1.06 1.16 0 .71-.49 1.25-1.23 1.25-.88 0-1.3-.72-1.3-1.55 0-1.05.67-2.05 2.05-2.38zm-.73 3.48c.44 0 .73-.33.73-.79 0-.47-.27-.74-.7-.74-.34 0-.67.16-.84.32-.02.07-.03.14-.03.23 0 .53.29.98.84.98zM108.13 103.86l-.94.25-.02-.46 1.42-.4v3.8h-.47v-3.19zM109.68 108.29c.65-.35 1.46-1.28 1.46-2.54 0-1.27-.8-2.19-1.46-2.55l.22-.31c.71.35 1.67 1.37 1.67 2.86s-.97 2.5-1.68 2.85l-.21-.31z"/></g><g><path class="st10" d="M76.11 152.85c1 0 1.73.54 1.73 1.48 0 .97-.71 1.64-1.74 1.64-.52 0-1.06-.15-1.38-.34l.12-.62c.31.19.8.37 1.26.37.64 0 1.09-.34 1.09-1.01 0-.56-.41-.94-1.13-.94-.44 0-.85.1-1.07.22l-.14-.12.34-2.67h2.55l.02.62H75.7l-.18 1.44c.15-.04.33-.07.59-.07zM80.4 155.97c-1.06 0-1.7-1-1.7-2.61 0-1.61.68-2.62 1.74-2.62s1.7 1 1.7 2.61c-.01 1.6-.69 2.62-1.74 2.62zm0-4.67c-.6 0-1.05.6-1.05 2.04 0 1.41.47 2.03 1.08 2.03.61 0 1.05-.61 1.05-2.02 0-1.43-.48-2.05-1.08-2.05zM84.09 153.31c-.82 0-1.33-.61-1.33-1.32 0-.73.51-1.33 1.33-1.33.82 0 1.33.61 1.33 1.33 0 .71-.5 1.32-1.33 1.32zm0-2.24c-.56 0-.9.41-.9.92 0 .48.34.9.9.9s.9-.42.9-.9c0-.51-.34-.92-.9-.92zm-.21 4.9h-.5l3.98-5.23h.5l-3.98 5.23zm3.25.07c-.82 0-1.33-.61-1.33-1.33 0-.71.5-1.32 1.33-1.32.82 0 1.33.61 1.33 1.32 0 .73-.51 1.33-1.33 1.33zm0-2.23c-.56 0-.9.42-.9.9 0 .51.34.92.9.92s.9-.41.9-.92c0-.48-.34-.9-.9-.9z"/></g><g><path class="st4" d="M157.92 155.97c-1.15 0-1.68-.63-1.68-1.38 0-.69.55-1.09.98-1.29-.48-.25-.89-.58-.89-1.14 0-.83.62-1.44 1.64-1.44 1.07 0 1.56.65 1.56 1.38 0 .62-.46 1.02-.86 1.24.5.26.94.59.94 1.19 0 .77-.58 1.44-1.69 1.44zm-.24-2.45c-.46.19-.81.54-.81 1.01 0 .53.45.87 1.08.87.66 0 1.02-.3 1.02-.79 0-.57-.6-.91-1.29-1.09zm.27-2.23c-.64 0-.98.37-.98.8 0 .51.56.85 1.24 1.02.41-.19.69-.51.69-.95 0-.54-.43-.87-.95-.87zM161.6 153.31c-.82 0-1.33-.61-1.33-1.32 0-.73.51-1.33 1.33-1.33.82 0 1.33.61 1.33 1.33 0 .71-.5 1.32-1.33 1.32zm0-2.24c-.56 0-.9.41-.9.92 0 .48.34.9.9.9s.9-.42.9-.9c0-.51-.34-.92-.9-.92zm-.21 4.9h-.5l3.98-5.23h.5l-3.98 5.23zm3.25.07c-.82 0-1.33-.61-1.33-1.33 0-.71.5-1.32 1.33-1.32.82 0 1.33.61 1.33 1.32 0 .73-.51 1.33-1.33 1.33zm0-2.23c-.56 0-.9.42-.9.9 0 .51.34.92.9.92s.9-.41.9-.92c0-.48-.34-.9-.9-.9z"/></g><g><path class="st4" d="M224.62 154.57v1.27h-.59v-1.27h-2.27l-.07-.45 2.25-3.32h.68v3.2h.76l.02.57h-.78zm-.59-2.98l-1.64 2.42h1.64v-2.42zM225.91 155.85l-.03-.65c1.51-1.42 2.41-2.09 2.41-2.96 0-.54-.39-.9-.94-.9-.42 0-.87.23-1.19.54l-.23-.58c.31-.29.88-.56 1.46-.56.94 0 1.58.6 1.58 1.49 0 .95-.82 1.62-2.37 3.02h2.49l.03.6h-3.21zM231.12 153.31c-.82 0-1.33-.61-1.33-1.32 0-.73.51-1.33 1.33-1.33.82 0 1.33.61 1.33 1.33 0 .71-.51 1.32-1.33 1.32zm0-2.24c-.56 0-.9.41-.9.92 0 .48.34.9.9.9s.9-.42.9-.9c-.01-.51-.34-.92-.9-.92zm-.22 4.9h-.5l3.98-5.23h.5l-3.98 5.23zm3.26.07c-.82 0-1.33-.61-1.33-1.33 0-.71.5-1.32 1.33-1.32.82 0 1.33.61 1.33 1.32-.01.73-.52 1.33-1.33 1.33zm0-2.23c-.56 0-.9.42-.9.9 0 .51.34.92.9.92s.9-.41.9-.92c-.01-.48-.34-.9-.9-.9z"/></g><g><path class="st9" d="M12.27 136.08h105.29v6.37H12.27z"/><path class="st4" d="M13.85 140.96h-1.1v-3.75h1.13c1.24 0 1.98.73 1.98 1.85 0 1.15-.72 1.9-2.01 1.9zm0-3.28h-.59v2.8h.62c.89 0 1.48-.47 1.48-1.39-.01-.92-.56-1.41-1.51-1.41zM16.76 140.96v-3.75h2.38v.47h-1.87v1.16h1.55v.47h-1.55v1.17h1.87v.47h-2.38zM23.23 137.84l-1.14 3.06h-.51l-1.15-3.07-.04 3.12h-.5l.13-3.75h.68l1.15 3.08L23 137.2h.67l.12 3.75h-.52l-.04-3.11zM24.81 140.96v-3.75h2.38v.47h-1.87v1.16h1.55v.47h-1.55v1.17h1.87v.47h-2.38zM30.6 137.21h.5v3.78h-.55l-2.01-3.06v3.02h-.5v-3.75h.56l2 3.02v-3.01zM33.64 137.69v3.27h-.5v-3.27h-1.31v-.48h3.13v.48h-1.32zM35.68 140.96v-3.75h.5v3.75h-.5zM40.25 140.96h-.52l-.35-.98h-1.62l-.35.98h-.53l1.41-3.75h.58l1.38 3.75zm-1.69-3.22l-.65 1.77h1.29l-.64-1.77zM40.72 142.15h-.36l1.46-5.4h.36l-1.46 5.4zM45.46 140.96h-.52l-.35-.98h-1.62l-.35.98h-.53l1.41-3.75h.58l1.38 3.75zm-1.68-3.22l-.65 1.77h1.29l-.64-1.77zM46.14 140.96v-3.75h.51v3.27h1.81v.48h-2.32zM49.03 140.96v-.38l2.12-2.89h-2.09v-.47h2.72v.4l-2.12 2.88h2.11v.47h-2.74zM55.14 140.96v-1.66h-2.06v1.66h-.51v-3.75h.51v1.63h2.06v-1.63h.5v3.75h-.5zM56.74 140.96v-3.75h2.38v.47h-1.87v1.16h1.55v.47h-1.55v1.17h1.87v.47h-2.38zM60 140.96v-3.75h.5v3.75H60zM64.87 137.84l-1.14 3.06h-.51l-1.15-3.07-.04 3.12h-.5l.13-3.75h.68l1.15 3.08 1.15-3.08h.67l.12 3.75h-.52l-.04-3.11zM66.45 140.96v-3.75h2.38v.47h-1.87v1.16h1.55v.47h-1.55v1.17h1.87v.47h-2.38zM70.19 140.96h-.51v-3.75h1.12c.91 0 1.38.43 1.38 1.1 0 .56-.33.91-.85 1.08l1.01 1.57h-.61l-.91-1.49-.64.04v1.45zm.62-1.92c.49-.02.86-.25.86-.71 0-.44-.36-.65-.93-.65h-.55v1.39l.62-.03zM73.37 136.96c.25 0 .51.23.51.55 0 .5-.44.88-.89 1.17l-.21-.2c.41-.3.61-.55.61-.76 0-.15-.11-.25-.43-.4.02-.2.15-.36.41-.36zM76.56 139.96c0-.38-.29-.53-.9-.69-.53-.14-1.12-.37-1.12-1.1 0-.63.51-1.06 1.25-1.06.43 0 .82.11 1.18.33l-.18.44c-.29-.19-.66-.31-1-.31-.54 0-.76.25-.76.56 0 .38.32.51.91.67.55.14 1.1.41 1.1 1.12 0 .65-.53 1.12-1.32 1.12-.44 0-.89-.13-1.25-.35l.17-.46c.32.21.66.36 1.1.36.48 0 .82-.26.82-.63zM77.55 142.15h-.36l1.46-5.4h.36l-1.46 5.4zM82.3 140.96h-.52l-.35-.98H79.8l-.35.98h-.53l1.41-3.75h.58l1.39 3.75zm-1.69-3.22l-.65 1.77h1.29l-.64-1.77zM84.52 141.05c-1.1 0-1.88-.76-1.88-1.95s.79-1.97 1.88-1.97c.44 0 .94.13 1.25.32l-.17.47c-.3-.19-.7-.34-1.08-.34-.82 0-1.36.56-1.36 1.49 0 .93.55 1.52 1.37 1.52.31 0 .59-.08.82-.19v-.89H84.3v-.47h1.54v1.65c-.39.24-.92.36-1.32.36zM86.87 140.96v-3.75h.5v3.75h-.5zM89.91 137.69v3.27h-.5v-3.27H88.1v-.48h3.13v.48h-1.32zM94.55 140.96h-.52l-.35-.98h-1.62l-.35.98h-.53l1.41-3.75h.58l1.38 3.75zm-1.69-3.22l-.65 1.77h1.29l-.64-1.77zM96.31 137.69v3.27h-.5v-3.27H94.5v-.48h3.13v.48h-1.32zM98.35 140.96v-3.75h.5v3.75h-.5zM101.66 141.05c-1.1 0-1.88-.77-1.88-1.95 0-1.12.78-1.97 1.88-1.97 1.1 0 1.88.76 1.88 1.95 0 1.11-.78 1.97-1.88 1.97zm-.02-3.47c-.8 0-1.36.59-1.36 1.49 0 .92.56 1.52 1.38 1.52.8 0 1.36-.6 1.36-1.5.01-.92-.55-1.51-1.38-1.51zM107.01 137.21h.5v3.78h-.55l-2.01-3.06v3.02h-.5v-3.75h.56l2 3.02v-3.01z"/></g><path d="M294.02 215.4H.75c-.28 0-.5-.22-.5-.5v-17.69c0-.28.22-.5.5-.5h293.26c.28 0 .5.22.5.5v17.69c.01.28-.22.5-.49.5z" fill="#fff" stroke="#231f20" stroke-width=".477" stroke-miterlimit="10"/><g><path class="st9" d="M19.87 187.99h251.47v8.02H19.87z"/><path class="st4" d="M105.68 190.78l-.51.01v1.32h-.38v-3.75h.94c.99 0 1.46.48 1.46 1.17 0 .82-.58 1.24-1.51 1.25zm.03-2.07h-.55v1.72l.53-.01c.71-.01 1.09-.29 1.09-.88.01-.53-.37-.83-1.07-.83zM107.98 192.11v-3.75h2.27v.35h-1.88v1.34h1.57v.35h-1.57v1.35h1.88v.35h-2.27zM111.46 192.11h-.38v-3.75h1.01c.92 0 1.36.43 1.36 1.08 0 .56-.38.91-.87 1.06l1.04 1.61h-.44l-.96-1.55-.75.05v1.5zm.68-1.87c.5-.02.93-.29.93-.79s-.37-.75-1.02-.75h-.58v1.56l.67-.02zM117.02 188.93c-.3-.19-.65-.3-1.04-.3-.82 0-1.42.58-1.42 1.6 0 .99.57 1.61 1.43 1.61.41 0 .79-.14 1.05-.34l.07.38c-.28.18-.69.31-1.13.31-1.09 0-1.81-.76-1.81-1.94 0-1.19.76-1.96 1.81-1.96.46 0 .88.14 1.16.31l-.12.33zM117.95 192.11v-3.75h2.27v.35h-1.88v1.34h1.57v.35h-1.57v1.35h1.88v.35h-2.27zM123.61 188.36h.37v3.78h-.41l-2.15-3.24v3.21h-.37v-3.75h.43l2.13 3.21v-3.21zM126.43 188.72v3.39h-.38v-3.39h-1.32v-.36h3.02v.36h-1.32zM130.99 192.11h-.39l-.4-1.07h-1.7l-.4 1.07h-.39l1.42-3.75h.45l1.41 3.75zm-1.63-3.37l-.72 1.95h1.43l-.71-1.95zM133.2 192.19c-1.09 0-1.81-.76-1.81-1.94 0-1.19.76-1.96 1.81-1.96.46 0 .91.14 1.19.31l-.13.35c-.28-.18-.68-.31-1.07-.31-.82 0-1.42.58-1.42 1.6 0 .99.57 1.61 1.43 1.61.35 0 .66-.1.9-.23v-1.02h-1.09v-.35h1.46v1.57c-.35.24-.84.37-1.27.37zM135.5 192.11v-3.75h2.27v.35h-1.88v1.34h1.57v.35h-1.57v1.35h1.88v.35h-2.27zM141.55 192.19c-1.04 0-1.84-.79-1.84-1.94s.77-1.96 1.85-1.96c1.04 0 1.84.78 1.84 1.94 0 1.13-.78 1.96-1.85 1.96zm-.01-3.57c-.84 0-1.44.65-1.44 1.59 0 .97.62 1.63 1.47 1.63.83 0 1.44-.65 1.44-1.6 0-.96-.62-1.62-1.47-1.62zM144.32 188.36h2.21v.36h-1.82v1.4h1.51v.35h-1.51v1.64h-.38v-3.75zM148.57 192.11v-3.75h.38v3.75h-.38zM153.33 188.83l-1.23 3.25h-.42l-1.24-3.26-.07 3.28H150l.13-3.75h.52l1.27 3.31 1.25-3.31h.51l.12 3.75h-.39l-.08-3.27zM155.73 190.78l-.51.01v1.32h-.38v-3.75h.94c.99 0 1.46.48 1.46 1.17 0 .82-.58 1.24-1.51 1.25zm.03-2.07h-.55v1.72l.53-.01c.71-.01 1.09-.29 1.09-.88.01-.53-.36-.83-1.07-.83zM158.42 192.11h-.38v-3.75h1.01c.92 0 1.36.43 1.36 1.08 0 .56-.38.91-.87 1.06l1.04 1.61h-.44l-.96-1.55-.75.05v1.5zm.67-1.87c.5-.02.93-.29.93-.79s-.37-.75-1.02-.75h-.58v1.56l.67-.02zM162.95 192.19c-1.04 0-1.84-.79-1.84-1.94s.77-1.96 1.85-1.96c1.04 0 1.84.78 1.84 1.94 0 1.13-.77 1.96-1.85 1.96zm0-3.57c-.84 0-1.45.65-1.45 1.59 0 .97.62 1.63 1.47 1.63.83 0 1.44-.65 1.44-1.6 0-.96-.61-1.62-1.46-1.62zM167 192.11h-.45l-1.37-3.75h.39l1.22 3.35 1.21-3.35h.39l-1.39 3.75zM169.09 192.11v-3.75h2.27v.35h-1.88v1.34h1.57v.35h-1.57v1.35h1.88v.35h-2.27zM175.47 188.83l-1.23 3.25h-.42l-1.24-3.26-.07 3.28h-.38l.13-3.75h.52l1.27 3.31 1.25-3.31h.51l.12 3.75h-.39l-.07-3.27zM176.97 192.11v-3.75h2.27v.35h-1.88v1.34h1.57v.35h-1.57v1.35h1.88v.35h-2.27zM182.63 188.36h.37v3.78h-.41l-2.15-3.24v3.21h-.37v-3.75h.43l2.13 3.21v-3.21zM185.46 188.72v3.39h-.38v-3.39h-1.32v-.36h3.02v.36h-1.32z"/></g><g><g class="st12"><path class="st9" d="M20.18 202.52H108v7.94H20.18z"/><path class="st4" d="M21.9 206.75l-.57.01v1.45h-.6v-4.38h1.21c1.2 0 1.74.6 1.74 1.42 0 .98-.69 1.48-1.78 1.5zm.01-2.37h-.59v1.81l.64-.01c.74-.01 1.11-.34 1.11-.91 0-.59-.38-.89-1.16-.89zM25.46 208.31c-.39 0-.83-.12-1.12-.3l.15-.53c.27.18.66.3.99.3.36 0 .64-.17.64-.46 0-.32-.38-.43-.76-.53-.46-.13-.95-.35-.95-.94 0-.6.5-.97 1.15-.97.37 0 .74.09 1.04.24l-.15.53c-.27-.15-.65-.24-.92-.24-.34 0-.57.14-.57.4 0 .31.34.41.74.52.47.13.97.35.97.96s-.51 1.02-1.21 1.02zM28.99 208.24l-.22.57c-.31.81-.63 1.06-1.13 1.06-.25 0-.46-.07-.68-.17l.17-.53c.17.08.35.15.51.15.25 0 .4-.13.62-.69l.2-.5-1.24-3.13h.62l.93 2.49.9-2.49h.61l-1.29 3.24zM32.25 208.31c-1.02 0-1.58-.69-1.58-1.71s.68-1.71 1.62-1.71c.41 0 .74.09 1.04.27l-.15.53c-.27-.18-.57-.27-.89-.27-.66 0-1.02.45-1.02 1.17 0 .74.41 1.18 1.01 1.18.34 0 .67-.09.92-.27l.1.53c-.28.19-.64.28-1.05.28zM36.25 208.2v-2.02c0-.55-.21-.74-.63-.74-.37 0-.69.17-.88.35v2.41h-.57v-4.72l.57-.09v1.97c.29-.29.67-.47 1.08-.47.62 0 1 .41 1 1.11v2.21h-.57zM40.82 208.31c-1.02 0-1.58-.69-1.58-1.71s.68-1.71 1.62-1.71c.41 0 .74.09 1.04.27l-.15.53c-.27-.18-.57-.27-.89-.27-.66 0-1.02.45-1.02 1.17 0 .74.41 1.18 1.01 1.18.34 0 .67-.09.92-.27l.1.53c-.28.19-.64.28-1.05.28zM44.05 208.31c-.91 0-1.55-.67-1.55-1.71 0-1.03.66-1.72 1.58-1.72s1.54.68 1.54 1.72c0 1.03-.67 1.71-1.57 1.71zm0-2.91c-.64 0-.99.5-.99 1.19s.37 1.2 1 1.2c.64 0 .99-.49.99-1.18.01-.69-.37-1.21-1-1.21zM48.63 208.2v-2.02c0-.55-.21-.74-.67-.74-.34 0-.66.17-.84.35v2.41h-.57v-3.22l.57-.09v.48c.29-.29.67-.48 1.04-.48.65 0 1.04.41 1.04 1.11v2.21h-.57zM52.45 203.48l.57-.09v4.81h-.57v-.29c-.23.22-.52.4-.9.4-.9 0-1.43-.73-1.43-1.69 0-.97.67-1.72 1.63-1.72.23 0 .49.04.69.11v-1.53zm-.72 1.93c-.65 0-1.02.53-1.02 1.19 0 .71.36 1.18.95 1.18.3 0 .56-.12.78-.31v-1.83c-.18-.15-.43-.23-.71-.23zM54.43 204.29c-.26 0-.38-.2-.38-.41 0-.22.12-.41.38-.41s.38.2.38.41c0 .21-.12.41-.38.41zm-.29 3.91v-3.22l.57-.09v3.31h-.57zM56.86 208.31c-.62 0-.95-.3-.93-1l.05-1.79-.53-.04.02-.36.53-.16.01-.69h.55l-.02.73h1l-.02.52h-1l-.05 1.81c-.01.3.13.46.42.46.2 0 .39-.05.58-.12.01 0 .1.5.1.5-.23.09-.48.14-.71.14zM58.67 204.29c-.26 0-.38-.2-.38-.41 0-.22.12-.41.38-.41s.38.2.38.41c0 .21-.12.41-.38.41zm-.29 3.91v-3.22l.57-.09v3.31h-.57zM61.41 208.31c-.91 0-1.55-.67-1.55-1.71 0-1.03.66-1.72 1.58-1.72s1.54.68 1.54 1.72c.01 1.03-.66 1.71-1.57 1.71zm.01-2.91c-.64 0-.99.5-.99 1.19s.37 1.2 1 1.2c.64 0 .99-.49.99-1.18s-.37-1.21-1-1.21zM66 208.2v-2.02c0-.55-.21-.74-.67-.74-.34 0-.66.17-.84.35v2.41h-.57v-3.22l.57-.09v.48c.29-.29.67-.48 1.04-.48.65 0 1.04.41 1.04 1.11v2.21H66zM69.49 204.29c-.26 0-.38-.2-.38-.41 0-.22.12-.41.38-.41s.38.2.38.41c0 .21-.12.41-.38.41zm-.29 3.91v-3.22l.57-.09v3.31h-.57zM74.9 208.2v-2c0-.56-.2-.76-.62-.76-.36 0-.63.19-.81.36v2.41h-.57v-2c0-.56-.2-.76-.62-.76-.36 0-.63.15-.81.33v2.44h-.57V205l.57-.09v.44c.31-.29.64-.44 1.03-.44.37 0 .68.18.84.53.34-.34.72-.53 1.16-.53.59 0 .97.41.97 1.12v2.19h-.57zM78.05 204.89c.9 0 1.43.73 1.43 1.7s-.67 1.72-1.63 1.72c-.19 0-.49-.03-.69-.08v1.61h-.57v-4.85l.57-.09v.4c.22-.23.51-.41.89-.41zm-.9 2.67c.19.15.43.23.71.23.65 0 1.02-.53 1.02-1.19 0-.71-.36-1.18-.95-1.18-.3 0-.56.12-.78.31v1.83zM80.98 208.2h-.57v-3.22l.57-.09v.57c.22-.36.49-.57.9-.57.22 0 .43.06.6.16l-.15.54c-.18-.1-.35-.15-.51-.15-.31 0-.6.22-.84.67v2.09zM84.51 208.31c-.91 0-1.55-.67-1.55-1.71 0-1.03.66-1.72 1.58-1.72s1.54.68 1.54 1.72c.01 1.03-.66 1.71-1.57 1.71zm.01-2.91c-.64 0-.99.5-.99 1.19s.37 1.2 1 1.2c.64 0 .99-.49.99-1.18s-.37-1.21-1-1.21zM88.3 208.21h-.53L86.5 205h.62l.94 2.49.9-2.49h.61l-1.27 3.21zM90.54 206.7c.02.63.44 1.08 1.06 1.08.34 0 .7-.09.96-.27l.1.53c-.29.18-.67.27-1.08.27-.97 0-1.62-.69-1.62-1.67 0-1.04.69-1.74 1.58-1.74.78 0 1.23.49 1.23 1.25 0 .18-.03.37-.07.51l-2.16.01v.03zm1.68-.47v-.05c0-.48-.22-.79-.73-.79-.55 0-.87.43-.92.85l1.65-.01zM95.82 203.48l.57-.09v4.81h-.57v-.29c-.23.22-.52.4-.9.4-.9 0-1.43-.73-1.43-1.69 0-.97.67-1.72 1.63-1.72.23 0 .49.04.69.11v-1.53zm-.71 1.93c-.65 0-1.02.53-1.02 1.19 0 .71.36 1.18.95 1.18.3 0 .56-.12.78-.31v-1.83c-.18-.15-.43-.23-.71-.23z"/></g><path class="st1" d="M14.36 208.96H8.73a.18.18 0 0 1-.18-.18v-5.63c0-.1.08-.18.18-.18h5.63c.1 0 .18.08.18.18v5.63c0 .1-.08.18-.18.18z"/></g><g><g class="st12"><path class="st9" d="M119.32 202.52h87.82v7.94h-87.82z"/><path class="st4" d="M121.84 208.31c-1.28 0-2.2-.9-2.2-2.28 0-1.31.91-2.3 2.2-2.3 1.28 0 2.2.89 2.2 2.28 0 1.3-.91 2.3-2.2 2.3zm-.01-4.06c-.93 0-1.58.69-1.58 1.74 0 1.08.65 1.78 1.61 1.78.93 0 1.59-.7 1.59-1.75-.01-1.07-.67-1.77-1.62-1.77zM126.1 208.31c-.62 0-.95-.3-.93-1l.05-1.79-.53-.04.02-.36.53-.16.01-.69h.55l-.02.74h1l-.02.52h-1l-.05 1.81c-.01.3.13.46.42.46.2 0 .39-.05.58-.12.01 0 .1.5.1.5-.23.08-.47.13-.71.13zM129.7 208.2v-2.02c0-.55-.21-.74-.63-.74-.37 0-.69.17-.88.35v2.41h-.57v-4.72l.57-.09v1.97c.29-.29.67-.47 1.08-.47.62 0 1 .41 1 1.11v2.21h-.57zM131.77 206.7c.02.63.44 1.08 1.06 1.08.34 0 .7-.09.96-.27l.1.53c-.29.18-.67.27-1.08.27-.97 0-1.62-.69-1.62-1.67 0-1.04.69-1.74 1.58-1.74.78 0 1.23.49 1.23 1.25 0 .18-.03.37-.07.51l-2.16.01v.03zm1.67-.47v-.05c0-.48-.22-.79-.73-.79-.55 0-.87.43-.92.85l1.65-.01zM135.5 208.2h-.57v-3.22l.57-.09v.57c.22-.36.49-.57.9-.57.22 0 .43.06.6.16l-.15.54c-.18-.1-.35-.15-.51-.15-.31 0-.6.22-.84.67v2.09zM140.72 204.89c.9 0 1.43.73 1.43 1.7s-.67 1.72-1.63 1.72c-.19 0-.49-.03-.69-.08v1.61h-.57v-4.85l.57-.09v.4c.23-.23.52-.41.89-.41zm-.89 2.67c.19.15.43.23.71.23.65 0 1.02-.53 1.02-1.19 0-.71-.36-1.18-.95-1.18-.3 0-.56.12-.78.31v1.83zM143.94 208.31c-.39 0-.83-.12-1.12-.3l.15-.53c.27.18.66.3.99.3.36 0 .64-.17.64-.46 0-.32-.38-.43-.76-.53-.46-.13-.95-.35-.95-.94 0-.6.5-.97 1.15-.97.37 0 .74.09 1.04.24l-.15.53c-.27-.15-.65-.24-.92-.24-.34 0-.57.14-.57.4 0 .31.34.41.74.52.47.13.97.35.97.96s-.51 1.02-1.21 1.02zM147.47 208.24l-.22.57c-.31.81-.63 1.06-1.13 1.06-.25 0-.46-.07-.68-.17l.17-.53c.17.08.35.15.51.15.25 0 .4-.13.62-.69l.2-.5-1.25-3.14h.62l.93 2.49.9-2.49h.61l-1.28 3.25zM150.73 208.31c-1.02 0-1.58-.69-1.58-1.71s.68-1.71 1.62-1.71c.41 0 .74.09 1.04.27l-.15.53c-.27-.18-.57-.27-.89-.27-.66 0-1.02.45-1.02 1.17 0 .74.41 1.18 1.01 1.18.34 0 .67-.09.92-.27l.1.53c-.28.19-.64.28-1.05.28zM154.73 208.2v-2.02c0-.55-.21-.74-.63-.74-.37 0-.69.17-.88.35v2.41h-.57v-4.72l.57-.09v1.97c.29-.29.67-.47 1.08-.47.62 0 1 .41 1 1.11v2.21h-.57zM158.22 204.29c-.26 0-.38-.2-.38-.41 0-.22.12-.41.38-.41s.38.2.38.41c0 .21-.12.41-.38.41zm-.28 3.91v-3.22l.57-.09v3.31h-.57zM163.63 208.2v-2c0-.56-.2-.76-.62-.76-.36 0-.63.19-.81.36v2.41h-.57v-2c0-.56-.2-.76-.62-.76-.36 0-.63.15-.81.33v2.44h-.57V205l.57-.09v.44c.31-.29.64-.44 1.03-.44.37 0 .68.18.84.53.34-.34.72-.53 1.16-.53.59 0 .97.41.97 1.12v2.19h-.57zM166.78 204.89c.9 0 1.43.73 1.43 1.7s-.67 1.72-1.63 1.72c-.19 0-.49-.03-.69-.08v1.61h-.57v-4.85l.57-.09v.4c.22-.23.51-.41.89-.41zm-.9 2.67c.19.15.43.23.71.23.65 0 1.02-.53 1.02-1.19 0-.71-.36-1.18-.95-1.18-.3 0-.56.12-.78.31v1.83zM169.71 208.2h-.57v-3.22l.57-.09v.57c.22-.36.49-.57.9-.57.22 0 .43.06.6.16l-.15.54c-.18-.1-.35-.15-.51-.15-.31 0-.6.22-.84.67v2.09zM173.24 208.31c-.91 0-1.55-.67-1.55-1.71 0-1.03.66-1.72 1.58-1.72s1.54.68 1.54 1.72c.01 1.03-.66 1.71-1.57 1.71zm.01-2.91c-.64 0-.99.5-.99 1.19s.37 1.2 1 1.2c.64 0 .99-.49.99-1.18s-.37-1.21-1-1.21zM177.03 208.21h-.53l-1.27-3.21h.62l.94 2.49.9-2.49h.61l-1.27 3.21zM179.27 206.7c.02.63.44 1.08 1.06 1.08.34 0 .7-.09.96-.27l.1.53c-.29.18-.67.27-1.08.27-.97 0-1.62-.69-1.62-1.67 0-1.04.69-1.74 1.58-1.74.78 0 1.23.49 1.23 1.25 0 .18-.03.37-.07.51l-2.16.01v.03zm1.68-.47v-.05c0-.48-.22-.79-.73-.79-.55 0-.87.43-.92.85l1.65-.01zM186.44 208.2v-2c0-.56-.2-.76-.62-.76-.36 0-.63.19-.81.36v2.41h-.57v-2c0-.56-.2-.76-.62-.76-.36 0-.63.15-.81.33v2.44h-.57V205l.57-.09v.44c.31-.29.64-.44 1.03-.44.37 0 .68.18.84.53.34-.34.72-.53 1.16-.53.59 0 .97.41.97 1.12v2.19h-.57zM188.5 206.7c.02.63.44 1.08 1.06 1.08.34 0 .7-.09.96-.27l.1.53c-.29.18-.67.27-1.08.27-.97 0-1.62-.69-1.62-1.67 0-1.04.69-1.74 1.58-1.74.78 0 1.23.49 1.23 1.25 0 .18-.03.37-.07.51l-2.16.01v.03zm1.68-.47v-.05c0-.48-.22-.79-.73-.79-.55 0-.87.43-.92.85l1.65-.01zM193.74 208.2v-2.02c0-.55-.21-.74-.67-.74-.34 0-.66.17-.84.35v2.41h-.57v-3.22l.57-.09v.48c.29-.29.67-.48 1.04-.48.65 0 1.04.41 1.04 1.11v2.21h-.57zM196.41 208.31c-.62 0-.95-.3-.93-1l.05-1.79-.53-.04.02-.36.53-.16.01-.69h.55l-.02.74h1l-.02.52h-1l-.05 1.81c-.01.3.13.46.42.46.2 0 .39-.05.58-.12.01 0 .1.5.1.5-.23.08-.47.13-.71.13z"/></g><path class="st2" d="M113.5 208.96h-5.63a.18.18 0 0 1-.18-.18v-5.63c0-.1.08-.18.18-.18h5.63c.1 0 .18.08.18.18v5.63c0 .1-.08.18-.18.18z"/></g><g><g class="st12"><path class="st9" d="M217.66 202.52h74.3v7.94h-74.3z"/><path class="st4" d="M221.2 203.83h.58v4.42h-.64l-2.35-3.57v3.53h-.58v-4.38h.66l2.33 3.53v-3.53zM224.35 208.31c-.91 0-1.55-.67-1.55-1.71 0-1.03.66-1.72 1.58-1.72s1.54.68 1.54 1.72c.01 1.03-.67 1.71-1.57 1.71zm.01-2.91c-.64 0-.99.5-.99 1.19s.37 1.2 1 1.2c.64 0 .99-.49.99-1.18s-.37-1.21-1-1.21zM229.85 204.89c.9 0 1.43.73 1.43 1.7s-.67 1.72-1.63 1.72c-.19 0-.49-.03-.69-.08v1.61h-.57v-4.85l.57-.09v.4c.22-.23.51-.41.89-.41zm-.9 2.67c.19.15.43.23.71.23.65 0 1.02-.53 1.02-1.19 0-.71-.36-1.18-.95-1.18-.3 0-.56.12-.78.31v1.83zM233.06 208.31c-.39 0-.83-.12-1.12-.3l.15-.53c.27.18.66.3.99.3.36 0 .64-.17.64-.46 0-.32-.38-.43-.76-.53-.46-.13-.95-.35-.95-.94 0-.6.5-.97 1.15-.97.37 0 .74.09 1.04.24l-.15.53c-.27-.15-.65-.24-.92-.24-.34 0-.57.14-.57.4 0 .31.34.41.74.52.47.13.97.35.97.96s-.51 1.02-1.21 1.02zM236.59 208.24l-.22.57c-.31.81-.63 1.06-1.13 1.06-.25 0-.46-.07-.68-.17l.17-.53c.17.08.35.15.51.15.25 0 .4-.13.62-.69l.2-.5-1.25-3.14h.62l.93 2.49.9-2.49h.61l-1.28 3.25zM239.85 208.31c-1.02 0-1.58-.69-1.58-1.71s.68-1.71 1.62-1.71c.41 0 .74.09 1.04.27l-.15.53c-.27-.18-.57-.27-.89-.27-.66 0-1.02.45-1.02 1.17 0 .74.41 1.18 1.01 1.18.34 0 .67-.09.92-.27l.1.53c-.28.19-.64.28-1.05.28zM243.85 208.2v-2.02c0-.55-.21-.74-.63-.74-.37 0-.69.17-.88.35v2.41h-.57v-4.72l.57-.09v1.97c.29-.29.67-.47 1.08-.47.62 0 1 .41 1 1.11v2.21h-.57zM247.34 204.29c-.26 0-.38-.2-.38-.41 0-.22.12-.41.38-.41s.38.2.38.41c0 .21-.12.41-.38.41zm-.28 3.91v-3.22l.57-.09v3.31h-.57zM252.75 208.2v-2c0-.56-.2-.76-.62-.76-.36 0-.63.19-.81.36v2.41h-.57v-2c0-.56-.2-.76-.62-.76-.36 0-.63.15-.81.33v2.44h-.57V205l.57-.09v.44c.31-.29.64-.44 1.03-.44.37 0 .68.18.84.53.34-.34.72-.53 1.16-.53.59 0 .97.41.97 1.12v2.19h-.57zM255.9 204.89c.9 0 1.43.73 1.43 1.7s-.67 1.72-1.63 1.72c-.19 0-.49-.03-.69-.08v1.61h-.57v-4.85l.57-.09v.4c.22-.23.51-.41.89-.41zm-.9 2.67c.19.15.43.23.71.23.65 0 1.02-.53 1.02-1.19 0-.71-.36-1.18-.95-1.18-.3 0-.56.12-.78.31v1.83zM258.83 208.2h-.57v-3.22l.57-.09v.57c.22-.36.49-.57.9-.57.22 0 .43.06.6.16l-.15.54c-.18-.1-.35-.15-.51-.15-.31 0-.6.22-.84.67v2.09zM262.36 208.31c-.91 0-1.55-.67-1.55-1.71 0-1.03.66-1.72 1.58-1.72s1.54.68 1.54 1.72c.01 1.03-.66 1.71-1.57 1.71zm.01-2.91c-.64 0-.99.5-.99 1.19s.37 1.2 1 1.2c.64 0 .99-.49.99-1.18s-.37-1.21-1-1.21zM266.15 208.21h-.53l-1.27-3.21h.62l.94 2.49.9-2.49h.61l-1.27 3.21zM268.4 206.7c.02.63.44 1.08 1.06 1.08.34 0 .7-.09.96-.27l.1.53c-.29.18-.67.27-1.08.27-.97 0-1.62-.69-1.62-1.67 0-1.04.69-1.74 1.58-1.74.78 0 1.23.49 1.23 1.25 0 .18-.03.37-.07.51l-2.16.01v.03zm1.67-.47v-.05c0-.48-.22-.79-.73-.79-.55 0-.87.43-.92.85l1.65-.01zM275.56 208.2v-2c0-.56-.2-.76-.62-.76-.36 0-.63.19-.81.36v2.41h-.57v-2c0-.56-.2-.76-.62-.76-.36 0-.63.15-.81.33v2.44h-.57V205l.57-.09v.44c.31-.29.64-.44 1.03-.44.37 0 .68.18.84.53.34-.34.72-.53 1.16-.53.59 0 .97.41.97 1.12v2.19h-.57zM277.62 206.7c.02.63.44 1.08 1.06 1.08.34 0 .7-.09.96-.27l.1.53c-.29.18-.67.27-1.08.27-.97 0-1.62-.69-1.62-1.67 0-1.04.69-1.74 1.58-1.74.78 0 1.23.49 1.23 1.25 0 .18-.03.37-.07.51l-2.16.01v.03zm1.68-.47v-.05c0-.48-.22-.79-.73-.79-.55 0-.87.43-.92.85l1.65-.01zM282.86 208.2v-2.02c0-.55-.21-.74-.67-.74-.34 0-.66.17-.84.35v2.41h-.57v-3.22l.57-.09v.48c.29-.29.67-.48 1.04-.48.65 0 1.04.41 1.04 1.11v2.21h-.57zM285.53 208.31c-.62 0-.95-.3-.93-1l.05-1.79-.53-.04.02-.36.53-.16.01-.69h.55l-.02.74h1l-.02.52h-1l-.05 1.81c-.01.3.13.46.42.46.2 0 .39-.05.58-.12.01 0 .1.5.1.5-.23.08-.47.13-.71.13z"/></g><path class="st3" d="M211.84 208.96h-5.63a.18.18 0 0 1-.18-.18v-5.63c0-.1.08-.18.18-.18h5.63c.1 0 .18.08.18.18v5.63c.01.1-.08.18-.18.18z"/></g><g><path class="st10" d="M96.67 18.75l.16.54c-1.18.3-1.99.99-2.25 1.98l.02.01c.33-.31.8-.51 1.29-.51.79 0 1.41.61 1.41 1.54 0 .94-.65 1.66-1.64 1.66-1.17 0-1.73-.96-1.73-2.07 0-1.38.89-2.72 2.74-3.15zm-.98 4.63c.58 0 .97-.44.97-1.05 0-.62-.36-.99-.94-.99-.46 0-.89.22-1.12.43-.02.09-.04.19-.04.3 0 .7.4 1.31 1.13 1.31zM101.24 22.42c0 .95-.82 1.55-1.8 1.55-.49 0-1.09-.15-1.42-.34l.12-.61c.3.17.8.36 1.3.36.59 0 1.12-.31 1.12-.89 0-.5-.41-.87-1.14-.87-.22 0-.52.03-.74.07v-.54c.98-.23 1.69-.55 1.69-1.12 0-.42-.31-.7-.88-.7-.39 0-.87.19-1.21.5l-.25-.58c.35-.28.92-.52 1.46-.52.9 0 1.54.45 1.54 1.22 0 .59-.46 1.02-1.27 1.26 1.04-.01 1.48.59 1.48 1.21zM103.24 21.31c-.82 0-1.33-.61-1.33-1.32 0-.73.51-1.33 1.33-1.33.82 0 1.33.61 1.33 1.33-.01.71-.51 1.32-1.33 1.32zm0-2.24c-.56 0-.9.41-.9.92 0 .48.34.9.9.9s.9-.42.9-.9c-.01-.51-.34-.92-.9-.92zm-.22 4.9h-.5l3.98-5.23h.5l-3.98 5.23zm3.25.08c-.82 0-1.33-.61-1.33-1.33 0-.71.5-1.32 1.33-1.32.82 0 1.33.61 1.33 1.32 0 .72-.51 1.33-1.33 1.33zm0-2.24c-.56 0-.9.42-.9.9 0 .51.34.92.9.92s.9-.41.9-.92c0-.48-.34-.9-.9-.9z"/></g><g><path class="st4" d="M194.04 23.95l-.16-.54c1.18-.3 1.99-.99 2.25-1.98l-.02-.01c-.33.31-.8.51-1.29.51-.79 0-1.4-.61-1.4-1.54 0-.94.64-1.66 1.63-1.66 1.17 0 1.73.96 1.73 2.07 0 1.38-.89 2.72-2.74 3.15zm.99-4.64c-.59 0-.98.44-.98 1.05 0 .62.36.99.94.99.46 0 .89-.22 1.12-.43.02-.09.04-.19.04-.3 0-.7-.4-1.31-1.12-1.31zM198.8 21.31c-.82 0-1.33-.61-1.33-1.32 0-.73.51-1.33 1.33-1.33.82 0 1.33.61 1.33 1.33 0 .71-.5 1.32-1.33 1.32zm0-2.24c-.56 0-.9.41-.9.92 0 .48.34.9.9.9s.9-.42.9-.9c0-.51-.34-.92-.9-.92zm-.21 4.9h-.5l3.98-5.23h.5l-3.98 5.23zm3.25.08c-.82 0-1.33-.61-1.33-1.33 0-.71.5-1.32 1.33-1.32.82 0 1.33.61 1.33 1.32 0 .72-.51 1.33-1.33 1.33zm0-2.24c-.56 0-.9.42-.9.9 0 .51.34.92.9.92s.9-.41.9-.92c0-.48-.34-.9-.9-.9z"/></g><g><path class="st4" d="M243.04 23.85l-.03-.65c1.51-1.42 2.41-2.09 2.41-2.96 0-.54-.39-.9-.94-.9-.42 0-.87.23-1.19.54l-.23-.58c.31-.29.88-.56 1.46-.56.94 0 1.58.6 1.58 1.49 0 .95-.82 1.62-2.37 3.02h2.49l.03.6h-3.21zM248.72 23.97c-1.15 0-1.68-.63-1.68-1.38 0-.69.55-1.09.98-1.29-.48-.25-.89-.58-.89-1.14 0-.83.62-1.44 1.64-1.44 1.07 0 1.56.65 1.56 1.38 0 .62-.46 1.02-.86 1.24.5.26.94.59.94 1.19-.01.77-.58 1.44-1.69 1.44zm-.24-2.45c-.46.19-.81.54-.81 1.01 0 .53.45.87 1.08.87.66 0 1.02-.3 1.02-.79-.01-.57-.61-.91-1.29-1.09zm.26-2.23c-.64 0-.98.37-.98.8 0 .51.56.85 1.24 1.02.41-.19.69-.51.69-.95 0-.54-.42-.87-.95-.87zM252.4 21.31c-.82 0-1.33-.61-1.33-1.32 0-.73.51-1.33 1.33-1.33.82 0 1.33.61 1.33 1.33-.01.71-.51 1.32-1.33 1.32zm0-2.24c-.56 0-.9.41-.9.92 0 .48.34.9.9.9s.9-.42.9-.9c-.01-.51-.34-.92-.9-.92zm-.22 4.9h-.5l3.98-5.23h.5l-3.98 5.23zm3.25.08c-.82 0-1.33-.61-1.33-1.33 0-.71.5-1.32 1.33-1.32.82 0 1.33.61 1.33 1.32 0 .72-.51 1.33-1.33 1.33zm0-2.24c-.56 0-.9.42-.9.9 0 .51.34.92.9.92s.9-.41.9-.92c0-.48-.34-.9-.9-.9z"/></g></g></svg>