<svg id="Layer_1" xmlns="http://www.w3.org/2000/svg" viewBox="0 0 320.3 73.3"><style>.st0{fill:#58596e}.st1{fill:#a6bbc3}.st2{fill:#595478}</style><path class="st0" d="M41.9 42.8v-2.7h-3.4v2.7h-.6V37h.6v2.7h3.4V37h.6v5.9h-.6zM44.4 37.5c-.3 0-.4-.2-.4-.4s.1-.4.4-.4.4.2.4.4-.1.4-.4.4zm-.2 5.3v-4.3l.6-.1v4.4h-.6zM46 42.2c0-.4.3-.7.7-.8-.4-.3-.7-.8-.7-1.4 0-.9.7-1.6 1.7-1.6.5 0 .8.1 1 .3l1.2-.1v.6l-.9-.1c.2.2.3.6.3 1 0 .9-.7 1.6-1.7 1.6-.2 0-.4 0-.6-.1-.2.1-.5.3-.5.5 0 .3.2.4 1 .4h.6c1.2 0 1.8.4 1.8 1.1 0 .9-1.1 1.6-2.3 1.6-1.2 0-1.9-.5-1.9-1.3 0-.5.4-.9.9-1.1-.4-.1-.6-.3-.6-.6zm.2 1.6c0 .5.6.9 1.5.9s1.6-.4 1.6-1c0-.5-.5-.7-1.3-.7h-.9c-.5.1-.9.4-.9.8zm1.5-2.7c.7 0 1.1-.5 1.1-1.1 0-.6-.4-1.1-1.1-1.1-.7 0-1.1.5-1.1 1.1 0 .7.4 1.1 1.1 1.1zM53.7 42.8V40c0-.8-.3-1.1-.9-1.1-.5 0-1 .3-1.3.6v3.3h-.6v-6.3l.6-.1v2.7c.5-.5 1-.7 1.5-.7.8 0 1.3.5 1.3 1.5v3h-.6zM56.1 40.8c0 1 .6 1.7 1.5 1.7.5 0 .9-.1 1.2-.4l.1.5c-.4.2-.8.4-1.4.4-1.2 0-2.1-.9-2.1-2.2 0-1.4.9-2.3 2-2.3.9 0 1.6.6 1.6 1.6 0 .2 0 .5-.1.7h-2.8zm2.4-.6V40c0-.7-.4-1.1-1-1.1-.8 0-1.3.6-1.4 1.3h2.4zM61 42.8h-.6v-4.3l.6-.1v.9c.3-.6.7-.9 1.3-.9.3 0 .6.1.8.2l-.2.5c-.3-.1-.5-.1-.7-.1-.5 0-.9.3-1.2 1.1v2.7zM66.6 42.8H66v-4.3l.6-.1v.9c.3-.6.7-.9 1.3-.9.3 0 .6.1.8.2l-.2.5c-.2-.1-.4-.1-.7-.1-.5 0-.9.3-1.2 1.1v2.7zM72 42.3c-.3.4-.8.6-1.3.6-.8 0-1.4-.5-1.4-1.2 0-.8.6-1.4 2.6-1.5v-.3c0-.7-.3-1-1-1-.5 0-1 .2-1.4.5l-.1-.5c.4-.3 1-.5 1.6-.5 1 0 1.6.5 1.5 1.5V42c0 .3.1.4.4.4v.5c-.5.1-.8-.2-.9-.6zm0-1.7c-1.5.2-2 .5-2 1.1 0 .5.4.8.9.8s.9-.3 1.1-.6v-1.3zM75.2 43c-.8 0-1.2-.5-1.2-1.4l.1-2.5h-.7v-.4l.6-.2v-1h.6v1H76v.5h-1.4l-.1 2.6c0 .5.2.8.6.8.3 0 .6-.1.8-.2l.1.5c-.1.2-.5.3-.8.3zM77.4 40.8c0 1 .6 1.7 1.5 1.7.5 0 .9-.1 1.3-.4l.1.5c-.4.2-.8.4-1.4.4-1.2 0-2.1-.9-2.1-2.2 0-1.4.9-2.3 2-2.3.9 0 1.6.6 1.6 1.6 0 .2 0 .5-.1.7h-2.9zm2.5-.6V40c0-.7-.4-1.1-1-1.1-.8 0-1.3.6-1.4 1.3h2.4zM82.8 43c-.5 0-1-.2-1.4-.4l.2-.5c.4.2.8.4 1.3.4s1-.3 1-.7c0-.5-.5-.7-1.1-.8-.6-.2-1.2-.5-1.2-1.2 0-.8.6-1.2 1.5-1.2.5 0 .9.1 1.3.3l-.4.4c-.4-.2-.8-.3-1.2-.3-.5 0-.9.2-.9.7 0 .5.5.6 1.1.8.6.2 1.3.5 1.3 1.3 0 .7-.7 1.2-1.5 1.2zM89.5 43c-1.2 0-2.1-.9-2.1-2.3s.9-2.3 2.1-2.3 2.1.9 2.1 2.3c0 1.3-.9 2.3-2.1 2.3zm0-4.1c-.9 0-1.5.7-1.5 1.7 0 1.1.6 1.8 1.5 1.8s1.5-.7 1.5-1.7c0-1.1-.6-1.8-1.5-1.8zM94.9 37c-.2-.1-.4-.2-.7-.2-.5 0-.7.3-.7 1v.7h1.4v.5h-1.3v3.8H93V39h-.7v-.4l.6-.2v-.7c0-1.1.5-1.6 1.3-1.6.3 0 .6.1.8.2 0 .2-.1.7-.1.7zM24.5 47.1c-.4 0-.7-.3-.7-.7 0-.4.2-.7.7-.7.4 0 .7.3.7.7 0 .5-.3.7-.7.7zm-.6 5.1v-4.3l1.1-.2v4.5h-1.1zM29.2 52.2v-2.6c0-.6-.3-.9-.8-.9-.4 0-.7.2-1 .4v3.1h-1.1v-4.3l1.1-.2v.7c.4-.4.9-.7 1.4-.7.9 0 1.4.6 1.4 1.5v3h-1zM33.9 47.8c1.1 0 1.9.9 1.9 2.3s-1 2.3-2.2 2.3c-.3 0-.6 0-.9-.1v2.1h-1.1V48l1.1-.2v.5c.3-.3.7-.5 1.2-.5zm-1.2 3.4c.2.2.5.2.8.2.7 0 1.2-.6 1.2-1.4 0-.8-.4-1.4-1.1-1.4-.4 0-.6.1-.9.4v2.2zM39.2 51.7c-.3.4-.7.6-1.2.6-.8 0-1.3-.5-1.3-1.2 0-.8.6-1.5 2.6-1.5v-.1c0-.6-.2-.8-.9-.8-.4 0-1 .2-1.4.5l-.2-.9c.4-.3 1.1-.5 1.8-.5 1.3 0 1.9.6 1.8 1.8v1.6c0 .3.1.4.4.4l-.1.8c-.9 0-1.3-.2-1.5-.7zm0-1.5c-1.1.1-1.5.3-1.5.8 0 .3.3.6.6.6s.6-.2.8-.4v-1zM43.2 52.4c-1 0-1.5-.4-1.4-1.5l.1-2-.7-.1v-.7l.7-.2v-1H43v1h1.2v.9h-1.3l-.1 2c0 .4.2.6.6.6.2 0 .5-.1.7-.1l.2.9c-.5.1-.8.2-1.1.2zM45.7 47.1c-.4 0-.7-.3-.7-.7 0-.4.2-.7.7-.7.4 0 .7.3.7.7 0 .5-.3.7-.7.7zm-.6 5.1v-4.3l1.1-.2v4.5h-1.1zM48.4 50.3c0 .7.5 1.2 1.3 1.2.5 0 1-.2 1.4-.4l.1.9c-.4.2-1 .4-1.6.4-1.4 0-2.3-.9-2.3-2.3s.9-2.3 2.2-2.3c1.1 0 1.8.7 1.8 1.8 0 .2 0 .5-.1.7 0-.1-2.8 0-2.8 0zm1.9-.7c0-.7-.3-1-.8-1-.6 0-1 .5-1 1h1.8zM55.2 52.2v-2.6c0-.6-.3-.9-.8-.9-.4 0-.7.2-1 .4v3.1h-1.1v-4.3l1.1-.2v.7c.4-.4.9-.7 1.4-.7.9 0 1.4.6 1.4 1.5v3h-1zM59.2 52.4c-1 0-1.5-.4-1.4-1.5l.1-2-.7-.1v-.7l.7-.2v-1H59v1h1.2v.9h-1.3l-.1 2c0 .4.2.6.6.6.2 0 .5-.1.7-.1l.2.9c-.4.1-.7.2-1.1.2zM65.7 51.7c-.3.4-.7.6-1.2.6-.8 0-1.3-.5-1.3-1.2 0-.8.6-1.5 2.6-1.5v-.1c0-.6-.2-.8-.9-.8-.4 0-1 .2-1.4.5l-.2-.9c.4-.3 1.1-.5 1.8-.5 1.3 0 1.9.6 1.8 1.8v1.6c0 .3.1.4.4.4l-.1.8c-.9 0-1.3-.2-1.5-.7zm0-1.5c-1.1.1-1.5.3-1.5.8 0 .3.3.6.6.6s.6-.2.8-.4v-1zM71 46l1.1-.2v6.4H71v-.4c-.3.3-.7.6-1.2.6-1.1 0-1.9-.9-1.9-2.3s1-2.3 2.2-2.3c.3 0 .6.1.9.1V46zm-.9 2.7c-.7 0-1.2.6-1.2 1.4 0 .8.4 1.4 1.1 1.4.4 0 .6-.1.9-.4v-2.2c-.1-.2-.4-.2-.8-.2zM78.8 52.2v-2.6c0-.6-.3-.9-.7-.9-.4 0-.7.2-.9.4V52.2h-1.1v-2.6c0-.6-.2-.9-.7-.9-.4 0-.7.2-.9.4v3.1h-1.1v-4.3l1.1-.2v.6c.4-.4.8-.6 1.4-.6.5 0 1 .3 1.2.7.4-.5.9-.7 1.5-.7.8 0 1.3.6 1.3 1.5v3h-1.1zM81.8 47.1c-.4 0-.7-.3-.7-.7 0-.4.2-.7.7-.7.4 0 .7.3.7.7 0 .5-.3.7-.7.7zm-.5 5.1v-4.3l1.1-.2v4.5h-1.1zM85.1 52.4c-.6 0-1.2-.2-1.7-.4l.2-.9c.4.2 1 .4 1.5.4.4 0 .7-.2.7-.5s-.4-.5-.9-.6c-.8-.2-1.5-.5-1.5-1.3s.7-1.4 1.7-1.4c.5 0 1.2.1 1.6.3l-.2 1c-.4-.2-1-.4-1.4-.4-.4 0-.6.2-.6.4 0 .3.4.4.9.6.8.2 1.5.5 1.5 1.4 0 .8-.7 1.4-1.8 1.4zM89.3 52.4c-.6 0-1.3-.2-1.7-.4l.2-.9c.4.2 1 .4 1.5.4.4 0 .7-.2.7-.5s-.4-.5-.9-.6c-.8-.2-1.5-.5-1.5-1.3s.7-1.4 1.7-1.4c.5 0 1.2.1 1.6.3l-.1 1c-.4-.2-1-.4-1.4-.4-.4 0-.6.2-.6.4 0 .3.4.4.9.6.8.2 1.5.5 1.5 1.4-.1.8-.8 1.4-1.9 1.4zM92.7 47.1c-.4 0-.7-.3-.7-.7 0-.4.2-.7.7-.7.4 0 .7.3.7.7 0 .5-.2.7-.7.7zm-.5 5.1v-4.3l1.1-.2v4.5h-1.1zM96.6 52.4c-1.3 0-2.2-.9-2.2-2.3s1-2.3 2.2-2.3 2.2.9 2.2 2.3-1 2.3-2.2 2.3zm0-3.7c-.7 0-1.1.6-1.1 1.4 0 .8.4 1.4 1.1 1.4.7 0 1.1-.6 1.1-1.4 0-.9-.4-1.4-1.1-1.4zM102.7 52.2v-2.6c0-.6-.3-.9-.8-.9-.4 0-.7.2-1 .4v3.1h-1.1v-4.3l1.1-.2v.7c.4-.4.9-.7 1.4-.7.9 0 1.4.6 1.4 1.5v3h-1zM106.5 52.4c-.6 0-1.2-.2-1.7-.4l.2-.9c.4.2 1 .4 1.5.4.4 0 .7-.2.7-.5s-.4-.5-.9-.6c-.8-.2-1.5-.5-1.5-1.3s.7-1.4 1.7-1.4c.5 0 1.2.1 1.6.3l-.1 1c-.4-.2-1-.4-1.4-.4-.4 0-.6.2-.6.4 0 .3.4.4.9.6.8.2 1.5.5 1.5 1.4-.1.8-.8 1.4-1.9 1.4zM109.8 51.3c.3 0 .7.3.7.7 0 .6-.5 1.2-1.2 1.6l-.3-.3c.6-.4.8-.8.8-1.1 0-.2-.2-.4-.6-.5.1-.1.3-.4.6-.4zm0-1.9c-.3 0-.5-.2-.5-.5 0-.2.2-.5.5-.5s.5.2.5.5c0 .2-.2.5-.5.5zM12 60c0 1.1-.9 1.8-2.1 1.8-.5 0-1.2-.2-1.6-.4l.1-.5c.4.2.9.4 1.4.4.8 0 1.5-.4 1.5-1.2 0-.6-.5-1.1-1.4-1.1-.2 0-.5 0-.8.1v-.5c1.3-.3 2-.7 2-1.4 0-.6-.5-.9-1.2-.9-.5 0-1.1.2-1.4.6l-.2-.5c.4-.3 1.1-.6 1.7-.6 1 0 1.7.5 1.7 1.4 0 .7-.5 1.2-1.5 1.5 1.2-.2 1.8.5 1.8 1.3zM16.4 60.2v1.5h-.5v-1.5h-2.8l-.1-.5 2.8-4h.6v3.9h.9v.5h-.9zm-.6-3.8l-2.2 3.2h2.2v-3.2zM19.2 58.7c-1 0-1.6-.7-1.6-1.6 0-.9.6-1.6 1.6-1.6s1.6.7 1.6 1.6c0 .9-.6 1.6-1.6 1.6zm0-2.8c-.7 0-1.1.5-1.1 1.2 0 .6.4 1.1 1.1 1.1.7 0 1.1-.5 1.1-1.1.1-.6-.3-1.2-1.1-1.2zm-.3 5.9h-.5l4.8-6.1h.5l-4.8 6.1zm3.9.1c-1 0-1.6-.7-1.6-1.6 0-.8.6-1.6 1.6-1.6s1.6.7 1.6 1.6c0 .9-.6 1.6-1.6 1.6zm0-2.7c-.7 0-1.1.5-1.1 1.1 0 .6.4 1.2 1.1 1.2.7 0 1.1-.5 1.1-1.2 0-.6-.4-1.1-1.1-1.1zM29.3 61.8c-1.2 0-2.1-.9-2.1-2.3s.9-2.3 2.1-2.3 2.1.9 2.1 2.3-.9 2.3-2.1 2.3zm0-4.1c-.9 0-1.5.7-1.5 1.7 0 1.1.6 1.8 1.5 1.8s1.5-.7 1.5-1.7c.1-1.1-.5-1.8-1.5-1.8zM34.7 55.8c-.2-.1-.4-.2-.7-.2-.5 0-.7.3-.7 1v.7h1.4v.5h-1.3v3.8h-.6v-3.8h-.7v-.4l.6-.2v-.7c0-1.1.5-1.6 1.3-1.6.3 0 .6.1.8.2.1.2-.1.7-.1.7zM38.6 61.7l-1.3-4.3h.6l1 3.4 1.1-3.4h.5l1.2 3.4.9-3.4h.6l-1.3 4.3h-.5l-1.2-3.5-1.2 3.5h-.4zM47 61.6v-2.8c0-.8-.3-1.1-.9-1.1-.5 0-1 .3-1.3.6v3.3h-.6v-6.3l.6-.1v2.7c.5-.5 1-.7 1.5-.7.8 0 1.3.5 1.3 1.5v3H47zM49.4 56.4c-.3 0-.4-.2-.4-.4s.1-.4.4-.4.4.2.4.4c0 .1-.2.4-.4.4zm-.3 5.2v-4.3l.6-.1v4.4h-.6zM53 61.8c-1.3 0-2.1-.9-2.1-2.3 0-1.3.9-2.3 2.1-2.3.5 0 1 .1 1.3.4l-.2.5c-.3-.2-.7-.3-1.2-.3-.9 0-1.5.7-1.5 1.7 0 1.1.6 1.7 1.5 1.7.4 0 .9-.1 1.2-.4l.1.5c-.3.3-.7.5-1.2.5zM58.3 61.6v-2.8c0-.8-.3-1.1-.9-1.1-.5 0-1 .3-1.3.6v3.3h-.6v-6.3l.6-.1v2.7c.5-.5 1-.7 1.5-.7.8 0 1.3.5 1.3 1.5v3h-.6zM63.3 61.7L62 57.3h.6l1 3.4 1.1-3.4h.5l1.2 3.4.9-3.4h.7l-1.3 4.3h-.5L65 58.2l-1.2 3.5h-.5zM69.2 59.6c0 1 .6 1.7 1.5 1.7.5 0 .9-.1 1.2-.4l.1.5c-.4.2-.8.4-1.4.4-1.2 0-2.1-.9-2.1-2.2 0-1.4.9-2.3 2-2.3.9 0 1.6.6 1.6 1.6 0 .2 0 .5-.1.7h-2.8zm2.4-.6v-.2c0-.7-.4-1.1-1-1.1-.8 0-1.3.6-1.4 1.3h2.4zM74 61.6h-.6v-4.3l.6-.1v.9c.3-.6.7-.9 1.3-.9.3 0 .6.1.8.2l-.2.6c-.2-.1-.4-.2-.7-.2-.5 0-.9.3-1.2 1.1v2.7zM77.2 59.6c0 1 .6 1.7 1.5 1.7.5 0 .9-.1 1.3-.4l.1.5c-.4.2-.8.4-1.4.4-1.2 0-2.1-.9-2.1-2.2 0-1.4.9-2.3 2-2.3.9 0 1.6.6 1.6 1.6 0 .2 0 .5-.1.7h-2.9zm2.4-.6v-.2c0-.7-.4-1.1-1-1.1-.8 0-1.3.6-1.4 1.3h2.4zM85.8 56.3v5.3h-.6v-5.3h-2.1v-.6h4.7v.6h-2zM90.6 61.6H89v-5.9h1.6c1.9 0 3.1 1.2 3.1 2.9 0 1.9-1.1 3-3.1 3zm0-5.3h-1v4.8h1c1.5 0 2.5-.8 2.5-2.4 0-1.5-.9-2.4-2.5-2.4zM95 59.6v-.5h2.1v.5H95zM99.3 61.8c-.5 0-1-.2-1.4-.4l.2-.5c.4.2.8.4 1.3.4s1-.3 1-.7c0-.5-.5-.7-1.1-.8-.6-.2-1.2-.5-1.2-1.2 0-.8.6-1.2 1.5-1.2.5 0 .9.1 1.3.3l-.2.5c-.4-.2-.8-.3-1.2-.3-.5 0-.9.2-.9.7 0 .5.5.6 1.1.8.6.2 1.3.5 1.3 1.3-.1.6-.8 1.1-1.7 1.1zM103.9 57.2c1.2 0 1.9.9 1.9 2.2 0 1.3-.9 2.3-2.1 2.3-.3 0-.8-.1-1.1-.2v2.3h-.6v-6.5l.6-.1v.6c.3-.3.7-.6 1.3-.6zm-1.3 3.7c.3.2.7.3 1.1.3.9 0 1.5-.7 1.5-1.8 0-1-.5-1.7-1.4-1.7-.4 0-.8.2-1.2.5v2.7zM107.4 59.6c0 1 .6 1.7 1.5 1.7.5 0 .9-.1 1.2-.4l.1.5c-.4.2-.8.4-1.4.4-1.2 0-2.1-.9-2.1-2.2 0-1.4.9-2.3 2-2.3.9 0 1.6.6 1.6 1.6 0 .2 0 .5-.1.7h-2.8zm2.4-.6v-.2c0-.7-.4-1.1-1-1.1-.8 0-1.3.6-1.4 1.3h2.4zM113.5 61.8c-1.3 0-2.1-.9-2.1-2.3 0-1.3.9-2.3 2.1-2.3.5 0 1 .1 1.3.4l-.2.5c-.3-.2-.7-.3-1.2-.3-.9 0-1.5.7-1.5 1.7 0 1.1.6 1.7 1.5 1.7.4 0 .9-.1 1.2-.4l.1.5c-.3.3-.7.5-1.2.5zM116.2 56.4c-.3 0-.4-.2-.4-.4s.1-.4.4-.4.4.2.4.4c0 .1-.1.4-.4.4zm-.2 5.2v-4.3l.6-.1v4.4h-.6zM120.2 55.8c-.2-.1-.4-.2-.7-.2-.5 0-.7.3-.7 1v.7h1.4v.5h-1.3v3.8h-.6v-3.8h-.7v-.4l.6-.2v-.7c0-1.1.5-1.6 1.3-1.6.3 0 .6.1.8.2 0 .2-.1.7-.1.7zm1 .6c-.3 0-.4-.2-.4-.4s.1-.4.4-.4c.3 0 .4.2.4.4 0 .1-.2.4-.4.4zm-.3 5.2v-4.3l.6-.1v4.4h-.6zM124.8 61.8c-1.3 0-2.1-.9-2.1-2.3 0-1.3.9-2.3 2.1-2.3.5 0 1 .1 1.3.4l-.2.5c-.3-.2-.7-.3-1.2-.3-.9 0-1.5.7-1.5 1.7 0 1.1.6 1.7 1.5 1.7.4 0 .9-.1 1.2-.4l.1.5c-.2.3-.7.5-1.2.5z"/><g><path class="st0" d="M153.6 37.7l-1.9 5.1h-.7l-1.9-5.1-.1 5.1h-.6l.2-5.9h.8l2 5.2 2-5.2h.8l.2 5.9h-.6l-.2-5.1zM157.6 43c-1.2 0-2.1-.9-2.1-2.3s.9-2.3 2.1-2.3 2.1.9 2.1 2.3c0 1.3-.9 2.3-2.1 2.3zm0-4.1c-.9 0-1.5.7-1.5 1.7 0 1.1.6 1.8 1.5 1.8s1.5-.7 1.5-1.7c0-1.1-.6-1.8-1.5-1.8zM161.5 42.8h-.6v-4.3l.6-.1v.9c.3-.6.7-.9 1.3-.9.3 0 .6.1.8.2l-.2.5c-.2-.1-.4-.2-.7-.2-.5 0-.9.3-1.2 1.1v2.8zM164.7 40.8c0 1 .6 1.7 1.5 1.7.5 0 .9-.1 1.3-.4l.1.5c-.4.2-.8.4-1.4.4-1.2 0-2.1-.9-2.1-2.2 0-1.4.9-2.3 2-2.3.9 0 1.6.6 1.6 1.6 0 .2 0 .5-.1.7h-2.9zm2.4-.6V40c0-.7-.4-1.1-1-1.1-.8 0-1.3.6-1.4 1.3h2.4zM171.9 40.9c0 .7.5 1.2 1.3 1.2.5 0 1-.2 1.4-.4l.1.9c-.4.2-1 .4-1.6.4-1.4 0-2.3-.9-2.3-2.3s.9-2.4 2.2-2.4c1.1 0 1.8.7 1.8 1.8 0 .2 0 .5-.1.7l-2.8.1zm1.9-.7c0-.7-.3-1-.8-1-.6 0-1 .5-1 1h1.8zM181.4 42.8v-2.6c0-.6-.3-.9-.7-.9-.4 0-.7.2-.9.4V42.8h-1.1v-2.6c0-.6-.2-.9-.7-.9-.4 0-.7.2-.9.4v3.1H176v-4.3l1.1-.2v.6c.4-.4.8-.6 1.4-.6.5 0 1 .3 1.2.7.4-.5.9-.7 1.5-.7.8 0 1.3.6 1.3 1.5v3h-1.1zM184.6 40.9c0 .7.5 1.2 1.3 1.2.5 0 1-.2 1.4-.4l.1.9c-.4.2-1 .4-1.6.4-1.4 0-2.3-.9-2.3-2.3s.9-2.4 2.2-2.4c1.1 0 1.8.7 1.8 1.8 0 .2 0 .5-.1.7.1 0-2.8.1-2.8.1zm1.9-.7c0-.7-.3-1-.8-1-.6 0-1 .5-1 1h1.8zM189.8 42.8h-1.1v-4.3l1.1-.2v.7c.3-.5.6-.7 1.1-.7.3 0 .5.1.8.2l-.2 1c-.2-.1-.4-.2-.6-.2-.4 0-.7.2-1 .8v2.7zM192.3 42.3c0-.4.3-.8.8-.9-.5-.2-.8-.7-.8-1.3 0-.9.7-1.7 1.9-1.7.5 0 .9.1 1.2.3l1.2-.1v1l-.8-.1c.1.1.2.5.2.7 0 .9-.7 1.6-1.8 1.6-.2 0-.4 0-.6-.1-.2.1-.3.2-.3.4s.2.3.9.3h.5c1.2 0 1.9.3 1.9 1.2 0 1-1.2 1.7-2.5 1.7-1.1 0-2.1-.4-2.1-1.2 0-.5.3-.9 1-1-.4-.2-.7-.5-.7-.8zm.7 1.4c0 .4.5.7 1.2.7.8 0 1.3-.3 1.3-.7 0-.4-.4-.5-1.2-.5h-.8c-.3.1-.5.3-.5.5zm1.2-2.8c.5 0 .8-.4.8-.9s-.3-.9-.8-.9-.8.4-.8.9.3.9.8.9zM198.3 40.9c0 .7.5 1.2 1.3 1.2.5 0 1-.2 1.4-.4l.1.9c-.4.2-1 .4-1.6.4-1.4 0-2.3-.9-2.3-2.3s.9-2.4 2.2-2.4c1.1 0 1.8.7 1.8 1.8 0 .2 0 .5-.1.7l-2.8.1zm1.9-.7c0-.7-.3-1-.8-1-.6 0-1 .5-1 1h1.8zM205.2 42.8v-2.6c0-.6-.3-.9-.8-.9-.4 0-.7.2-1 .4v3.1h-1.1v-4.3l1.1-.2v.7c.4-.4.9-.7 1.4-.7.9 0 1.4.6 1.4 1.5v3h-1zM209.6 43c-1.4 0-2.2-.9-2.2-2.3s.9-2.3 2.3-2.3c.6 0 1.1.1 1.5.4l-.2.9c-.4-.2-.8-.3-1.2-.3-.8 0-1.2.5-1.2 1.4 0 .9.5 1.4 1.2 1.4.5 0 .9-.1 1.2-.3l.2.9c-.5 0-1 .2-1.6.2zM214.6 42.8l-.3.7c-.4 1.2-.9 1.5-1.7 1.5-.4 0-.8-.1-1.1-.3l.3-.9c.3.1.5.2.7.2.3 0 .5-.1.7-.7l.2-.5-1.7-4.3h1.2l1.1 3.1 1-3.1h1.2l-1.6 4.3zM151.2 46l1.1-.2v6.4h-1.1v-.4c-.3.3-.7.6-1.2.6-1.1 0-1.9-.9-1.9-2.3s1-2.3 2.2-2.3c.3 0 .6.1.9.1V46zm-.8 2.7c-.7 0-1.2.6-1.2 1.4 0 .8.4 1.4 1.1 1.4.4 0 .6-.1.9-.4v-2.2c-.2-.2-.5-.2-.8-.2zM154.5 50.3c0 .7.5 1.2 1.3 1.2.5 0 1-.2 1.4-.4l.1.9c-.4.2-1 .4-1.6.4-1.4 0-2.3-.9-2.3-2.3s.9-2.3 2.2-2.3c1.1 0 1.8.7 1.8 1.8 0 .2 0 .5-.1.7 0-.1-2.8 0-2.8 0zm1.9-.7c0-.7-.3-1-.8-1-.6 0-1 .5-1 1h1.8zM160.9 47.8c1.1 0 1.9.9 1.9 2.3s-1 2.3-2.2 2.3c-.3 0-.6 0-.9-.1v2.1h-1.1V48l1.1-.2v.5c.3-.3.6-.5 1.2-.5zm-1.2 3.4c.2.2.5.2.8.2.7 0 1.2-.6 1.2-1.4 0-.8-.4-1.4-1.1-1.4-.4 0-.6.1-.9.4v2.2zM166.1 51.7c-.3.4-.7.6-1.2.6-.8 0-1.3-.5-1.3-1.2 0-.8.6-1.5 2.6-1.5v-.1c0-.6-.2-.8-.9-.8-.4 0-1 .2-1.4.5l-.2-.9c.4-.3 1.1-.5 1.8-.5 1.3 0 1.9.6 1.8 1.8v1.6c0 .3.1.4.4.4l-.1.8c-.9 0-1.3-.2-1.5-.7zm0-1.5c-1.1.1-1.5.3-1.5.8 0 .3.3.6.6.6s.6-.2.8-.4v-1zM169.7 52.2h-1.1v-4.3l1.1-.2v.7c.3-.5.6-.7 1.1-.7.3 0 .5.1.8.2l-.2 1c-.2-.1-.4-.2-.6-.2-.4 0-.7.2-1 .8v2.7zM174.2 52.4c-1 0-1.5-.4-1.4-1.5l.1-2-.7-.1v-.7l.7-.2v-1h1.1v1h1.2v.9h-1.3l-.1 2c0 .4.2.6.6.6.2 0 .5-.1.7-.1l.2.9c-.4.1-.7.2-1.1.2zM181.6 52.2v-2.6c0-.6-.3-.9-.7-.9-.4 0-.7.2-.9.4V52.2h-1.1v-2.6c0-.6-.2-.9-.7-.9-.4 0-.7.2-.9.4v3.1h-1.1v-4.3l1.1-.2v.6c.4-.4.8-.6 1.4-.6.5 0 1 .3 1.2.7.4-.5.9-.7 1.5-.7.8 0 1.3.6 1.3 1.5v3h-1.1zM184.9 50.3c0 .7.5 1.2 1.3 1.2.5 0 1-.2 1.4-.4l.1.9c-.4.2-1 .4-1.6.4-1.4 0-2.3-.9-2.3-2.3s.9-2.3 2.2-2.3c1.1 0 1.8.7 1.8 1.8 0 .2 0 .5-.1.7 0-.1-2.8 0-2.8 0zm1.9-.7c0-.7-.3-1-.8-1-.6 0-1 .5-1 1h1.8zM191.7 52.2v-2.6c0-.6-.3-.9-.8-.9-.4 0-.7.2-1 .4v3.1h-1.1v-4.3l1.1-.2v.7c.4-.4.9-.7 1.4-.7.9 0 1.4.6 1.4 1.5v3h-1zM195.7 52.4c-1 0-1.5-.4-1.4-1.5l.1-2-.7-.1v-.7l.7-.2v-1h1.1v1h1.2v.9h-1.3l-.1 2c0 .4.2.6.6.6.2 0 .5-.1.7-.1l.2.9c-.4.1-.7.2-1.1.2zM201.6 52.3h-.6l-1.7-4.3h.6l1.4 3.6 1.3-3.6h.6l-1.6 4.3zM204.5 47c-.3 0-.4-.2-.4-.4s.1-.4.4-.4.4.2.4.4c0 .1-.1.4-.4.4zm-.3 5.2v-4.3l.6-.1v4.4h-.6zM207.3 52.4c-.5 0-1-.2-1.4-.4l.2-.5c.4.2.8.4 1.3.4s1-.3 1-.7c0-.5-.5-.7-1.1-.8-.6-.2-1.2-.5-1.2-1.2 0-.8.6-1.2 1.5-1.2.5 0 .9.1 1.3.3l-.2.5c-.4-.2-.8-.3-1.2-.3-.5 0-.9.2-.9.7 0 .5.5.6 1.1.8.6.2 1.3.5 1.3 1.3-.1.6-.8 1.1-1.7 1.1zM210.3 47c-.3 0-.4-.2-.4-.4s.1-.4.4-.4.4.2.4.4c0 .1-.1.4-.4.4zm-.3 5.2v-4.3l.6-.1v4.4h-.6zM213.3 52.4c-.8 0-1.2-.5-1.2-1.4l.1-2.5h-.7v-.4l.6-.2v-1h.6v1h1.4v.5h-1.4l-.1 2.6c0 .5.2.8.6.8.3 0 .6-.1.8-.2l.1.5c-.1.2-.5.3-.8.3zM216.6 52.4c-.5 0-1-.2-1.4-.4l.2-.5c.4.2.8.4 1.3.4s1-.3 1-.7c0-.5-.5-.7-1.1-.8-.6-.2-1.2-.5-1.2-1.2 0-.8.6-1.2 1.5-1.2.5 0 .9.1 1.3.3l-.2.5c-.4-.2-.8-.3-1.2-.3-.5 0-.9.2-.9.7 0 .5.5.6 1.1.8.6.2 1.3.5 1.3 1.3-.2.6-.9 1.1-1.7 1.1z"/></g><g><path class="st0" d="M249.4 37.7l-1.9 5.1h-.7l-1.9-5.1-.1 5.1h-.6l.2-5.9h.8l2 5.2 2-5.2h.8l.2 5.9h-.6l-.2-5.1zM253.4 43c-1.2 0-2.1-.9-2.1-2.3s.9-2.3 2.1-2.3 2.1.9 2.1 2.3c0 1.3-.9 2.3-2.1 2.3zm0-4.1c-.9 0-1.5.7-1.5 1.7 0 1.1.6 1.8 1.5 1.8s1.5-.7 1.5-1.7c0-1.1-.6-1.8-1.5-1.8zM257.3 42.8h-.6v-4.3l.6-.1v.9c.3-.6.7-.9 1.3-.9.3 0 .6.1.8.2l-.2.5c-.2-.1-.4-.2-.7-.2-.5 0-.9.3-1.2 1.1v2.8zM260.5 40.8c0 1 .6 1.7 1.5 1.7.5 0 .9-.1 1.2-.4l.1.5c-.4.2-.8.4-1.4.4-1.2 0-2.1-.9-2.1-2.2 0-1.4.9-2.3 2-2.3.9 0 1.6.6 1.6 1.6 0 .2 0 .5-.1.7h-2.8zm2.4-.6V40c0-.7-.4-1.1-1-1.1-.8 0-1.3.6-1.4 1.3h2.4zM268.8 43c-1.3 0-2.2-.9-2.2-2.3s1-2.3 2.2-2.3 2.2.9 2.2 2.3-1 2.3-2.2 2.3zm0-3.8c-.7 0-1.1.6-1.1 1.4 0 .8.4 1.4 1.1 1.4.7 0 1.1-.6 1.1-1.4 0-.8-.4-1.4-1.1-1.4zM273.2 38.5v2.6c0 .6.3.8.7.8.4 0 .7-.2.9-.4v-3.1h1.1v4.3l-1.1.2v-.6c-.4.4-.9.7-1.4.7-.8 0-1.4-.6-1.4-1.5v-3h1.2zM278.9 43c-1 0-1.5-.4-1.4-1.5l.1-2-.7-.1v-.7l.7-.2v-1h1.1v1h1.2v.9h-1.3l-.1 2c0 .4.2.6.6.6.2 0 .5-.1.7-.1l.2.9c-.4.1-.7.2-1.1.2zM283.1 38.4c1.1 0 1.9.9 1.9 2.3s-1 2.3-2.2 2.3c-.3 0-.6 0-.9-.1V45h-1.1v-6.4l1.1-.2v.5c.3-.3.7-.5 1.2-.5zm-1.2 3.4c.2.2.5.2.8.2.7 0 1.2-.6 1.2-1.4 0-.8-.4-1.4-1.1-1.4-.4 0-.6.1-.9.4v2.2zM288.4 42.3c-.3.4-.7.6-1.2.6-.8 0-1.3-.5-1.3-1.2 0-.8.6-1.5 2.6-1.5v-.1c0-.6-.2-.8-.9-.8-.4 0-1 .2-1.4.5l-.2-.9c.4-.3 1.1-.5 1.8-.5 1.3 0 1.9.6 1.8 1.8v1.6c0 .3.1.4.4.4l-.1.8c-.9 0-1.3-.2-1.5-.7zm0-1.5c-1.1.1-1.5.3-1.5.8 0 .3.3.6.6.6s.6-.2.8-.4v-1zM292.4 43c-1 0-1.5-.4-1.4-1.5l.1-2-.7-.1v-.7l.7-.2v-1h1.1v1h1.2v.9H292l-.1 2c0 .4.2.6.6.6.2 0 .5-.1.7-.1l.2.9c-.3.1-.6.2-1 .2zM294.9 37.7c-.4 0-.7-.3-.7-.7 0-.4.2-.7.7-.7.4 0 .7.3.7.7 0 .5-.3.7-.7.7zm-.6 5.1v-4.3l1.1-.2v4.5h-1.1zM297.6 40.9c0 .7.5 1.2 1.3 1.2.5 0 1-.2 1.4-.4l.1.9c-.4.2-1 .4-1.6.4-1.4 0-2.3-.9-2.3-2.3s.9-2.4 2.2-2.4c1.1 0 1.8.7 1.8 1.8 0 .2 0 .5-.1.7l-2.8.1zm1.9-.7c0-.7-.3-1-.8-1-.6 0-1 .5-1 1h1.8zM304.5 42.8v-2.6c0-.6-.3-.9-.8-.9-.4 0-.7.2-1 .4v3.1h-1.1v-4.3l1.1-.2v.7c.4-.4.9-.7 1.4-.7.9 0 1.4.6 1.4 1.5v3h-1zM308.4 43c-1 0-1.5-.4-1.4-1.5l.1-2-.7-.1v-.7l.7-.2v-1h1.1v1h1.2v.9h-1.3l-.1 2c0 .4.2.6.6.6.2 0 .5-.1.7-.1l.2.9c-.4.1-.7.2-1.1.2zM269.8 52.3h-1.2l-1.7-4.3h1.2l1.1 3.2 1-3.2h1.2l-1.6 4.3zM272.8 47.1c-.4 0-.7-.3-.7-.7 0-.4.2-.7.7-.7.4 0 .7.3.7.7 0 .5-.2.7-.7.7zm-.5 5.1v-4.3l1.1-.2v4.5h-1.1zM276.1 52.4c-.6 0-1.2-.2-1.7-.4l.2-.9c.4.2 1 .4 1.5.4.4 0 .7-.2.7-.5s-.4-.5-.9-.6c-.8-.2-1.5-.5-1.5-1.3s.7-1.4 1.7-1.4c.5 0 1.2.1 1.6.3l-.2.9c-.4-.2-1-.4-1.4-.4-.4 0-.6.2-.6.4 0 .3.4.4.9.6.8.2 1.5.5 1.5 1.4 0 .9-.7 1.5-1.8 1.5zM279.5 47.1c-.4 0-.7-.3-.7-.7 0-.4.2-.7.7-.7.4 0 .7.3.7.7 0 .5-.3.7-.7.7zm-.6 5.1v-4.3l1.1-.2v4.5h-1.1zM282.9 52.4c-1 0-1.5-.4-1.4-1.5l.1-2-.7-.1v-.7l.7-.2v-1h1.1v1h1.2v.9h-1.3l-.1 2c0 .4.2.6.6.6.2 0 .5-.1.7-.1l.2.9c-.4.1-.7.2-1.1.2zM286.4 52.4c-.6 0-1.2-.2-1.7-.4l.2-.9c.4.2 1 .4 1.5.4.4 0 .7-.2.7-.5s-.4-.5-.9-.6c-.8-.2-1.5-.5-1.5-1.3s.7-1.4 1.7-1.4c.5 0 1.2.1 1.6.3l-.2.9c-.4-.2-1-.4-1.4-.4-.4 0-.6.2-.6.4 0 .3.4.4.9.6.8.2 1.5.5 1.5 1.4 0 .9-.7 1.5-1.8 1.5z"/></g><path class="st1" d="M230.6 6.7h.3v60.5h-.3zM134.4 6.7h.3v60.5h-.3z"/><g><path class="st2" d="M46 31.5l-.1-3.2c5.5-5.2 7.9-7 7.9-9.6 0-1.3-1-2.4-2.5-2.4s-2.9.8-4.1 1.7l-1.4-3.3c1.6-1.2 3.9-2.2 6.3-2.2 4 0 6.2 2.4 6.2 5.4 0 3.2-2.4 5.6-7.4 9.8h7.8l.1 3.7H46zM63.5 32.1l-1-3.3c3.9-.7 6.7-2.7 7.5-5.5l-.1-.1c-1.1.9-2.5 1.7-4.3 1.7-2.8 0-5-2.2-5-5.6 0-3.8 2.4-6.8 6.8-6.8s6.9 3.5 6.9 8.2c0 5.7-3.9 10.4-10.8 11.4zm3.8-16.2c-1.5 0-2.5 1.2-2.5 3.1 0 1.7 1 2.8 2.5 2.8 1 0 2.1-.5 2.6-1 .1-.4.1-.8.1-1.2 0-2-.9-3.7-2.7-3.7zM78.8 20c-2.2 0-3.4-1.4-3.4-3.4s1.3-3.4 3.5-3.4 3.4 1.4 3.4 3.4S81 20 78.8 20zm.5 6.2H77l10.2-12.9h2.3L79.3 26.2zm-.5-11.5c-.9 0-1.4.7-1.4 1.9 0 1.1.6 1.8 1.4 1.8.8 0 1.4-.7 1.4-1.8 0-1.2-.5-1.9-1.4-1.9zm8.8 11.7c-2.2 0-3.4-1.4-3.4-3.4s1.3-3.4 3.5-3.4 3.4 1.4 3.4 3.4c-.1 2-1.4 3.4-3.5 3.4zm0-5.2c-.9 0-1.4.7-1.4 1.9s.6 1.9 1.4 1.9c.9 0 1.4-.7 1.4-1.9s-.5-1.9-1.4-1.9z"/></g><g><path class="st2" d="M162.6 31.5l-.1-3.2c5.5-5.2 7.9-7 7.9-9.6 0-1.3-1-2.4-2.5-2.4s-2.9.8-4.1 1.7l-1.4-3.3c1.6-1.2 3.9-2.2 6.3-2.2 4 0 6.2 2.4 6.2 5.4 0 3.2-2.4 5.6-7.4 9.8h7.8l.1 3.7h-12.8zM181.4 17.5l-4.2.9-.1-3.8 8.9-1.8v18.8h-4.6V17.5zM193.8 20c-2.2 0-3.4-1.4-3.4-3.4s1.3-3.4 3.5-3.4 3.4 1.4 3.4 3.4-1.3 3.4-3.5 3.4zm.5 6.2H192l10.2-12.9h2.3l-10.2 12.9zm-.5-11.5c-.9 0-1.4.7-1.4 1.9 0 1.1.6 1.8 1.4 1.8.8 0 1.4-.7 1.4-1.8.1-1.2-.5-1.9-1.4-1.9zm8.8 11.7c-2.2 0-3.4-1.4-3.4-3.4s1.3-3.4 3.5-3.4 3.4 1.4 3.4 3.4-1.3 3.4-3.5 3.4zm0-5.2c-.9 0-1.4.7-1.4 1.9s.6 1.9 1.4 1.9c.9 0 1.4-.7 1.4-1.9s-.5-1.9-1.4-1.9z"/></g><g><path class="st2" d="M269 20.1c4.1 0 6.5 2.2 6.5 5.5 0 3.7-2.5 6.4-7.2 6.4-1.7 0-4-.4-5.5-1.1l.4-3.7c1.2.7 3.2 1.3 4.9 1.3 1.8 0 3.2-.9 3.2-2.7 0-1.6-1.3-2.6-3.6-2.6-1.6 0-3 .3-3.9.7l-.6-.7 1.2-10.1h10.7l.1 3.7h-7.4l-.4 3.6c.4-.2 1-.3 1.6-.3zM280.6 20c-2.2 0-3.4-1.4-3.4-3.4s1.3-3.4 3.5-3.4 3.4 1.4 3.4 3.4-1.3 3.4-3.5 3.4zm.5 6.2h-2.3L289 13.4h2.3l-10.2 12.8zm-.5-11.5c-.9 0-1.4.7-1.4 1.9 0 1.1.6 1.8 1.4 1.8.8 0 1.4-.7 1.4-1.8 0-1.2-.5-1.9-1.4-1.9zm8.8 11.7c-2.2 0-3.4-1.4-3.4-3.4s1.3-3.4 3.5-3.4 3.4 1.4 3.4 3.4c-.1 2-1.4 3.4-3.5 3.4zm0-5.2c-.9 0-1.4.7-1.4 1.9s.6 1.9 1.4 1.9c.9 0 1.4-.7 1.4-1.9s-.5-1.9-1.4-1.9z"/></g></svg>